M48
;GenerationSoftware,Autodesk,EAGLE,9.3.0*%
;CreationDate,2019-07-14T12:44:07Z*%
FMAT,2
ICI,OFF
INCH,TZ,00.0000
T8C0.0400
T7C0.0591
T6C0.0630
T5C0.0669
T4C0.0709
T3C0.1201
T2C0.1575
T1C0.1614
%
G90
M72
T1
X4500Y30000
X30000Y30000
X13000Y21500
X30000Y21500
X4500Y13000
X30000Y13000
X4500Y21500
X13000Y30000
X13000Y13000
X21500Y30000
X21500Y21500
X21500Y13000
T2
X12700Y1250
X25000Y4500
X29700Y1250
X8000Y4500
X20300Y1250
X3300Y1250
T3
X29700Y7250
X20300Y7250
X3300Y7250
X12700Y7250
T4
X11000Y21500
X32000Y21500
X2500Y30000
X11000Y13000
X15000Y13000
X6500Y30000
X19500Y30000
X23500Y30000
X28000Y21500
X19500Y21500
X23500Y21500
X28000Y13000
X19500Y13000
X32000Y13000
X28000Y30000
X32000Y30000
X2500Y21500
X6500Y21500
X15000Y21500
X2500Y13000
X6500Y13000
X11000Y30000
X15000Y30000
X23500Y13000
T5
X23000Y4500
X27000Y4500
X6000Y4500
X10000Y4500
T6
X11500Y14000
X14000Y32000
X11500Y22500
X14000Y23500
X3000Y31000
X5500Y32000
X28500Y22500
X31000Y23500
X28500Y14000
X31000Y15000
X28500Y31000
X31000Y32000
X3000Y22500
X5500Y23500
X3000Y14000
X5500Y15000
X11500Y31000
X14000Y15000
X20000Y31000
X22500Y32000
X20000Y22500
X22500Y23500
X20000Y14000
X22500Y15000
T7
X23500Y5500
X26000Y6500
X6500Y5500
X9000Y6500
T8
X18500Y36000
X17500Y36000
X16500Y36000
X15500Y36000
X36500Y16000
X36500Y17000
X36500Y18000
X36500Y19000
X36500Y2000
X36500Y3000
X36500Y4000
X36500Y5000
M30