G04 EAGLE Gerber RS-274X export*
G75*
%MOIN*%
%FSLAX36Y36*%
%LPD*%
%INBottom Copper Layer*%
%IPPOS*%
%AMOC8*
5,1,8,0,0,1.08239X$1,22.5*%
G01*
%ADD10R,0.029528X0.039370*%
%ADD11R,0.043307X0.039370*%
%ADD12C,0.060000*%
%ADD13R,0.094488X0.094488*%
%ADD14R,0.088583X0.088583*%
%ADD15C,0.012000*%

G36*
X233112Y47046D02*
X233112Y47046D01*
X233394Y47054D01*
X233587Y47124D01*
X233790Y47157D01*
X234039Y47289D01*
X234304Y47386D01*
X234465Y47514D01*
X234646Y47610D01*
X234840Y47815D01*
X235061Y47991D01*
X235172Y48164D01*
X235313Y48313D01*
X235432Y48568D01*
X235585Y48806D01*
X235635Y49005D01*
X235722Y49191D01*
X235753Y49471D01*
X235822Y49745D01*
X235806Y49950D01*
X235829Y50154D01*
X235769Y50430D01*
X235747Y50711D01*
X235667Y50900D01*
X235624Y51100D01*
X235479Y51343D01*
X235369Y51603D01*
X235193Y51823D01*
X235127Y51932D01*
X235056Y51993D01*
X234999Y52065D01*
X219351Y79168D01*
X211259Y109367D01*
X211259Y140633D01*
X219351Y170832D01*
X234984Y197908D01*
X257091Y220016D01*
X284168Y235649D01*
X314367Y243741D01*
X345633Y243741D01*
X375832Y235649D01*
X402908Y220016D01*
X425016Y197908D01*
X440649Y170832D01*
X448741Y140633D01*
X448741Y109367D01*
X440649Y79168D01*
X424983Y52033D01*
X424881Y51892D01*
X424687Y51688D01*
X424600Y51501D01*
X424480Y51335D01*
X424397Y51065D01*
X424278Y50809D01*
X424256Y50605D01*
X424195Y50409D01*
X424202Y50127D01*
X424171Y49846D01*
X424215Y49646D01*
X424220Y49441D01*
X424316Y49176D01*
X424376Y48900D01*
X424481Y48723D01*
X424552Y48531D01*
X424728Y48310D01*
X424873Y48068D01*
X425029Y47934D01*
X425156Y47774D01*
X425394Y47621D01*
X425608Y47437D01*
X425798Y47360D01*
X425971Y47249D01*
X426245Y47180D01*
X426506Y47074D01*
X426786Y47043D01*
X426910Y47012D01*
X427004Y47019D01*
X427166Y47001D01*
X1172834Y47001D01*
X1173112Y47046D01*
X1173394Y47054D01*
X1173587Y47124D01*
X1173790Y47157D01*
X1174039Y47289D01*
X1174304Y47386D01*
X1174465Y47514D01*
X1174646Y47610D01*
X1174840Y47815D01*
X1175061Y47991D01*
X1175172Y48164D01*
X1175313Y48313D01*
X1175432Y48568D01*
X1175585Y48806D01*
X1175635Y49005D01*
X1175722Y49191D01*
X1175753Y49471D01*
X1175822Y49745D01*
X1175806Y49950D01*
X1175829Y50154D01*
X1175769Y50430D01*
X1175747Y50711D01*
X1175667Y50900D01*
X1175624Y51100D01*
X1175479Y51343D01*
X1175369Y51603D01*
X1175193Y51823D01*
X1175127Y51932D01*
X1175056Y51993D01*
X1174999Y52065D01*
X1159351Y79168D01*
X1151259Y109367D01*
X1151259Y140633D01*
X1159351Y170832D01*
X1174984Y197908D01*
X1197091Y220016D01*
X1224168Y235649D01*
X1254367Y243741D01*
X1285633Y243741D01*
X1315832Y235649D01*
X1342908Y220016D01*
X1365016Y197908D01*
X1380649Y170832D01*
X1388741Y140633D01*
X1388741Y109367D01*
X1380649Y79168D01*
X1364983Y52033D01*
X1364881Y51892D01*
X1364687Y51688D01*
X1364600Y51501D01*
X1364480Y51335D01*
X1364397Y51065D01*
X1364278Y50809D01*
X1364256Y50605D01*
X1364195Y50409D01*
X1364202Y50127D01*
X1364171Y49846D01*
X1364215Y49646D01*
X1364220Y49441D01*
X1364316Y49176D01*
X1364376Y48900D01*
X1364481Y48723D01*
X1364552Y48531D01*
X1364728Y48310D01*
X1364873Y48068D01*
X1365029Y47934D01*
X1365156Y47774D01*
X1365394Y47621D01*
X1365608Y47437D01*
X1365798Y47360D01*
X1365971Y47249D01*
X1366245Y47180D01*
X1366506Y47074D01*
X1366786Y47043D01*
X1366910Y47012D01*
X1367004Y47019D01*
X1367166Y47001D01*
X1932834Y47001D01*
X1933112Y47046D01*
X1933394Y47054D01*
X1933587Y47124D01*
X1933790Y47157D01*
X1934039Y47289D01*
X1934304Y47386D01*
X1934465Y47514D01*
X1934646Y47610D01*
X1934840Y47815D01*
X1935061Y47991D01*
X1935172Y48164D01*
X1935313Y48313D01*
X1935432Y48568D01*
X1935585Y48806D01*
X1935635Y49005D01*
X1935722Y49191D01*
X1935753Y49471D01*
X1935822Y49745D01*
X1935806Y49950D01*
X1935829Y50154D01*
X1935769Y50430D01*
X1935747Y50711D01*
X1935667Y50900D01*
X1935624Y51100D01*
X1935479Y51343D01*
X1935369Y51603D01*
X1935193Y51823D01*
X1935127Y51932D01*
X1935056Y51993D01*
X1934999Y52065D01*
X1919351Y79168D01*
X1911259Y109367D01*
X1911259Y140633D01*
X1919351Y170832D01*
X1934984Y197908D01*
X1957091Y220016D01*
X1984168Y235649D01*
X2014367Y243741D01*
X2045633Y243741D01*
X2075832Y235649D01*
X2102908Y220016D01*
X2125016Y197908D01*
X2140649Y170832D01*
X2148741Y140633D01*
X2148741Y109367D01*
X2140649Y79168D01*
X2124983Y52033D01*
X2124881Y51892D01*
X2124687Y51688D01*
X2124600Y51501D01*
X2124480Y51335D01*
X2124397Y51065D01*
X2124278Y50809D01*
X2124256Y50605D01*
X2124195Y50409D01*
X2124202Y50127D01*
X2124171Y49846D01*
X2124215Y49646D01*
X2124220Y49441D01*
X2124316Y49176D01*
X2124376Y48900D01*
X2124481Y48723D01*
X2124552Y48531D01*
X2124728Y48310D01*
X2124873Y48068D01*
X2125029Y47934D01*
X2125156Y47774D01*
X2125394Y47621D01*
X2125608Y47437D01*
X2125798Y47360D01*
X2125971Y47249D01*
X2126245Y47180D01*
X2126506Y47074D01*
X2126786Y47043D01*
X2126910Y47012D01*
X2127004Y47019D01*
X2127166Y47001D01*
X2872834Y47001D01*
X2873112Y47046D01*
X2873394Y47054D01*
X2873587Y47124D01*
X2873790Y47157D01*
X2874039Y47289D01*
X2874304Y47386D01*
X2874465Y47514D01*
X2874646Y47610D01*
X2874840Y47815D01*
X2875061Y47991D01*
X2875172Y48164D01*
X2875313Y48313D01*
X2875432Y48568D01*
X2875585Y48806D01*
X2875635Y49005D01*
X2875722Y49191D01*
X2875753Y49471D01*
X2875822Y49745D01*
X2875806Y49950D01*
X2875829Y50154D01*
X2875769Y50430D01*
X2875747Y50711D01*
X2875667Y50900D01*
X2875624Y51100D01*
X2875479Y51343D01*
X2875369Y51603D01*
X2875193Y51823D01*
X2875127Y51932D01*
X2875056Y51993D01*
X2874999Y52065D01*
X2859351Y79168D01*
X2851259Y109367D01*
X2851259Y140633D01*
X2859351Y170832D01*
X2874984Y197908D01*
X2897091Y220016D01*
X2924168Y235649D01*
X2954367Y243741D01*
X2985633Y243741D01*
X3015832Y235649D01*
X3042908Y220016D01*
X3065016Y197908D01*
X3080649Y170832D01*
X3088741Y140633D01*
X3088741Y109367D01*
X3080649Y79168D01*
X3064983Y52033D01*
X3064881Y51892D01*
X3064687Y51688D01*
X3064600Y51501D01*
X3064480Y51335D01*
X3064397Y51065D01*
X3064278Y50809D01*
X3064256Y50605D01*
X3064195Y50409D01*
X3064202Y50127D01*
X3064171Y49846D01*
X3064215Y49646D01*
X3064220Y49441D01*
X3064316Y49176D01*
X3064376Y48900D01*
X3064481Y48723D01*
X3064552Y48531D01*
X3064728Y48310D01*
X3064873Y48068D01*
X3065029Y47934D01*
X3065156Y47774D01*
X3065394Y47621D01*
X3065608Y47437D01*
X3065798Y47360D01*
X3065971Y47249D01*
X3066245Y47180D01*
X3066506Y47074D01*
X3066786Y47043D01*
X3066910Y47012D01*
X3067004Y47019D01*
X3067166Y47001D01*
X3750000Y47001D01*
X3750077Y47013D01*
X3750154Y47005D01*
X3750553Y47091D01*
X3750956Y47157D01*
X3751024Y47193D01*
X3751100Y47210D01*
X3751452Y47419D01*
X3751812Y47610D01*
X3751866Y47666D01*
X3751932Y47706D01*
X3752198Y48016D01*
X3752480Y48313D01*
X3752512Y48383D01*
X3752563Y48442D01*
X3752716Y48820D01*
X3752888Y49191D01*
X3752897Y49268D01*
X3752926Y49340D01*
X3752999Y50000D01*
X3752999Y3694008D01*
X3752987Y3694084D01*
X3752995Y3694162D01*
X3752909Y3694561D01*
X3752843Y3694964D01*
X3752807Y3695032D01*
X3752790Y3695108D01*
X3752581Y3695460D01*
X3752390Y3695820D01*
X3752334Y3695874D01*
X3752294Y3695940D01*
X3751984Y3696206D01*
X3751688Y3696487D01*
X3751617Y3696520D01*
X3751558Y3696571D01*
X3751180Y3696724D01*
X3750809Y3696896D01*
X3750732Y3696905D01*
X3750660Y3696934D01*
X3750000Y3697007D01*
X50000Y3697007D01*
X49923Y3696995D01*
X49846Y3697003D01*
X49447Y3696917D01*
X49044Y3696851D01*
X48976Y3696814D01*
X48900Y3696798D01*
X48548Y3696588D01*
X48188Y3696398D01*
X48134Y3696341D01*
X48068Y3696302D01*
X47802Y3695992D01*
X47520Y3695695D01*
X47488Y3695625D01*
X47437Y3695566D01*
X47284Y3695188D01*
X47112Y3694817D01*
X47103Y3694740D01*
X47074Y3694668D01*
X47001Y3694008D01*
X47001Y50000D01*
X47013Y49923D01*
X47005Y49846D01*
X47091Y49447D01*
X47157Y49044D01*
X47193Y48976D01*
X47210Y48900D01*
X47419Y48548D01*
X47610Y48188D01*
X47666Y48134D01*
X47706Y48068D01*
X48016Y47802D01*
X48313Y47520D01*
X48383Y47488D01*
X48442Y47437D01*
X48820Y47284D01*
X49191Y47112D01*
X49268Y47103D01*
X49340Y47074D01*
X50000Y47001D01*
X232834Y47001D01*
X233112Y47046D01*
G37*
%LPC*%
G36*
X3612839Y1863999D02*
X3612839Y1863999D01*
X3599607Y1869480D01*
X3589480Y1879607D01*
X3583999Y1892839D01*
X3583999Y1907161D01*
X3589480Y1920393D01*
X3599607Y1930520D01*
X3612839Y1936001D01*
X3635000Y1936001D01*
X3635077Y1936013D01*
X3635154Y1936005D01*
X3635553Y1936091D01*
X3635956Y1936157D01*
X3636024Y1936193D01*
X3636100Y1936210D01*
X3636452Y1936419D01*
X3636812Y1936610D01*
X3636866Y1936666D01*
X3636932Y1936706D01*
X3637198Y1937016D01*
X3637480Y1937312D01*
X3637512Y1937383D01*
X3637563Y1937442D01*
X3637716Y1937820D01*
X3637888Y1938191D01*
X3637897Y1938268D01*
X3637926Y1938340D01*
X3637999Y1939000D01*
X3637999Y3293787D01*
X3637941Y3294141D01*
X3637914Y3294497D01*
X3637864Y3294615D01*
X3637843Y3294743D01*
X3637675Y3295059D01*
X3637536Y3295389D01*
X3637433Y3295517D01*
X3637390Y3295599D01*
X3637297Y3295687D01*
X3637121Y3295907D01*
X3512443Y3420585D01*
X3512152Y3420794D01*
X3511880Y3421027D01*
X3511761Y3421076D01*
X3511656Y3421151D01*
X3511314Y3421256D01*
X3510982Y3421390D01*
X3510820Y3421408D01*
X3510730Y3421436D01*
X3510602Y3421433D01*
X3510322Y3421464D01*
X3480653Y3421464D01*
X3480577Y3421451D01*
X3480500Y3421460D01*
X3480100Y3421373D01*
X3479697Y3421307D01*
X3479629Y3421271D01*
X3479553Y3421255D01*
X3479202Y3421045D01*
X3478841Y3420854D01*
X3478788Y3420798D01*
X3478721Y3420758D01*
X3478456Y3420449D01*
X3478174Y3420152D01*
X3478141Y3420082D01*
X3478091Y3420023D01*
X3477938Y3419644D01*
X3477765Y3419274D01*
X3477757Y3419196D01*
X3477728Y3419125D01*
X3477654Y3418465D01*
X3477654Y3411294D01*
X3474139Y3407779D01*
X3425861Y3407779D01*
X3422346Y3411294D01*
X3422346Y3414000D01*
X3422333Y3414077D01*
X3422342Y3414154D01*
X3422255Y3414553D01*
X3422189Y3414956D01*
X3422153Y3415024D01*
X3422137Y3415100D01*
X3421927Y3415452D01*
X3421736Y3415812D01*
X3421680Y3415866D01*
X3421640Y3415932D01*
X3421330Y3416198D01*
X3421034Y3416480D01*
X3420963Y3416512D01*
X3420905Y3416563D01*
X3420526Y3416716D01*
X3420156Y3416888D01*
X3420078Y3416897D01*
X3420007Y3416926D01*
X3419346Y3416999D01*
X3417213Y3416999D01*
X3416859Y3416941D01*
X3416503Y3416914D01*
X3416384Y3416864D01*
X3416257Y3416843D01*
X3415941Y3416675D01*
X3415611Y3416536D01*
X3415483Y3416433D01*
X3415401Y3416390D01*
X3415313Y3416297D01*
X3415092Y3416121D01*
X3406971Y3407999D01*
X2973764Y3407999D01*
X2973687Y3407987D01*
X2973610Y3407995D01*
X2973210Y3407909D01*
X2972808Y3407843D01*
X2972739Y3407807D01*
X2972663Y3407790D01*
X2972312Y3407581D01*
X2971951Y3407390D01*
X2971898Y3407334D01*
X2971831Y3407294D01*
X2971566Y3406984D01*
X2971284Y3406688D01*
X2971251Y3406617D01*
X2971201Y3406558D01*
X2971048Y3406180D01*
X2970876Y3405809D01*
X2970867Y3405732D01*
X2970838Y3405660D01*
X2970764Y3405000D01*
X2970764Y3398695D01*
X2967249Y3395180D01*
X2932751Y3395180D01*
X2929235Y3398695D01*
X2929235Y3405000D01*
X2929223Y3405077D01*
X2929232Y3405154D01*
X2929145Y3405553D01*
X2929079Y3405956D01*
X2929043Y3406024D01*
X2929026Y3406100D01*
X2928817Y3406452D01*
X2928626Y3406812D01*
X2928570Y3406866D01*
X2928530Y3406932D01*
X2928220Y3407198D01*
X2927924Y3407480D01*
X2927853Y3407512D01*
X2927794Y3407563D01*
X2927416Y3407716D01*
X2927045Y3407888D01*
X2926968Y3407897D01*
X2926896Y3407926D01*
X2926236Y3407999D01*
X2123764Y3407999D01*
X2123687Y3407987D01*
X2123610Y3407995D01*
X2123210Y3407909D01*
X2122808Y3407843D01*
X2122739Y3407807D01*
X2122663Y3407790D01*
X2122312Y3407581D01*
X2121951Y3407390D01*
X2121898Y3407334D01*
X2121831Y3407294D01*
X2121566Y3406984D01*
X2121284Y3406688D01*
X2121251Y3406617D01*
X2121201Y3406558D01*
X2121048Y3406180D01*
X2120876Y3405809D01*
X2120867Y3405732D01*
X2120838Y3405660D01*
X2120764Y3405000D01*
X2120764Y3398695D01*
X2117249Y3395180D01*
X2082751Y3395180D01*
X2079235Y3398695D01*
X2079235Y3405000D01*
X2079223Y3405077D01*
X2079232Y3405154D01*
X2079145Y3405553D01*
X2079079Y3405956D01*
X2079043Y3406024D01*
X2079026Y3406100D01*
X2078817Y3406452D01*
X2078626Y3406812D01*
X2078570Y3406866D01*
X2078530Y3406932D01*
X2078220Y3407198D01*
X2077924Y3407480D01*
X2077853Y3407512D01*
X2077794Y3407563D01*
X2077416Y3407716D01*
X2077045Y3407888D01*
X2076968Y3407897D01*
X2076896Y3407926D01*
X2076236Y3407999D01*
X1273764Y3407999D01*
X1273687Y3407987D01*
X1273610Y3407995D01*
X1273210Y3407909D01*
X1272808Y3407843D01*
X1272739Y3407807D01*
X1272663Y3407790D01*
X1272312Y3407581D01*
X1271951Y3407390D01*
X1271898Y3407334D01*
X1271831Y3407294D01*
X1271566Y3406984D01*
X1271284Y3406688D01*
X1271251Y3406617D01*
X1271201Y3406558D01*
X1271048Y3406180D01*
X1270876Y3405809D01*
X1270867Y3405732D01*
X1270838Y3405660D01*
X1270764Y3405000D01*
X1270764Y3398695D01*
X1267249Y3395180D01*
X1232751Y3395180D01*
X1229235Y3398695D01*
X1229235Y3405000D01*
X1229223Y3405077D01*
X1229232Y3405154D01*
X1229145Y3405553D01*
X1229079Y3405956D01*
X1229043Y3406024D01*
X1229026Y3406100D01*
X1228817Y3406452D01*
X1228626Y3406812D01*
X1228570Y3406866D01*
X1228530Y3406932D01*
X1228220Y3407198D01*
X1227924Y3407480D01*
X1227853Y3407512D01*
X1227794Y3407563D01*
X1227416Y3407716D01*
X1227045Y3407888D01*
X1226968Y3407897D01*
X1226896Y3407926D01*
X1226236Y3407999D01*
X423764Y3407999D01*
X423687Y3407987D01*
X423610Y3407995D01*
X423210Y3407909D01*
X422808Y3407843D01*
X422739Y3407807D01*
X422663Y3407790D01*
X422312Y3407581D01*
X421951Y3407390D01*
X421898Y3407334D01*
X421831Y3407294D01*
X421566Y3406984D01*
X421284Y3406688D01*
X421251Y3406617D01*
X421201Y3406558D01*
X421048Y3406180D01*
X420876Y3405809D01*
X420867Y3405732D01*
X420838Y3405660D01*
X420764Y3405000D01*
X420764Y3398695D01*
X417249Y3395180D01*
X382751Y3395180D01*
X379235Y3398695D01*
X379235Y3443037D01*
X382751Y3446552D01*
X417249Y3446552D01*
X420764Y3443037D01*
X420764Y3435000D01*
X420777Y3434923D01*
X420768Y3434846D01*
X420855Y3434446D01*
X420921Y3434044D01*
X420957Y3433975D01*
X420974Y3433899D01*
X421183Y3433548D01*
X421374Y3433188D01*
X421430Y3433134D01*
X421470Y3433068D01*
X421780Y3432802D01*
X422076Y3432520D01*
X422147Y3432487D01*
X422205Y3432437D01*
X422584Y3432284D01*
X422955Y3432112D01*
X423032Y3432103D01*
X423104Y3432074D01*
X423764Y3432001D01*
X1226236Y3432001D01*
X1226313Y3432013D01*
X1226390Y3432005D01*
X1226790Y3432091D01*
X1227192Y3432157D01*
X1227261Y3432193D01*
X1227337Y3432210D01*
X1227688Y3432419D01*
X1228048Y3432610D01*
X1228102Y3432666D01*
X1228169Y3432706D01*
X1228434Y3433016D01*
X1228716Y3433312D01*
X1228749Y3433383D01*
X1228799Y3433442D01*
X1228952Y3433820D01*
X1229124Y3434191D01*
X1229133Y3434268D01*
X1229162Y3434340D01*
X1229235Y3435000D01*
X1229235Y3443037D01*
X1232751Y3446552D01*
X1267249Y3446552D01*
X1270764Y3443037D01*
X1270764Y3435000D01*
X1270777Y3434923D01*
X1270768Y3434846D01*
X1270855Y3434446D01*
X1270921Y3434044D01*
X1270957Y3433975D01*
X1270974Y3433899D01*
X1271183Y3433548D01*
X1271374Y3433188D01*
X1271430Y3433134D01*
X1271470Y3433068D01*
X1271780Y3432802D01*
X1272076Y3432520D01*
X1272147Y3432487D01*
X1272205Y3432437D01*
X1272584Y3432284D01*
X1272955Y3432112D01*
X1273032Y3432103D01*
X1273104Y3432074D01*
X1273764Y3432001D01*
X2076236Y3432001D01*
X2076313Y3432013D01*
X2076390Y3432005D01*
X2076790Y3432091D01*
X2077192Y3432157D01*
X2077261Y3432193D01*
X2077337Y3432210D01*
X2077688Y3432419D01*
X2078048Y3432610D01*
X2078102Y3432666D01*
X2078169Y3432706D01*
X2078434Y3433016D01*
X2078716Y3433312D01*
X2078749Y3433383D01*
X2078799Y3433442D01*
X2078952Y3433820D01*
X2079124Y3434191D01*
X2079133Y3434268D01*
X2079162Y3434340D01*
X2079235Y3435000D01*
X2079235Y3443037D01*
X2082751Y3446552D01*
X2117249Y3446552D01*
X2120764Y3443037D01*
X2120764Y3435000D01*
X2120777Y3434923D01*
X2120768Y3434846D01*
X2120855Y3434446D01*
X2120921Y3434044D01*
X2120957Y3433975D01*
X2120974Y3433899D01*
X2121183Y3433548D01*
X2121374Y3433188D01*
X2121430Y3433134D01*
X2121470Y3433068D01*
X2121780Y3432802D01*
X2122076Y3432520D01*
X2122147Y3432487D01*
X2122205Y3432437D01*
X2122584Y3432284D01*
X2122955Y3432112D01*
X2123032Y3432103D01*
X2123104Y3432074D01*
X2123764Y3432001D01*
X2926236Y3432001D01*
X2926313Y3432013D01*
X2926390Y3432005D01*
X2926790Y3432091D01*
X2927192Y3432157D01*
X2927261Y3432193D01*
X2927337Y3432210D01*
X2927688Y3432419D01*
X2928048Y3432610D01*
X2928102Y3432666D01*
X2928169Y3432706D01*
X2928434Y3433016D01*
X2928716Y3433312D01*
X2928749Y3433383D01*
X2928799Y3433442D01*
X2928952Y3433820D01*
X2929124Y3434191D01*
X2929133Y3434268D01*
X2929162Y3434340D01*
X2929235Y3435000D01*
X2929235Y3443037D01*
X2932751Y3446552D01*
X2967249Y3446552D01*
X2970764Y3443037D01*
X2970764Y3435000D01*
X2970777Y3434923D01*
X2970768Y3434846D01*
X2970855Y3434446D01*
X2970921Y3434044D01*
X2970957Y3433975D01*
X2970974Y3433899D01*
X2971183Y3433548D01*
X2971374Y3433188D01*
X2971430Y3433134D01*
X2971470Y3433068D01*
X2971780Y3432802D01*
X2972076Y3432520D01*
X2972147Y3432487D01*
X2972205Y3432437D01*
X2972584Y3432284D01*
X2972955Y3432112D01*
X2973032Y3432103D01*
X2973104Y3432074D01*
X2973764Y3432001D01*
X3395787Y3432001D01*
X3396141Y3432059D01*
X3396497Y3432086D01*
X3396615Y3432136D01*
X3396743Y3432157D01*
X3397059Y3432324D01*
X3397389Y3432464D01*
X3397517Y3432567D01*
X3397599Y3432610D01*
X3397687Y3432703D01*
X3397907Y3432879D01*
X3406029Y3441001D01*
X3419346Y3441001D01*
X3419423Y3441013D01*
X3419500Y3441005D01*
X3419900Y3441091D01*
X3420303Y3441157D01*
X3420371Y3441193D01*
X3420447Y3441210D01*
X3420798Y3441419D01*
X3421159Y3441610D01*
X3421212Y3441666D01*
X3421279Y3441706D01*
X3421544Y3442016D01*
X3421826Y3442312D01*
X3421859Y3442383D01*
X3421909Y3442442D01*
X3422062Y3442820D01*
X3422234Y3443191D01*
X3422243Y3443268D01*
X3422272Y3443340D01*
X3422346Y3444000D01*
X3422346Y3455635D01*
X3425861Y3459150D01*
X3474139Y3459150D01*
X3477654Y3455635D01*
X3477654Y3448464D01*
X3477667Y3448388D01*
X3477658Y3448311D01*
X3477745Y3447911D01*
X3477811Y3447508D01*
X3477847Y3447440D01*
X3477863Y3447364D01*
X3478073Y3447013D01*
X3478264Y3446652D01*
X3478320Y3446599D01*
X3478360Y3446532D01*
X3478669Y3446267D01*
X3478966Y3445985D01*
X3479036Y3445952D01*
X3479095Y3445902D01*
X3479474Y3445749D01*
X3479844Y3445576D01*
X3479922Y3445568D01*
X3479993Y3445539D01*
X3480653Y3445465D01*
X3521506Y3445465D01*
X3662001Y3304971D01*
X3662001Y1939000D01*
X3662013Y1938923D01*
X3662005Y1938846D01*
X3662091Y1938446D01*
X3662157Y1938044D01*
X3662193Y1937975D01*
X3662210Y1937899D01*
X3662419Y1937548D01*
X3662610Y1937188D01*
X3662666Y1937134D01*
X3662706Y1937068D01*
X3663016Y1936802D01*
X3663312Y1936520D01*
X3663383Y1936487D01*
X3663442Y1936437D01*
X3663820Y1936284D01*
X3664191Y1936112D01*
X3664268Y1936103D01*
X3664340Y1936074D01*
X3665000Y1936001D01*
X3687161Y1936001D01*
X3700393Y1930520D01*
X3710520Y1920393D01*
X3716001Y1907161D01*
X3716001Y1892839D01*
X3710520Y1879607D01*
X3700393Y1869480D01*
X3687161Y1863999D01*
X3612839Y1863999D01*
G37*
%LPD*%
%LPC*%
G36*
X3612839Y1763999D02*
X3612839Y1763999D01*
X3599607Y1769480D01*
X3589480Y1779607D01*
X3583999Y1792839D01*
X3583999Y1806787D01*
X3583941Y1807141D01*
X3583914Y1807497D01*
X3583864Y1807616D01*
X3583843Y1807743D01*
X3583675Y1808059D01*
X3583536Y1808389D01*
X3583433Y1808517D01*
X3583390Y1808599D01*
X3583297Y1808687D01*
X3583121Y1808908D01*
X3451907Y1940121D01*
X3443999Y1948029D01*
X3443999Y2487850D01*
X3443987Y2487927D01*
X3443995Y2488004D01*
X3443909Y2488404D01*
X3443843Y2488806D01*
X3443807Y2488875D01*
X3443790Y2488951D01*
X3443581Y2489302D01*
X3443390Y2489663D01*
X3443334Y2489716D01*
X3443294Y2489783D01*
X3442984Y2490048D01*
X3442688Y2490330D01*
X3442617Y2490363D01*
X3442558Y2490413D01*
X3442180Y2490566D01*
X3441809Y2490738D01*
X3441732Y2490747D01*
X3441660Y2490776D01*
X3441000Y2490850D01*
X3425861Y2490850D01*
X3422346Y2494365D01*
X3422346Y2505000D01*
X3422333Y2505077D01*
X3422342Y2505154D01*
X3422255Y2505553D01*
X3422189Y2505956D01*
X3422153Y2506024D01*
X3422137Y2506100D01*
X3421927Y2506452D01*
X3421736Y2506812D01*
X3421680Y2506866D01*
X3421640Y2506932D01*
X3421330Y2507198D01*
X3421034Y2507480D01*
X3420963Y2507512D01*
X3420905Y2507563D01*
X3420526Y2507716D01*
X3420156Y2507888D01*
X3420078Y2507897D01*
X3420007Y2507926D01*
X3419346Y2507999D01*
X3406029Y2507999D01*
X3352907Y2561121D01*
X3352617Y2561330D01*
X3352345Y2561563D01*
X3352225Y2561611D01*
X3352121Y2561686D01*
X3351779Y2561791D01*
X3351447Y2561926D01*
X3351284Y2561944D01*
X3351195Y2561971D01*
X3351067Y2561968D01*
X3350787Y2561999D01*
X2973764Y2561999D01*
X2973687Y2561987D01*
X2973610Y2561995D01*
X2973210Y2561909D01*
X2972808Y2561843D01*
X2972739Y2561807D01*
X2972663Y2561790D01*
X2972312Y2561581D01*
X2971951Y2561390D01*
X2971898Y2561334D01*
X2971831Y2561294D01*
X2971566Y2560984D01*
X2971284Y2560688D01*
X2971251Y2560617D01*
X2971201Y2560558D01*
X2971048Y2560180D01*
X2970876Y2559809D01*
X2970867Y2559732D01*
X2970838Y2559660D01*
X2970764Y2559000D01*
X2970764Y2548695D01*
X2967249Y2545180D01*
X2932751Y2545180D01*
X2929235Y2548695D01*
X2929235Y2559000D01*
X2929223Y2559077D01*
X2929232Y2559154D01*
X2929145Y2559553D01*
X2929079Y2559956D01*
X2929043Y2560024D01*
X2929026Y2560100D01*
X2928817Y2560452D01*
X2928626Y2560812D01*
X2928570Y2560866D01*
X2928530Y2560932D01*
X2928220Y2561198D01*
X2927924Y2561480D01*
X2927853Y2561512D01*
X2927794Y2561563D01*
X2927416Y2561716D01*
X2927045Y2561888D01*
X2926968Y2561897D01*
X2926896Y2561926D01*
X2926236Y2561999D01*
X2123764Y2561999D01*
X2123687Y2561987D01*
X2123610Y2561995D01*
X2123210Y2561909D01*
X2122808Y2561843D01*
X2122739Y2561807D01*
X2122663Y2561790D01*
X2122312Y2561581D01*
X2121951Y2561390D01*
X2121898Y2561334D01*
X2121831Y2561294D01*
X2121566Y2560984D01*
X2121284Y2560688D01*
X2121251Y2560617D01*
X2121201Y2560558D01*
X2121048Y2560180D01*
X2120876Y2559809D01*
X2120867Y2559732D01*
X2120838Y2559660D01*
X2120764Y2559000D01*
X2120764Y2548695D01*
X2117249Y2545180D01*
X2082751Y2545180D01*
X2079235Y2548695D01*
X2079235Y2559000D01*
X2079223Y2559077D01*
X2079232Y2559154D01*
X2079145Y2559553D01*
X2079079Y2559956D01*
X2079043Y2560024D01*
X2079026Y2560100D01*
X2078817Y2560452D01*
X2078626Y2560812D01*
X2078570Y2560866D01*
X2078530Y2560932D01*
X2078220Y2561198D01*
X2077924Y2561480D01*
X2077853Y2561512D01*
X2077794Y2561563D01*
X2077416Y2561716D01*
X2077045Y2561888D01*
X2076968Y2561897D01*
X2076896Y2561926D01*
X2076236Y2561999D01*
X1273764Y2561999D01*
X1273687Y2561987D01*
X1273610Y2561995D01*
X1273210Y2561909D01*
X1272808Y2561843D01*
X1272739Y2561807D01*
X1272663Y2561790D01*
X1272312Y2561581D01*
X1271951Y2561390D01*
X1271898Y2561334D01*
X1271831Y2561294D01*
X1271566Y2560984D01*
X1271284Y2560688D01*
X1271251Y2560617D01*
X1271201Y2560558D01*
X1271048Y2560180D01*
X1270876Y2559809D01*
X1270867Y2559732D01*
X1270838Y2559660D01*
X1270764Y2559000D01*
X1270764Y2548695D01*
X1267249Y2545180D01*
X1232751Y2545180D01*
X1229235Y2548695D01*
X1229235Y2559000D01*
X1229223Y2559077D01*
X1229232Y2559154D01*
X1229145Y2559553D01*
X1229079Y2559956D01*
X1229043Y2560024D01*
X1229026Y2560100D01*
X1228817Y2560452D01*
X1228626Y2560812D01*
X1228570Y2560866D01*
X1228530Y2560932D01*
X1228220Y2561198D01*
X1227924Y2561480D01*
X1227853Y2561512D01*
X1227794Y2561563D01*
X1227416Y2561716D01*
X1227045Y2561888D01*
X1226968Y2561897D01*
X1226896Y2561926D01*
X1226236Y2561999D01*
X423764Y2561999D01*
X423687Y2561987D01*
X423610Y2561995D01*
X423210Y2561909D01*
X422808Y2561843D01*
X422739Y2561807D01*
X422663Y2561790D01*
X422312Y2561581D01*
X421951Y2561390D01*
X421898Y2561334D01*
X421831Y2561294D01*
X421566Y2560984D01*
X421284Y2560688D01*
X421251Y2560617D01*
X421201Y2560558D01*
X421048Y2560180D01*
X420876Y2559809D01*
X420867Y2559732D01*
X420838Y2559660D01*
X420764Y2559000D01*
X420764Y2548695D01*
X417249Y2545180D01*
X382751Y2545180D01*
X379235Y2548695D01*
X379235Y2593037D01*
X382751Y2596552D01*
X417249Y2596552D01*
X420764Y2593037D01*
X420764Y2589000D01*
X420777Y2588923D01*
X420768Y2588846D01*
X420855Y2588446D01*
X420921Y2588044D01*
X420957Y2587975D01*
X420974Y2587899D01*
X421183Y2587548D01*
X421374Y2587188D01*
X421430Y2587134D01*
X421470Y2587068D01*
X421780Y2586802D01*
X422076Y2586520D01*
X422147Y2586487D01*
X422205Y2586437D01*
X422584Y2586284D01*
X422955Y2586112D01*
X423032Y2586103D01*
X423104Y2586074D01*
X423764Y2586001D01*
X1226236Y2586001D01*
X1226313Y2586013D01*
X1226390Y2586005D01*
X1226790Y2586091D01*
X1227192Y2586157D01*
X1227261Y2586193D01*
X1227337Y2586210D01*
X1227688Y2586419D01*
X1228048Y2586610D01*
X1228102Y2586666D01*
X1228169Y2586706D01*
X1228434Y2587016D01*
X1228716Y2587312D01*
X1228749Y2587383D01*
X1228799Y2587442D01*
X1228952Y2587820D01*
X1229124Y2588191D01*
X1229133Y2588268D01*
X1229162Y2588340D01*
X1229235Y2589000D01*
X1229235Y2593037D01*
X1232751Y2596552D01*
X1267249Y2596552D01*
X1270764Y2593037D01*
X1270764Y2589000D01*
X1270777Y2588923D01*
X1270768Y2588846D01*
X1270855Y2588446D01*
X1270921Y2588044D01*
X1270957Y2587975D01*
X1270974Y2587899D01*
X1271183Y2587548D01*
X1271374Y2587188D01*
X1271430Y2587134D01*
X1271470Y2587068D01*
X1271780Y2586802D01*
X1272076Y2586520D01*
X1272147Y2586487D01*
X1272205Y2586437D01*
X1272584Y2586284D01*
X1272955Y2586112D01*
X1273032Y2586103D01*
X1273104Y2586074D01*
X1273764Y2586001D01*
X2076236Y2586001D01*
X2076313Y2586013D01*
X2076390Y2586005D01*
X2076790Y2586091D01*
X2077192Y2586157D01*
X2077261Y2586193D01*
X2077337Y2586210D01*
X2077688Y2586419D01*
X2078048Y2586610D01*
X2078102Y2586666D01*
X2078169Y2586706D01*
X2078434Y2587016D01*
X2078716Y2587312D01*
X2078749Y2587383D01*
X2078799Y2587442D01*
X2078952Y2587820D01*
X2079124Y2588191D01*
X2079133Y2588268D01*
X2079162Y2588340D01*
X2079235Y2589000D01*
X2079235Y2593037D01*
X2082751Y2596552D01*
X2117249Y2596552D01*
X2120764Y2593037D01*
X2120764Y2589000D01*
X2120777Y2588923D01*
X2120768Y2588846D01*
X2120855Y2588446D01*
X2120921Y2588044D01*
X2120957Y2587975D01*
X2120974Y2587899D01*
X2121183Y2587548D01*
X2121374Y2587188D01*
X2121430Y2587134D01*
X2121470Y2587068D01*
X2121780Y2586802D01*
X2122076Y2586520D01*
X2122147Y2586487D01*
X2122205Y2586437D01*
X2122584Y2586284D01*
X2122955Y2586112D01*
X2123032Y2586103D01*
X2123104Y2586074D01*
X2123764Y2586001D01*
X2926236Y2586001D01*
X2926313Y2586013D01*
X2926390Y2586005D01*
X2926790Y2586091D01*
X2927192Y2586157D01*
X2927261Y2586193D01*
X2927337Y2586210D01*
X2927688Y2586419D01*
X2928048Y2586610D01*
X2928102Y2586666D01*
X2928169Y2586706D01*
X2928434Y2587016D01*
X2928716Y2587312D01*
X2928749Y2587383D01*
X2928799Y2587442D01*
X2928952Y2587820D01*
X2929124Y2588191D01*
X2929133Y2588268D01*
X2929162Y2588340D01*
X2929235Y2589000D01*
X2929235Y2593037D01*
X2932751Y2596552D01*
X2967249Y2596552D01*
X2970764Y2593037D01*
X2970764Y2589000D01*
X2970777Y2588923D01*
X2970768Y2588846D01*
X2970855Y2588446D01*
X2970921Y2588044D01*
X2970957Y2587975D01*
X2970974Y2587899D01*
X2971183Y2587548D01*
X2971374Y2587188D01*
X2971430Y2587134D01*
X2971470Y2587068D01*
X2971780Y2586802D01*
X2972076Y2586520D01*
X2972147Y2586487D01*
X2972205Y2586437D01*
X2972584Y2586284D01*
X2972955Y2586112D01*
X2973032Y2586103D01*
X2973104Y2586074D01*
X2973764Y2586001D01*
X3361971Y2586001D01*
X3415092Y2532879D01*
X3415383Y2532670D01*
X3415655Y2532437D01*
X3415775Y2532389D01*
X3415879Y2532314D01*
X3416221Y2532208D01*
X3416553Y2532074D01*
X3416715Y2532056D01*
X3416805Y2532029D01*
X3416933Y2532032D01*
X3417213Y2532001D01*
X3419346Y2532001D01*
X3419423Y2532013D01*
X3419500Y2532005D01*
X3419900Y2532091D01*
X3420303Y2532157D01*
X3420371Y2532193D01*
X3420447Y2532210D01*
X3420798Y2532419D01*
X3421159Y2532610D01*
X3421212Y2532666D01*
X3421279Y2532706D01*
X3421544Y2533016D01*
X3421826Y2533312D01*
X3421859Y2533383D01*
X3421909Y2533442D01*
X3422062Y2533820D01*
X3422234Y2534191D01*
X3422243Y2534268D01*
X3422272Y2534340D01*
X3422346Y2535000D01*
X3422346Y2538706D01*
X3425861Y2542221D01*
X3474139Y2542221D01*
X3477654Y2538706D01*
X3477654Y2494365D01*
X3474139Y2490850D01*
X3471000Y2490850D01*
X3470923Y2490837D01*
X3470846Y2490846D01*
X3470446Y2490759D01*
X3470044Y2490693D01*
X3469975Y2490657D01*
X3469899Y2490641D01*
X3469548Y2490431D01*
X3469188Y2490240D01*
X3469134Y2490184D01*
X3469068Y2490144D01*
X3468802Y2489834D01*
X3468520Y2489538D01*
X3468487Y2489467D01*
X3468437Y2489409D01*
X3468284Y2489030D01*
X3468112Y2488659D01*
X3468103Y2488582D01*
X3468074Y2488510D01*
X3468001Y2487850D01*
X3468001Y1959213D01*
X3468059Y1958859D01*
X3468086Y1958503D01*
X3468136Y1958384D01*
X3468157Y1958257D01*
X3468324Y1957941D01*
X3468464Y1957611D01*
X3468567Y1957483D01*
X3468610Y1957401D01*
X3468703Y1957313D01*
X3468879Y1957092D01*
X3595409Y1830563D01*
X3595472Y1830517D01*
X3595520Y1830457D01*
X3595864Y1830236D01*
X3596195Y1829997D01*
X3596270Y1829975D01*
X3596335Y1829932D01*
X3596732Y1829832D01*
X3597121Y1829712D01*
X3597199Y1829714D01*
X3597274Y1829695D01*
X3597683Y1829727D01*
X3598089Y1829737D01*
X3598162Y1829764D01*
X3598240Y1829770D01*
X3598617Y1829930D01*
X3599000Y1830069D01*
X3599060Y1830118D01*
X3599132Y1830148D01*
X3599585Y1830511D01*
X3612839Y1836001D01*
X3687161Y1836001D01*
X3700393Y1830520D01*
X3710520Y1820393D01*
X3716001Y1807161D01*
X3716001Y1792839D01*
X3710520Y1779607D01*
X3700393Y1769480D01*
X3687161Y1763999D01*
X3612839Y1763999D01*
G37*
%LPD*%
%LPC*%
G36*
X434108Y1179291D02*
X434108Y1179291D01*
X403408Y1187517D01*
X375883Y1203408D01*
X353408Y1225883D01*
X337517Y1253408D01*
X329918Y1281766D01*
X329726Y1282192D01*
X329529Y1282635D01*
X329523Y1282642D01*
X329520Y1282649D01*
X329197Y1282996D01*
X328874Y1283349D01*
X328866Y1283353D01*
X328860Y1283359D01*
X328445Y1283585D01*
X328025Y1283816D01*
X328017Y1283818D01*
X328009Y1283822D01*
X327540Y1283904D01*
X327072Y1283989D01*
X327064Y1283988D01*
X327055Y1283989D01*
X326582Y1283917D01*
X326114Y1283849D01*
X326106Y1283845D01*
X326097Y1283844D01*
X325673Y1283625D01*
X325250Y1283411D01*
X325244Y1283404D01*
X325236Y1283400D01*
X324902Y1283057D01*
X324571Y1282720D01*
X324566Y1282711D01*
X324561Y1282706D01*
X324546Y1282676D01*
X324250Y1282138D01*
X313950Y1257270D01*
X292730Y1236050D01*
X265005Y1224566D01*
X234995Y1224566D01*
X207270Y1236050D01*
X186050Y1257270D01*
X174566Y1284995D01*
X174566Y1315005D01*
X186050Y1342730D01*
X207270Y1363950D01*
X234995Y1375434D01*
X243756Y1375434D01*
X243832Y1375446D01*
X243910Y1375438D01*
X244309Y1375524D01*
X244712Y1375590D01*
X244780Y1375626D01*
X244856Y1375643D01*
X245208Y1375852D01*
X245568Y1376043D01*
X245622Y1376099D01*
X245688Y1376139D01*
X245954Y1376449D01*
X246235Y1376745D01*
X246268Y1376816D01*
X246319Y1376875D01*
X246472Y1377253D01*
X246644Y1377624D01*
X246653Y1377701D01*
X246682Y1377773D01*
X246755Y1378433D01*
X246755Y1449730D01*
X250270Y1453245D01*
X301031Y1453245D01*
X301385Y1453303D01*
X301741Y1453330D01*
X301859Y1453380D01*
X301987Y1453401D01*
X302303Y1453569D01*
X302633Y1453708D01*
X302761Y1453811D01*
X302843Y1453854D01*
X302931Y1453947D01*
X303152Y1454123D01*
X392121Y1543092D01*
X392330Y1543383D01*
X392563Y1543655D01*
X392611Y1543775D01*
X392686Y1543879D01*
X392791Y1544221D01*
X392926Y1544553D01*
X392944Y1544715D01*
X392971Y1544805D01*
X392968Y1544933D01*
X392999Y1545213D01*
X392999Y1550449D01*
X392987Y1550525D01*
X392995Y1550602D01*
X392909Y1551002D01*
X392843Y1551405D01*
X392807Y1551473D01*
X392790Y1551549D01*
X392581Y1551900D01*
X392390Y1552261D01*
X392334Y1552314D01*
X392294Y1552381D01*
X391984Y1552647D01*
X391688Y1552928D01*
X391617Y1552961D01*
X391558Y1553012D01*
X391180Y1553164D01*
X390809Y1553337D01*
X390732Y1553345D01*
X390660Y1553375D01*
X390000Y1553448D01*
X382751Y1553448D01*
X379235Y1556963D01*
X379235Y1601304D01*
X382751Y1604820D01*
X417249Y1604820D01*
X420764Y1601304D01*
X420764Y1556963D01*
X417879Y1554078D01*
X417670Y1553787D01*
X417437Y1553515D01*
X417389Y1553396D01*
X417314Y1553291D01*
X417208Y1552949D01*
X417074Y1552617D01*
X417056Y1552455D01*
X417029Y1552366D01*
X417032Y1552237D01*
X417001Y1551957D01*
X417001Y1534029D01*
X341336Y1458365D01*
X341172Y1458136D01*
X340977Y1457931D01*
X340891Y1457745D01*
X340771Y1457578D01*
X340688Y1457309D01*
X340569Y1457053D01*
X340546Y1456849D01*
X340486Y1456652D01*
X340493Y1456370D01*
X340462Y1456090D01*
X340505Y1455889D01*
X340511Y1455684D01*
X340607Y1455419D01*
X340667Y1455144D01*
X340772Y1454967D01*
X340843Y1454774D01*
X341019Y1454554D01*
X341163Y1454312D01*
X341319Y1454178D01*
X341448Y1454017D01*
X341685Y1453865D01*
X341899Y1453681D01*
X342090Y1453604D01*
X342262Y1453493D01*
X342536Y1453424D01*
X342797Y1453318D01*
X343077Y1453287D01*
X343202Y1453256D01*
X343295Y1453263D01*
X343457Y1453245D01*
X349730Y1453245D01*
X353245Y1449730D01*
X353245Y1381194D01*
X353290Y1380916D01*
X353297Y1380634D01*
X353368Y1380441D01*
X353401Y1380238D01*
X353533Y1379989D01*
X353630Y1379724D01*
X353758Y1379563D01*
X353854Y1379382D01*
X354058Y1379188D01*
X354235Y1378968D01*
X354407Y1378856D01*
X354556Y1378715D01*
X354812Y1378596D01*
X355049Y1378443D01*
X355248Y1378393D01*
X355435Y1378306D01*
X355715Y1378275D01*
X355988Y1378206D01*
X356193Y1378222D01*
X356398Y1378199D01*
X356674Y1378259D01*
X356954Y1378280D01*
X357143Y1378361D01*
X357344Y1378404D01*
X357586Y1378548D01*
X357846Y1378659D01*
X358067Y1378835D01*
X358176Y1378900D01*
X358237Y1378971D01*
X358365Y1379073D01*
X375883Y1396592D01*
X403408Y1412483D01*
X434108Y1420709D01*
X465892Y1420709D01*
X496592Y1412483D01*
X524117Y1396592D01*
X546592Y1374117D01*
X562483Y1346592D01*
X570082Y1318233D01*
X570274Y1317808D01*
X570471Y1317365D01*
X570477Y1317358D01*
X570480Y1317350D01*
X570805Y1317000D01*
X571126Y1316651D01*
X571134Y1316647D01*
X571140Y1316641D01*
X571555Y1316415D01*
X571975Y1316183D01*
X571983Y1316182D01*
X571991Y1316178D01*
X572460Y1316095D01*
X572928Y1316011D01*
X572936Y1316012D01*
X572945Y1316011D01*
X573418Y1316083D01*
X573886Y1316151D01*
X573894Y1316155D01*
X573903Y1316156D01*
X574327Y1316375D01*
X574750Y1316589D01*
X574756Y1316595D01*
X574764Y1316599D01*
X575098Y1316943D01*
X575429Y1317280D01*
X575434Y1317289D01*
X575439Y1317294D01*
X575454Y1317324D01*
X575750Y1317862D01*
X586050Y1342730D01*
X607270Y1363950D01*
X634995Y1375434D01*
X665005Y1375434D01*
X692730Y1363950D01*
X713950Y1342730D01*
X725434Y1315005D01*
X725434Y1284995D01*
X713950Y1257270D01*
X692730Y1236050D01*
X665005Y1224566D01*
X634995Y1224566D01*
X607270Y1236050D01*
X586050Y1257270D01*
X575750Y1282138D01*
X575500Y1282540D01*
X575250Y1282949D01*
X575244Y1282954D01*
X575239Y1282961D01*
X574873Y1283265D01*
X574508Y1283570D01*
X574500Y1283574D01*
X574493Y1283579D01*
X574054Y1283748D01*
X573606Y1283923D01*
X573597Y1283924D01*
X573589Y1283927D01*
X573118Y1283947D01*
X572638Y1283970D01*
X572630Y1283968D01*
X572621Y1283968D01*
X572164Y1283836D01*
X571706Y1283706D01*
X571699Y1283701D01*
X571691Y1283699D01*
X571299Y1283427D01*
X570907Y1283159D01*
X570902Y1283152D01*
X570894Y1283147D01*
X570616Y1282773D01*
X570324Y1282385D01*
X570320Y1282375D01*
X570316Y1282370D01*
X570306Y1282341D01*
X570082Y1281766D01*
X562483Y1253408D01*
X546592Y1225883D01*
X524117Y1203408D01*
X496592Y1187517D01*
X465892Y1179291D01*
X434108Y1179291D01*
G37*
%LPD*%
%LPC*%
G36*
X1284108Y2029291D02*
X1284108Y2029291D01*
X1253408Y2037517D01*
X1225883Y2053408D01*
X1203408Y2075883D01*
X1187517Y2103408D01*
X1179918Y2131766D01*
X1179726Y2132192D01*
X1179529Y2132635D01*
X1179523Y2132642D01*
X1179520Y2132649D01*
X1179197Y2132996D01*
X1178874Y2133349D01*
X1178866Y2133353D01*
X1178860Y2133359D01*
X1178445Y2133585D01*
X1178025Y2133816D01*
X1178017Y2133818D01*
X1178009Y2133822D01*
X1177540Y2133904D01*
X1177072Y2133989D01*
X1177064Y2133988D01*
X1177055Y2133989D01*
X1176582Y2133917D01*
X1176114Y2133849D01*
X1176106Y2133845D01*
X1176097Y2133844D01*
X1175673Y2133625D01*
X1175250Y2133410D01*
X1175244Y2133404D01*
X1175236Y2133400D01*
X1174902Y2133057D01*
X1174571Y2132720D01*
X1174566Y2132711D01*
X1174561Y2132706D01*
X1174546Y2132675D01*
X1174250Y2132138D01*
X1163950Y2107270D01*
X1142730Y2086050D01*
X1115005Y2074566D01*
X1084995Y2074566D01*
X1057270Y2086050D01*
X1036050Y2107270D01*
X1024566Y2134995D01*
X1024566Y2165005D01*
X1036050Y2192730D01*
X1057270Y2213950D01*
X1084995Y2225434D01*
X1093756Y2225434D01*
X1093832Y2225446D01*
X1093910Y2225438D01*
X1094309Y2225524D01*
X1094712Y2225590D01*
X1094780Y2225626D01*
X1094856Y2225643D01*
X1095208Y2225852D01*
X1095568Y2226043D01*
X1095622Y2226099D01*
X1095688Y2226139D01*
X1095954Y2226449D01*
X1096235Y2226745D01*
X1096268Y2226816D01*
X1096319Y2226875D01*
X1096472Y2227253D01*
X1096644Y2227624D01*
X1096653Y2227701D01*
X1096682Y2227773D01*
X1096755Y2228433D01*
X1096755Y2299730D01*
X1100270Y2303245D01*
X1151031Y2303245D01*
X1151385Y2303303D01*
X1151741Y2303330D01*
X1151859Y2303380D01*
X1151987Y2303401D01*
X1152303Y2303569D01*
X1152633Y2303708D01*
X1152761Y2303811D01*
X1152843Y2303854D01*
X1152931Y2303947D01*
X1153152Y2304123D01*
X1238121Y2389092D01*
X1238330Y2389383D01*
X1238563Y2389655D01*
X1238611Y2389775D01*
X1238686Y2389879D01*
X1238791Y2390221D01*
X1238926Y2390553D01*
X1238944Y2390715D01*
X1238971Y2390805D01*
X1238968Y2390933D01*
X1238999Y2391213D01*
X1238999Y2400449D01*
X1238987Y2400525D01*
X1238995Y2400602D01*
X1238909Y2401002D01*
X1238843Y2401405D01*
X1238807Y2401473D01*
X1238790Y2401549D01*
X1238581Y2401900D01*
X1238390Y2402261D01*
X1238334Y2402314D01*
X1238294Y2402381D01*
X1237984Y2402647D01*
X1237688Y2402928D01*
X1237617Y2402961D01*
X1237558Y2403012D01*
X1237180Y2403164D01*
X1236809Y2403337D01*
X1236732Y2403345D01*
X1236660Y2403375D01*
X1236000Y2403448D01*
X1232751Y2403448D01*
X1229235Y2406963D01*
X1229235Y2451304D01*
X1232751Y2454820D01*
X1267249Y2454820D01*
X1270764Y2451304D01*
X1270764Y2406963D01*
X1267249Y2403448D01*
X1266000Y2403448D01*
X1265923Y2403436D01*
X1265846Y2403444D01*
X1265446Y2403358D01*
X1265044Y2403292D01*
X1264975Y2403255D01*
X1264899Y2403239D01*
X1264548Y2403029D01*
X1264188Y2402839D01*
X1264134Y2402782D01*
X1264068Y2402743D01*
X1263802Y2402433D01*
X1263520Y2402136D01*
X1263487Y2402066D01*
X1263437Y2402007D01*
X1263284Y2401628D01*
X1263112Y2401258D01*
X1263103Y2401181D01*
X1263074Y2401109D01*
X1263001Y2400449D01*
X1263001Y2380029D01*
X1191336Y2308365D01*
X1191172Y2308136D01*
X1190977Y2307931D01*
X1190891Y2307745D01*
X1190771Y2307578D01*
X1190688Y2307309D01*
X1190569Y2307053D01*
X1190546Y2306849D01*
X1190486Y2306652D01*
X1190493Y2306370D01*
X1190462Y2306090D01*
X1190505Y2305889D01*
X1190511Y2305684D01*
X1190607Y2305419D01*
X1190667Y2305144D01*
X1190772Y2304967D01*
X1190843Y2304774D01*
X1191019Y2304554D01*
X1191163Y2304312D01*
X1191319Y2304178D01*
X1191448Y2304017D01*
X1191685Y2303865D01*
X1191899Y2303681D01*
X1192090Y2303604D01*
X1192262Y2303493D01*
X1192536Y2303424D01*
X1192797Y2303318D01*
X1193077Y2303287D01*
X1193202Y2303256D01*
X1193295Y2303263D01*
X1193457Y2303245D01*
X1199730Y2303245D01*
X1203245Y2299730D01*
X1203245Y2231194D01*
X1203290Y2230916D01*
X1203297Y2230634D01*
X1203368Y2230441D01*
X1203401Y2230238D01*
X1203533Y2229989D01*
X1203630Y2229724D01*
X1203758Y2229563D01*
X1203854Y2229382D01*
X1204058Y2229188D01*
X1204235Y2228968D01*
X1204407Y2228856D01*
X1204556Y2228715D01*
X1204812Y2228596D01*
X1205049Y2228443D01*
X1205248Y2228393D01*
X1205435Y2228306D01*
X1205715Y2228275D01*
X1205988Y2228206D01*
X1206193Y2228222D01*
X1206398Y2228199D01*
X1206674Y2228259D01*
X1206954Y2228280D01*
X1207143Y2228361D01*
X1207344Y2228404D01*
X1207586Y2228548D01*
X1207846Y2228659D01*
X1208067Y2228835D01*
X1208176Y2228900D01*
X1208237Y2228971D01*
X1208365Y2229073D01*
X1225883Y2246592D01*
X1253408Y2262483D01*
X1284108Y2270709D01*
X1315892Y2270709D01*
X1346592Y2262483D01*
X1374117Y2246592D01*
X1396592Y2224117D01*
X1412483Y2196592D01*
X1420082Y2168234D01*
X1420274Y2167808D01*
X1420471Y2167365D01*
X1420477Y2167358D01*
X1420480Y2167351D01*
X1420802Y2167004D01*
X1421126Y2166651D01*
X1421134Y2166647D01*
X1421140Y2166641D01*
X1421560Y2166412D01*
X1421975Y2166184D01*
X1421983Y2166182D01*
X1421991Y2166178D01*
X1422460Y2166096D01*
X1422928Y2166011D01*
X1422936Y2166012D01*
X1422945Y2166011D01*
X1423418Y2166083D01*
X1423886Y2166151D01*
X1423894Y2166155D01*
X1423903Y2166156D01*
X1424327Y2166375D01*
X1424750Y2166589D01*
X1424756Y2166596D01*
X1424764Y2166600D01*
X1425098Y2166943D01*
X1425429Y2167280D01*
X1425434Y2167289D01*
X1425439Y2167294D01*
X1425454Y2167324D01*
X1425750Y2167862D01*
X1436050Y2192730D01*
X1457270Y2213950D01*
X1484995Y2225434D01*
X1515005Y2225434D01*
X1542730Y2213950D01*
X1563950Y2192730D01*
X1575434Y2165005D01*
X1575434Y2134995D01*
X1563950Y2107270D01*
X1542730Y2086050D01*
X1515005Y2074566D01*
X1484995Y2074566D01*
X1457270Y2086050D01*
X1436050Y2107270D01*
X1425750Y2132138D01*
X1425500Y2132542D01*
X1425250Y2132948D01*
X1425244Y2132954D01*
X1425239Y2132961D01*
X1424873Y2133265D01*
X1424508Y2133570D01*
X1424500Y2133574D01*
X1424493Y2133579D01*
X1424057Y2133747D01*
X1423606Y2133923D01*
X1423597Y2133924D01*
X1423589Y2133927D01*
X1423118Y2133947D01*
X1422638Y2133970D01*
X1422630Y2133968D01*
X1422621Y2133968D01*
X1422164Y2133836D01*
X1421706Y2133706D01*
X1421699Y2133701D01*
X1421691Y2133699D01*
X1421299Y2133427D01*
X1420907Y2133159D01*
X1420902Y2133152D01*
X1420894Y2133147D01*
X1420611Y2132766D01*
X1420324Y2132385D01*
X1420320Y2132375D01*
X1420316Y2132370D01*
X1420306Y2132339D01*
X1420082Y2131766D01*
X1412483Y2103408D01*
X1396592Y2075883D01*
X1374117Y2053408D01*
X1346592Y2037517D01*
X1315892Y2029291D01*
X1284108Y2029291D01*
G37*
%LPD*%
%LPC*%
G36*
X2984108Y2029291D02*
X2984108Y2029291D01*
X2953408Y2037517D01*
X2925883Y2053408D01*
X2903408Y2075883D01*
X2887517Y2103408D01*
X2879918Y2131766D01*
X2879726Y2132192D01*
X2879529Y2132635D01*
X2879523Y2132642D01*
X2879520Y2132649D01*
X2879197Y2132996D01*
X2878874Y2133349D01*
X2878866Y2133353D01*
X2878860Y2133359D01*
X2878445Y2133585D01*
X2878025Y2133816D01*
X2878017Y2133818D01*
X2878009Y2133822D01*
X2877540Y2133904D01*
X2877072Y2133989D01*
X2877064Y2133988D01*
X2877055Y2133989D01*
X2876582Y2133917D01*
X2876114Y2133849D01*
X2876106Y2133845D01*
X2876097Y2133844D01*
X2875673Y2133625D01*
X2875250Y2133410D01*
X2875244Y2133404D01*
X2875236Y2133400D01*
X2874902Y2133057D01*
X2874571Y2132720D01*
X2874566Y2132711D01*
X2874561Y2132706D01*
X2874546Y2132675D01*
X2874250Y2132138D01*
X2863950Y2107270D01*
X2842730Y2086050D01*
X2815005Y2074566D01*
X2784995Y2074566D01*
X2757270Y2086050D01*
X2736050Y2107270D01*
X2724566Y2134995D01*
X2724566Y2165005D01*
X2736050Y2192730D01*
X2757270Y2213950D01*
X2784995Y2225434D01*
X2793756Y2225434D01*
X2793832Y2225446D01*
X2793910Y2225438D01*
X2794309Y2225524D01*
X2794712Y2225590D01*
X2794780Y2225626D01*
X2794856Y2225643D01*
X2795208Y2225852D01*
X2795568Y2226043D01*
X2795622Y2226099D01*
X2795688Y2226139D01*
X2795954Y2226449D01*
X2796235Y2226745D01*
X2796268Y2226816D01*
X2796319Y2226875D01*
X2796472Y2227253D01*
X2796644Y2227624D01*
X2796653Y2227701D01*
X2796682Y2227773D01*
X2796755Y2228433D01*
X2796755Y2299730D01*
X2800270Y2303245D01*
X2852031Y2303245D01*
X2852385Y2303303D01*
X2852741Y2303330D01*
X2852859Y2303380D01*
X2852987Y2303401D01*
X2853303Y2303569D01*
X2853633Y2303708D01*
X2853761Y2303811D01*
X2853843Y2303854D01*
X2853931Y2303947D01*
X2854152Y2304123D01*
X2939121Y2389092D01*
X2939330Y2389383D01*
X2939563Y2389655D01*
X2939611Y2389775D01*
X2939686Y2389879D01*
X2939791Y2390221D01*
X2939926Y2390553D01*
X2939944Y2390715D01*
X2939971Y2390805D01*
X2939968Y2390933D01*
X2939999Y2391213D01*
X2939999Y2400449D01*
X2939987Y2400525D01*
X2939995Y2400602D01*
X2939909Y2401002D01*
X2939843Y2401405D01*
X2939807Y2401473D01*
X2939790Y2401549D01*
X2939581Y2401900D01*
X2939390Y2402261D01*
X2939334Y2402314D01*
X2939294Y2402381D01*
X2938984Y2402647D01*
X2938688Y2402928D01*
X2938617Y2402961D01*
X2938558Y2403012D01*
X2938180Y2403164D01*
X2937809Y2403337D01*
X2937732Y2403345D01*
X2937660Y2403375D01*
X2937000Y2403448D01*
X2932751Y2403448D01*
X2929235Y2406963D01*
X2929235Y2451304D01*
X2932751Y2454820D01*
X2967249Y2454820D01*
X2970764Y2451304D01*
X2970764Y2406963D01*
X2967249Y2403448D01*
X2967000Y2403448D01*
X2966923Y2403436D01*
X2966846Y2403444D01*
X2966446Y2403358D01*
X2966044Y2403292D01*
X2965975Y2403255D01*
X2965899Y2403239D01*
X2965548Y2403029D01*
X2965188Y2402839D01*
X2965134Y2402782D01*
X2965068Y2402743D01*
X2964802Y2402433D01*
X2964520Y2402136D01*
X2964487Y2402066D01*
X2964437Y2402007D01*
X2964284Y2401628D01*
X2964112Y2401258D01*
X2964103Y2401181D01*
X2964074Y2401109D01*
X2964001Y2400449D01*
X2964001Y2380029D01*
X2892336Y2308365D01*
X2892172Y2308136D01*
X2891977Y2307931D01*
X2891891Y2307745D01*
X2891771Y2307578D01*
X2891688Y2307309D01*
X2891569Y2307053D01*
X2891546Y2306849D01*
X2891486Y2306652D01*
X2891493Y2306370D01*
X2891462Y2306090D01*
X2891505Y2305889D01*
X2891511Y2305684D01*
X2891607Y2305419D01*
X2891667Y2305144D01*
X2891772Y2304967D01*
X2891843Y2304774D01*
X2892019Y2304554D01*
X2892163Y2304312D01*
X2892319Y2304178D01*
X2892448Y2304017D01*
X2892685Y2303865D01*
X2892899Y2303681D01*
X2893090Y2303604D01*
X2893262Y2303493D01*
X2893536Y2303424D01*
X2893797Y2303318D01*
X2894077Y2303287D01*
X2894202Y2303256D01*
X2894295Y2303263D01*
X2894457Y2303245D01*
X2899730Y2303245D01*
X2903245Y2299730D01*
X2903245Y2231194D01*
X2903290Y2230916D01*
X2903297Y2230634D01*
X2903368Y2230441D01*
X2903401Y2230238D01*
X2903533Y2229989D01*
X2903630Y2229724D01*
X2903758Y2229563D01*
X2903854Y2229382D01*
X2904058Y2229188D01*
X2904235Y2228968D01*
X2904407Y2228856D01*
X2904556Y2228715D01*
X2904812Y2228596D01*
X2905049Y2228443D01*
X2905248Y2228393D01*
X2905435Y2228306D01*
X2905715Y2228275D01*
X2905988Y2228206D01*
X2906193Y2228222D01*
X2906398Y2228199D01*
X2906674Y2228259D01*
X2906954Y2228280D01*
X2907143Y2228361D01*
X2907344Y2228404D01*
X2907586Y2228548D01*
X2907846Y2228659D01*
X2908067Y2228835D01*
X2908176Y2228900D01*
X2908237Y2228971D01*
X2908365Y2229073D01*
X2925883Y2246592D01*
X2953408Y2262483D01*
X2984108Y2270709D01*
X3015892Y2270709D01*
X3046592Y2262483D01*
X3074117Y2246592D01*
X3096592Y2224117D01*
X3112483Y2196592D01*
X3120082Y2168234D01*
X3120274Y2167808D01*
X3120471Y2167365D01*
X3120477Y2167358D01*
X3120480Y2167351D01*
X3120802Y2167004D01*
X3121126Y2166651D01*
X3121134Y2166647D01*
X3121140Y2166641D01*
X3121560Y2166412D01*
X3121975Y2166184D01*
X3121983Y2166182D01*
X3121991Y2166178D01*
X3122460Y2166096D01*
X3122928Y2166011D01*
X3122936Y2166012D01*
X3122945Y2166011D01*
X3123418Y2166083D01*
X3123886Y2166151D01*
X3123894Y2166155D01*
X3123903Y2166156D01*
X3124327Y2166375D01*
X3124750Y2166589D01*
X3124756Y2166596D01*
X3124764Y2166600D01*
X3125098Y2166943D01*
X3125429Y2167280D01*
X3125434Y2167289D01*
X3125439Y2167294D01*
X3125454Y2167324D01*
X3125750Y2167862D01*
X3136050Y2192730D01*
X3157270Y2213950D01*
X3184995Y2225434D01*
X3215005Y2225434D01*
X3242730Y2213950D01*
X3263950Y2192730D01*
X3275434Y2165005D01*
X3275434Y2134995D01*
X3263950Y2107270D01*
X3242730Y2086050D01*
X3215005Y2074566D01*
X3184995Y2074566D01*
X3157270Y2086050D01*
X3136050Y2107270D01*
X3125750Y2132138D01*
X3125500Y2132542D01*
X3125250Y2132948D01*
X3125244Y2132954D01*
X3125239Y2132961D01*
X3124873Y2133265D01*
X3124508Y2133570D01*
X3124500Y2133574D01*
X3124493Y2133579D01*
X3124057Y2133747D01*
X3123606Y2133923D01*
X3123597Y2133924D01*
X3123589Y2133927D01*
X3123118Y2133947D01*
X3122638Y2133970D01*
X3122630Y2133968D01*
X3122621Y2133968D01*
X3122164Y2133836D01*
X3121706Y2133706D01*
X3121699Y2133701D01*
X3121691Y2133699D01*
X3121299Y2133427D01*
X3120907Y2133159D01*
X3120902Y2133152D01*
X3120894Y2133147D01*
X3120611Y2132766D01*
X3120324Y2132385D01*
X3120320Y2132375D01*
X3120316Y2132370D01*
X3120306Y2132339D01*
X3120082Y2131766D01*
X3112483Y2103408D01*
X3096592Y2075883D01*
X3074117Y2053408D01*
X3046592Y2037517D01*
X3015892Y2029291D01*
X2984108Y2029291D01*
G37*
%LPD*%
%LPC*%
G36*
X434108Y2029291D02*
X434108Y2029291D01*
X403408Y2037517D01*
X375883Y2053408D01*
X353408Y2075883D01*
X337517Y2103408D01*
X329922Y2131750D01*
X329918Y2131766D01*
X329726Y2132192D01*
X329529Y2132635D01*
X329523Y2132641D01*
X329520Y2132649D01*
X329197Y2132996D01*
X328874Y2133349D01*
X328866Y2133353D01*
X328860Y2133359D01*
X328445Y2133585D01*
X328025Y2133816D01*
X328017Y2133818D01*
X328009Y2133822D01*
X327540Y2133904D01*
X327072Y2133989D01*
X327064Y2133988D01*
X327055Y2133989D01*
X326582Y2133917D01*
X326114Y2133849D01*
X326106Y2133845D01*
X326097Y2133844D01*
X325673Y2133625D01*
X325250Y2133410D01*
X325244Y2133404D01*
X325236Y2133400D01*
X324902Y2133057D01*
X324571Y2132719D01*
X324566Y2132711D01*
X324561Y2132706D01*
X324546Y2132675D01*
X324250Y2132138D01*
X313950Y2107270D01*
X292730Y2086050D01*
X265005Y2074566D01*
X234995Y2074566D01*
X207270Y2086050D01*
X186050Y2107270D01*
X174566Y2134995D01*
X174566Y2165005D01*
X186050Y2192730D01*
X207270Y2213950D01*
X234995Y2225434D01*
X243756Y2225434D01*
X243832Y2225446D01*
X243910Y2225438D01*
X244309Y2225524D01*
X244712Y2225590D01*
X244780Y2225626D01*
X244856Y2225643D01*
X245208Y2225852D01*
X245568Y2226043D01*
X245622Y2226099D01*
X245688Y2226139D01*
X245954Y2226449D01*
X246235Y2226745D01*
X246268Y2226816D01*
X246319Y2226875D01*
X246472Y2227253D01*
X246644Y2227624D01*
X246653Y2227701D01*
X246682Y2227773D01*
X246755Y2228433D01*
X246755Y2299730D01*
X250270Y2303245D01*
X305031Y2303245D01*
X305385Y2303303D01*
X305741Y2303330D01*
X305859Y2303380D01*
X305987Y2303401D01*
X306303Y2303569D01*
X306633Y2303708D01*
X306761Y2303811D01*
X306843Y2303854D01*
X306931Y2303947D01*
X307152Y2304123D01*
X392121Y2389092D01*
X392330Y2389383D01*
X392563Y2389655D01*
X392611Y2389775D01*
X392686Y2389879D01*
X392791Y2390221D01*
X392926Y2390553D01*
X392944Y2390715D01*
X392971Y2390805D01*
X392968Y2390933D01*
X392999Y2391213D01*
X392999Y2400449D01*
X392987Y2400525D01*
X392995Y2400602D01*
X392909Y2401002D01*
X392843Y2401405D01*
X392807Y2401473D01*
X392790Y2401549D01*
X392581Y2401900D01*
X392390Y2402261D01*
X392334Y2402314D01*
X392294Y2402381D01*
X391984Y2402647D01*
X391688Y2402928D01*
X391617Y2402961D01*
X391558Y2403012D01*
X391180Y2403164D01*
X390809Y2403337D01*
X390732Y2403345D01*
X390660Y2403375D01*
X390000Y2403448D01*
X382751Y2403448D01*
X379235Y2406963D01*
X379235Y2451304D01*
X382751Y2454820D01*
X417249Y2454820D01*
X420764Y2451304D01*
X420764Y2406963D01*
X417879Y2404078D01*
X417670Y2403787D01*
X417437Y2403515D01*
X417389Y2403396D01*
X417314Y2403291D01*
X417208Y2402949D01*
X417074Y2402617D01*
X417056Y2402455D01*
X417029Y2402366D01*
X417032Y2402237D01*
X417001Y2401957D01*
X417001Y2380029D01*
X345336Y2308365D01*
X345172Y2308136D01*
X344977Y2307931D01*
X344891Y2307745D01*
X344771Y2307578D01*
X344688Y2307309D01*
X344569Y2307053D01*
X344546Y2306849D01*
X344486Y2306652D01*
X344493Y2306370D01*
X344462Y2306090D01*
X344505Y2305889D01*
X344511Y2305684D01*
X344607Y2305419D01*
X344667Y2305144D01*
X344772Y2304967D01*
X344843Y2304774D01*
X345019Y2304554D01*
X345163Y2304312D01*
X345319Y2304178D01*
X345448Y2304017D01*
X345685Y2303865D01*
X345899Y2303681D01*
X346090Y2303604D01*
X346262Y2303493D01*
X346536Y2303424D01*
X346797Y2303318D01*
X347077Y2303287D01*
X347202Y2303256D01*
X347295Y2303263D01*
X347457Y2303245D01*
X349730Y2303245D01*
X353245Y2299730D01*
X353245Y2231194D01*
X353290Y2230916D01*
X353297Y2230634D01*
X353368Y2230441D01*
X353401Y2230238D01*
X353533Y2229989D01*
X353630Y2229724D01*
X353758Y2229563D01*
X353854Y2229382D01*
X354058Y2229188D01*
X354235Y2228968D01*
X354407Y2228856D01*
X354556Y2228715D01*
X354812Y2228596D01*
X355049Y2228443D01*
X355248Y2228393D01*
X355435Y2228306D01*
X355715Y2228275D01*
X355988Y2228206D01*
X356193Y2228222D01*
X356398Y2228199D01*
X356674Y2228259D01*
X356954Y2228280D01*
X357143Y2228361D01*
X357344Y2228404D01*
X357586Y2228548D01*
X357846Y2228659D01*
X358067Y2228835D01*
X358176Y2228900D01*
X358237Y2228971D01*
X358365Y2229073D01*
X375883Y2246592D01*
X403408Y2262483D01*
X434108Y2270709D01*
X465892Y2270709D01*
X496592Y2262483D01*
X524117Y2246592D01*
X546592Y2224117D01*
X562483Y2196592D01*
X570082Y2168234D01*
X570274Y2167808D01*
X570471Y2167365D01*
X570477Y2167358D01*
X570480Y2167351D01*
X570802Y2167004D01*
X571126Y2166651D01*
X571134Y2166647D01*
X571140Y2166641D01*
X571560Y2166412D01*
X571975Y2166184D01*
X571983Y2166182D01*
X571991Y2166178D01*
X572460Y2166096D01*
X572928Y2166011D01*
X572936Y2166012D01*
X572945Y2166011D01*
X573418Y2166083D01*
X573886Y2166151D01*
X573894Y2166155D01*
X573903Y2166156D01*
X574327Y2166375D01*
X574750Y2166589D01*
X574756Y2166596D01*
X574764Y2166600D01*
X575098Y2166943D01*
X575429Y2167280D01*
X575434Y2167289D01*
X575439Y2167294D01*
X575454Y2167324D01*
X575750Y2167862D01*
X586050Y2192730D01*
X607270Y2213950D01*
X634995Y2225434D01*
X665005Y2225434D01*
X692730Y2213950D01*
X713950Y2192730D01*
X725434Y2165005D01*
X725434Y2134995D01*
X713950Y2107270D01*
X692730Y2086050D01*
X665005Y2074566D01*
X634995Y2074566D01*
X607270Y2086050D01*
X586050Y2107270D01*
X575750Y2132138D01*
X575500Y2132542D01*
X575250Y2132948D01*
X575244Y2132954D01*
X575239Y2132961D01*
X574873Y2133265D01*
X574508Y2133570D01*
X574500Y2133574D01*
X574493Y2133579D01*
X574057Y2133747D01*
X573606Y2133923D01*
X573597Y2133924D01*
X573589Y2133927D01*
X573118Y2133947D01*
X572638Y2133970D01*
X572630Y2133968D01*
X572621Y2133968D01*
X572164Y2133836D01*
X571706Y2133706D01*
X571699Y2133701D01*
X571691Y2133699D01*
X571299Y2133427D01*
X570907Y2133159D01*
X570902Y2133152D01*
X570894Y2133147D01*
X570611Y2132766D01*
X570324Y2132385D01*
X570320Y2132375D01*
X570316Y2132370D01*
X570306Y2132339D01*
X570082Y2131766D01*
X562483Y2103408D01*
X546592Y2075883D01*
X524117Y2053408D01*
X496592Y2037517D01*
X465892Y2029291D01*
X434108Y2029291D01*
G37*
%LPD*%
%LPC*%
G36*
X1284108Y2879291D02*
X1284108Y2879291D01*
X1253408Y2887517D01*
X1225883Y2903408D01*
X1203408Y2925883D01*
X1187517Y2953408D01*
X1179918Y2981766D01*
X1179732Y2982178D01*
X1179529Y2982635D01*
X1179523Y2982642D01*
X1179520Y2982649D01*
X1179197Y2982996D01*
X1178874Y2983349D01*
X1178866Y2983353D01*
X1178860Y2983359D01*
X1178445Y2983585D01*
X1178025Y2983816D01*
X1178017Y2983818D01*
X1178009Y2983822D01*
X1177540Y2983904D01*
X1177072Y2983989D01*
X1177064Y2983988D01*
X1177055Y2983989D01*
X1176582Y2983917D01*
X1176114Y2983849D01*
X1176106Y2983845D01*
X1176097Y2983844D01*
X1175673Y2983625D01*
X1175250Y2983410D01*
X1175244Y2983404D01*
X1175236Y2983400D01*
X1174902Y2983057D01*
X1174571Y2982720D01*
X1174566Y2982711D01*
X1174561Y2982706D01*
X1174546Y2982675D01*
X1174250Y2982138D01*
X1163950Y2957270D01*
X1142730Y2936050D01*
X1115005Y2924566D01*
X1084995Y2924566D01*
X1057270Y2936050D01*
X1036050Y2957270D01*
X1024566Y2984995D01*
X1024566Y3015005D01*
X1036050Y3042730D01*
X1057270Y3063950D01*
X1084995Y3075434D01*
X1093756Y3075434D01*
X1093832Y3075446D01*
X1093910Y3075438D01*
X1094309Y3075524D01*
X1094712Y3075590D01*
X1094780Y3075626D01*
X1094856Y3075643D01*
X1095208Y3075852D01*
X1095568Y3076043D01*
X1095622Y3076099D01*
X1095688Y3076139D01*
X1095954Y3076449D01*
X1096235Y3076745D01*
X1096268Y3076816D01*
X1096319Y3076875D01*
X1096472Y3077253D01*
X1096644Y3077624D01*
X1096653Y3077701D01*
X1096682Y3077773D01*
X1096755Y3078433D01*
X1096755Y3149730D01*
X1100270Y3153245D01*
X1155031Y3153245D01*
X1155385Y3153303D01*
X1155741Y3153330D01*
X1155859Y3153380D01*
X1155987Y3153401D01*
X1156303Y3153569D01*
X1156633Y3153708D01*
X1156761Y3153811D01*
X1156843Y3153854D01*
X1156931Y3153947D01*
X1157152Y3154123D01*
X1238121Y3235092D01*
X1238330Y3235383D01*
X1238563Y3235655D01*
X1238611Y3235775D01*
X1238686Y3235879D01*
X1238791Y3236221D01*
X1238926Y3236553D01*
X1238944Y3236715D01*
X1238971Y3236805D01*
X1238968Y3236933D01*
X1238999Y3237213D01*
X1238999Y3250449D01*
X1238987Y3250525D01*
X1238995Y3250602D01*
X1238909Y3251002D01*
X1238843Y3251405D01*
X1238807Y3251473D01*
X1238790Y3251549D01*
X1238581Y3251900D01*
X1238390Y3252261D01*
X1238334Y3252314D01*
X1238294Y3252381D01*
X1237984Y3252647D01*
X1237688Y3252928D01*
X1237617Y3252961D01*
X1237558Y3253012D01*
X1237180Y3253164D01*
X1236809Y3253337D01*
X1236732Y3253345D01*
X1236660Y3253375D01*
X1236000Y3253448D01*
X1232751Y3253448D01*
X1229235Y3256963D01*
X1229235Y3301304D01*
X1232751Y3304820D01*
X1267249Y3304820D01*
X1270764Y3301304D01*
X1270764Y3256963D01*
X1267249Y3253448D01*
X1266000Y3253448D01*
X1265923Y3253436D01*
X1265846Y3253444D01*
X1265446Y3253358D01*
X1265044Y3253292D01*
X1264975Y3253255D01*
X1264899Y3253239D01*
X1264548Y3253029D01*
X1264188Y3252839D01*
X1264134Y3252782D01*
X1264068Y3252743D01*
X1263802Y3252433D01*
X1263520Y3252136D01*
X1263487Y3252066D01*
X1263437Y3252007D01*
X1263284Y3251628D01*
X1263112Y3251258D01*
X1263103Y3251181D01*
X1263074Y3251109D01*
X1263001Y3250449D01*
X1263001Y3226029D01*
X1195336Y3158365D01*
X1195172Y3158136D01*
X1194977Y3157931D01*
X1194891Y3157745D01*
X1194771Y3157578D01*
X1194688Y3157309D01*
X1194569Y3157053D01*
X1194546Y3156849D01*
X1194486Y3156652D01*
X1194493Y3156370D01*
X1194462Y3156090D01*
X1194505Y3155889D01*
X1194511Y3155684D01*
X1194607Y3155419D01*
X1194667Y3155144D01*
X1194772Y3154967D01*
X1194843Y3154774D01*
X1195019Y3154554D01*
X1195163Y3154312D01*
X1195319Y3154178D01*
X1195448Y3154017D01*
X1195685Y3153865D01*
X1195899Y3153681D01*
X1196090Y3153604D01*
X1196262Y3153493D01*
X1196536Y3153424D01*
X1196797Y3153318D01*
X1197077Y3153287D01*
X1197202Y3153256D01*
X1197295Y3153263D01*
X1197457Y3153245D01*
X1199730Y3153245D01*
X1203245Y3149730D01*
X1203245Y3081194D01*
X1203290Y3080916D01*
X1203297Y3080634D01*
X1203368Y3080441D01*
X1203401Y3080238D01*
X1203533Y3079989D01*
X1203630Y3079724D01*
X1203758Y3079563D01*
X1203854Y3079382D01*
X1204058Y3079188D01*
X1204235Y3078968D01*
X1204407Y3078856D01*
X1204556Y3078715D01*
X1204812Y3078596D01*
X1205049Y3078443D01*
X1205248Y3078393D01*
X1205435Y3078306D01*
X1205715Y3078275D01*
X1205988Y3078206D01*
X1206193Y3078222D01*
X1206398Y3078199D01*
X1206674Y3078259D01*
X1206954Y3078280D01*
X1207143Y3078361D01*
X1207344Y3078404D01*
X1207586Y3078548D01*
X1207846Y3078659D01*
X1208067Y3078835D01*
X1208176Y3078900D01*
X1208237Y3078971D01*
X1208365Y3079073D01*
X1225883Y3096592D01*
X1253408Y3112483D01*
X1284108Y3120709D01*
X1315892Y3120709D01*
X1346592Y3112483D01*
X1374117Y3096592D01*
X1396592Y3074117D01*
X1412483Y3046592D01*
X1420082Y3018234D01*
X1420274Y3017808D01*
X1420471Y3017365D01*
X1420477Y3017358D01*
X1420480Y3017351D01*
X1420802Y3017004D01*
X1421126Y3016651D01*
X1421134Y3016647D01*
X1421140Y3016641D01*
X1421555Y3016415D01*
X1421975Y3016184D01*
X1421983Y3016182D01*
X1421991Y3016178D01*
X1422460Y3016096D01*
X1422928Y3016011D01*
X1422936Y3016012D01*
X1422945Y3016011D01*
X1423418Y3016083D01*
X1423886Y3016151D01*
X1423894Y3016155D01*
X1423903Y3016156D01*
X1424327Y3016375D01*
X1424750Y3016589D01*
X1424756Y3016596D01*
X1424764Y3016600D01*
X1425098Y3016943D01*
X1425429Y3017280D01*
X1425434Y3017289D01*
X1425439Y3017294D01*
X1425454Y3017324D01*
X1425750Y3017862D01*
X1436050Y3042730D01*
X1457270Y3063950D01*
X1484995Y3075434D01*
X1515005Y3075434D01*
X1542730Y3063950D01*
X1563950Y3042730D01*
X1575434Y3015005D01*
X1575434Y2984995D01*
X1563950Y2957270D01*
X1542730Y2936050D01*
X1515005Y2924566D01*
X1484995Y2924566D01*
X1457270Y2936050D01*
X1436050Y2957270D01*
X1425750Y2982138D01*
X1425500Y2982542D01*
X1425250Y2982948D01*
X1425244Y2982954D01*
X1425239Y2982961D01*
X1424873Y2983265D01*
X1424508Y2983570D01*
X1424500Y2983574D01*
X1424493Y2983579D01*
X1424057Y2983747D01*
X1423606Y2983923D01*
X1423597Y2983924D01*
X1423589Y2983927D01*
X1423118Y2983947D01*
X1422638Y2983970D01*
X1422630Y2983968D01*
X1422621Y2983968D01*
X1422164Y2983836D01*
X1421706Y2983706D01*
X1421699Y2983701D01*
X1421691Y2983699D01*
X1421299Y2983427D01*
X1420907Y2983159D01*
X1420902Y2983152D01*
X1420894Y2983147D01*
X1420611Y2982766D01*
X1420324Y2982385D01*
X1420320Y2982375D01*
X1420316Y2982370D01*
X1420306Y2982339D01*
X1420082Y2981766D01*
X1412483Y2953408D01*
X1396592Y2925883D01*
X1374117Y2903408D01*
X1346592Y2887517D01*
X1315892Y2879291D01*
X1284108Y2879291D01*
G37*
%LPD*%
%LPC*%
G36*
X2984108Y2879291D02*
X2984108Y2879291D01*
X2953408Y2887517D01*
X2925883Y2903408D01*
X2903408Y2925883D01*
X2887517Y2953408D01*
X2879918Y2981766D01*
X2879732Y2982178D01*
X2879529Y2982635D01*
X2879523Y2982642D01*
X2879520Y2982649D01*
X2879197Y2982996D01*
X2878874Y2983349D01*
X2878866Y2983353D01*
X2878860Y2983359D01*
X2878445Y2983585D01*
X2878025Y2983816D01*
X2878017Y2983818D01*
X2878009Y2983822D01*
X2877540Y2983904D01*
X2877072Y2983989D01*
X2877064Y2983988D01*
X2877055Y2983989D01*
X2876582Y2983917D01*
X2876114Y2983849D01*
X2876106Y2983845D01*
X2876097Y2983844D01*
X2875673Y2983625D01*
X2875250Y2983410D01*
X2875244Y2983404D01*
X2875236Y2983400D01*
X2874902Y2983057D01*
X2874571Y2982720D01*
X2874566Y2982711D01*
X2874561Y2982706D01*
X2874546Y2982675D01*
X2874250Y2982138D01*
X2863950Y2957270D01*
X2842730Y2936050D01*
X2815005Y2924566D01*
X2784995Y2924566D01*
X2757270Y2936050D01*
X2736050Y2957270D01*
X2724566Y2984995D01*
X2724566Y3015005D01*
X2736050Y3042730D01*
X2757270Y3063950D01*
X2784995Y3075434D01*
X2793756Y3075434D01*
X2793832Y3075446D01*
X2793910Y3075438D01*
X2794309Y3075524D01*
X2794712Y3075590D01*
X2794780Y3075626D01*
X2794856Y3075643D01*
X2795208Y3075852D01*
X2795568Y3076043D01*
X2795622Y3076099D01*
X2795688Y3076139D01*
X2795954Y3076449D01*
X2796235Y3076745D01*
X2796268Y3076816D01*
X2796319Y3076875D01*
X2796472Y3077253D01*
X2796644Y3077624D01*
X2796653Y3077701D01*
X2796682Y3077773D01*
X2796755Y3078433D01*
X2796755Y3149730D01*
X2800270Y3153245D01*
X2856031Y3153245D01*
X2856385Y3153303D01*
X2856741Y3153330D01*
X2856860Y3153380D01*
X2856987Y3153401D01*
X2857303Y3153569D01*
X2857633Y3153708D01*
X2857761Y3153811D01*
X2857843Y3153854D01*
X2857931Y3153947D01*
X2858152Y3154123D01*
X2939121Y3235092D01*
X2939330Y3235383D01*
X2939563Y3235655D01*
X2939611Y3235775D01*
X2939686Y3235879D01*
X2939791Y3236221D01*
X2939926Y3236553D01*
X2939944Y3236715D01*
X2939971Y3236805D01*
X2939968Y3236933D01*
X2939999Y3237213D01*
X2939999Y3250449D01*
X2939987Y3250525D01*
X2939995Y3250602D01*
X2939909Y3251002D01*
X2939843Y3251405D01*
X2939807Y3251473D01*
X2939790Y3251549D01*
X2939581Y3251900D01*
X2939390Y3252261D01*
X2939334Y3252314D01*
X2939294Y3252381D01*
X2938984Y3252647D01*
X2938688Y3252928D01*
X2938617Y3252961D01*
X2938558Y3253012D01*
X2938180Y3253164D01*
X2937809Y3253337D01*
X2937732Y3253345D01*
X2937660Y3253375D01*
X2937000Y3253448D01*
X2932751Y3253448D01*
X2929235Y3256963D01*
X2929235Y3301304D01*
X2932751Y3304820D01*
X2967249Y3304820D01*
X2970764Y3301304D01*
X2970764Y3256963D01*
X2967249Y3253448D01*
X2967000Y3253448D01*
X2966923Y3253436D01*
X2966846Y3253444D01*
X2966446Y3253358D01*
X2966044Y3253292D01*
X2965975Y3253255D01*
X2965899Y3253239D01*
X2965548Y3253029D01*
X2965188Y3252839D01*
X2965134Y3252782D01*
X2965068Y3252743D01*
X2964802Y3252433D01*
X2964520Y3252136D01*
X2964487Y3252066D01*
X2964437Y3252007D01*
X2964284Y3251628D01*
X2964112Y3251258D01*
X2964103Y3251181D01*
X2964074Y3251109D01*
X2964001Y3250449D01*
X2964001Y3226029D01*
X2896336Y3158365D01*
X2896172Y3158136D01*
X2895977Y3157931D01*
X2895891Y3157745D01*
X2895771Y3157578D01*
X2895688Y3157309D01*
X2895569Y3157053D01*
X2895546Y3156849D01*
X2895486Y3156652D01*
X2895493Y3156370D01*
X2895462Y3156090D01*
X2895505Y3155889D01*
X2895511Y3155684D01*
X2895607Y3155419D01*
X2895667Y3155144D01*
X2895772Y3154967D01*
X2895843Y3154774D01*
X2896019Y3154554D01*
X2896163Y3154312D01*
X2896319Y3154178D01*
X2896448Y3154017D01*
X2896685Y3153865D01*
X2896899Y3153681D01*
X2897090Y3153604D01*
X2897262Y3153493D01*
X2897536Y3153424D01*
X2897797Y3153318D01*
X2898077Y3153287D01*
X2898202Y3153256D01*
X2898295Y3153263D01*
X2898457Y3153245D01*
X2899730Y3153245D01*
X2903245Y3149730D01*
X2903245Y3081194D01*
X2903290Y3080916D01*
X2903297Y3080634D01*
X2903368Y3080441D01*
X2903401Y3080238D01*
X2903533Y3079989D01*
X2903630Y3079724D01*
X2903758Y3079563D01*
X2903854Y3079382D01*
X2904058Y3079188D01*
X2904235Y3078968D01*
X2904407Y3078856D01*
X2904556Y3078715D01*
X2904812Y3078596D01*
X2905049Y3078443D01*
X2905248Y3078393D01*
X2905435Y3078306D01*
X2905715Y3078275D01*
X2905988Y3078206D01*
X2906193Y3078222D01*
X2906398Y3078199D01*
X2906674Y3078259D01*
X2906954Y3078280D01*
X2907143Y3078361D01*
X2907344Y3078404D01*
X2907586Y3078548D01*
X2907846Y3078659D01*
X2908067Y3078835D01*
X2908176Y3078900D01*
X2908237Y3078971D01*
X2908365Y3079073D01*
X2925883Y3096592D01*
X2953408Y3112483D01*
X2984108Y3120709D01*
X3015892Y3120709D01*
X3046592Y3112483D01*
X3074117Y3096592D01*
X3096592Y3074117D01*
X3112483Y3046592D01*
X3120082Y3018234D01*
X3120274Y3017808D01*
X3120471Y3017365D01*
X3120477Y3017358D01*
X3120480Y3017351D01*
X3120802Y3017004D01*
X3121126Y3016651D01*
X3121134Y3016647D01*
X3121140Y3016641D01*
X3121555Y3016415D01*
X3121975Y3016184D01*
X3121983Y3016182D01*
X3121991Y3016178D01*
X3122460Y3016096D01*
X3122928Y3016011D01*
X3122936Y3016012D01*
X3122945Y3016011D01*
X3123418Y3016083D01*
X3123886Y3016151D01*
X3123894Y3016155D01*
X3123903Y3016156D01*
X3124327Y3016375D01*
X3124750Y3016589D01*
X3124756Y3016596D01*
X3124764Y3016600D01*
X3125098Y3016943D01*
X3125429Y3017280D01*
X3125434Y3017289D01*
X3125439Y3017294D01*
X3125454Y3017324D01*
X3125750Y3017862D01*
X3136050Y3042730D01*
X3157270Y3063950D01*
X3184995Y3075434D01*
X3215005Y3075434D01*
X3242730Y3063950D01*
X3263950Y3042730D01*
X3275434Y3015005D01*
X3275434Y2984995D01*
X3263950Y2957270D01*
X3242730Y2936050D01*
X3215005Y2924566D01*
X3184995Y2924566D01*
X3157270Y2936050D01*
X3136050Y2957270D01*
X3125750Y2982138D01*
X3125500Y2982542D01*
X3125250Y2982948D01*
X3125244Y2982954D01*
X3125239Y2982961D01*
X3124873Y2983265D01*
X3124508Y2983570D01*
X3124500Y2983574D01*
X3124493Y2983579D01*
X3124057Y2983747D01*
X3123606Y2983923D01*
X3123597Y2983924D01*
X3123589Y2983927D01*
X3123118Y2983947D01*
X3122638Y2983970D01*
X3122630Y2983968D01*
X3122621Y2983968D01*
X3122164Y2983836D01*
X3121706Y2983706D01*
X3121699Y2983701D01*
X3121691Y2983699D01*
X3121299Y2983427D01*
X3120907Y2983159D01*
X3120902Y2983152D01*
X3120894Y2983147D01*
X3120611Y2982766D01*
X3120324Y2982385D01*
X3120320Y2982375D01*
X3120316Y2982370D01*
X3120306Y2982339D01*
X3120082Y2981766D01*
X3112483Y2953408D01*
X3096592Y2925883D01*
X3074117Y2903408D01*
X3046592Y2887517D01*
X3015892Y2879291D01*
X2984108Y2879291D01*
G37*
%LPD*%
%LPC*%
G36*
X2134108Y2879291D02*
X2134108Y2879291D01*
X2103408Y2887517D01*
X2075883Y2903408D01*
X2053408Y2925883D01*
X2037517Y2953408D01*
X2029918Y2981766D01*
X2029732Y2982178D01*
X2029529Y2982635D01*
X2029523Y2982642D01*
X2029520Y2982649D01*
X2029197Y2982996D01*
X2028874Y2983349D01*
X2028866Y2983353D01*
X2028860Y2983359D01*
X2028445Y2983585D01*
X2028025Y2983816D01*
X2028017Y2983818D01*
X2028009Y2983822D01*
X2027540Y2983904D01*
X2027072Y2983989D01*
X2027064Y2983988D01*
X2027055Y2983989D01*
X2026582Y2983917D01*
X2026114Y2983849D01*
X2026106Y2983845D01*
X2026097Y2983844D01*
X2025673Y2983625D01*
X2025250Y2983410D01*
X2025244Y2983404D01*
X2025236Y2983400D01*
X2024902Y2983057D01*
X2024571Y2982720D01*
X2024566Y2982711D01*
X2024561Y2982706D01*
X2024546Y2982675D01*
X2024250Y2982138D01*
X2013950Y2957270D01*
X1992730Y2936050D01*
X1965005Y2924566D01*
X1934995Y2924566D01*
X1907270Y2936050D01*
X1886050Y2957270D01*
X1874566Y2984995D01*
X1874566Y3015005D01*
X1886050Y3042730D01*
X1907270Y3063950D01*
X1934995Y3075434D01*
X1943756Y3075434D01*
X1943832Y3075446D01*
X1943910Y3075438D01*
X1944309Y3075524D01*
X1944712Y3075590D01*
X1944780Y3075626D01*
X1944856Y3075643D01*
X1945208Y3075852D01*
X1945568Y3076043D01*
X1945622Y3076099D01*
X1945688Y3076139D01*
X1945954Y3076449D01*
X1946235Y3076745D01*
X1946268Y3076816D01*
X1946319Y3076875D01*
X1946472Y3077253D01*
X1946644Y3077624D01*
X1946653Y3077701D01*
X1946682Y3077773D01*
X1946755Y3078433D01*
X1946755Y3149730D01*
X1950270Y3153245D01*
X2001031Y3153245D01*
X2001385Y3153303D01*
X2001741Y3153330D01*
X2001859Y3153380D01*
X2001987Y3153401D01*
X2002303Y3153569D01*
X2002633Y3153708D01*
X2002761Y3153811D01*
X2002843Y3153854D01*
X2002931Y3153947D01*
X2003152Y3154123D01*
X2084121Y3235092D01*
X2084330Y3235383D01*
X2084563Y3235655D01*
X2084611Y3235775D01*
X2084686Y3235879D01*
X2084791Y3236221D01*
X2084926Y3236553D01*
X2084944Y3236715D01*
X2084971Y3236805D01*
X2084968Y3236933D01*
X2084999Y3237213D01*
X2084999Y3250449D01*
X2084987Y3250525D01*
X2084995Y3250602D01*
X2084909Y3251002D01*
X2084843Y3251405D01*
X2084807Y3251473D01*
X2084790Y3251549D01*
X2084581Y3251900D01*
X2084390Y3252261D01*
X2084334Y3252314D01*
X2084294Y3252381D01*
X2083984Y3252647D01*
X2083688Y3252928D01*
X2083617Y3252961D01*
X2083558Y3253012D01*
X2083180Y3253164D01*
X2082908Y3253291D01*
X2079235Y3256963D01*
X2079235Y3301304D01*
X2082751Y3304820D01*
X2117249Y3304820D01*
X2120764Y3301304D01*
X2120764Y3256963D01*
X2117249Y3253448D01*
X2112000Y3253448D01*
X2111923Y3253436D01*
X2111846Y3253444D01*
X2111446Y3253358D01*
X2111044Y3253292D01*
X2110975Y3253255D01*
X2110899Y3253239D01*
X2110548Y3253029D01*
X2110188Y3252839D01*
X2110134Y3252782D01*
X2110068Y3252743D01*
X2109802Y3252433D01*
X2109520Y3252136D01*
X2109487Y3252066D01*
X2109437Y3252007D01*
X2109284Y3251628D01*
X2109112Y3251258D01*
X2109103Y3251181D01*
X2109074Y3251109D01*
X2109001Y3250449D01*
X2109001Y3226029D01*
X2041336Y3158365D01*
X2041172Y3158136D01*
X2040977Y3157931D01*
X2040891Y3157745D01*
X2040771Y3157578D01*
X2040688Y3157309D01*
X2040569Y3157053D01*
X2040546Y3156849D01*
X2040486Y3156652D01*
X2040493Y3156370D01*
X2040462Y3156090D01*
X2040505Y3155889D01*
X2040511Y3155684D01*
X2040607Y3155419D01*
X2040667Y3155144D01*
X2040772Y3154967D01*
X2040843Y3154774D01*
X2041019Y3154554D01*
X2041163Y3154312D01*
X2041319Y3154178D01*
X2041448Y3154017D01*
X2041685Y3153865D01*
X2041899Y3153681D01*
X2042090Y3153604D01*
X2042262Y3153493D01*
X2042536Y3153424D01*
X2042797Y3153318D01*
X2043077Y3153287D01*
X2043202Y3153256D01*
X2043295Y3153263D01*
X2043457Y3153245D01*
X2049730Y3153245D01*
X2053245Y3149730D01*
X2053245Y3081194D01*
X2053290Y3080916D01*
X2053297Y3080634D01*
X2053368Y3080441D01*
X2053401Y3080238D01*
X2053533Y3079989D01*
X2053630Y3079724D01*
X2053758Y3079563D01*
X2053854Y3079382D01*
X2054058Y3079188D01*
X2054235Y3078968D01*
X2054407Y3078856D01*
X2054556Y3078715D01*
X2054812Y3078596D01*
X2055049Y3078443D01*
X2055248Y3078393D01*
X2055435Y3078306D01*
X2055715Y3078275D01*
X2055988Y3078206D01*
X2056193Y3078222D01*
X2056398Y3078199D01*
X2056674Y3078259D01*
X2056954Y3078280D01*
X2057143Y3078361D01*
X2057344Y3078404D01*
X2057586Y3078548D01*
X2057846Y3078659D01*
X2058067Y3078835D01*
X2058176Y3078900D01*
X2058237Y3078971D01*
X2058365Y3079073D01*
X2075883Y3096592D01*
X2103408Y3112483D01*
X2134108Y3120709D01*
X2165892Y3120709D01*
X2196592Y3112483D01*
X2224117Y3096592D01*
X2246592Y3074117D01*
X2262483Y3046592D01*
X2270082Y3018234D01*
X2270274Y3017808D01*
X2270471Y3017365D01*
X2270477Y3017358D01*
X2270480Y3017351D01*
X2270802Y3017004D01*
X2271126Y3016651D01*
X2271134Y3016647D01*
X2271140Y3016641D01*
X2271555Y3016415D01*
X2271975Y3016184D01*
X2271983Y3016182D01*
X2271991Y3016178D01*
X2272460Y3016096D01*
X2272928Y3016011D01*
X2272936Y3016012D01*
X2272945Y3016011D01*
X2273418Y3016083D01*
X2273886Y3016151D01*
X2273894Y3016155D01*
X2273903Y3016156D01*
X2274327Y3016375D01*
X2274750Y3016589D01*
X2274756Y3016596D01*
X2274764Y3016600D01*
X2275098Y3016943D01*
X2275429Y3017280D01*
X2275434Y3017289D01*
X2275439Y3017294D01*
X2275454Y3017324D01*
X2275750Y3017862D01*
X2286050Y3042730D01*
X2307270Y3063950D01*
X2334995Y3075434D01*
X2365005Y3075434D01*
X2392730Y3063950D01*
X2413950Y3042730D01*
X2425434Y3015005D01*
X2425434Y2984995D01*
X2413950Y2957270D01*
X2392730Y2936050D01*
X2365005Y2924566D01*
X2334995Y2924566D01*
X2307270Y2936050D01*
X2286050Y2957270D01*
X2275750Y2982138D01*
X2275500Y2982542D01*
X2275250Y2982948D01*
X2275244Y2982954D01*
X2275239Y2982961D01*
X2274873Y2983265D01*
X2274508Y2983570D01*
X2274500Y2983574D01*
X2274493Y2983579D01*
X2274057Y2983747D01*
X2273606Y2983923D01*
X2273597Y2983924D01*
X2273589Y2983927D01*
X2273118Y2983947D01*
X2272638Y2983970D01*
X2272630Y2983968D01*
X2272621Y2983968D01*
X2272164Y2983836D01*
X2271706Y2983706D01*
X2271699Y2983701D01*
X2271691Y2983699D01*
X2271299Y2983427D01*
X2270907Y2983159D01*
X2270902Y2983152D01*
X2270894Y2983147D01*
X2270611Y2982766D01*
X2270324Y2982385D01*
X2270320Y2982375D01*
X2270316Y2982370D01*
X2270306Y2982339D01*
X2270082Y2981766D01*
X2262483Y2953408D01*
X2246592Y2925883D01*
X2224117Y2903408D01*
X2196592Y2887517D01*
X2165892Y2879291D01*
X2134108Y2879291D01*
G37*
%LPD*%
%LPC*%
G36*
X434108Y2879291D02*
X434108Y2879291D01*
X403408Y2887517D01*
X375883Y2903408D01*
X353408Y2925883D01*
X337517Y2953408D01*
X329918Y2981766D01*
X329732Y2982178D01*
X329529Y2982635D01*
X329523Y2982642D01*
X329520Y2982649D01*
X329197Y2982996D01*
X328874Y2983349D01*
X328866Y2983353D01*
X328860Y2983359D01*
X328445Y2983585D01*
X328025Y2983816D01*
X328017Y2983818D01*
X328009Y2983822D01*
X327540Y2983904D01*
X327072Y2983989D01*
X327064Y2983988D01*
X327055Y2983989D01*
X326582Y2983917D01*
X326114Y2983849D01*
X326106Y2983845D01*
X326097Y2983844D01*
X325673Y2983625D01*
X325250Y2983410D01*
X325244Y2983404D01*
X325236Y2983400D01*
X324902Y2983057D01*
X324571Y2982720D01*
X324566Y2982711D01*
X324561Y2982706D01*
X324546Y2982675D01*
X324250Y2982138D01*
X313950Y2957270D01*
X292730Y2936050D01*
X265005Y2924566D01*
X234995Y2924566D01*
X207270Y2936050D01*
X186050Y2957270D01*
X174566Y2984995D01*
X174566Y3015005D01*
X186050Y3042730D01*
X207270Y3063950D01*
X234995Y3075434D01*
X243756Y3075434D01*
X243832Y3075446D01*
X243910Y3075438D01*
X244309Y3075524D01*
X244712Y3075590D01*
X244780Y3075626D01*
X244856Y3075643D01*
X245208Y3075852D01*
X245568Y3076043D01*
X245622Y3076099D01*
X245688Y3076139D01*
X245954Y3076449D01*
X246235Y3076745D01*
X246268Y3076816D01*
X246319Y3076875D01*
X246472Y3077253D01*
X246644Y3077624D01*
X246653Y3077701D01*
X246682Y3077773D01*
X246755Y3078433D01*
X246755Y3149730D01*
X250270Y3153245D01*
X300031Y3153245D01*
X300385Y3153303D01*
X300741Y3153330D01*
X300859Y3153380D01*
X300987Y3153401D01*
X301303Y3153569D01*
X301633Y3153708D01*
X301761Y3153811D01*
X301843Y3153854D01*
X301931Y3153947D01*
X302152Y3154123D01*
X383121Y3235092D01*
X383330Y3235383D01*
X383563Y3235655D01*
X383611Y3235775D01*
X383686Y3235879D01*
X383791Y3236221D01*
X383926Y3236553D01*
X383944Y3236715D01*
X383971Y3236805D01*
X383968Y3236933D01*
X383999Y3237213D01*
X383999Y3250957D01*
X383941Y3251311D01*
X383914Y3251668D01*
X383864Y3251786D01*
X383843Y3251913D01*
X383676Y3252229D01*
X383536Y3252559D01*
X383433Y3252687D01*
X383390Y3252769D01*
X383297Y3252857D01*
X383121Y3253078D01*
X379235Y3256963D01*
X379235Y3301304D01*
X382751Y3304820D01*
X417249Y3304820D01*
X420764Y3301304D01*
X420764Y3256963D01*
X417249Y3253448D01*
X411000Y3253448D01*
X410923Y3253436D01*
X410846Y3253444D01*
X410446Y3253358D01*
X410044Y3253292D01*
X409975Y3253255D01*
X409899Y3253239D01*
X409548Y3253029D01*
X409188Y3252839D01*
X409134Y3252782D01*
X409068Y3252743D01*
X408802Y3252433D01*
X408520Y3252136D01*
X408487Y3252066D01*
X408437Y3252007D01*
X408284Y3251628D01*
X408112Y3251258D01*
X408103Y3251181D01*
X408074Y3251109D01*
X408001Y3250449D01*
X408001Y3226029D01*
X340336Y3158365D01*
X340172Y3158136D01*
X339977Y3157931D01*
X339891Y3157745D01*
X339771Y3157578D01*
X339688Y3157309D01*
X339569Y3157053D01*
X339546Y3156849D01*
X339486Y3156652D01*
X339493Y3156370D01*
X339462Y3156090D01*
X339505Y3155889D01*
X339511Y3155684D01*
X339607Y3155419D01*
X339667Y3155144D01*
X339772Y3154967D01*
X339843Y3154774D01*
X340019Y3154554D01*
X340163Y3154312D01*
X340319Y3154178D01*
X340448Y3154017D01*
X340685Y3153865D01*
X340899Y3153681D01*
X341090Y3153604D01*
X341262Y3153493D01*
X341536Y3153424D01*
X341797Y3153318D01*
X342077Y3153287D01*
X342202Y3153256D01*
X342295Y3153263D01*
X342457Y3153245D01*
X349730Y3153245D01*
X353245Y3149730D01*
X353245Y3081194D01*
X353290Y3080916D01*
X353297Y3080634D01*
X353368Y3080441D01*
X353401Y3080238D01*
X353533Y3079989D01*
X353630Y3079724D01*
X353758Y3079563D01*
X353854Y3079382D01*
X354058Y3079188D01*
X354235Y3078968D01*
X354407Y3078856D01*
X354556Y3078715D01*
X354812Y3078596D01*
X355049Y3078443D01*
X355248Y3078393D01*
X355435Y3078306D01*
X355715Y3078275D01*
X355988Y3078206D01*
X356193Y3078222D01*
X356398Y3078199D01*
X356674Y3078259D01*
X356954Y3078280D01*
X357143Y3078361D01*
X357344Y3078404D01*
X357586Y3078548D01*
X357846Y3078659D01*
X358067Y3078835D01*
X358176Y3078900D01*
X358237Y3078971D01*
X358365Y3079073D01*
X375883Y3096592D01*
X403408Y3112483D01*
X434108Y3120709D01*
X465892Y3120709D01*
X496592Y3112483D01*
X524117Y3096592D01*
X546592Y3074117D01*
X562483Y3046592D01*
X570082Y3018234D01*
X570274Y3017808D01*
X570471Y3017365D01*
X570477Y3017358D01*
X570480Y3017351D01*
X570802Y3017004D01*
X571126Y3016651D01*
X571134Y3016647D01*
X571140Y3016641D01*
X571555Y3016415D01*
X571975Y3016184D01*
X571983Y3016182D01*
X571991Y3016178D01*
X572460Y3016096D01*
X572928Y3016011D01*
X572936Y3016012D01*
X572945Y3016011D01*
X573418Y3016083D01*
X573886Y3016151D01*
X573894Y3016155D01*
X573903Y3016156D01*
X574327Y3016375D01*
X574750Y3016589D01*
X574756Y3016596D01*
X574764Y3016600D01*
X575098Y3016943D01*
X575429Y3017280D01*
X575434Y3017289D01*
X575439Y3017294D01*
X575454Y3017324D01*
X575750Y3017862D01*
X586050Y3042730D01*
X607270Y3063950D01*
X634995Y3075434D01*
X665005Y3075434D01*
X692730Y3063950D01*
X713950Y3042730D01*
X725434Y3015005D01*
X725434Y2984995D01*
X713950Y2957270D01*
X692730Y2936050D01*
X665005Y2924566D01*
X634995Y2924566D01*
X607270Y2936050D01*
X586050Y2957270D01*
X575750Y2982138D01*
X575500Y2982542D01*
X575250Y2982948D01*
X575244Y2982954D01*
X575239Y2982961D01*
X574873Y2983265D01*
X574508Y2983570D01*
X574500Y2983574D01*
X574493Y2983579D01*
X574057Y2983747D01*
X573606Y2983923D01*
X573597Y2983924D01*
X573589Y2983927D01*
X573118Y2983947D01*
X572638Y2983970D01*
X572630Y2983968D01*
X572621Y2983968D01*
X572164Y2983836D01*
X571706Y2983706D01*
X571699Y2983701D01*
X571691Y2983699D01*
X571299Y2983427D01*
X570907Y2983159D01*
X570902Y2983152D01*
X570894Y2983147D01*
X570611Y2982766D01*
X570324Y2982385D01*
X570320Y2982375D01*
X570316Y2982370D01*
X570306Y2982339D01*
X570082Y2981766D01*
X562483Y2953408D01*
X546592Y2925883D01*
X524117Y2903408D01*
X496592Y2887517D01*
X465892Y2879291D01*
X434108Y2879291D01*
G37*
%LPD*%
%LPC*%
G36*
X2984108Y1179291D02*
X2984108Y1179291D01*
X2953408Y1187517D01*
X2925883Y1203408D01*
X2903408Y1225883D01*
X2887517Y1253408D01*
X2879922Y1281750D01*
X2879918Y1281766D01*
X2879726Y1282192D01*
X2879529Y1282635D01*
X2879523Y1282642D01*
X2879520Y1282649D01*
X2879197Y1282996D01*
X2878874Y1283349D01*
X2878866Y1283353D01*
X2878860Y1283359D01*
X2878445Y1283585D01*
X2878025Y1283816D01*
X2878017Y1283818D01*
X2878009Y1283822D01*
X2877540Y1283904D01*
X2877072Y1283989D01*
X2877064Y1283988D01*
X2877055Y1283989D01*
X2876582Y1283917D01*
X2876114Y1283849D01*
X2876106Y1283845D01*
X2876097Y1283844D01*
X2875673Y1283625D01*
X2875250Y1283410D01*
X2875244Y1283404D01*
X2875236Y1283400D01*
X2874902Y1283057D01*
X2874571Y1282720D01*
X2874566Y1282711D01*
X2874561Y1282706D01*
X2874546Y1282675D01*
X2874250Y1282138D01*
X2863950Y1257270D01*
X2842730Y1236050D01*
X2815005Y1224566D01*
X2784995Y1224566D01*
X2757270Y1236050D01*
X2736050Y1257270D01*
X2724566Y1284995D01*
X2724566Y1315005D01*
X2736050Y1342730D01*
X2757270Y1363950D01*
X2784995Y1375434D01*
X2793756Y1375434D01*
X2793832Y1375446D01*
X2793910Y1375438D01*
X2794309Y1375524D01*
X2794712Y1375590D01*
X2794780Y1375626D01*
X2794856Y1375643D01*
X2795208Y1375852D01*
X2795568Y1376043D01*
X2795622Y1376099D01*
X2795688Y1376139D01*
X2795954Y1376449D01*
X2796235Y1376745D01*
X2796268Y1376816D01*
X2796319Y1376875D01*
X2796472Y1377253D01*
X2796644Y1377624D01*
X2796653Y1377701D01*
X2796682Y1377773D01*
X2796755Y1378433D01*
X2796755Y1449730D01*
X2800270Y1453245D01*
X2857031Y1453245D01*
X2857385Y1453303D01*
X2857741Y1453330D01*
X2857860Y1453380D01*
X2857987Y1453401D01*
X2858303Y1453569D01*
X2858633Y1453708D01*
X2858761Y1453811D01*
X2858843Y1453854D01*
X2858931Y1453947D01*
X2859152Y1454123D01*
X2939121Y1534092D01*
X2939330Y1534383D01*
X2939563Y1534655D01*
X2939611Y1534775D01*
X2939686Y1534879D01*
X2939791Y1535221D01*
X2939926Y1535553D01*
X2939944Y1535715D01*
X2939971Y1535805D01*
X2939968Y1535933D01*
X2939999Y1536213D01*
X2939999Y1550449D01*
X2939987Y1550525D01*
X2939995Y1550602D01*
X2939909Y1551002D01*
X2939843Y1551405D01*
X2939807Y1551473D01*
X2939790Y1551549D01*
X2939581Y1551900D01*
X2939390Y1552261D01*
X2939334Y1552314D01*
X2939294Y1552381D01*
X2938984Y1552647D01*
X2938688Y1552928D01*
X2938617Y1552961D01*
X2938558Y1553012D01*
X2938180Y1553164D01*
X2937809Y1553337D01*
X2937732Y1553345D01*
X2937660Y1553375D01*
X2937000Y1553448D01*
X2932751Y1553448D01*
X2929235Y1556963D01*
X2929235Y1601304D01*
X2932751Y1604820D01*
X2967249Y1604820D01*
X2970764Y1601304D01*
X2970764Y1556963D01*
X2967249Y1553448D01*
X2967000Y1553448D01*
X2966923Y1553436D01*
X2966846Y1553444D01*
X2966446Y1553358D01*
X2966044Y1553292D01*
X2965975Y1553255D01*
X2965899Y1553239D01*
X2965548Y1553029D01*
X2965188Y1552839D01*
X2965134Y1552782D01*
X2965068Y1552743D01*
X2964802Y1552433D01*
X2964520Y1552136D01*
X2964487Y1552066D01*
X2964437Y1552007D01*
X2964284Y1551628D01*
X2964112Y1551258D01*
X2964103Y1551181D01*
X2964074Y1551109D01*
X2964001Y1550449D01*
X2964001Y1525029D01*
X2897336Y1458365D01*
X2897172Y1458136D01*
X2896977Y1457931D01*
X2896891Y1457745D01*
X2896771Y1457578D01*
X2896688Y1457309D01*
X2896569Y1457053D01*
X2896546Y1456849D01*
X2896486Y1456652D01*
X2896493Y1456370D01*
X2896462Y1456090D01*
X2896505Y1455889D01*
X2896511Y1455684D01*
X2896607Y1455419D01*
X2896667Y1455144D01*
X2896772Y1454967D01*
X2896843Y1454774D01*
X2897019Y1454554D01*
X2897163Y1454312D01*
X2897319Y1454178D01*
X2897448Y1454017D01*
X2897685Y1453865D01*
X2897899Y1453681D01*
X2898090Y1453604D01*
X2898262Y1453493D01*
X2898536Y1453424D01*
X2898797Y1453318D01*
X2899077Y1453287D01*
X2899202Y1453256D01*
X2899295Y1453263D01*
X2899457Y1453245D01*
X2899730Y1453245D01*
X2903245Y1449730D01*
X2903245Y1381194D01*
X2903290Y1380916D01*
X2903297Y1380634D01*
X2903368Y1380441D01*
X2903401Y1380238D01*
X2903533Y1379989D01*
X2903630Y1379724D01*
X2903758Y1379563D01*
X2903854Y1379382D01*
X2904058Y1379188D01*
X2904235Y1378968D01*
X2904407Y1378856D01*
X2904556Y1378715D01*
X2904812Y1378596D01*
X2905049Y1378443D01*
X2905248Y1378393D01*
X2905435Y1378306D01*
X2905715Y1378275D01*
X2905988Y1378206D01*
X2906193Y1378222D01*
X2906398Y1378199D01*
X2906674Y1378259D01*
X2906954Y1378280D01*
X2907143Y1378361D01*
X2907344Y1378404D01*
X2907586Y1378548D01*
X2907846Y1378659D01*
X2908067Y1378835D01*
X2908176Y1378900D01*
X2908237Y1378971D01*
X2908365Y1379073D01*
X2925883Y1396592D01*
X2953408Y1412483D01*
X2984108Y1420709D01*
X3015892Y1420709D01*
X3046592Y1412483D01*
X3074117Y1396592D01*
X3096592Y1374117D01*
X3112483Y1346592D01*
X3120078Y1318250D01*
X3120082Y1318234D01*
X3120274Y1317808D01*
X3120471Y1317365D01*
X3120477Y1317358D01*
X3120480Y1317351D01*
X3120802Y1317004D01*
X3121126Y1316651D01*
X3121134Y1316647D01*
X3121140Y1316641D01*
X3121555Y1316415D01*
X3121975Y1316184D01*
X3121983Y1316182D01*
X3121991Y1316178D01*
X3122460Y1316096D01*
X3122928Y1316011D01*
X3122936Y1316012D01*
X3122945Y1316011D01*
X3123418Y1316083D01*
X3123886Y1316151D01*
X3123894Y1316155D01*
X3123903Y1316156D01*
X3124327Y1316375D01*
X3124750Y1316589D01*
X3124756Y1316596D01*
X3124764Y1316600D01*
X3125098Y1316943D01*
X3125429Y1317280D01*
X3125434Y1317289D01*
X3125439Y1317294D01*
X3125454Y1317324D01*
X3125750Y1317862D01*
X3136050Y1342730D01*
X3157270Y1363950D01*
X3184995Y1375434D01*
X3215005Y1375434D01*
X3242730Y1363950D01*
X3263950Y1342730D01*
X3275434Y1315005D01*
X3275434Y1284995D01*
X3263950Y1257270D01*
X3242730Y1236050D01*
X3215005Y1224566D01*
X3184995Y1224566D01*
X3157270Y1236050D01*
X3136050Y1257270D01*
X3125750Y1282138D01*
X3125500Y1282540D01*
X3125250Y1282948D01*
X3125244Y1282954D01*
X3125239Y1282961D01*
X3124873Y1283265D01*
X3124508Y1283570D01*
X3124500Y1283574D01*
X3124493Y1283579D01*
X3124057Y1283747D01*
X3123606Y1283923D01*
X3123597Y1283924D01*
X3123589Y1283927D01*
X3123118Y1283947D01*
X3122638Y1283970D01*
X3122630Y1283968D01*
X3122621Y1283968D01*
X3122164Y1283836D01*
X3121706Y1283706D01*
X3121699Y1283701D01*
X3121691Y1283699D01*
X3121299Y1283427D01*
X3120907Y1283159D01*
X3120902Y1283152D01*
X3120894Y1283147D01*
X3120611Y1282766D01*
X3120324Y1282385D01*
X3120320Y1282375D01*
X3120316Y1282370D01*
X3120306Y1282339D01*
X3120082Y1281766D01*
X3112483Y1253408D01*
X3096592Y1225883D01*
X3074117Y1203408D01*
X3046592Y1187517D01*
X3015892Y1179291D01*
X2984108Y1179291D01*
G37*
%LPD*%
%LPC*%
G36*
X1284108Y1179291D02*
X1284108Y1179291D01*
X1253408Y1187517D01*
X1225883Y1203408D01*
X1203408Y1225883D01*
X1187517Y1253408D01*
X1179922Y1281750D01*
X1179918Y1281766D01*
X1179726Y1282192D01*
X1179529Y1282635D01*
X1179523Y1282642D01*
X1179520Y1282649D01*
X1179197Y1282996D01*
X1178874Y1283349D01*
X1178866Y1283353D01*
X1178860Y1283359D01*
X1178445Y1283585D01*
X1178025Y1283816D01*
X1178017Y1283818D01*
X1178009Y1283822D01*
X1177540Y1283904D01*
X1177072Y1283989D01*
X1177064Y1283988D01*
X1177055Y1283989D01*
X1176582Y1283917D01*
X1176114Y1283849D01*
X1176106Y1283845D01*
X1176097Y1283844D01*
X1175673Y1283625D01*
X1175250Y1283410D01*
X1175244Y1283404D01*
X1175236Y1283400D01*
X1174902Y1283057D01*
X1174571Y1282720D01*
X1174566Y1282711D01*
X1174561Y1282706D01*
X1174546Y1282675D01*
X1174250Y1282138D01*
X1163950Y1257270D01*
X1142730Y1236050D01*
X1115005Y1224566D01*
X1084995Y1224566D01*
X1057270Y1236050D01*
X1036050Y1257270D01*
X1024566Y1284995D01*
X1024566Y1315005D01*
X1036050Y1342730D01*
X1057270Y1363950D01*
X1084995Y1375434D01*
X1093756Y1375434D01*
X1093832Y1375446D01*
X1093910Y1375438D01*
X1094309Y1375524D01*
X1094712Y1375590D01*
X1094780Y1375626D01*
X1094856Y1375643D01*
X1095208Y1375852D01*
X1095568Y1376043D01*
X1095622Y1376099D01*
X1095688Y1376139D01*
X1095954Y1376449D01*
X1096235Y1376745D01*
X1096268Y1376816D01*
X1096319Y1376875D01*
X1096472Y1377253D01*
X1096644Y1377624D01*
X1096653Y1377701D01*
X1096682Y1377773D01*
X1096755Y1378433D01*
X1096755Y1449730D01*
X1100270Y1453245D01*
X1156031Y1453245D01*
X1156385Y1453303D01*
X1156741Y1453330D01*
X1156860Y1453380D01*
X1156987Y1453401D01*
X1157303Y1453569D01*
X1157633Y1453708D01*
X1157761Y1453811D01*
X1157843Y1453854D01*
X1157931Y1453947D01*
X1158152Y1454123D01*
X1238121Y1534092D01*
X1238330Y1534383D01*
X1238563Y1534655D01*
X1238611Y1534775D01*
X1238686Y1534879D01*
X1238791Y1535221D01*
X1238926Y1535553D01*
X1238944Y1535715D01*
X1238971Y1535805D01*
X1238968Y1535933D01*
X1238999Y1536213D01*
X1238999Y1550449D01*
X1238987Y1550525D01*
X1238995Y1550602D01*
X1238909Y1551002D01*
X1238843Y1551405D01*
X1238807Y1551473D01*
X1238790Y1551549D01*
X1238581Y1551900D01*
X1238390Y1552261D01*
X1238334Y1552314D01*
X1238294Y1552381D01*
X1237984Y1552647D01*
X1237688Y1552928D01*
X1237617Y1552961D01*
X1237558Y1553012D01*
X1237180Y1553164D01*
X1236809Y1553337D01*
X1236732Y1553345D01*
X1236660Y1553375D01*
X1236000Y1553448D01*
X1232751Y1553448D01*
X1229235Y1556963D01*
X1229235Y1601304D01*
X1232751Y1604820D01*
X1267249Y1604820D01*
X1270764Y1601304D01*
X1270764Y1556963D01*
X1267249Y1553448D01*
X1266000Y1553448D01*
X1265923Y1553436D01*
X1265846Y1553444D01*
X1265446Y1553358D01*
X1265044Y1553292D01*
X1264975Y1553255D01*
X1264899Y1553239D01*
X1264548Y1553029D01*
X1264188Y1552839D01*
X1264134Y1552782D01*
X1264068Y1552743D01*
X1263802Y1552433D01*
X1263520Y1552136D01*
X1263487Y1552066D01*
X1263437Y1552007D01*
X1263284Y1551628D01*
X1263112Y1551258D01*
X1263103Y1551181D01*
X1263074Y1551109D01*
X1263001Y1550449D01*
X1263001Y1525029D01*
X1196336Y1458365D01*
X1196172Y1458136D01*
X1195977Y1457931D01*
X1195891Y1457745D01*
X1195771Y1457578D01*
X1195688Y1457309D01*
X1195569Y1457053D01*
X1195546Y1456849D01*
X1195486Y1456652D01*
X1195493Y1456370D01*
X1195462Y1456090D01*
X1195505Y1455889D01*
X1195511Y1455684D01*
X1195607Y1455419D01*
X1195667Y1455144D01*
X1195772Y1454967D01*
X1195843Y1454774D01*
X1196019Y1454554D01*
X1196163Y1454312D01*
X1196319Y1454178D01*
X1196448Y1454017D01*
X1196685Y1453865D01*
X1196899Y1453681D01*
X1197090Y1453604D01*
X1197262Y1453493D01*
X1197536Y1453424D01*
X1197797Y1453318D01*
X1198077Y1453287D01*
X1198202Y1453256D01*
X1198295Y1453263D01*
X1198457Y1453245D01*
X1199730Y1453245D01*
X1203245Y1449730D01*
X1203245Y1381194D01*
X1203290Y1380916D01*
X1203297Y1380634D01*
X1203368Y1380441D01*
X1203401Y1380238D01*
X1203533Y1379989D01*
X1203630Y1379724D01*
X1203758Y1379563D01*
X1203854Y1379382D01*
X1204058Y1379188D01*
X1204235Y1378968D01*
X1204407Y1378856D01*
X1204556Y1378715D01*
X1204812Y1378596D01*
X1205049Y1378443D01*
X1205248Y1378393D01*
X1205435Y1378306D01*
X1205715Y1378275D01*
X1205988Y1378206D01*
X1206193Y1378222D01*
X1206398Y1378199D01*
X1206674Y1378259D01*
X1206954Y1378280D01*
X1207143Y1378361D01*
X1207344Y1378404D01*
X1207586Y1378548D01*
X1207846Y1378659D01*
X1208067Y1378835D01*
X1208176Y1378900D01*
X1208237Y1378971D01*
X1208365Y1379073D01*
X1225883Y1396592D01*
X1253408Y1412483D01*
X1284108Y1420709D01*
X1315892Y1420709D01*
X1346592Y1412483D01*
X1374117Y1396592D01*
X1396592Y1374117D01*
X1412483Y1346592D01*
X1420078Y1318250D01*
X1420082Y1318234D01*
X1420274Y1317808D01*
X1420471Y1317365D01*
X1420477Y1317358D01*
X1420480Y1317351D01*
X1420802Y1317004D01*
X1421126Y1316651D01*
X1421134Y1316647D01*
X1421140Y1316641D01*
X1421555Y1316415D01*
X1421975Y1316184D01*
X1421983Y1316182D01*
X1421991Y1316178D01*
X1422460Y1316096D01*
X1422928Y1316011D01*
X1422936Y1316012D01*
X1422945Y1316011D01*
X1423418Y1316083D01*
X1423886Y1316151D01*
X1423894Y1316155D01*
X1423903Y1316156D01*
X1424327Y1316375D01*
X1424750Y1316589D01*
X1424756Y1316596D01*
X1424764Y1316600D01*
X1425098Y1316943D01*
X1425429Y1317280D01*
X1425434Y1317289D01*
X1425439Y1317294D01*
X1425454Y1317324D01*
X1425750Y1317862D01*
X1436050Y1342730D01*
X1457270Y1363950D01*
X1484995Y1375434D01*
X1515005Y1375434D01*
X1542730Y1363950D01*
X1563950Y1342730D01*
X1575434Y1315005D01*
X1575434Y1284995D01*
X1563950Y1257270D01*
X1542730Y1236050D01*
X1515005Y1224566D01*
X1484995Y1224566D01*
X1457270Y1236050D01*
X1436050Y1257270D01*
X1425750Y1282138D01*
X1425500Y1282540D01*
X1425250Y1282948D01*
X1425244Y1282954D01*
X1425239Y1282961D01*
X1424873Y1283265D01*
X1424508Y1283570D01*
X1424500Y1283574D01*
X1424493Y1283579D01*
X1424057Y1283747D01*
X1423606Y1283923D01*
X1423597Y1283924D01*
X1423589Y1283927D01*
X1423118Y1283947D01*
X1422638Y1283970D01*
X1422630Y1283968D01*
X1422621Y1283968D01*
X1422164Y1283836D01*
X1421706Y1283706D01*
X1421699Y1283701D01*
X1421691Y1283699D01*
X1421299Y1283427D01*
X1420907Y1283159D01*
X1420902Y1283152D01*
X1420894Y1283147D01*
X1420611Y1282766D01*
X1420324Y1282385D01*
X1420320Y1282375D01*
X1420316Y1282370D01*
X1420306Y1282339D01*
X1420082Y1281766D01*
X1412483Y1253408D01*
X1396592Y1225883D01*
X1374117Y1203408D01*
X1346592Y1187517D01*
X1315892Y1179291D01*
X1284108Y1179291D01*
G37*
%LPD*%
%LPC*%
G36*
X2134108Y1179291D02*
X2134108Y1179291D01*
X2103408Y1187517D01*
X2075883Y1203408D01*
X2053408Y1225883D01*
X2037517Y1253408D01*
X2029922Y1281750D01*
X2029918Y1281766D01*
X2029726Y1282192D01*
X2029529Y1282635D01*
X2029523Y1282642D01*
X2029520Y1282649D01*
X2029197Y1282996D01*
X2028874Y1283349D01*
X2028866Y1283353D01*
X2028860Y1283359D01*
X2028445Y1283585D01*
X2028025Y1283816D01*
X2028017Y1283818D01*
X2028009Y1283822D01*
X2027540Y1283904D01*
X2027072Y1283989D01*
X2027064Y1283988D01*
X2027055Y1283989D01*
X2026582Y1283917D01*
X2026114Y1283849D01*
X2026106Y1283845D01*
X2026097Y1283844D01*
X2025673Y1283625D01*
X2025250Y1283410D01*
X2025244Y1283404D01*
X2025236Y1283400D01*
X2024902Y1283057D01*
X2024571Y1282720D01*
X2024566Y1282711D01*
X2024561Y1282706D01*
X2024546Y1282675D01*
X2024250Y1282138D01*
X2013950Y1257270D01*
X1992730Y1236050D01*
X1965005Y1224566D01*
X1934995Y1224566D01*
X1907270Y1236050D01*
X1886050Y1257270D01*
X1874566Y1284995D01*
X1874566Y1315005D01*
X1886050Y1342730D01*
X1907270Y1363950D01*
X1934995Y1375434D01*
X1943756Y1375434D01*
X1943832Y1375446D01*
X1943910Y1375438D01*
X1944309Y1375524D01*
X1944712Y1375590D01*
X1944780Y1375626D01*
X1944856Y1375643D01*
X1945208Y1375852D01*
X1945568Y1376043D01*
X1945622Y1376099D01*
X1945688Y1376139D01*
X1945954Y1376449D01*
X1946235Y1376745D01*
X1946268Y1376816D01*
X1946319Y1376875D01*
X1946472Y1377253D01*
X1946644Y1377624D01*
X1946653Y1377701D01*
X1946682Y1377773D01*
X1946755Y1378433D01*
X1946755Y1449730D01*
X1950270Y1453245D01*
X2002031Y1453245D01*
X2002385Y1453303D01*
X2002741Y1453330D01*
X2002860Y1453380D01*
X2002987Y1453401D01*
X2003303Y1453569D01*
X2003633Y1453708D01*
X2003761Y1453811D01*
X2003843Y1453854D01*
X2003931Y1453947D01*
X2004152Y1454123D01*
X2084121Y1534092D01*
X2084330Y1534383D01*
X2084563Y1534655D01*
X2084611Y1534775D01*
X2084686Y1534879D01*
X2084791Y1535221D01*
X2084926Y1535553D01*
X2084944Y1535715D01*
X2084971Y1535805D01*
X2084968Y1535933D01*
X2084999Y1536213D01*
X2084999Y1550449D01*
X2084987Y1550525D01*
X2084995Y1550602D01*
X2084909Y1551002D01*
X2084843Y1551405D01*
X2084807Y1551473D01*
X2084790Y1551549D01*
X2084581Y1551900D01*
X2084390Y1552261D01*
X2084334Y1552314D01*
X2084294Y1552381D01*
X2083984Y1552647D01*
X2083688Y1552928D01*
X2083617Y1552961D01*
X2083558Y1553012D01*
X2083180Y1553164D01*
X2082908Y1553291D01*
X2079235Y1556963D01*
X2079235Y1601304D01*
X2082751Y1604820D01*
X2117249Y1604820D01*
X2120764Y1601304D01*
X2120764Y1556963D01*
X2117249Y1553448D01*
X2112000Y1553448D01*
X2111923Y1553436D01*
X2111846Y1553444D01*
X2111446Y1553358D01*
X2111044Y1553292D01*
X2110975Y1553255D01*
X2110899Y1553239D01*
X2110548Y1553029D01*
X2110188Y1552839D01*
X2110134Y1552782D01*
X2110068Y1552743D01*
X2109802Y1552433D01*
X2109520Y1552136D01*
X2109487Y1552066D01*
X2109437Y1552007D01*
X2109284Y1551628D01*
X2109112Y1551258D01*
X2109103Y1551181D01*
X2109074Y1551109D01*
X2109001Y1550449D01*
X2109001Y1525029D01*
X2042336Y1458365D01*
X2042172Y1458136D01*
X2041977Y1457931D01*
X2041891Y1457745D01*
X2041771Y1457578D01*
X2041688Y1457309D01*
X2041569Y1457053D01*
X2041546Y1456849D01*
X2041486Y1456652D01*
X2041493Y1456370D01*
X2041462Y1456090D01*
X2041505Y1455889D01*
X2041511Y1455684D01*
X2041607Y1455419D01*
X2041667Y1455144D01*
X2041772Y1454967D01*
X2041843Y1454774D01*
X2042019Y1454554D01*
X2042163Y1454312D01*
X2042319Y1454178D01*
X2042448Y1454017D01*
X2042685Y1453865D01*
X2042899Y1453681D01*
X2043090Y1453604D01*
X2043262Y1453493D01*
X2043536Y1453424D01*
X2043797Y1453318D01*
X2044077Y1453287D01*
X2044202Y1453256D01*
X2044295Y1453263D01*
X2044457Y1453245D01*
X2049730Y1453245D01*
X2053245Y1449730D01*
X2053245Y1381194D01*
X2053290Y1380916D01*
X2053297Y1380634D01*
X2053368Y1380441D01*
X2053401Y1380238D01*
X2053533Y1379989D01*
X2053630Y1379724D01*
X2053758Y1379563D01*
X2053854Y1379382D01*
X2054058Y1379188D01*
X2054235Y1378968D01*
X2054407Y1378856D01*
X2054556Y1378715D01*
X2054812Y1378596D01*
X2055049Y1378443D01*
X2055248Y1378393D01*
X2055435Y1378306D01*
X2055715Y1378275D01*
X2055988Y1378206D01*
X2056193Y1378222D01*
X2056398Y1378199D01*
X2056674Y1378259D01*
X2056954Y1378280D01*
X2057143Y1378361D01*
X2057344Y1378404D01*
X2057586Y1378548D01*
X2057846Y1378659D01*
X2058067Y1378835D01*
X2058176Y1378900D01*
X2058237Y1378971D01*
X2058365Y1379073D01*
X2075883Y1396592D01*
X2103408Y1412483D01*
X2134108Y1420709D01*
X2165892Y1420709D01*
X2196592Y1412483D01*
X2224117Y1396592D01*
X2246592Y1374117D01*
X2262483Y1346592D01*
X2270078Y1318250D01*
X2270082Y1318234D01*
X2270274Y1317808D01*
X2270471Y1317365D01*
X2270477Y1317358D01*
X2270480Y1317351D01*
X2270802Y1317004D01*
X2271126Y1316651D01*
X2271134Y1316647D01*
X2271140Y1316641D01*
X2271555Y1316415D01*
X2271975Y1316184D01*
X2271983Y1316182D01*
X2271991Y1316178D01*
X2272460Y1316096D01*
X2272928Y1316011D01*
X2272936Y1316012D01*
X2272945Y1316011D01*
X2273418Y1316083D01*
X2273886Y1316151D01*
X2273894Y1316155D01*
X2273903Y1316156D01*
X2274327Y1316375D01*
X2274750Y1316589D01*
X2274756Y1316596D01*
X2274764Y1316600D01*
X2275098Y1316943D01*
X2275429Y1317280D01*
X2275434Y1317289D01*
X2275439Y1317294D01*
X2275454Y1317324D01*
X2275750Y1317862D01*
X2286050Y1342730D01*
X2307270Y1363950D01*
X2334995Y1375434D01*
X2365005Y1375434D01*
X2392730Y1363950D01*
X2413950Y1342730D01*
X2425434Y1315005D01*
X2425434Y1284995D01*
X2413950Y1257270D01*
X2392730Y1236050D01*
X2365005Y1224566D01*
X2334995Y1224566D01*
X2307270Y1236050D01*
X2286050Y1257270D01*
X2275750Y1282138D01*
X2275500Y1282540D01*
X2275250Y1282948D01*
X2275244Y1282954D01*
X2275239Y1282961D01*
X2274873Y1283265D01*
X2274508Y1283570D01*
X2274500Y1283574D01*
X2274493Y1283579D01*
X2274057Y1283747D01*
X2273606Y1283923D01*
X2273597Y1283924D01*
X2273589Y1283927D01*
X2273118Y1283947D01*
X2272638Y1283970D01*
X2272630Y1283968D01*
X2272621Y1283968D01*
X2272164Y1283836D01*
X2271706Y1283706D01*
X2271699Y1283701D01*
X2271691Y1283699D01*
X2271299Y1283427D01*
X2270907Y1283159D01*
X2270902Y1283152D01*
X2270894Y1283147D01*
X2270611Y1282766D01*
X2270324Y1282385D01*
X2270320Y1282375D01*
X2270316Y1282370D01*
X2270306Y1282339D01*
X2270082Y1281766D01*
X2262483Y1253408D01*
X2246592Y1225883D01*
X2224117Y1203408D01*
X2196592Y1187517D01*
X2165892Y1179291D01*
X2134108Y1179291D01*
G37*
%LPD*%
%LPC*%
G36*
X2134108Y2029291D02*
X2134108Y2029291D01*
X2103408Y2037517D01*
X2075883Y2053408D01*
X2053408Y2075883D01*
X2037517Y2103408D01*
X2029918Y2131766D01*
X2029726Y2132192D01*
X2029529Y2132635D01*
X2029523Y2132642D01*
X2029520Y2132649D01*
X2029197Y2132996D01*
X2028874Y2133349D01*
X2028866Y2133353D01*
X2028860Y2133359D01*
X2028445Y2133585D01*
X2028025Y2133816D01*
X2028017Y2133818D01*
X2028009Y2133822D01*
X2027540Y2133904D01*
X2027072Y2133989D01*
X2027064Y2133988D01*
X2027055Y2133989D01*
X2026582Y2133917D01*
X2026114Y2133849D01*
X2026106Y2133845D01*
X2026097Y2133844D01*
X2025673Y2133625D01*
X2025250Y2133410D01*
X2025244Y2133404D01*
X2025236Y2133400D01*
X2024902Y2133057D01*
X2024571Y2132720D01*
X2024566Y2132711D01*
X2024561Y2132706D01*
X2024546Y2132675D01*
X2024250Y2132138D01*
X2013950Y2107270D01*
X1992730Y2086050D01*
X1965005Y2074566D01*
X1934995Y2074566D01*
X1907270Y2086050D01*
X1886050Y2107270D01*
X1874566Y2134995D01*
X1874566Y2165005D01*
X1886050Y2192730D01*
X1907270Y2213950D01*
X1934995Y2225434D01*
X1943756Y2225434D01*
X1943832Y2225446D01*
X1943910Y2225438D01*
X1944309Y2225524D01*
X1944712Y2225590D01*
X1944780Y2225626D01*
X1944856Y2225643D01*
X1945208Y2225852D01*
X1945568Y2226043D01*
X1945622Y2226099D01*
X1945688Y2226139D01*
X1945954Y2226449D01*
X1946235Y2226745D01*
X1946268Y2226816D01*
X1946319Y2226875D01*
X1946472Y2227253D01*
X1946644Y2227624D01*
X1946653Y2227701D01*
X1946682Y2227773D01*
X1946755Y2228433D01*
X1946755Y2299730D01*
X1950270Y2303245D01*
X2006031Y2303245D01*
X2006385Y2303303D01*
X2006741Y2303330D01*
X2006860Y2303380D01*
X2006987Y2303401D01*
X2007303Y2303569D01*
X2007633Y2303708D01*
X2007761Y2303811D01*
X2007843Y2303854D01*
X2007931Y2303947D01*
X2008152Y2304123D01*
X2084121Y2380092D01*
X2084330Y2380383D01*
X2084563Y2380655D01*
X2084611Y2380775D01*
X2084686Y2380879D01*
X2084791Y2381221D01*
X2084926Y2381553D01*
X2084944Y2381715D01*
X2084971Y2381805D01*
X2084968Y2381933D01*
X2084999Y2382213D01*
X2084999Y2400449D01*
X2084987Y2400525D01*
X2084995Y2400602D01*
X2084909Y2401002D01*
X2084843Y2401405D01*
X2084807Y2401473D01*
X2084790Y2401549D01*
X2084581Y2401900D01*
X2084390Y2402261D01*
X2084334Y2402314D01*
X2084294Y2402381D01*
X2083984Y2402647D01*
X2083688Y2402928D01*
X2083617Y2402961D01*
X2083558Y2403012D01*
X2083180Y2403164D01*
X2082908Y2403291D01*
X2079235Y2406963D01*
X2079235Y2451304D01*
X2082751Y2454820D01*
X2117249Y2454820D01*
X2120764Y2451304D01*
X2120764Y2406963D01*
X2117249Y2403448D01*
X2112000Y2403448D01*
X2111923Y2403436D01*
X2111846Y2403444D01*
X2111446Y2403358D01*
X2111044Y2403292D01*
X2110975Y2403255D01*
X2110899Y2403239D01*
X2110548Y2403029D01*
X2110188Y2402839D01*
X2110134Y2402782D01*
X2110068Y2402743D01*
X2109802Y2402433D01*
X2109520Y2402136D01*
X2109487Y2402066D01*
X2109437Y2402007D01*
X2109284Y2401628D01*
X2109112Y2401258D01*
X2109103Y2401181D01*
X2109074Y2401109D01*
X2109001Y2400449D01*
X2109001Y2371029D01*
X2046336Y2308365D01*
X2046172Y2308136D01*
X2045977Y2307931D01*
X2045891Y2307745D01*
X2045771Y2307578D01*
X2045688Y2307309D01*
X2045569Y2307053D01*
X2045546Y2306849D01*
X2045486Y2306652D01*
X2045493Y2306370D01*
X2045462Y2306090D01*
X2045505Y2305889D01*
X2045511Y2305684D01*
X2045607Y2305419D01*
X2045667Y2305144D01*
X2045772Y2304967D01*
X2045843Y2304774D01*
X2046019Y2304554D01*
X2046163Y2304312D01*
X2046319Y2304178D01*
X2046448Y2304017D01*
X2046685Y2303865D01*
X2046899Y2303681D01*
X2047090Y2303604D01*
X2047262Y2303493D01*
X2047536Y2303424D01*
X2047797Y2303318D01*
X2048077Y2303287D01*
X2048202Y2303256D01*
X2048295Y2303263D01*
X2048457Y2303245D01*
X2049730Y2303245D01*
X2053245Y2299730D01*
X2053245Y2231194D01*
X2053290Y2230916D01*
X2053297Y2230634D01*
X2053368Y2230441D01*
X2053401Y2230238D01*
X2053533Y2229989D01*
X2053630Y2229724D01*
X2053758Y2229563D01*
X2053854Y2229382D01*
X2054058Y2229188D01*
X2054235Y2228968D01*
X2054407Y2228856D01*
X2054556Y2228715D01*
X2054812Y2228596D01*
X2055049Y2228443D01*
X2055248Y2228393D01*
X2055435Y2228306D01*
X2055715Y2228275D01*
X2055988Y2228206D01*
X2056193Y2228222D01*
X2056398Y2228199D01*
X2056674Y2228259D01*
X2056954Y2228280D01*
X2057143Y2228361D01*
X2057344Y2228404D01*
X2057586Y2228548D01*
X2057846Y2228659D01*
X2058067Y2228835D01*
X2058176Y2228900D01*
X2058237Y2228971D01*
X2058365Y2229073D01*
X2075883Y2246592D01*
X2103408Y2262483D01*
X2134108Y2270709D01*
X2165892Y2270709D01*
X2196592Y2262483D01*
X2224117Y2246592D01*
X2246592Y2224117D01*
X2262483Y2196592D01*
X2270082Y2168234D01*
X2270274Y2167808D01*
X2270471Y2167365D01*
X2270477Y2167358D01*
X2270480Y2167351D01*
X2270802Y2167004D01*
X2271126Y2166651D01*
X2271134Y2166647D01*
X2271140Y2166641D01*
X2271560Y2166412D01*
X2271975Y2166184D01*
X2271983Y2166182D01*
X2271991Y2166178D01*
X2272460Y2166096D01*
X2272928Y2166011D01*
X2272936Y2166012D01*
X2272945Y2166011D01*
X2273418Y2166083D01*
X2273886Y2166151D01*
X2273894Y2166155D01*
X2273903Y2166156D01*
X2274327Y2166375D01*
X2274750Y2166589D01*
X2274756Y2166596D01*
X2274764Y2166600D01*
X2275098Y2166943D01*
X2275429Y2167280D01*
X2275434Y2167289D01*
X2275439Y2167294D01*
X2275454Y2167324D01*
X2275750Y2167862D01*
X2286050Y2192730D01*
X2307270Y2213950D01*
X2334995Y2225434D01*
X2365005Y2225434D01*
X2392730Y2213950D01*
X2413950Y2192730D01*
X2425434Y2165005D01*
X2425434Y2134995D01*
X2413950Y2107270D01*
X2392730Y2086050D01*
X2365005Y2074566D01*
X2334995Y2074566D01*
X2307270Y2086050D01*
X2286050Y2107270D01*
X2275750Y2132138D01*
X2275500Y2132542D01*
X2275250Y2132948D01*
X2275244Y2132954D01*
X2275239Y2132961D01*
X2274873Y2133265D01*
X2274508Y2133570D01*
X2274500Y2133574D01*
X2274493Y2133579D01*
X2274057Y2133747D01*
X2273606Y2133923D01*
X2273597Y2133924D01*
X2273589Y2133927D01*
X2273118Y2133947D01*
X2272638Y2133970D01*
X2272630Y2133968D01*
X2272621Y2133968D01*
X2272164Y2133836D01*
X2271706Y2133706D01*
X2271699Y2133701D01*
X2271691Y2133699D01*
X2271299Y2133427D01*
X2270907Y2133159D01*
X2270902Y2133152D01*
X2270894Y2133147D01*
X2270611Y2132766D01*
X2270324Y2132385D01*
X2270320Y2132375D01*
X2270316Y2132370D01*
X2270306Y2132339D01*
X2270082Y2131766D01*
X2262483Y2103408D01*
X2246592Y2075883D01*
X2224117Y2053408D01*
X2196592Y2037517D01*
X2165892Y2029291D01*
X2134108Y2029291D01*
G37*
%LPD*%
%LPC*%
G36*
X3425861Y807779D02*
X3425861Y807779D01*
X3422346Y811294D01*
X3422346Y855635D01*
X3425861Y859150D01*
X3432000Y859150D01*
X3432077Y859163D01*
X3432154Y859154D01*
X3432553Y859241D01*
X3432956Y859307D01*
X3433024Y859343D01*
X3433100Y859359D01*
X3433452Y859569D01*
X3433812Y859760D01*
X3433866Y859816D01*
X3433932Y859856D01*
X3434198Y860165D01*
X3434480Y860462D01*
X3434512Y860532D01*
X3434563Y860591D01*
X3434716Y860970D01*
X3434888Y861340D01*
X3434897Y861418D01*
X3434926Y861489D01*
X3434999Y862149D01*
X3434999Y867000D01*
X3434987Y867077D01*
X3434995Y867154D01*
X3434909Y867553D01*
X3434843Y867956D01*
X3434807Y868024D01*
X3434790Y868100D01*
X3434581Y868452D01*
X3434390Y868812D01*
X3434334Y868866D01*
X3434294Y868932D01*
X3433984Y869198D01*
X3433688Y869480D01*
X3433617Y869512D01*
X3433558Y869563D01*
X3433180Y869716D01*
X3432809Y869888D01*
X3432732Y869897D01*
X3432660Y869926D01*
X3432000Y869999D01*
X2490213Y869999D01*
X2489859Y869941D01*
X2489503Y869914D01*
X2489384Y869864D01*
X2489257Y869843D01*
X2488941Y869675D01*
X2488611Y869536D01*
X2488483Y869433D01*
X2488401Y869390D01*
X2488313Y869297D01*
X2488092Y869121D01*
X2479971Y860999D01*
X2473764Y860999D01*
X2473687Y860987D01*
X2473610Y860995D01*
X2473210Y860909D01*
X2472808Y860843D01*
X2472739Y860807D01*
X2472663Y860790D01*
X2472312Y860581D01*
X2471951Y860390D01*
X2471898Y860334D01*
X2471831Y860294D01*
X2471566Y859984D01*
X2471284Y859688D01*
X2471251Y859617D01*
X2471201Y859558D01*
X2471048Y859180D01*
X2470876Y858809D01*
X2470867Y858732D01*
X2470838Y858660D01*
X2470764Y858000D01*
X2470764Y848695D01*
X2467249Y845180D01*
X2432751Y845180D01*
X2429235Y848695D01*
X2429235Y858000D01*
X2429223Y858077D01*
X2429232Y858154D01*
X2429145Y858553D01*
X2429079Y858956D01*
X2429043Y859024D01*
X2429026Y859100D01*
X2428817Y859452D01*
X2428626Y859812D01*
X2428570Y859866D01*
X2428530Y859932D01*
X2428220Y860198D01*
X2427924Y860480D01*
X2427853Y860512D01*
X2427794Y860563D01*
X2427416Y860716D01*
X2427045Y860888D01*
X2426968Y860897D01*
X2426896Y860926D01*
X2426236Y860999D01*
X773764Y860999D01*
X773687Y860987D01*
X773610Y860995D01*
X773210Y860909D01*
X772808Y860843D01*
X772739Y860807D01*
X772663Y860790D01*
X772312Y860581D01*
X771951Y860390D01*
X771898Y860334D01*
X771831Y860294D01*
X771566Y859984D01*
X771284Y859688D01*
X771251Y859617D01*
X771201Y859558D01*
X771048Y859180D01*
X770876Y858809D01*
X770867Y858732D01*
X770838Y858660D01*
X770764Y858000D01*
X770764Y848695D01*
X767249Y845180D01*
X732751Y845180D01*
X729235Y848695D01*
X729235Y893037D01*
X732751Y896552D01*
X767249Y896552D01*
X770764Y893037D01*
X770764Y888000D01*
X770777Y887923D01*
X770768Y887846D01*
X770855Y887446D01*
X770921Y887044D01*
X770957Y886975D01*
X770974Y886899D01*
X771183Y886548D01*
X771374Y886188D01*
X771430Y886134D01*
X771470Y886068D01*
X771780Y885802D01*
X772076Y885520D01*
X772147Y885487D01*
X772205Y885437D01*
X772584Y885284D01*
X772955Y885112D01*
X773032Y885103D01*
X773104Y885074D01*
X773764Y885001D01*
X2426236Y885001D01*
X2426313Y885013D01*
X2426390Y885005D01*
X2426790Y885091D01*
X2427192Y885157D01*
X2427261Y885193D01*
X2427337Y885210D01*
X2427688Y885419D01*
X2428048Y885610D01*
X2428102Y885666D01*
X2428169Y885706D01*
X2428434Y886016D01*
X2428716Y886312D01*
X2428749Y886383D01*
X2428799Y886442D01*
X2428952Y886820D01*
X2429124Y887191D01*
X2429133Y887268D01*
X2429162Y887340D01*
X2429235Y888000D01*
X2429235Y893037D01*
X2432751Y896552D01*
X2467249Y896552D01*
X2470764Y893037D01*
X2470764Y892977D01*
X2470810Y892698D01*
X2470817Y892417D01*
X2470888Y892223D01*
X2470921Y892021D01*
X2471053Y891772D01*
X2471149Y891507D01*
X2471278Y891346D01*
X2471374Y891164D01*
X2471578Y890971D01*
X2471754Y890750D01*
X2471927Y890639D01*
X2472076Y890497D01*
X2472332Y890378D01*
X2472569Y890226D01*
X2472768Y890175D01*
X2472955Y890089D01*
X2473235Y890057D01*
X2473508Y889988D01*
X2473713Y890004D01*
X2473917Y889981D01*
X2474193Y890041D01*
X2474474Y890063D01*
X2474663Y890143D01*
X2474864Y890187D01*
X2475106Y890331D01*
X2475366Y890441D01*
X2475586Y890617D01*
X2475696Y890683D01*
X2475757Y890754D01*
X2475884Y890856D01*
X2479029Y894001D01*
X3432000Y894001D01*
X3432077Y894013D01*
X3432154Y894005D01*
X3432553Y894091D01*
X3432956Y894157D01*
X3433024Y894193D01*
X3433100Y894210D01*
X3433452Y894419D01*
X3433812Y894610D01*
X3433866Y894666D01*
X3433932Y894706D01*
X3434198Y895016D01*
X3434480Y895312D01*
X3434512Y895383D01*
X3434563Y895442D01*
X3434716Y895820D01*
X3434888Y896191D01*
X3434897Y896268D01*
X3434926Y896340D01*
X3434999Y897000D01*
X3434999Y1372971D01*
X3620908Y1558879D01*
X3621072Y1559108D01*
X3621266Y1559313D01*
X3621353Y1559499D01*
X3621473Y1559666D01*
X3621556Y1559935D01*
X3621675Y1560191D01*
X3621698Y1560395D01*
X3621758Y1560592D01*
X3621751Y1560874D01*
X3621782Y1561154D01*
X3621739Y1561355D01*
X3621733Y1561560D01*
X3621637Y1561825D01*
X3621577Y1562100D01*
X3621472Y1562277D01*
X3621401Y1562470D01*
X3621225Y1562691D01*
X3621081Y1562932D01*
X3620925Y1563066D01*
X3620796Y1563227D01*
X3620559Y1563379D01*
X3620345Y1563563D01*
X3620154Y1563640D01*
X3619982Y1563751D01*
X3619708Y1563820D01*
X3619447Y1563926D01*
X3619167Y1563957D01*
X3619042Y1563988D01*
X3618949Y1563981D01*
X3618787Y1563999D01*
X3612839Y1563999D01*
X3599607Y1569480D01*
X3589480Y1579607D01*
X3583999Y1592839D01*
X3583999Y1607161D01*
X3589480Y1620393D01*
X3599607Y1630520D01*
X3612839Y1636001D01*
X3687161Y1636001D01*
X3700393Y1630520D01*
X3710520Y1620393D01*
X3716001Y1607161D01*
X3716001Y1592839D01*
X3710520Y1579607D01*
X3700393Y1569480D01*
X3687161Y1563999D01*
X3661213Y1563999D01*
X3660859Y1563941D01*
X3660503Y1563914D01*
X3660384Y1563864D01*
X3660257Y1563843D01*
X3659941Y1563675D01*
X3659611Y1563536D01*
X3659483Y1563433D01*
X3659401Y1563390D01*
X3659313Y1563297D01*
X3659092Y1563121D01*
X3459879Y1363907D01*
X3459670Y1363617D01*
X3459437Y1363345D01*
X3459389Y1363225D01*
X3459314Y1363121D01*
X3459208Y1362779D01*
X3459074Y1362447D01*
X3459056Y1362284D01*
X3459029Y1362195D01*
X3459032Y1362067D01*
X3459001Y1361787D01*
X3459001Y862149D01*
X3459013Y862073D01*
X3459005Y861996D01*
X3459091Y861596D01*
X3459157Y861193D01*
X3459193Y861125D01*
X3459210Y861049D01*
X3459419Y860698D01*
X3459610Y860337D01*
X3459666Y860284D01*
X3459706Y860217D01*
X3460016Y859952D01*
X3460312Y859670D01*
X3460383Y859637D01*
X3460442Y859587D01*
X3460820Y859434D01*
X3461191Y859261D01*
X3461268Y859253D01*
X3461340Y859224D01*
X3462000Y859150D01*
X3474139Y859150D01*
X3477654Y855635D01*
X3477654Y811294D01*
X3474139Y807779D01*
X3425861Y807779D01*
G37*
%LPD*%
%LPC*%
G36*
X3612839Y1663999D02*
X3612839Y1663999D01*
X3599607Y1669480D01*
X3589480Y1679607D01*
X3583999Y1692839D01*
X3583999Y1707562D01*
X3584000Y1707567D01*
X3583999Y1707581D01*
X3583999Y1707758D01*
X3583962Y1707985D01*
X3583958Y1708034D01*
X3583922Y1708489D01*
X3583914Y1708509D01*
X3583912Y1708532D01*
X3583850Y1708672D01*
X3583843Y1708714D01*
X3583773Y1708845D01*
X3583725Y1708955D01*
X3583544Y1709380D01*
X3583527Y1709402D01*
X3583520Y1709418D01*
X3583473Y1709469D01*
X3583129Y1709899D01*
X3568907Y1724121D01*
X3568617Y1724330D01*
X3568345Y1724563D01*
X3568225Y1724611D01*
X3568121Y1724686D01*
X3567779Y1724791D01*
X3567447Y1724926D01*
X3567284Y1724944D01*
X3567195Y1724971D01*
X3567067Y1724968D01*
X3566787Y1724999D01*
X3480653Y1724999D01*
X3480577Y1724987D01*
X3480500Y1724995D01*
X3480100Y1724909D01*
X3479697Y1724843D01*
X3479629Y1724807D01*
X3479553Y1724790D01*
X3479202Y1724581D01*
X3478841Y1724390D01*
X3478788Y1724334D01*
X3478721Y1724294D01*
X3478456Y1723984D01*
X3478174Y1723688D01*
X3478141Y1723617D01*
X3478091Y1723558D01*
X3477938Y1723180D01*
X3477765Y1722809D01*
X3477757Y1722732D01*
X3477728Y1722660D01*
X3477654Y1722000D01*
X3477654Y1711294D01*
X3474139Y1707779D01*
X3425861Y1707779D01*
X3422346Y1711294D01*
X3422346Y1713000D01*
X3422333Y1713077D01*
X3422342Y1713154D01*
X3422255Y1713553D01*
X3422189Y1713956D01*
X3422153Y1714024D01*
X3422137Y1714100D01*
X3421927Y1714452D01*
X3421736Y1714812D01*
X3421680Y1714866D01*
X3421640Y1714932D01*
X3421330Y1715198D01*
X3421034Y1715480D01*
X3420963Y1715512D01*
X3420905Y1715563D01*
X3420526Y1715716D01*
X3420156Y1715888D01*
X3420078Y1715897D01*
X3420007Y1715926D01*
X3419346Y1715999D01*
X3417213Y1715999D01*
X3416859Y1715941D01*
X3416503Y1715914D01*
X3416384Y1715864D01*
X3416257Y1715843D01*
X3415941Y1715675D01*
X3415611Y1715536D01*
X3415483Y1715433D01*
X3415401Y1715390D01*
X3415313Y1715297D01*
X3415092Y1715121D01*
X3406971Y1706999D01*
X2973764Y1706999D01*
X2973687Y1706987D01*
X2973610Y1706995D01*
X2973210Y1706909D01*
X2972808Y1706843D01*
X2972739Y1706807D01*
X2972663Y1706790D01*
X2972312Y1706581D01*
X2971951Y1706390D01*
X2971898Y1706334D01*
X2971831Y1706294D01*
X2971566Y1705984D01*
X2971284Y1705688D01*
X2971251Y1705617D01*
X2971201Y1705558D01*
X2971048Y1705180D01*
X2970876Y1704809D01*
X2970867Y1704732D01*
X2970838Y1704660D01*
X2970764Y1704000D01*
X2970764Y1698695D01*
X2967249Y1695180D01*
X2932751Y1695180D01*
X2929235Y1698695D01*
X2929235Y1704000D01*
X2929223Y1704077D01*
X2929232Y1704154D01*
X2929145Y1704553D01*
X2929079Y1704956D01*
X2929043Y1705024D01*
X2929026Y1705100D01*
X2928817Y1705452D01*
X2928626Y1705812D01*
X2928570Y1705866D01*
X2928530Y1705932D01*
X2928220Y1706198D01*
X2927924Y1706480D01*
X2927853Y1706512D01*
X2927794Y1706563D01*
X2927416Y1706716D01*
X2927045Y1706888D01*
X2926968Y1706897D01*
X2926896Y1706926D01*
X2926236Y1706999D01*
X2123764Y1706999D01*
X2123687Y1706987D01*
X2123610Y1706995D01*
X2123210Y1706909D01*
X2122808Y1706843D01*
X2122739Y1706807D01*
X2122663Y1706790D01*
X2122312Y1706581D01*
X2121951Y1706390D01*
X2121898Y1706334D01*
X2121831Y1706294D01*
X2121566Y1705984D01*
X2121284Y1705688D01*
X2121251Y1705617D01*
X2121201Y1705558D01*
X2121048Y1705180D01*
X2120876Y1704809D01*
X2120867Y1704732D01*
X2120838Y1704660D01*
X2120764Y1704000D01*
X2120764Y1698695D01*
X2117249Y1695180D01*
X2082751Y1695180D01*
X2079235Y1698695D01*
X2079235Y1704000D01*
X2079223Y1704077D01*
X2079232Y1704154D01*
X2079145Y1704553D01*
X2079079Y1704956D01*
X2079043Y1705024D01*
X2079026Y1705100D01*
X2078817Y1705452D01*
X2078626Y1705812D01*
X2078570Y1705866D01*
X2078530Y1705932D01*
X2078220Y1706198D01*
X2077924Y1706480D01*
X2077853Y1706512D01*
X2077794Y1706563D01*
X2077416Y1706716D01*
X2077045Y1706888D01*
X2076968Y1706897D01*
X2076896Y1706926D01*
X2076236Y1706999D01*
X1273764Y1706999D01*
X1273687Y1706987D01*
X1273610Y1706995D01*
X1273210Y1706909D01*
X1272808Y1706843D01*
X1272739Y1706807D01*
X1272663Y1706790D01*
X1272312Y1706581D01*
X1271951Y1706390D01*
X1271898Y1706334D01*
X1271831Y1706294D01*
X1271566Y1705984D01*
X1271284Y1705688D01*
X1271251Y1705617D01*
X1271201Y1705558D01*
X1271048Y1705180D01*
X1270876Y1704809D01*
X1270867Y1704732D01*
X1270838Y1704660D01*
X1270764Y1704000D01*
X1270764Y1698695D01*
X1267249Y1695180D01*
X1232751Y1695180D01*
X1229235Y1698695D01*
X1229235Y1704000D01*
X1229223Y1704077D01*
X1229232Y1704154D01*
X1229145Y1704553D01*
X1229079Y1704956D01*
X1229043Y1705024D01*
X1229026Y1705100D01*
X1228817Y1705452D01*
X1228626Y1705812D01*
X1228570Y1705866D01*
X1228530Y1705932D01*
X1228220Y1706198D01*
X1227924Y1706480D01*
X1227853Y1706512D01*
X1227794Y1706563D01*
X1227416Y1706716D01*
X1227045Y1706888D01*
X1226968Y1706897D01*
X1226896Y1706926D01*
X1226236Y1706999D01*
X423764Y1706999D01*
X423687Y1706987D01*
X423610Y1706995D01*
X423210Y1706909D01*
X422808Y1706843D01*
X422739Y1706807D01*
X422663Y1706790D01*
X422312Y1706581D01*
X421951Y1706390D01*
X421898Y1706334D01*
X421831Y1706294D01*
X421566Y1705984D01*
X421284Y1705688D01*
X421251Y1705617D01*
X421201Y1705558D01*
X421048Y1705180D01*
X420876Y1704809D01*
X420867Y1704732D01*
X420838Y1704660D01*
X420764Y1704000D01*
X420764Y1698695D01*
X417249Y1695180D01*
X382751Y1695180D01*
X379235Y1698695D01*
X379235Y1743037D01*
X382751Y1746552D01*
X417249Y1746552D01*
X420764Y1743037D01*
X420764Y1734000D01*
X420777Y1733923D01*
X420768Y1733846D01*
X420855Y1733446D01*
X420921Y1733044D01*
X420957Y1732975D01*
X420974Y1732899D01*
X421183Y1732548D01*
X421374Y1732188D01*
X421430Y1732134D01*
X421470Y1732068D01*
X421780Y1731802D01*
X422076Y1731520D01*
X422147Y1731487D01*
X422205Y1731437D01*
X422584Y1731284D01*
X422955Y1731112D01*
X423032Y1731103D01*
X423104Y1731074D01*
X423764Y1731001D01*
X1226236Y1731001D01*
X1226313Y1731013D01*
X1226390Y1731005D01*
X1226790Y1731091D01*
X1227192Y1731157D01*
X1227261Y1731193D01*
X1227337Y1731210D01*
X1227688Y1731419D01*
X1228048Y1731610D01*
X1228102Y1731666D01*
X1228169Y1731706D01*
X1228434Y1732016D01*
X1228716Y1732312D01*
X1228749Y1732383D01*
X1228799Y1732442D01*
X1228952Y1732820D01*
X1229124Y1733191D01*
X1229133Y1733268D01*
X1229162Y1733340D01*
X1229235Y1734000D01*
X1229235Y1743037D01*
X1232751Y1746552D01*
X1267249Y1746552D01*
X1270764Y1743037D01*
X1270764Y1734000D01*
X1270777Y1733923D01*
X1270768Y1733846D01*
X1270855Y1733446D01*
X1270921Y1733044D01*
X1270957Y1732975D01*
X1270974Y1732899D01*
X1271183Y1732548D01*
X1271374Y1732188D01*
X1271430Y1732134D01*
X1271470Y1732068D01*
X1271780Y1731802D01*
X1272076Y1731520D01*
X1272147Y1731487D01*
X1272205Y1731437D01*
X1272584Y1731284D01*
X1272955Y1731112D01*
X1273032Y1731103D01*
X1273104Y1731074D01*
X1273764Y1731001D01*
X2076236Y1731001D01*
X2076313Y1731013D01*
X2076390Y1731005D01*
X2076790Y1731091D01*
X2077192Y1731157D01*
X2077261Y1731193D01*
X2077337Y1731210D01*
X2077688Y1731419D01*
X2078048Y1731610D01*
X2078102Y1731666D01*
X2078169Y1731706D01*
X2078434Y1732016D01*
X2078716Y1732312D01*
X2078749Y1732383D01*
X2078799Y1732442D01*
X2078952Y1732820D01*
X2079124Y1733191D01*
X2079133Y1733268D01*
X2079162Y1733340D01*
X2079235Y1734000D01*
X2079235Y1743037D01*
X2082751Y1746552D01*
X2117249Y1746552D01*
X2120764Y1743037D01*
X2120764Y1734000D01*
X2120777Y1733923D01*
X2120768Y1733846D01*
X2120855Y1733446D01*
X2120921Y1733044D01*
X2120957Y1732975D01*
X2120974Y1732899D01*
X2121183Y1732548D01*
X2121374Y1732188D01*
X2121430Y1732134D01*
X2121470Y1732068D01*
X2121780Y1731802D01*
X2122076Y1731520D01*
X2122147Y1731487D01*
X2122205Y1731437D01*
X2122584Y1731284D01*
X2122955Y1731112D01*
X2123032Y1731103D01*
X2123104Y1731074D01*
X2123764Y1731001D01*
X2926236Y1731001D01*
X2926313Y1731013D01*
X2926390Y1731005D01*
X2926790Y1731091D01*
X2927192Y1731157D01*
X2927261Y1731193D01*
X2927337Y1731210D01*
X2927688Y1731419D01*
X2928048Y1731610D01*
X2928102Y1731666D01*
X2928169Y1731706D01*
X2928434Y1732016D01*
X2928716Y1732312D01*
X2928749Y1732383D01*
X2928799Y1732442D01*
X2928952Y1732820D01*
X2929124Y1733191D01*
X2929133Y1733268D01*
X2929162Y1733340D01*
X2929235Y1734000D01*
X2929235Y1743037D01*
X2932751Y1746552D01*
X2967249Y1746552D01*
X2970764Y1743037D01*
X2970764Y1734000D01*
X2970777Y1733923D01*
X2970768Y1733846D01*
X2970855Y1733446D01*
X2970921Y1733044D01*
X2970957Y1732975D01*
X2970974Y1732899D01*
X2971183Y1732548D01*
X2971374Y1732188D01*
X2971430Y1732134D01*
X2971470Y1732068D01*
X2971780Y1731802D01*
X2972076Y1731520D01*
X2972147Y1731487D01*
X2972205Y1731437D01*
X2972584Y1731284D01*
X2972955Y1731112D01*
X2973032Y1731103D01*
X2973104Y1731074D01*
X2973764Y1731001D01*
X3395787Y1731001D01*
X3396141Y1731059D01*
X3396497Y1731086D01*
X3396615Y1731136D01*
X3396743Y1731157D01*
X3397059Y1731324D01*
X3397389Y1731464D01*
X3397517Y1731567D01*
X3397599Y1731610D01*
X3397687Y1731703D01*
X3397907Y1731879D01*
X3406029Y1740001D01*
X3419346Y1740001D01*
X3419423Y1740013D01*
X3419500Y1740005D01*
X3419900Y1740091D01*
X3420303Y1740157D01*
X3420371Y1740193D01*
X3420447Y1740210D01*
X3420798Y1740419D01*
X3421159Y1740610D01*
X3421212Y1740666D01*
X3421279Y1740706D01*
X3421544Y1741016D01*
X3421826Y1741312D01*
X3421859Y1741383D01*
X3421909Y1741442D01*
X3422062Y1741820D01*
X3422234Y1742191D01*
X3422243Y1742268D01*
X3422272Y1742340D01*
X3422346Y1743000D01*
X3422346Y1755635D01*
X3425861Y1759150D01*
X3474139Y1759150D01*
X3477654Y1755635D01*
X3477654Y1752000D01*
X3477667Y1751923D01*
X3477658Y1751846D01*
X3477745Y1751446D01*
X3477811Y1751044D01*
X3477847Y1750975D01*
X3477863Y1750899D01*
X3478073Y1750548D01*
X3478264Y1750188D01*
X3478320Y1750134D01*
X3478360Y1750068D01*
X3478669Y1749802D01*
X3478966Y1749520D01*
X3479036Y1749487D01*
X3479095Y1749437D01*
X3479474Y1749284D01*
X3479844Y1749112D01*
X3479922Y1749103D01*
X3479993Y1749074D01*
X3480653Y1749001D01*
X3577971Y1749001D01*
X3595959Y1731013D01*
X3596330Y1730746D01*
X3596700Y1730470D01*
X3596725Y1730462D01*
X3596745Y1730447D01*
X3597181Y1730313D01*
X3597621Y1730170D01*
X3597647Y1730170D01*
X3597671Y1730162D01*
X3598130Y1730174D01*
X3598589Y1730178D01*
X3598619Y1730187D01*
X3598640Y1730187D01*
X3598711Y1730213D01*
X3599227Y1730363D01*
X3612839Y1736001D01*
X3687161Y1736001D01*
X3700393Y1730520D01*
X3710520Y1720393D01*
X3716001Y1707161D01*
X3716001Y1692839D01*
X3710520Y1679607D01*
X3700393Y1669480D01*
X3687161Y1663999D01*
X3612839Y1663999D01*
G37*
%LPD*%
%LPC*%
G36*
X2484367Y331259D02*
X2484367Y331259D01*
X2454168Y339351D01*
X2427091Y354984D01*
X2404984Y377091D01*
X2389351Y404168D01*
X2381259Y434367D01*
X2381259Y465633D01*
X2389378Y495932D01*
X2389424Y496396D01*
X2389476Y496862D01*
X2389473Y496879D01*
X2389474Y496896D01*
X2389370Y497351D01*
X2389271Y497809D01*
X2389262Y497824D01*
X2389258Y497841D01*
X2389012Y498243D01*
X2388775Y498641D01*
X2388762Y498652D01*
X2388753Y498667D01*
X2388392Y498969D01*
X2388039Y499271D01*
X2388023Y499278D01*
X2388010Y499289D01*
X2387572Y499460D01*
X2387141Y499634D01*
X2387121Y499637D01*
X2387108Y499642D01*
X2387049Y499645D01*
X2386481Y499708D01*
X2361428Y499708D01*
X2361150Y499662D01*
X2360868Y499655D01*
X2360675Y499585D01*
X2360472Y499551D01*
X2360223Y499420D01*
X2359958Y499323D01*
X2359797Y499194D01*
X2359616Y499098D01*
X2359422Y498894D01*
X2359202Y498718D01*
X2359090Y498545D01*
X2358949Y498396D01*
X2358830Y498140D01*
X2358677Y497903D01*
X2358627Y497704D01*
X2358540Y497518D01*
X2358509Y497237D01*
X2358440Y496964D01*
X2358456Y496759D01*
X2358433Y496555D01*
X2358493Y496279D01*
X2358514Y495998D01*
X2358595Y495809D01*
X2358638Y495608D01*
X2358782Y495366D01*
X2358893Y495107D01*
X2359069Y494886D01*
X2359134Y494776D01*
X2359205Y494716D01*
X2359307Y494588D01*
X2362281Y491615D01*
X2373465Y464613D01*
X2373465Y435387D01*
X2362281Y408385D01*
X2341615Y387719D01*
X2314613Y376535D01*
X2285387Y376535D01*
X2258385Y387719D01*
X2237719Y408385D01*
X2226535Y435387D01*
X2226535Y464613D01*
X2237719Y491615D01*
X2258385Y512281D01*
X2285387Y523465D01*
X2296709Y523465D01*
X2296785Y523478D01*
X2296862Y523469D01*
X2297262Y523556D01*
X2297665Y523622D01*
X2297733Y523658D01*
X2297809Y523674D01*
X2298160Y523884D01*
X2298521Y524075D01*
X2298574Y524131D01*
X2298641Y524171D01*
X2298906Y524480D01*
X2299188Y524777D01*
X2299221Y524847D01*
X2299271Y524906D01*
X2299424Y525285D01*
X2299597Y525655D01*
X2299605Y525733D01*
X2299634Y525804D01*
X2299708Y526464D01*
X2299708Y596777D01*
X2303223Y600292D01*
X2355078Y600292D01*
X2355432Y600350D01*
X2355788Y600377D01*
X2355907Y600428D01*
X2356034Y600448D01*
X2356350Y600616D01*
X2356680Y600756D01*
X2356808Y600858D01*
X2356890Y600901D01*
X2356978Y600994D01*
X2357199Y601170D01*
X2435121Y679092D01*
X2435330Y679383D01*
X2435563Y679655D01*
X2435611Y679775D01*
X2435686Y679879D01*
X2435791Y680221D01*
X2435926Y680553D01*
X2435944Y680715D01*
X2435971Y680805D01*
X2435968Y680933D01*
X2435999Y681213D01*
X2435999Y700449D01*
X2435987Y700525D01*
X2435995Y700602D01*
X2435909Y701002D01*
X2435843Y701405D01*
X2435807Y701473D01*
X2435790Y701549D01*
X2435581Y701900D01*
X2435390Y702261D01*
X2435334Y702314D01*
X2435294Y702381D01*
X2434984Y702647D01*
X2434688Y702928D01*
X2434617Y702961D01*
X2434558Y703012D01*
X2434180Y703164D01*
X2433809Y703337D01*
X2433732Y703345D01*
X2433660Y703375D01*
X2433000Y703448D01*
X2432751Y703448D01*
X2429235Y706963D01*
X2429235Y751304D01*
X2432751Y754820D01*
X2467249Y754820D01*
X2470764Y751304D01*
X2470764Y706963D01*
X2467249Y703448D01*
X2463000Y703448D01*
X2462923Y703436D01*
X2462846Y703444D01*
X2462446Y703358D01*
X2462044Y703292D01*
X2461975Y703255D01*
X2461899Y703239D01*
X2461548Y703029D01*
X2461188Y702839D01*
X2461134Y702782D01*
X2461068Y702743D01*
X2460802Y702433D01*
X2460520Y702136D01*
X2460487Y702066D01*
X2460437Y702007D01*
X2460284Y701628D01*
X2460112Y701258D01*
X2460103Y701181D01*
X2460074Y701109D01*
X2460001Y700449D01*
X2460001Y670029D01*
X2395383Y605412D01*
X2395219Y605183D01*
X2395025Y604979D01*
X2394938Y604792D01*
X2394818Y604625D01*
X2394735Y604356D01*
X2394616Y604100D01*
X2394594Y603896D01*
X2394533Y603700D01*
X2394540Y603418D01*
X2394509Y603138D01*
X2394553Y602937D01*
X2394558Y602731D01*
X2394654Y602466D01*
X2394714Y602191D01*
X2394820Y602014D01*
X2394890Y601821D01*
X2395066Y601601D01*
X2395211Y601359D01*
X2395367Y601225D01*
X2395495Y601065D01*
X2395732Y600912D01*
X2395946Y600728D01*
X2396137Y600651D01*
X2396310Y600540D01*
X2396583Y600471D01*
X2396608Y600461D01*
X2400292Y596777D01*
X2400292Y525458D01*
X2400337Y525179D01*
X2400345Y524898D01*
X2400415Y524704D01*
X2400448Y524501D01*
X2400580Y524253D01*
X2400677Y523987D01*
X2400805Y523827D01*
X2400901Y523645D01*
X2401105Y523451D01*
X2401282Y523231D01*
X2401455Y523120D01*
X2401604Y522978D01*
X2401860Y522859D01*
X2402096Y522707D01*
X2402296Y522656D01*
X2402482Y522570D01*
X2402762Y522538D01*
X2403036Y522469D01*
X2403240Y522485D01*
X2403445Y522462D01*
X2403721Y522522D01*
X2404002Y522544D01*
X2404191Y522624D01*
X2404392Y522667D01*
X2404634Y522812D01*
X2404893Y522922D01*
X2405114Y523098D01*
X2405224Y523164D01*
X2405284Y523234D01*
X2405412Y523337D01*
X2427091Y545016D01*
X2454168Y560649D01*
X2484367Y568741D01*
X2515633Y568741D01*
X2545832Y560649D01*
X2572908Y545016D01*
X2595016Y522908D01*
X2610649Y495832D01*
X2618741Y465633D01*
X2618741Y434367D01*
X2610649Y404168D01*
X2595016Y377091D01*
X2572908Y354984D01*
X2545832Y339351D01*
X2515633Y331259D01*
X2484367Y331259D01*
G37*
%LPD*%
%LPC*%
G36*
X784367Y331259D02*
X784367Y331259D01*
X754168Y339351D01*
X727091Y354984D01*
X704984Y377091D01*
X689351Y404168D01*
X681259Y434367D01*
X681259Y465633D01*
X689378Y495932D01*
X689424Y496396D01*
X689476Y496862D01*
X689473Y496879D01*
X689474Y496896D01*
X689370Y497351D01*
X689271Y497809D01*
X689262Y497824D01*
X689258Y497841D01*
X689012Y498243D01*
X688775Y498641D01*
X688762Y498652D01*
X688753Y498667D01*
X688392Y498969D01*
X688039Y499271D01*
X688023Y499278D01*
X688010Y499289D01*
X687572Y499460D01*
X687141Y499634D01*
X687121Y499637D01*
X687108Y499642D01*
X687049Y499645D01*
X686481Y499708D01*
X661428Y499708D01*
X661150Y499662D01*
X660868Y499655D01*
X660675Y499585D01*
X660472Y499551D01*
X660223Y499420D01*
X659958Y499323D01*
X659797Y499194D01*
X659616Y499098D01*
X659422Y498894D01*
X659202Y498718D01*
X659090Y498545D01*
X658949Y498396D01*
X658830Y498140D01*
X658677Y497903D01*
X658627Y497704D01*
X658540Y497518D01*
X658509Y497237D01*
X658440Y496964D01*
X658456Y496759D01*
X658433Y496555D01*
X658493Y496279D01*
X658514Y495998D01*
X658595Y495809D01*
X658638Y495608D01*
X658782Y495366D01*
X658893Y495107D01*
X659069Y494886D01*
X659134Y494776D01*
X659205Y494716D01*
X659307Y494588D01*
X662281Y491615D01*
X673465Y464613D01*
X673465Y435387D01*
X662281Y408385D01*
X641615Y387719D01*
X614613Y376535D01*
X585387Y376535D01*
X558385Y387719D01*
X537719Y408385D01*
X526535Y435387D01*
X526535Y464613D01*
X537719Y491615D01*
X558385Y512281D01*
X585387Y523465D01*
X596709Y523465D01*
X596785Y523478D01*
X596862Y523469D01*
X597262Y523556D01*
X597665Y523622D01*
X597733Y523658D01*
X597809Y523674D01*
X598160Y523884D01*
X598521Y524075D01*
X598574Y524131D01*
X598641Y524171D01*
X598906Y524480D01*
X599188Y524777D01*
X599221Y524847D01*
X599271Y524906D01*
X599424Y525285D01*
X599597Y525655D01*
X599605Y525733D01*
X599634Y525804D01*
X599708Y526464D01*
X599708Y596777D01*
X603223Y600292D01*
X654078Y600292D01*
X654432Y600350D01*
X654788Y600377D01*
X654907Y600428D01*
X655034Y600448D01*
X655350Y600616D01*
X655680Y600756D01*
X655808Y600858D01*
X655890Y600901D01*
X655978Y600994D01*
X656199Y601170D01*
X734121Y679092D01*
X734330Y679383D01*
X734563Y679655D01*
X734611Y679775D01*
X734686Y679879D01*
X734791Y680221D01*
X734926Y680553D01*
X734944Y680715D01*
X734971Y680805D01*
X734968Y680933D01*
X734999Y681213D01*
X734999Y700449D01*
X734987Y700525D01*
X734995Y700602D01*
X734909Y701002D01*
X734843Y701405D01*
X734807Y701473D01*
X734790Y701549D01*
X734581Y701900D01*
X734390Y702261D01*
X734334Y702314D01*
X734294Y702381D01*
X733984Y702647D01*
X733688Y702928D01*
X733617Y702961D01*
X733558Y703012D01*
X733180Y703164D01*
X732908Y703291D01*
X729235Y706963D01*
X729235Y751304D01*
X732751Y754820D01*
X767249Y754820D01*
X770764Y751304D01*
X770764Y706963D01*
X767249Y703448D01*
X762000Y703448D01*
X761923Y703436D01*
X761846Y703444D01*
X761446Y703358D01*
X761044Y703292D01*
X760975Y703255D01*
X760899Y703239D01*
X760548Y703029D01*
X760188Y702839D01*
X760134Y702782D01*
X760068Y702743D01*
X759802Y702433D01*
X759520Y702136D01*
X759487Y702066D01*
X759437Y702007D01*
X759284Y701628D01*
X759112Y701258D01*
X759103Y701181D01*
X759074Y701109D01*
X759001Y700449D01*
X759001Y670029D01*
X694383Y605412D01*
X694219Y605183D01*
X694025Y604979D01*
X693938Y604792D01*
X693818Y604625D01*
X693735Y604356D01*
X693616Y604100D01*
X693594Y603896D01*
X693533Y603700D01*
X693540Y603418D01*
X693509Y603138D01*
X693553Y602937D01*
X693558Y602731D01*
X693654Y602466D01*
X693714Y602191D01*
X693820Y602014D01*
X693890Y601821D01*
X694066Y601601D01*
X694211Y601359D01*
X694367Y601225D01*
X694495Y601065D01*
X694732Y600912D01*
X694946Y600728D01*
X695137Y600651D01*
X695310Y600540D01*
X695583Y600471D01*
X695844Y600366D01*
X696125Y600334D01*
X696249Y600303D01*
X696342Y600310D01*
X696504Y600292D01*
X696777Y600292D01*
X700292Y596777D01*
X700292Y525458D01*
X700337Y525179D01*
X700345Y524898D01*
X700415Y524704D01*
X700448Y524501D01*
X700580Y524253D01*
X700677Y523987D01*
X700805Y523827D01*
X700901Y523645D01*
X701105Y523451D01*
X701282Y523231D01*
X701455Y523120D01*
X701604Y522978D01*
X701860Y522859D01*
X702096Y522707D01*
X702296Y522656D01*
X702482Y522570D01*
X702762Y522538D01*
X703036Y522469D01*
X703240Y522485D01*
X703445Y522462D01*
X703721Y522522D01*
X704002Y522544D01*
X704191Y522624D01*
X704392Y522667D01*
X704634Y522812D01*
X704893Y522922D01*
X705114Y523098D01*
X705224Y523164D01*
X705284Y523234D01*
X705412Y523337D01*
X727091Y545016D01*
X754168Y560649D01*
X784367Y568741D01*
X815633Y568741D01*
X845832Y560649D01*
X872908Y545016D01*
X895016Y522908D01*
X910649Y495832D01*
X918741Y465633D01*
X918741Y434367D01*
X910649Y404168D01*
X895016Y377091D01*
X872908Y354984D01*
X845832Y339351D01*
X815633Y331259D01*
X784367Y331259D01*
G37*
%LPD*%
%LPC*%
G36*
X1256829Y624960D02*
X1256829Y624960D01*
X1231386Y631777D01*
X1208574Y644948D01*
X1189948Y663574D01*
X1176777Y686386D01*
X1169960Y711829D01*
X1169960Y738171D01*
X1176777Y763614D01*
X1189948Y786426D01*
X1208574Y805052D01*
X1231386Y818223D01*
X1256829Y825040D01*
X1283171Y825040D01*
X1308614Y818223D01*
X1331426Y805052D01*
X1350052Y786426D01*
X1363223Y763614D01*
X1370040Y738171D01*
X1370040Y711829D01*
X1363223Y686386D01*
X1350052Y663574D01*
X1331426Y644948D01*
X1308614Y631777D01*
X1283171Y624960D01*
X1256829Y624960D01*
G37*
%LPD*%
%LPC*%
G36*
X2016829Y624960D02*
X2016829Y624960D01*
X1991386Y631777D01*
X1968574Y644948D01*
X1949948Y663574D01*
X1936777Y686386D01*
X1929960Y711829D01*
X1929960Y738171D01*
X1936777Y763614D01*
X1949948Y786426D01*
X1968574Y805052D01*
X1991386Y818223D01*
X2016829Y825040D01*
X2043171Y825040D01*
X2068614Y818223D01*
X2091426Y805052D01*
X2110052Y786426D01*
X2123223Y763614D01*
X2130040Y738171D01*
X2130040Y711829D01*
X2123223Y686386D01*
X2110052Y663574D01*
X2091426Y644948D01*
X2068614Y631777D01*
X2043171Y624960D01*
X2016829Y624960D01*
G37*
%LPD*%
%LPC*%
G36*
X2956829Y624960D02*
X2956829Y624960D01*
X2931386Y631777D01*
X2908574Y644948D01*
X2889948Y663574D01*
X2876777Y686386D01*
X2869960Y711829D01*
X2869960Y738171D01*
X2876777Y763614D01*
X2889948Y786426D01*
X2908574Y805052D01*
X2931386Y818223D01*
X2956829Y825040D01*
X2983171Y825040D01*
X3008614Y818223D01*
X3031426Y805052D01*
X3050052Y786426D01*
X3063223Y763614D01*
X3070040Y738171D01*
X3070040Y711829D01*
X3063223Y686386D01*
X3050052Y663574D01*
X3031426Y644948D01*
X3008614Y631777D01*
X2983171Y624960D01*
X2956829Y624960D01*
G37*
%LPD*%
%LPC*%
G36*
X316829Y624960D02*
X316829Y624960D01*
X291386Y631777D01*
X268574Y644948D01*
X249948Y663574D01*
X236777Y686386D01*
X229960Y711829D01*
X229960Y738171D01*
X236777Y763614D01*
X249948Y786426D01*
X268574Y805052D01*
X291386Y818223D01*
X316829Y825040D01*
X343171Y825040D01*
X368614Y818223D01*
X391426Y805052D01*
X410052Y786426D01*
X423223Y763614D01*
X430040Y738171D01*
X430040Y711829D01*
X423223Y686386D01*
X410052Y663574D01*
X391426Y644948D01*
X368614Y631777D01*
X343171Y624960D01*
X316829Y624960D01*
G37*
%LPD*%
%LPC*%
G36*
X2685387Y376535D02*
X2685387Y376535D01*
X2658385Y387719D01*
X2637719Y408385D01*
X2626535Y435387D01*
X2626535Y464613D01*
X2637719Y491615D01*
X2658385Y512281D01*
X2685387Y523465D01*
X2714613Y523465D01*
X2741615Y512281D01*
X2762281Y491615D01*
X2773465Y464613D01*
X2773465Y435387D01*
X2762281Y408385D01*
X2741615Y387719D01*
X2714613Y376535D01*
X2685387Y376535D01*
G37*
%LPD*%
%LPC*%
G36*
X985387Y376535D02*
X985387Y376535D01*
X958385Y387719D01*
X937719Y408385D01*
X926535Y435387D01*
X926535Y464613D01*
X937719Y491615D01*
X958385Y512281D01*
X985387Y523465D01*
X1014613Y523465D01*
X1041615Y512281D01*
X1062281Y491615D01*
X1073465Y464613D01*
X1073465Y435387D01*
X1062281Y408385D01*
X1041615Y387719D01*
X1014613Y376535D01*
X985387Y376535D01*
G37*
%LPD*%
%LPC*%
G36*
X2200270Y1446755D02*
X2200270Y1446755D01*
X2196755Y1450270D01*
X2196755Y1549730D01*
X2200270Y1553245D01*
X2299730Y1553245D01*
X2303245Y1549730D01*
X2303245Y1450270D01*
X2299730Y1446755D01*
X2200270Y1446755D01*
G37*
%LPD*%
%LPC*%
G36*
X500270Y1446755D02*
X500270Y1446755D01*
X496755Y1450270D01*
X496755Y1549730D01*
X500270Y1553245D01*
X599730Y1553245D01*
X603245Y1549730D01*
X603245Y1450270D01*
X599730Y1446755D01*
X500270Y1446755D01*
G37*
%LPD*%
%LPC*%
G36*
X3050270Y1446755D02*
X3050270Y1446755D01*
X3046755Y1450270D01*
X3046755Y1549730D01*
X3050270Y1553245D01*
X3149730Y1553245D01*
X3153245Y1549730D01*
X3153245Y1450270D01*
X3149730Y1446755D01*
X3050270Y1446755D01*
G37*
%LPD*%
%LPC*%
G36*
X1350270Y3146755D02*
X1350270Y3146755D01*
X1346755Y3150270D01*
X1346755Y3249730D01*
X1350270Y3253245D01*
X1449730Y3253245D01*
X1453245Y3249730D01*
X1453245Y3150270D01*
X1449730Y3146755D01*
X1350270Y3146755D01*
G37*
%LPD*%
%LPC*%
G36*
X3050270Y3146755D02*
X3050270Y3146755D01*
X3046755Y3150270D01*
X3046755Y3249730D01*
X3050270Y3253245D01*
X3149730Y3253245D01*
X3153245Y3249730D01*
X3153245Y3150270D01*
X3149730Y3146755D01*
X3050270Y3146755D01*
G37*
%LPD*%
%LPC*%
G36*
X2200270Y3146755D02*
X2200270Y3146755D01*
X2196755Y3150270D01*
X2196755Y3249730D01*
X2200270Y3253245D01*
X2299730Y3253245D01*
X2303245Y3249730D01*
X2303245Y3150270D01*
X2299730Y3146755D01*
X2200270Y3146755D01*
G37*
%LPD*%
%LPC*%
G36*
X500270Y2296755D02*
X500270Y2296755D01*
X496755Y2300270D01*
X496755Y2399730D01*
X500270Y2403245D01*
X599730Y2403245D01*
X603245Y2399730D01*
X603245Y2300270D01*
X599730Y2296755D01*
X500270Y2296755D01*
G37*
%LPD*%
%LPC*%
G36*
X3050270Y2296755D02*
X3050270Y2296755D01*
X3046755Y2300270D01*
X3046755Y2399730D01*
X3050270Y2403245D01*
X3149730Y2403245D01*
X3153245Y2399730D01*
X3153245Y2300270D01*
X3149730Y2296755D01*
X3050270Y2296755D01*
G37*
%LPD*%
%LPC*%
G36*
X2200270Y2296755D02*
X2200270Y2296755D01*
X2196755Y2300270D01*
X2196755Y2399730D01*
X2200270Y2403245D01*
X2299730Y2403245D01*
X2303245Y2399730D01*
X2303245Y2300270D01*
X2299730Y2296755D01*
X2200270Y2296755D01*
G37*
%LPD*%
%LPC*%
G36*
X1350270Y2296755D02*
X1350270Y2296755D01*
X1346755Y2300270D01*
X1346755Y2399730D01*
X1350270Y2403245D01*
X1449730Y2403245D01*
X1453245Y2399730D01*
X1453245Y2300270D01*
X1449730Y2296755D01*
X1350270Y2296755D01*
G37*
%LPD*%
%LPC*%
G36*
X500270Y3146755D02*
X500270Y3146755D01*
X496755Y3150270D01*
X496755Y3249730D01*
X500270Y3253245D01*
X599730Y3253245D01*
X603245Y3249730D01*
X603245Y3150270D01*
X599730Y3146755D01*
X500270Y3146755D01*
G37*
%LPD*%
%LPC*%
G36*
X1350270Y1446755D02*
X1350270Y1446755D01*
X1346755Y1450270D01*
X1346755Y1549730D01*
X1350270Y1553245D01*
X1449730Y1553245D01*
X1453245Y1549730D01*
X1453245Y1450270D01*
X1449730Y1446755D01*
X1350270Y1446755D01*
G37*
%LPD*%
%LPC*%
G36*
X853223Y599708D02*
X853223Y599708D01*
X849708Y603223D01*
X849708Y696777D01*
X853223Y700292D01*
X946777Y700292D01*
X950292Y696777D01*
X950292Y603223D01*
X946777Y599708D01*
X853223Y599708D01*
G37*
%LPD*%
%LPC*%
G36*
X2553223Y599708D02*
X2553223Y599708D01*
X2549708Y603223D01*
X2549708Y696777D01*
X2553223Y700292D01*
X2646777Y700292D01*
X2650292Y696777D01*
X2650292Y603223D01*
X2646777Y599708D01*
X2553223Y599708D01*
G37*
%LPD*%
%LPC*%
G36*
X1542839Y3533999D02*
X1542839Y3533999D01*
X1529607Y3539480D01*
X1519480Y3549607D01*
X1513999Y3562839D01*
X1513999Y3637161D01*
X1519480Y3650393D01*
X1529607Y3660520D01*
X1542839Y3666001D01*
X1557161Y3666001D01*
X1570393Y3660520D01*
X1580520Y3650393D01*
X1586001Y3637161D01*
X1586001Y3562839D01*
X1580520Y3549607D01*
X1570393Y3539480D01*
X1557161Y3533999D01*
X1542839Y3533999D01*
G37*
%LPD*%
%LPC*%
G36*
X1642839Y3533999D02*
X1642839Y3533999D01*
X1629607Y3539480D01*
X1619480Y3549607D01*
X1613999Y3562839D01*
X1613999Y3637161D01*
X1619480Y3650393D01*
X1629607Y3660520D01*
X1642839Y3666001D01*
X1657161Y3666001D01*
X1670393Y3660520D01*
X1680520Y3650393D01*
X1686001Y3637161D01*
X1686001Y3562839D01*
X1680520Y3549607D01*
X1670393Y3539480D01*
X1657161Y3533999D01*
X1642839Y3533999D01*
G37*
%LPD*%
%LPC*%
G36*
X1842839Y3533999D02*
X1842839Y3533999D01*
X1829607Y3539480D01*
X1819480Y3549607D01*
X1813999Y3562839D01*
X1813999Y3637161D01*
X1819480Y3650393D01*
X1829607Y3660520D01*
X1842839Y3666001D01*
X1857161Y3666001D01*
X1870393Y3660520D01*
X1880520Y3650393D01*
X1886001Y3637161D01*
X1886001Y3562839D01*
X1880520Y3549607D01*
X1870393Y3539480D01*
X1857161Y3533999D01*
X1842839Y3533999D01*
G37*
%LPD*%
%LPC*%
G36*
X3612839Y163999D02*
X3612839Y163999D01*
X3599607Y169480D01*
X3589480Y179607D01*
X3583999Y192839D01*
X3583999Y207161D01*
X3589480Y220393D01*
X3599607Y230520D01*
X3612839Y236001D01*
X3687161Y236001D01*
X3700393Y230520D01*
X3710520Y220393D01*
X3716001Y207161D01*
X3716001Y192839D01*
X3710520Y179607D01*
X3700393Y169480D01*
X3687161Y163999D01*
X3612839Y163999D01*
G37*
%LPD*%
%LPC*%
G36*
X1742839Y3533999D02*
X1742839Y3533999D01*
X1729607Y3539480D01*
X1719480Y3549607D01*
X1713999Y3562839D01*
X1713999Y3637161D01*
X1719480Y3650393D01*
X1729607Y3660520D01*
X1742839Y3666001D01*
X1757161Y3666001D01*
X1770393Y3660520D01*
X1780520Y3650393D01*
X1786001Y3637161D01*
X1786001Y3562839D01*
X1780520Y3549607D01*
X1770393Y3539480D01*
X1757161Y3533999D01*
X1742839Y3533999D01*
G37*
%LPD*%
%LPC*%
G36*
X3612839Y363999D02*
X3612839Y363999D01*
X3599607Y369480D01*
X3589480Y379607D01*
X3583999Y392839D01*
X3583999Y407161D01*
X3589480Y420393D01*
X3599607Y430520D01*
X3612839Y436001D01*
X3687161Y436001D01*
X3700393Y430520D01*
X3710520Y420393D01*
X3716001Y407161D01*
X3716001Y392839D01*
X3710520Y379607D01*
X3700393Y369480D01*
X3687161Y363999D01*
X3612839Y363999D01*
G37*
%LPD*%
%LPC*%
G36*
X3612839Y263999D02*
X3612839Y263999D01*
X3599607Y269480D01*
X3589480Y279607D01*
X3583999Y292839D01*
X3583999Y307161D01*
X3589480Y320393D01*
X3599607Y330520D01*
X3612839Y336001D01*
X3687161Y336001D01*
X3700393Y330520D01*
X3710520Y320393D01*
X3716001Y307161D01*
X3716001Y292839D01*
X3710520Y279607D01*
X3700393Y269480D01*
X3687161Y263999D01*
X3612839Y263999D01*
G37*
%LPD*%
%LPC*%
G36*
X3655999Y505999D02*
X3655999Y505999D01*
X3655999Y540000D01*
X3683148Y540001D01*
X3689367Y539016D01*
X3695355Y537070D01*
X3700965Y534212D01*
X3706058Y530511D01*
X3710511Y526058D01*
X3714212Y520965D01*
X3717070Y515355D01*
X3719016Y509367D01*
X3719549Y505999D01*
X3655999Y505999D01*
G37*
%LPD*%
%LPC*%
G36*
X3580451Y505999D02*
X3580451Y505999D01*
X3580984Y509367D01*
X3582930Y515355D01*
X3585788Y520965D01*
X3589489Y526058D01*
X3593941Y530511D01*
X3599035Y534212D01*
X3604645Y537070D01*
X3610633Y539016D01*
X3616852Y540001D01*
X3644001Y540001D01*
X3644001Y505999D01*
X3580451Y505999D01*
G37*
%LPD*%
%LPC*%
G36*
X3655999Y459999D02*
X3655999Y459999D01*
X3655999Y494001D01*
X3719549Y494001D01*
X3719016Y490633D01*
X3717070Y484645D01*
X3714212Y479035D01*
X3710511Y473941D01*
X3706058Y469489D01*
X3700965Y465788D01*
X3695355Y462930D01*
X3689367Y460984D01*
X3683148Y459999D01*
X3655999Y459999D01*
G37*
%LPD*%
%LPC*%
G36*
X3616852Y459999D02*
X3616852Y459999D01*
X3610633Y460984D01*
X3604645Y462930D01*
X3599035Y465788D01*
X3593941Y469489D01*
X3589489Y473941D01*
X3585788Y479035D01*
X3582930Y484645D01*
X3580984Y490633D01*
X3580451Y494001D01*
X3644001Y494001D01*
X3644001Y459999D01*
X3616852Y459999D01*
G37*
%LPD*%
%LPC*%
G36*
X3455999Y1672534D02*
X3455999Y1672534D01*
X3455999Y1696221D01*
X3472970Y1696221D01*
X3475514Y1695540D01*
X3477794Y1694223D01*
X3479656Y1692361D01*
X3480973Y1690080D01*
X3481654Y1687537D01*
X3481654Y1672534D01*
X3455999Y1672534D01*
G37*
%LPD*%
%LPC*%
G36*
X3455999Y2589463D02*
X3455999Y2589463D01*
X3455999Y2613150D01*
X3472970Y2613150D01*
X3475514Y2612469D01*
X3477794Y2611152D01*
X3479656Y2609290D01*
X3480973Y2607010D01*
X3481654Y2604466D01*
X3481654Y2589463D01*
X3455999Y2589463D01*
G37*
%LPD*%
%LPC*%
G36*
X3455999Y772534D02*
X3455999Y772534D01*
X3455999Y796221D01*
X3472970Y796221D01*
X3475514Y795540D01*
X3477794Y794223D01*
X3479656Y792361D01*
X3480973Y790080D01*
X3481654Y787537D01*
X3481654Y772534D01*
X3455999Y772534D01*
G37*
%LPD*%
%LPC*%
G36*
X3455999Y3372534D02*
X3455999Y3372534D01*
X3455999Y3396221D01*
X3472970Y3396221D01*
X3475514Y3395540D01*
X3477794Y3394223D01*
X3479656Y3392361D01*
X3480973Y3390080D01*
X3481654Y3387537D01*
X3481654Y3372534D01*
X3455999Y3372534D01*
G37*
%LPD*%
%LPC*%
G36*
X3418346Y1672534D02*
X3418346Y1672534D01*
X3418346Y1687537D01*
X3419027Y1690080D01*
X3420344Y1692361D01*
X3422206Y1694223D01*
X3424486Y1695540D01*
X3427030Y1696221D01*
X3444001Y1696221D01*
X3444001Y1672534D01*
X3418346Y1672534D01*
G37*
%LPD*%
%LPC*%
G36*
X3418346Y2589463D02*
X3418346Y2589463D01*
X3418346Y2604466D01*
X3419027Y2607010D01*
X3420344Y2609290D01*
X3422206Y2611152D01*
X3424486Y2612469D01*
X3427030Y2613150D01*
X3444001Y2613150D01*
X3444001Y2589463D01*
X3418346Y2589463D01*
G37*
%LPD*%
%LPC*%
G36*
X3418346Y3372534D02*
X3418346Y3372534D01*
X3418346Y3387537D01*
X3419027Y3390080D01*
X3420344Y3392361D01*
X3422206Y3394223D01*
X3424486Y3395540D01*
X3427030Y3396221D01*
X3444001Y3396221D01*
X3444001Y3372534D01*
X3418346Y3372534D01*
G37*
%LPD*%
%LPC*%
G36*
X3418346Y772534D02*
X3418346Y772534D01*
X3418346Y787537D01*
X3419027Y790080D01*
X3420344Y792361D01*
X3422206Y794223D01*
X3424486Y795540D01*
X3427030Y796221D01*
X3444001Y796221D01*
X3444001Y772534D01*
X3418346Y772534D01*
G37*
%LPD*%
%LPC*%
G36*
X3455999Y2553779D02*
X3455999Y2553779D01*
X3455999Y2577465D01*
X3481654Y2577465D01*
X3481654Y2562463D01*
X3480973Y2559919D01*
X3479656Y2557639D01*
X3477794Y2555777D01*
X3475514Y2554460D01*
X3472970Y2553779D01*
X3455999Y2553779D01*
G37*
%LPD*%
%LPC*%
G36*
X3455999Y1636850D02*
X3455999Y1636850D01*
X3455999Y1660536D01*
X3481654Y1660536D01*
X3481654Y1645534D01*
X3480973Y1642990D01*
X3479656Y1640710D01*
X3477794Y1638848D01*
X3475514Y1637531D01*
X3472970Y1636850D01*
X3455999Y1636850D01*
G37*
%LPD*%
%LPC*%
G36*
X3455999Y736850D02*
X3455999Y736850D01*
X3455999Y760536D01*
X3481654Y760536D01*
X3481654Y745534D01*
X3480973Y742990D01*
X3479656Y740710D01*
X3477794Y738848D01*
X3475514Y737531D01*
X3472970Y736850D01*
X3455999Y736850D01*
G37*
%LPD*%
%LPC*%
G36*
X3455999Y3336850D02*
X3455999Y3336850D01*
X3455999Y3360536D01*
X3481654Y3360536D01*
X3481654Y3345534D01*
X3480973Y3342990D01*
X3479656Y3340710D01*
X3477794Y3338848D01*
X3475514Y3337531D01*
X3472970Y3336850D01*
X3455999Y3336850D01*
G37*
%LPD*%
%LPC*%
G36*
X3427030Y2553779D02*
X3427030Y2553779D01*
X3424486Y2554460D01*
X3422206Y2555777D01*
X3420344Y2557639D01*
X3419027Y2559919D01*
X3418346Y2562463D01*
X3418346Y2577465D01*
X3444001Y2577465D01*
X3444001Y2553779D01*
X3427030Y2553779D01*
G37*
%LPD*%
%LPC*%
G36*
X3427030Y1636850D02*
X3427030Y1636850D01*
X3424486Y1637531D01*
X3422206Y1638848D01*
X3420344Y1640710D01*
X3419027Y1642990D01*
X3418346Y1645534D01*
X3418346Y1660536D01*
X3444001Y1660536D01*
X3444001Y1636850D01*
X3427030Y1636850D01*
G37*
%LPD*%
%LPC*%
G36*
X3427030Y3336850D02*
X3427030Y3336850D01*
X3424486Y3337531D01*
X3422206Y3338848D01*
X3420344Y3340710D01*
X3419027Y3342990D01*
X3418346Y3345534D01*
X3418346Y3360536D01*
X3444001Y3360536D01*
X3444001Y3336850D01*
X3427030Y3336850D01*
G37*
%LPD*%
%LPC*%
G36*
X3427030Y736850D02*
X3427030Y736850D01*
X3424486Y737531D01*
X3422206Y738848D01*
X3420344Y740710D01*
X3419027Y742990D01*
X3418346Y745534D01*
X3418346Y760536D01*
X3444001Y760536D01*
X3444001Y736850D01*
X3427030Y736850D01*
G37*
%LPD*%
%LPC*%
G36*
X3649999Y499999D02*
X3649999Y499999D01*
X3649999Y500001D01*
X3650001Y500001D01*
X3650001Y499999D01*
X3649999Y499999D01*
G37*
%LPD*%
%LPC*%
G36*
X3449999Y2583463D02*
X3449999Y2583463D01*
X3449999Y2583466D01*
X3450001Y2583466D01*
X3450001Y2583463D01*
X3449999Y2583463D01*
G37*
%LPD*%
%LPC*%
G36*
X3449999Y1666534D02*
X3449999Y1666534D01*
X3449999Y1666537D01*
X3450001Y1666537D01*
X3450001Y1666534D01*
X3449999Y1666534D01*
G37*
%LPD*%
%LPC*%
G36*
X3449999Y3366534D02*
X3449999Y3366534D01*
X3449999Y3366537D01*
X3450001Y3366537D01*
X3450001Y3366534D01*
X3449999Y3366534D01*
G37*
%LPD*%
%LPC*%
G36*
X3449999Y766534D02*
X3449999Y766534D01*
X3449999Y766537D01*
X3450001Y766537D01*
X3450001Y766534D01*
X3449999Y766534D01*
G37*
%LPD*%
D10*
X400000Y3420866D03*
X400000Y3279134D03*
X400000Y1720866D03*
X400000Y1579134D03*
X1250000Y1720866D03*
X1250000Y1579134D03*
X2100000Y1720866D03*
X2100000Y1579134D03*
X2950000Y1720866D03*
X2950000Y1579134D03*
X1250000Y3420866D03*
X1250000Y3279134D03*
X400000Y2570866D03*
X400000Y2429134D03*
X1250000Y2570866D03*
X1250000Y2429134D03*
X2100000Y3420866D03*
X2100000Y3279134D03*
X2950000Y3420866D03*
X2950000Y3279134D03*
X2100000Y2570866D03*
X2100000Y2429134D03*
X2950000Y2570866D03*
X2950000Y2429134D03*
D11*
X3450000Y3366535D03*
X3450000Y3433465D03*
X3450000Y2583465D03*
X3450000Y2516535D03*
X3450000Y1666535D03*
X3450000Y1733465D03*
D12*
X1850000Y3570000D02*
X1850000Y3630000D01*
X1750000Y3630000D02*
X1750000Y3570000D01*
X1650000Y3570000D02*
X1650000Y3630000D01*
X1550000Y3630000D02*
X1550000Y3570000D01*
D13*
X300000Y3100000D03*
X550000Y3200000D03*
X2850000Y2250000D03*
X3100000Y2350000D03*
X2850000Y1400000D03*
X3100000Y1500000D03*
X2850000Y3100000D03*
X3100000Y3200000D03*
X300000Y2250000D03*
X550000Y2350000D03*
X300000Y1400000D03*
X550000Y1500000D03*
X1150000Y3100000D03*
X1400000Y3200000D03*
X1150000Y2250000D03*
X1400000Y2350000D03*
X1150000Y1400000D03*
X1400000Y1500000D03*
X2000000Y3100000D03*
X2250000Y3200000D03*
X2000000Y2250000D03*
X2250000Y2350000D03*
X2000000Y1400000D03*
X2250000Y1500000D03*
D14*
X2350000Y550000D03*
X2600000Y650000D03*
X650000Y550000D03*
X900000Y650000D03*
D10*
X2450000Y870866D03*
X2450000Y729134D03*
X750000Y870866D03*
X750000Y729134D03*
D11*
X3450000Y766535D03*
X3450000Y833465D03*
D12*
X3620000Y1600000D02*
X3680000Y1600000D01*
X3680000Y1700000D02*
X3620000Y1700000D01*
X3620000Y1800000D02*
X3680000Y1800000D01*
X3680000Y1900000D02*
X3620000Y1900000D01*
X3620000Y200000D02*
X3680000Y200000D01*
X3680000Y300000D02*
X3620000Y300000D01*
X3620000Y400000D02*
X3680000Y400000D01*
X3680000Y500000D02*
X3620000Y500000D01*
D15*
X3357000Y2574000D02*
X2952000Y2574000D01*
X3357000Y2574000D02*
X3411000Y2520000D01*
X3447000Y2520000D01*
X2952000Y2574000D02*
X2950000Y2570866D01*
X3447000Y2520000D02*
X3450000Y2516535D01*
X3609000Y1800000D02*
X3650000Y1800000D01*
X3609000Y1800000D02*
X3456000Y1953000D01*
X3456000Y2511000D01*
X3450000Y2516535D01*
X1242000Y2574000D02*
X405000Y2574000D01*
X400000Y2570866D01*
X1242000Y2574000D02*
X1250000Y2570866D01*
X1251000Y2574000D02*
X2097000Y2574000D01*
X2100000Y2570866D01*
X1251000Y2574000D02*
X1250000Y2570866D01*
X2106000Y2574000D02*
X2943000Y2574000D01*
X2950000Y2570866D01*
X2106000Y2574000D02*
X2100000Y2570866D01*
X2952000Y1719000D02*
X3402000Y1719000D01*
X3411000Y1728000D01*
X3447000Y1728000D01*
X2952000Y1719000D02*
X2950000Y1720866D01*
X3447000Y1728000D02*
X3450000Y1733465D01*
X3609000Y1701000D02*
X3645000Y1701000D01*
X3609000Y1701000D02*
X3573000Y1737000D01*
X3456000Y1737000D01*
X3645000Y1701000D02*
X3650000Y1700000D01*
X3456000Y1737000D02*
X3450000Y1733465D01*
X1242000Y1719000D02*
X405000Y1719000D01*
X400000Y1720866D01*
X1242000Y1719000D02*
X1250000Y1720866D01*
X1251000Y1719000D02*
X2097000Y1719000D01*
X2100000Y1720866D01*
X1251000Y1719000D02*
X1250000Y1720866D01*
X2106000Y1719000D02*
X2943000Y1719000D01*
X2950000Y1720866D01*
X2106000Y1719000D02*
X2100000Y1720866D01*
X1242000Y3420000D02*
X405000Y3420000D01*
X400000Y3420866D01*
X1242000Y3420000D02*
X1250000Y3420866D01*
X1251000Y3420000D02*
X2097000Y3420000D01*
X2100000Y3420866D01*
X1251000Y3420000D02*
X1250000Y3420866D01*
X2952000Y3420000D02*
X3402000Y3420000D01*
X3411000Y3429000D01*
X3447000Y3429000D01*
X2952000Y3420000D02*
X2950000Y3420866D01*
X3447000Y3429000D02*
X3450000Y3433465D01*
X2943000Y3420000D02*
X2106000Y3420000D01*
X2100000Y3420866D01*
X2943000Y3420000D02*
X2950000Y3420866D01*
X3650000Y3300000D02*
X3650000Y1900000D01*
X3516535Y3433465D02*
X3450000Y3433465D01*
X3516535Y3433465D02*
X3650000Y3300000D01*
X1251000Y2421000D02*
X1251000Y2385000D01*
X1152000Y2286000D01*
X1152000Y2250000D01*
X1251000Y2421000D02*
X1250000Y2429134D01*
X1152000Y2250000D02*
X1150000Y2250000D01*
X1251000Y3231000D02*
X1251000Y3276000D01*
X1251000Y3231000D02*
X1152000Y3132000D01*
X1152000Y3105000D01*
X1251000Y3276000D02*
X1250000Y3279134D01*
X1152000Y3105000D02*
X1150000Y3100000D01*
X2952000Y2421000D02*
X2952000Y2385000D01*
X2853000Y2286000D01*
X2853000Y2250000D01*
X2952000Y2421000D02*
X2950000Y2429134D01*
X2853000Y2250000D02*
X2850000Y2250000D01*
X2952000Y3231000D02*
X2952000Y3276000D01*
X2952000Y3231000D02*
X2853000Y3132000D01*
X2853000Y3105000D01*
X2952000Y3276000D02*
X2950000Y3279134D01*
X2853000Y3105000D02*
X2850000Y3100000D01*
X1251000Y1575000D02*
X1251000Y1530000D01*
X1152000Y1431000D01*
X1152000Y1404000D01*
X1251000Y1575000D02*
X1250000Y1579134D01*
X1152000Y1404000D02*
X1150000Y1400000D01*
X2952000Y1530000D02*
X2952000Y1575000D01*
X2952000Y1530000D02*
X2853000Y1431000D01*
X2853000Y1404000D01*
X2952000Y1575000D02*
X2950000Y1579134D01*
X2853000Y1404000D02*
X2850000Y1400000D01*
X405000Y1539000D02*
X405000Y1575000D01*
X405000Y1539000D02*
X306000Y1440000D01*
X306000Y1404000D01*
X405000Y1575000D02*
X400000Y1579134D01*
X306000Y1404000D02*
X300000Y1400000D01*
X396000Y3231000D02*
X396000Y3276000D01*
X396000Y3231000D02*
X306000Y3141000D01*
X306000Y3105000D01*
X396000Y3276000D02*
X400000Y3279134D01*
X306000Y3105000D02*
X300000Y3100000D01*
X405000Y2421000D02*
X405000Y2385000D01*
X306000Y2286000D01*
X306000Y2250000D01*
X405000Y2421000D02*
X400000Y2429134D01*
X306000Y2250000D02*
X300000Y2250000D01*
X2097000Y3231000D02*
X2097000Y3276000D01*
X2097000Y3231000D02*
X2007000Y3141000D01*
X2007000Y3105000D01*
X2097000Y3276000D02*
X2100000Y3279134D01*
X2007000Y3105000D02*
X2000000Y3100000D01*
X2097000Y2421000D02*
X2097000Y2376000D01*
X2007000Y2286000D01*
X2007000Y2250000D01*
X2097000Y2421000D02*
X2100000Y2429134D01*
X2007000Y2250000D02*
X2000000Y2250000D01*
X2097000Y1575000D02*
X2097000Y1530000D01*
X2007000Y1440000D01*
X2007000Y1404000D01*
X2097000Y1575000D02*
X2100000Y1579134D01*
X2007000Y1404000D02*
X2000000Y1400000D01*
X2448000Y729000D02*
X2448000Y675000D01*
X2358000Y585000D01*
X2358000Y558000D01*
X2448000Y729000D02*
X2450000Y729134D01*
X2358000Y558000D02*
X2350000Y550000D01*
X747000Y675000D02*
X747000Y729000D01*
X747000Y675000D02*
X657000Y585000D01*
X657000Y558000D01*
X747000Y729000D02*
X750000Y729134D01*
X657000Y558000D02*
X650000Y550000D01*
X3447000Y882000D02*
X3447000Y1368000D01*
X3447000Y882000D02*
X3447000Y837000D01*
X3447000Y1368000D02*
X3654000Y1575000D01*
X3654000Y1593000D01*
X3447000Y837000D02*
X3450000Y833465D01*
X3654000Y1593000D02*
X3650000Y1600000D01*
X2448000Y873000D02*
X756000Y873000D01*
X750000Y870866D01*
X2448000Y873000D02*
X2450000Y870866D01*
X2484000Y882000D02*
X3447000Y882000D01*
X2484000Y882000D02*
X2475000Y873000D01*
X2457000Y873000D01*
X2450000Y870866D01*
M02*
