G04 EAGLE Gerber RS-274X export*
G75*
%MOIN*%
%FSLAX36Y36*%
%LPD*%
%INTop Copper Layer*%
%IPPOS*%
%AMOC8*
5,1,8,0,0,1.08239X$1,22.5*%
G01*
%ADD10C,0.060000*%
%ADD11R,0.094488X0.094488*%
%ADD12R,0.088583X0.088583*%
%ADD13C,0.012000*%


D10*
X1650000Y3330000D02*
X1650000Y3270000D01*
X1550000Y3270000D02*
X1550000Y3330000D01*
X1450000Y3330000D02*
X1450000Y3270000D01*
X1350000Y3270000D02*
X1350000Y3330000D01*
D11*
X275000Y2825000D03*
X525000Y2925000D03*
X2525000Y2075000D03*
X2775000Y2175000D03*
X2525000Y1325000D03*
X2775000Y1425000D03*
X2525000Y2825000D03*
X2775000Y2925000D03*
X275000Y2075000D03*
X525000Y2175000D03*
X275000Y1325000D03*
X525000Y1425000D03*
X1025000Y2825000D03*
X1275000Y2925000D03*
X1025000Y2075000D03*
X1275000Y2175000D03*
X1025000Y1325000D03*
X1275000Y1425000D03*
X1775000Y2825000D03*
X2025000Y2925000D03*
X1775000Y2075000D03*
X2025000Y2175000D03*
X1775000Y1325000D03*
X2025000Y1425000D03*
D12*
X2150000Y575000D03*
X2400000Y675000D03*
X650000Y575000D03*
X900000Y675000D03*
D10*
X3320000Y1775000D02*
X3380000Y1775000D01*
X3380000Y1875000D02*
X3320000Y1875000D01*
X3320000Y1975000D02*
X3380000Y1975000D01*
X3380000Y2075000D02*
X3320000Y2075000D01*
X3320000Y950000D02*
X3380000Y950000D01*
X3380000Y1050000D02*
X3320000Y1050000D01*
X3320000Y1150000D02*
X3380000Y1150000D01*
X3380000Y1250000D02*
X3320000Y1250000D01*
D13*
X3350000Y2075000D02*
X3348000Y2079000D01*
X1350000Y3294000D02*
X900000Y3294000D01*
X540000Y2934000D02*
X531000Y2925000D01*
X540000Y2934000D02*
X900000Y3294000D01*
X1350000Y3294000D02*
X1350000Y3300000D01*
X531000Y2925000D02*
X525000Y2925000D01*
X1908000Y675000D02*
X2400000Y675000D01*
X1908000Y675000D02*
X1845000Y612000D01*
X855000Y612000D01*
X711000Y756000D01*
X711000Y1260000D01*
X549000Y1422000D01*
X531000Y1422000D01*
X525000Y1425000D01*
X531000Y2169000D02*
X549000Y2169000D01*
X711000Y2007000D01*
X711000Y1584000D01*
X549000Y1422000D01*
X531000Y2169000D02*
X525000Y2175000D01*
X525000Y1425000D02*
X549000Y1422000D01*
X711000Y2763000D02*
X540000Y2934000D01*
X711000Y2763000D02*
X711000Y2331000D01*
X549000Y2169000D01*
X525000Y2925000D02*
X540000Y2934000D01*
X525000Y2175000D02*
X549000Y2169000D01*
X900000Y1188000D02*
X900000Y675000D01*
X900000Y1188000D02*
X891000Y1197000D01*
X891000Y1305000D01*
X1008000Y1422000D01*
X1269000Y1422000D01*
X1275000Y1425000D01*
X1449000Y3096000D02*
X1449000Y3294000D01*
X1287000Y2934000D02*
X1278000Y2925000D01*
X1287000Y2934000D02*
X1449000Y3096000D01*
X1449000Y3294000D02*
X1450000Y3300000D01*
X1278000Y2925000D02*
X1275000Y2925000D01*
X1278000Y2511000D02*
X1278000Y2178000D01*
X1278000Y2511000D02*
X1458000Y2691000D01*
X1458000Y2763000D01*
X1287000Y2934000D01*
X1278000Y2178000D02*
X1275000Y2175000D01*
X1275000Y2925000D02*
X1287000Y2934000D01*
X1278000Y1755000D02*
X1278000Y1431000D01*
X1278000Y1755000D02*
X1458000Y1935000D01*
X1458000Y2016000D01*
X1305000Y2169000D01*
X1278000Y2169000D01*
X1278000Y1431000D02*
X1275000Y1425000D01*
X1278000Y2169000D02*
X1275000Y2175000D01*
X1926000Y2925000D02*
X1557000Y3294000D01*
X1926000Y2925000D02*
X2025000Y2925000D01*
X1557000Y3294000D02*
X1550000Y3300000D01*
X2025000Y1755000D02*
X2025000Y1425000D01*
X2025000Y1755000D02*
X2214000Y1944000D01*
X2214000Y2007000D01*
X2052000Y2169000D01*
X2025000Y2169000D01*
X2025000Y2175000D01*
X2025000Y2925000D02*
X2043000Y2925000D01*
X2214000Y2754000D01*
X2214000Y2331000D01*
X2052000Y2169000D01*
X2025000Y2175000D01*
X2781000Y1764000D02*
X2781000Y1431000D01*
X2781000Y1764000D02*
X2961000Y1944000D01*
X2961000Y2007000D01*
X2799000Y2169000D01*
X2781000Y2169000D01*
X2781000Y1431000D02*
X2775000Y1425000D01*
X2781000Y2169000D02*
X2775000Y2175000D01*
X2403000Y3294000D02*
X1656000Y3294000D01*
X2403000Y3294000D02*
X2772000Y2925000D01*
X1656000Y3294000D02*
X1650000Y3300000D01*
X2772000Y2925000D02*
X2775000Y2925000D01*
X2781000Y2511000D02*
X2781000Y2178000D01*
X2781000Y2511000D02*
X2961000Y2691000D01*
X2961000Y2763000D01*
X2799000Y2925000D01*
X2775000Y2925000D01*
X2781000Y2178000D02*
X2775000Y2175000D01*
M02*
