G04 EAGLE Gerber RS-274X export*
G75*
%MOIN*%
%FSLAX36Y36*%
%LPD*%
%INBottom Copper Layer*%
%IPPOS*%
%AMOC8*
5,1,8,0,0,1.08239X$1,22.5*%
G01*
%ADD10R,0.029528X0.039370*%
%ADD11R,0.043307X0.039370*%
%ADD12C,0.060000*%
%ADD13R,0.094488X0.094488*%
%ADD14R,0.088583X0.088583*%
%ADD15C,0.012000*%

G36*
X272036Y40031D02*
X272036Y40031D01*
X272224Y40024D01*
X272511Y40109D01*
X272806Y40157D01*
X272972Y40245D01*
X273153Y40299D01*
X273398Y40471D01*
X273662Y40610D01*
X273792Y40747D01*
X273946Y40855D01*
X274123Y41095D01*
X274329Y41312D01*
X274409Y41484D01*
X274520Y41635D01*
X274612Y41920D01*
X274738Y42191D01*
X274758Y42378D01*
X274816Y42558D01*
X274812Y42857D01*
X274845Y43154D01*
X274805Y43338D01*
X274802Y43526D01*
X274703Y43808D01*
X274640Y44100D01*
X274543Y44262D01*
X274480Y44440D01*
X274296Y44676D01*
X274143Y44932D01*
X274000Y45055D01*
X273884Y45204D01*
X273477Y45503D01*
X273408Y45563D01*
X273382Y45573D01*
X273349Y45597D01*
X257091Y54984D01*
X234984Y77091D01*
X219351Y104168D01*
X211259Y134367D01*
X211259Y165633D01*
X219351Y195832D01*
X234984Y222908D01*
X257091Y245016D01*
X284168Y260649D01*
X314367Y268741D01*
X345633Y268741D01*
X375832Y260649D01*
X402908Y245016D01*
X425016Y222908D01*
X440649Y195832D01*
X448741Y165633D01*
X448741Y134367D01*
X440649Y104168D01*
X425016Y77091D01*
X402908Y54984D01*
X386651Y45597D01*
X386505Y45478D01*
X386338Y45390D01*
X386133Y45173D01*
X385901Y44984D01*
X385801Y44824D01*
X385671Y44687D01*
X385545Y44416D01*
X385386Y44163D01*
X385342Y43980D01*
X385262Y43809D01*
X385229Y43512D01*
X385159Y43221D01*
X385176Y43034D01*
X385155Y42846D01*
X385218Y42554D01*
X385245Y42257D01*
X385320Y42084D01*
X385360Y41899D01*
X385513Y41643D01*
X385633Y41369D01*
X385760Y41229D01*
X385857Y41068D01*
X386083Y40873D01*
X386284Y40652D01*
X386449Y40560D01*
X386592Y40437D01*
X386869Y40325D01*
X387130Y40180D01*
X387316Y40145D01*
X387490Y40074D01*
X387992Y40018D01*
X388082Y40001D01*
X388109Y40005D01*
X388150Y40001D01*
X1211850Y40001D01*
X1212036Y40031D01*
X1212224Y40024D01*
X1212511Y40109D01*
X1212806Y40157D01*
X1212972Y40245D01*
X1213153Y40299D01*
X1213398Y40471D01*
X1213662Y40610D01*
X1213792Y40747D01*
X1213946Y40855D01*
X1214123Y41095D01*
X1214329Y41312D01*
X1214409Y41484D01*
X1214520Y41635D01*
X1214612Y41920D01*
X1214738Y42191D01*
X1214758Y42378D01*
X1214816Y42558D01*
X1214812Y42857D01*
X1214845Y43154D01*
X1214805Y43338D01*
X1214802Y43526D01*
X1214703Y43808D01*
X1214640Y44100D01*
X1214543Y44262D01*
X1214480Y44440D01*
X1214296Y44676D01*
X1214143Y44932D01*
X1214000Y45055D01*
X1213884Y45204D01*
X1213477Y45503D01*
X1213408Y45563D01*
X1213382Y45573D01*
X1213349Y45597D01*
X1197091Y54984D01*
X1174984Y77091D01*
X1159351Y104168D01*
X1151259Y134367D01*
X1151259Y165633D01*
X1159351Y195832D01*
X1174984Y222908D01*
X1197091Y245016D01*
X1224168Y260649D01*
X1254367Y268741D01*
X1285633Y268741D01*
X1315832Y260649D01*
X1342908Y245016D01*
X1365016Y222908D01*
X1380649Y195832D01*
X1388741Y165633D01*
X1388741Y134367D01*
X1380649Y104168D01*
X1365016Y77091D01*
X1342908Y54984D01*
X1326651Y45597D01*
X1326505Y45478D01*
X1326338Y45390D01*
X1326133Y45173D01*
X1325901Y44984D01*
X1325801Y44824D01*
X1325671Y44687D01*
X1325545Y44416D01*
X1325386Y44163D01*
X1325342Y43980D01*
X1325262Y43809D01*
X1325229Y43512D01*
X1325159Y43221D01*
X1325176Y43034D01*
X1325155Y42846D01*
X1325218Y42554D01*
X1325245Y42257D01*
X1325320Y42084D01*
X1325360Y41899D01*
X1325513Y41643D01*
X1325633Y41369D01*
X1325760Y41229D01*
X1325857Y41068D01*
X1326083Y40873D01*
X1326284Y40652D01*
X1326449Y40560D01*
X1326592Y40437D01*
X1326869Y40325D01*
X1327130Y40180D01*
X1327316Y40145D01*
X1327490Y40074D01*
X1327992Y40018D01*
X1328082Y40001D01*
X1328109Y40005D01*
X1328150Y40001D01*
X1771850Y40001D01*
X1772036Y40031D01*
X1772224Y40024D01*
X1772511Y40109D01*
X1772806Y40157D01*
X1772972Y40245D01*
X1773153Y40299D01*
X1773398Y40471D01*
X1773662Y40610D01*
X1773792Y40747D01*
X1773946Y40855D01*
X1774123Y41095D01*
X1774329Y41312D01*
X1774409Y41484D01*
X1774520Y41635D01*
X1774612Y41920D01*
X1774738Y42191D01*
X1774758Y42378D01*
X1774816Y42558D01*
X1774812Y42857D01*
X1774845Y43154D01*
X1774805Y43338D01*
X1774802Y43526D01*
X1774703Y43808D01*
X1774640Y44100D01*
X1774543Y44262D01*
X1774480Y44440D01*
X1774296Y44676D01*
X1774143Y44932D01*
X1774000Y45055D01*
X1773884Y45204D01*
X1773477Y45503D01*
X1773408Y45563D01*
X1773382Y45573D01*
X1773349Y45597D01*
X1757091Y54984D01*
X1734984Y77091D01*
X1719351Y104168D01*
X1711259Y134367D01*
X1711259Y165633D01*
X1719351Y195832D01*
X1734984Y222908D01*
X1757091Y245016D01*
X1784168Y260649D01*
X1814367Y268741D01*
X1845633Y268741D01*
X1875832Y260649D01*
X1902908Y245016D01*
X1925016Y222908D01*
X1940649Y195832D01*
X1948741Y165633D01*
X1948741Y134367D01*
X1940649Y104168D01*
X1925016Y77091D01*
X1902908Y54984D01*
X1886651Y45597D01*
X1886505Y45478D01*
X1886338Y45390D01*
X1886133Y45173D01*
X1885901Y44984D01*
X1885801Y44824D01*
X1885671Y44687D01*
X1885545Y44416D01*
X1885386Y44163D01*
X1885342Y43980D01*
X1885262Y43809D01*
X1885229Y43512D01*
X1885159Y43221D01*
X1885176Y43034D01*
X1885155Y42846D01*
X1885218Y42554D01*
X1885245Y42257D01*
X1885320Y42084D01*
X1885360Y41899D01*
X1885513Y41643D01*
X1885633Y41369D01*
X1885760Y41229D01*
X1885857Y41068D01*
X1886083Y40873D01*
X1886284Y40652D01*
X1886449Y40560D01*
X1886592Y40437D01*
X1886869Y40325D01*
X1887130Y40180D01*
X1887316Y40145D01*
X1887490Y40074D01*
X1887992Y40018D01*
X1888082Y40001D01*
X1888109Y40005D01*
X1888150Y40001D01*
X2711850Y40001D01*
X2712036Y40031D01*
X2712224Y40024D01*
X2712511Y40109D01*
X2712806Y40157D01*
X2712972Y40245D01*
X2713153Y40299D01*
X2713398Y40471D01*
X2713662Y40610D01*
X2713792Y40747D01*
X2713946Y40855D01*
X2714123Y41095D01*
X2714329Y41312D01*
X2714409Y41484D01*
X2714520Y41635D01*
X2714612Y41920D01*
X2714738Y42191D01*
X2714758Y42378D01*
X2714816Y42558D01*
X2714812Y42857D01*
X2714845Y43154D01*
X2714805Y43338D01*
X2714802Y43526D01*
X2714703Y43808D01*
X2714640Y44100D01*
X2714543Y44262D01*
X2714480Y44440D01*
X2714296Y44676D01*
X2714143Y44932D01*
X2714000Y45055D01*
X2713884Y45204D01*
X2713477Y45503D01*
X2713408Y45563D01*
X2713382Y45573D01*
X2713349Y45597D01*
X2697091Y54984D01*
X2674984Y77091D01*
X2659351Y104168D01*
X2651259Y134367D01*
X2651259Y165633D01*
X2659351Y195832D01*
X2674984Y222908D01*
X2697091Y245016D01*
X2724168Y260649D01*
X2754367Y268741D01*
X2785633Y268741D01*
X2815832Y260649D01*
X2842908Y245016D01*
X2865016Y222908D01*
X2880649Y195832D01*
X2888741Y165633D01*
X2888741Y134367D01*
X2880649Y104168D01*
X2865016Y77091D01*
X2842908Y54984D01*
X2826651Y45597D01*
X2826505Y45478D01*
X2826338Y45390D01*
X2826133Y45173D01*
X2825901Y44984D01*
X2825801Y44824D01*
X2825671Y44687D01*
X2825545Y44416D01*
X2825386Y44163D01*
X2825342Y43980D01*
X2825262Y43809D01*
X2825229Y43512D01*
X2825159Y43221D01*
X2825176Y43034D01*
X2825155Y42846D01*
X2825218Y42554D01*
X2825245Y42257D01*
X2825320Y42084D01*
X2825360Y41899D01*
X2825513Y41643D01*
X2825633Y41369D01*
X2825760Y41229D01*
X2825857Y41068D01*
X2826083Y40873D01*
X2826284Y40652D01*
X2826449Y40560D01*
X2826592Y40437D01*
X2826869Y40325D01*
X2827130Y40180D01*
X2827316Y40145D01*
X2827490Y40074D01*
X2827992Y40018D01*
X2828082Y40001D01*
X2828109Y40005D01*
X2828150Y40001D01*
X3431213Y40001D01*
X3431289Y40013D01*
X3431366Y40005D01*
X3431766Y40091D01*
X3432169Y40157D01*
X3432237Y40193D01*
X3432313Y40210D01*
X3432664Y40419D01*
X3433025Y40610D01*
X3433078Y40666D01*
X3433145Y40706D01*
X3433410Y41016D01*
X3433692Y41312D01*
X3433725Y41383D01*
X3433775Y41442D01*
X3433928Y41820D01*
X3434101Y42191D01*
X3434109Y42268D01*
X3434138Y42340D01*
X3434212Y43000D01*
X3434212Y3394008D01*
X3434199Y3394084D01*
X3434208Y3394162D01*
X3434121Y3394561D01*
X3434055Y3394964D01*
X3434019Y3395032D01*
X3434003Y3395108D01*
X3433793Y3395460D01*
X3433602Y3395820D01*
X3433546Y3395874D01*
X3433506Y3395940D01*
X3433197Y3396206D01*
X3432900Y3396487D01*
X3432830Y3396520D01*
X3432771Y3396571D01*
X3432392Y3396724D01*
X3432022Y3396896D01*
X3431945Y3396905D01*
X3431873Y3396934D01*
X3431213Y3397007D01*
X43000Y3397007D01*
X42923Y3396995D01*
X42846Y3397003D01*
X42446Y3396917D01*
X42044Y3396851D01*
X41975Y3396814D01*
X41899Y3396798D01*
X41548Y3396588D01*
X41188Y3396398D01*
X41134Y3396341D01*
X41068Y3396302D01*
X40802Y3395992D01*
X40520Y3395695D01*
X40487Y3395625D01*
X40437Y3395566D01*
X40284Y3395188D01*
X40112Y3394817D01*
X40103Y3394740D01*
X40074Y3394668D01*
X40001Y3394008D01*
X40001Y43000D01*
X40013Y42923D01*
X40005Y42846D01*
X40091Y42446D01*
X40157Y42044D01*
X40193Y41975D01*
X40210Y41899D01*
X40419Y41548D01*
X40610Y41188D01*
X40666Y41134D01*
X40706Y41068D01*
X41016Y40802D01*
X41312Y40520D01*
X41383Y40487D01*
X41442Y40437D01*
X41820Y40284D01*
X42191Y40112D01*
X42268Y40103D01*
X42340Y40074D01*
X43000Y40001D01*
X271850Y40001D01*
X272036Y40031D01*
G37*
%LPC*%
G36*
X3312839Y2038999D02*
X3312839Y2038999D01*
X3299607Y2044480D01*
X3289480Y2054607D01*
X3283999Y2067839D01*
X3283999Y2082161D01*
X3289480Y2095393D01*
X3299607Y2105520D01*
X3312839Y2111001D01*
X3335000Y2111001D01*
X3335077Y2111013D01*
X3335154Y2111005D01*
X3335553Y2111091D01*
X3335956Y2111157D01*
X3336024Y2111193D01*
X3336100Y2111210D01*
X3336452Y2111419D01*
X3336812Y2111610D01*
X3336866Y2111666D01*
X3336932Y2111706D01*
X3337198Y2112016D01*
X3337480Y2112312D01*
X3337512Y2112383D01*
X3337563Y2112442D01*
X3337716Y2112820D01*
X3337888Y2113191D01*
X3337897Y2113268D01*
X3337926Y2113340D01*
X3337999Y2114000D01*
X3337999Y3043787D01*
X3337941Y3044141D01*
X3337914Y3044497D01*
X3337864Y3044615D01*
X3337843Y3044743D01*
X3337675Y3045059D01*
X3337536Y3045389D01*
X3337433Y3045517D01*
X3337390Y3045599D01*
X3337297Y3045687D01*
X3337121Y3045907D01*
X3262443Y3120585D01*
X3262152Y3120794D01*
X3261880Y3121027D01*
X3261761Y3121076D01*
X3261656Y3121151D01*
X3261314Y3121256D01*
X3260982Y3121390D01*
X3260820Y3121408D01*
X3260730Y3121436D01*
X3260602Y3121433D01*
X3260322Y3121464D01*
X3130653Y3121464D01*
X3130577Y3121451D01*
X3130500Y3121460D01*
X3130100Y3121373D01*
X3129697Y3121307D01*
X3129629Y3121271D01*
X3129553Y3121255D01*
X3129202Y3121045D01*
X3128841Y3120854D01*
X3128788Y3120798D01*
X3128721Y3120758D01*
X3128456Y3120449D01*
X3128174Y3120152D01*
X3128141Y3120082D01*
X3128091Y3120023D01*
X3127938Y3119644D01*
X3127765Y3119274D01*
X3127757Y3119196D01*
X3127728Y3119125D01*
X3127654Y3118465D01*
X3127654Y3111294D01*
X3124139Y3107779D01*
X3075861Y3107779D01*
X3072129Y3111511D01*
X3072022Y3111712D01*
X3071882Y3112042D01*
X3071780Y3112170D01*
X3071736Y3112253D01*
X3071644Y3112341D01*
X3071467Y3112561D01*
X3065121Y3118907D01*
X3065120Y3118908D01*
X3062121Y3121907D01*
X3062058Y3121953D01*
X3062009Y3122014D01*
X3061665Y3122235D01*
X3061334Y3122473D01*
X3061260Y3122496D01*
X3061195Y3122538D01*
X3060800Y3122638D01*
X3060408Y3122758D01*
X3060331Y3122756D01*
X3060256Y3122775D01*
X3059849Y3122744D01*
X3059440Y3122733D01*
X3059367Y3122707D01*
X3059290Y3122701D01*
X3058914Y3122541D01*
X3058530Y3122401D01*
X3058470Y3122353D01*
X3058398Y3122322D01*
X3057879Y3121908D01*
X3055971Y3119999D01*
X3046029Y3119999D01*
X3038999Y3127029D01*
X3038999Y3135000D01*
X3038987Y3135077D01*
X3038995Y3135154D01*
X3038909Y3135553D01*
X3038843Y3135956D01*
X3038807Y3136024D01*
X3038790Y3136100D01*
X3038581Y3136452D01*
X3038390Y3136812D01*
X3038334Y3136866D01*
X3038294Y3136932D01*
X3037984Y3137198D01*
X3037688Y3137480D01*
X3037617Y3137512D01*
X3037558Y3137563D01*
X3037180Y3137716D01*
X3036809Y3137888D01*
X3036732Y3137897D01*
X3036660Y3137926D01*
X3036000Y3137999D01*
X2648764Y3137999D01*
X2648687Y3137987D01*
X2648610Y3137995D01*
X2648210Y3137909D01*
X2647808Y3137843D01*
X2647739Y3137807D01*
X2647663Y3137790D01*
X2647312Y3137581D01*
X2646951Y3137390D01*
X2646898Y3137334D01*
X2646831Y3137294D01*
X2646566Y3136984D01*
X2646284Y3136688D01*
X2646251Y3136617D01*
X2646201Y3136558D01*
X2646048Y3136180D01*
X2645876Y3135809D01*
X2645867Y3135732D01*
X2645838Y3135660D01*
X2645764Y3135000D01*
X2645764Y3123695D01*
X2642249Y3120180D01*
X2607751Y3120180D01*
X2604235Y3123695D01*
X2604235Y3135000D01*
X2604223Y3135077D01*
X2604232Y3135154D01*
X2604145Y3135553D01*
X2604079Y3135956D01*
X2604043Y3136024D01*
X2604026Y3136100D01*
X2603817Y3136452D01*
X2603626Y3136812D01*
X2603570Y3136866D01*
X2603530Y3136932D01*
X2603220Y3137198D01*
X2602924Y3137480D01*
X2602853Y3137512D01*
X2602794Y3137563D01*
X2602416Y3137716D01*
X2602045Y3137888D01*
X2601968Y3137897D01*
X2601896Y3137926D01*
X2601236Y3137999D01*
X1898764Y3137999D01*
X1898687Y3137987D01*
X1898610Y3137995D01*
X1898210Y3137909D01*
X1897808Y3137843D01*
X1897739Y3137807D01*
X1897663Y3137790D01*
X1897312Y3137581D01*
X1896951Y3137390D01*
X1896898Y3137334D01*
X1896831Y3137294D01*
X1896566Y3136984D01*
X1896284Y3136688D01*
X1896251Y3136617D01*
X1896201Y3136558D01*
X1896048Y3136180D01*
X1895876Y3135809D01*
X1895867Y3135732D01*
X1895838Y3135660D01*
X1895764Y3135000D01*
X1895764Y3123695D01*
X1892249Y3120180D01*
X1857751Y3120180D01*
X1854235Y3123695D01*
X1854235Y3135000D01*
X1854223Y3135077D01*
X1854232Y3135154D01*
X1854145Y3135553D01*
X1854079Y3135956D01*
X1854043Y3136024D01*
X1854026Y3136100D01*
X1853817Y3136452D01*
X1853626Y3136812D01*
X1853570Y3136866D01*
X1853530Y3136932D01*
X1853220Y3137198D01*
X1852924Y3137480D01*
X1852853Y3137512D01*
X1852794Y3137563D01*
X1852416Y3137716D01*
X1852045Y3137888D01*
X1851968Y3137897D01*
X1851896Y3137926D01*
X1851236Y3137999D01*
X1148764Y3137999D01*
X1148687Y3137987D01*
X1148610Y3137995D01*
X1148210Y3137909D01*
X1147808Y3137843D01*
X1147739Y3137807D01*
X1147663Y3137790D01*
X1147312Y3137581D01*
X1146951Y3137390D01*
X1146898Y3137334D01*
X1146831Y3137294D01*
X1146566Y3136984D01*
X1146284Y3136688D01*
X1146251Y3136617D01*
X1146201Y3136558D01*
X1146048Y3136180D01*
X1145876Y3135809D01*
X1145867Y3135732D01*
X1145838Y3135660D01*
X1145764Y3135000D01*
X1145764Y3123695D01*
X1142249Y3120180D01*
X1107751Y3120180D01*
X1104235Y3123695D01*
X1104235Y3135000D01*
X1104223Y3135077D01*
X1104232Y3135154D01*
X1104145Y3135553D01*
X1104079Y3135956D01*
X1104043Y3136024D01*
X1104026Y3136100D01*
X1103817Y3136452D01*
X1103626Y3136812D01*
X1103570Y3136866D01*
X1103530Y3136932D01*
X1103220Y3137198D01*
X1102924Y3137480D01*
X1102853Y3137512D01*
X1102794Y3137563D01*
X1102416Y3137716D01*
X1102045Y3137888D01*
X1101968Y3137897D01*
X1101896Y3137926D01*
X1101236Y3137999D01*
X398764Y3137999D01*
X398687Y3137987D01*
X398610Y3137995D01*
X398210Y3137909D01*
X397808Y3137843D01*
X397739Y3137807D01*
X397663Y3137790D01*
X397312Y3137581D01*
X396951Y3137390D01*
X396898Y3137334D01*
X396831Y3137294D01*
X396566Y3136984D01*
X396284Y3136688D01*
X396251Y3136617D01*
X396201Y3136558D01*
X396048Y3136180D01*
X395876Y3135809D01*
X395867Y3135732D01*
X395838Y3135660D01*
X395764Y3135000D01*
X395764Y3123695D01*
X392249Y3120180D01*
X357751Y3120180D01*
X354235Y3123695D01*
X354235Y3168037D01*
X357751Y3171552D01*
X392249Y3171552D01*
X395764Y3168037D01*
X395764Y3165000D01*
X395777Y3164923D01*
X395768Y3164846D01*
X395855Y3164446D01*
X395921Y3164044D01*
X395957Y3163975D01*
X395974Y3163899D01*
X396183Y3163548D01*
X396374Y3163188D01*
X396430Y3163134D01*
X396470Y3163068D01*
X396780Y3162802D01*
X397076Y3162520D01*
X397147Y3162487D01*
X397205Y3162437D01*
X397584Y3162284D01*
X397955Y3162112D01*
X398032Y3162103D01*
X398104Y3162074D01*
X398764Y3162001D01*
X1101236Y3162001D01*
X1101313Y3162013D01*
X1101390Y3162005D01*
X1101790Y3162091D01*
X1102192Y3162157D01*
X1102261Y3162193D01*
X1102337Y3162210D01*
X1102688Y3162419D01*
X1103048Y3162610D01*
X1103102Y3162666D01*
X1103169Y3162706D01*
X1103434Y3163016D01*
X1103716Y3163312D01*
X1103749Y3163383D01*
X1103799Y3163442D01*
X1103952Y3163820D01*
X1104124Y3164191D01*
X1104133Y3164268D01*
X1104162Y3164340D01*
X1104235Y3165000D01*
X1104235Y3168037D01*
X1107751Y3171552D01*
X1142249Y3171552D01*
X1145764Y3168037D01*
X1145764Y3165000D01*
X1145777Y3164923D01*
X1145768Y3164846D01*
X1145855Y3164446D01*
X1145921Y3164044D01*
X1145957Y3163975D01*
X1145974Y3163899D01*
X1146183Y3163548D01*
X1146374Y3163188D01*
X1146430Y3163134D01*
X1146470Y3163068D01*
X1146780Y3162802D01*
X1147076Y3162520D01*
X1147147Y3162487D01*
X1147205Y3162437D01*
X1147584Y3162284D01*
X1147955Y3162112D01*
X1148032Y3162103D01*
X1148104Y3162074D01*
X1148764Y3162001D01*
X1851236Y3162001D01*
X1851313Y3162013D01*
X1851390Y3162005D01*
X1851790Y3162091D01*
X1852192Y3162157D01*
X1852261Y3162193D01*
X1852337Y3162210D01*
X1852688Y3162419D01*
X1853048Y3162610D01*
X1853102Y3162666D01*
X1853169Y3162706D01*
X1853434Y3163016D01*
X1853716Y3163312D01*
X1853749Y3163383D01*
X1853799Y3163442D01*
X1853952Y3163820D01*
X1854124Y3164191D01*
X1854133Y3164268D01*
X1854162Y3164340D01*
X1854235Y3165000D01*
X1854235Y3168037D01*
X1857751Y3171552D01*
X1892249Y3171552D01*
X1895764Y3168037D01*
X1895764Y3165000D01*
X1895777Y3164923D01*
X1895768Y3164846D01*
X1895855Y3164446D01*
X1895921Y3164044D01*
X1895957Y3163975D01*
X1895974Y3163899D01*
X1896183Y3163548D01*
X1896374Y3163188D01*
X1896430Y3163134D01*
X1896470Y3163068D01*
X1896780Y3162802D01*
X1897076Y3162520D01*
X1897147Y3162487D01*
X1897205Y3162437D01*
X1897584Y3162284D01*
X1897955Y3162112D01*
X1898032Y3162103D01*
X1898104Y3162074D01*
X1898764Y3162001D01*
X2601236Y3162001D01*
X2601313Y3162013D01*
X2601390Y3162005D01*
X2601790Y3162091D01*
X2602192Y3162157D01*
X2602261Y3162193D01*
X2602337Y3162210D01*
X2602688Y3162419D01*
X2603048Y3162610D01*
X2603102Y3162666D01*
X2603169Y3162706D01*
X2603434Y3163016D01*
X2603716Y3163312D01*
X2603749Y3163383D01*
X2603799Y3163442D01*
X2603952Y3163820D01*
X2604124Y3164191D01*
X2604133Y3164268D01*
X2604162Y3164340D01*
X2604235Y3165000D01*
X2604235Y3168037D01*
X2607751Y3171552D01*
X2642249Y3171552D01*
X2645764Y3168037D01*
X2645764Y3165000D01*
X2645777Y3164923D01*
X2645768Y3164846D01*
X2645855Y3164446D01*
X2645921Y3164044D01*
X2645957Y3163975D01*
X2645974Y3163899D01*
X2646183Y3163548D01*
X2646374Y3163188D01*
X2646430Y3163134D01*
X2646470Y3163068D01*
X2646780Y3162802D01*
X2647076Y3162520D01*
X2647147Y3162487D01*
X2647205Y3162437D01*
X2647584Y3162284D01*
X2647955Y3162112D01*
X2648032Y3162103D01*
X2648104Y3162074D01*
X2648764Y3162001D01*
X3055971Y3162001D01*
X3064092Y3153879D01*
X3067226Y3150746D01*
X3067455Y3150581D01*
X3067659Y3150387D01*
X3067845Y3150300D01*
X3068012Y3150180D01*
X3068282Y3150097D01*
X3068537Y3149978D01*
X3068741Y3149956D01*
X3068938Y3149895D01*
X3069220Y3149902D01*
X3069500Y3149871D01*
X3069701Y3149915D01*
X3069906Y3149920D01*
X3070171Y3150017D01*
X3070447Y3150076D01*
X3070624Y3150182D01*
X3070816Y3150252D01*
X3071037Y3150428D01*
X3071279Y3150573D01*
X3071413Y3150729D01*
X3071573Y3150857D01*
X3071726Y3151094D01*
X3071909Y3151308D01*
X3071986Y3151499D01*
X3072097Y3151672D01*
X3072167Y3151945D01*
X3072272Y3152206D01*
X3072303Y3152487D01*
X3072335Y3152611D01*
X3072328Y3152704D01*
X3072346Y3152867D01*
X3072346Y3155635D01*
X3075861Y3159150D01*
X3124139Y3159150D01*
X3127654Y3155635D01*
X3127654Y3148464D01*
X3127667Y3148388D01*
X3127658Y3148311D01*
X3127745Y3147911D01*
X3127811Y3147508D01*
X3127847Y3147440D01*
X3127863Y3147364D01*
X3128073Y3147013D01*
X3128264Y3146652D01*
X3128320Y3146599D01*
X3128360Y3146532D01*
X3128669Y3146267D01*
X3128966Y3145985D01*
X3129036Y3145952D01*
X3129095Y3145902D01*
X3129474Y3145749D01*
X3129844Y3145576D01*
X3129922Y3145568D01*
X3129993Y3145539D01*
X3130653Y3145465D01*
X3271506Y3145465D01*
X3362001Y3054971D01*
X3362001Y2114000D01*
X3362013Y2113923D01*
X3362005Y2113846D01*
X3362091Y2113446D01*
X3362157Y2113044D01*
X3362193Y2112975D01*
X3362210Y2112899D01*
X3362419Y2112548D01*
X3362610Y2112188D01*
X3362666Y2112134D01*
X3362706Y2112068D01*
X3363016Y2111802D01*
X3363312Y2111520D01*
X3363383Y2111487D01*
X3363442Y2111437D01*
X3363820Y2111284D01*
X3364191Y2111112D01*
X3364268Y2111103D01*
X3364340Y2111074D01*
X3365000Y2111001D01*
X3387161Y2111001D01*
X3400393Y2105520D01*
X3410520Y2095393D01*
X3416001Y2082161D01*
X3416001Y2067839D01*
X3410520Y2054607D01*
X3400393Y2044480D01*
X3387161Y2038999D01*
X3312839Y2038999D01*
G37*
%LPD*%
%LPC*%
G36*
X409108Y2604291D02*
X409108Y2604291D01*
X378408Y2612517D01*
X350883Y2628408D01*
X328408Y2650883D01*
X312517Y2678408D01*
X304918Y2706766D01*
X304726Y2707192D01*
X304529Y2707635D01*
X304523Y2707642D01*
X304520Y2707649D01*
X304197Y2707996D01*
X303874Y2708349D01*
X303866Y2708353D01*
X303860Y2708359D01*
X303445Y2708585D01*
X303025Y2708816D01*
X303017Y2708818D01*
X303009Y2708822D01*
X302540Y2708904D01*
X302072Y2708989D01*
X302064Y2708988D01*
X302055Y2708989D01*
X301582Y2708917D01*
X301114Y2708849D01*
X301106Y2708845D01*
X301097Y2708844D01*
X300673Y2708625D01*
X300250Y2708410D01*
X300244Y2708404D01*
X300236Y2708400D01*
X299902Y2708057D01*
X299571Y2707720D01*
X299566Y2707711D01*
X299561Y2707706D01*
X299546Y2707675D01*
X299250Y2707138D01*
X288950Y2682270D01*
X267730Y2661050D01*
X240005Y2649566D01*
X209995Y2649566D01*
X182270Y2661050D01*
X161050Y2682270D01*
X149566Y2709995D01*
X149566Y2740005D01*
X161050Y2767730D01*
X182270Y2788950D01*
X209995Y2800434D01*
X218756Y2800434D01*
X218832Y2800446D01*
X218910Y2800438D01*
X219309Y2800524D01*
X219712Y2800590D01*
X219780Y2800626D01*
X219856Y2800643D01*
X220208Y2800852D01*
X220568Y2801043D01*
X220622Y2801099D01*
X220688Y2801139D01*
X220954Y2801449D01*
X221235Y2801745D01*
X221268Y2801816D01*
X221319Y2801875D01*
X221472Y2802253D01*
X221644Y2802624D01*
X221653Y2802701D01*
X221682Y2802773D01*
X221755Y2803433D01*
X221755Y2874730D01*
X225270Y2878245D01*
X277031Y2878245D01*
X277385Y2878303D01*
X277741Y2878330D01*
X277859Y2878380D01*
X277987Y2878401D01*
X278303Y2878569D01*
X278633Y2878708D01*
X278761Y2878811D01*
X278843Y2878854D01*
X278931Y2878947D01*
X279152Y2879123D01*
X365121Y2965092D01*
X365330Y2965383D01*
X365563Y2965655D01*
X365611Y2965775D01*
X365686Y2965879D01*
X365791Y2966221D01*
X365926Y2966553D01*
X365944Y2966715D01*
X365971Y2966805D01*
X365968Y2966933D01*
X365999Y2967213D01*
X365999Y2975449D01*
X365987Y2975525D01*
X365995Y2975602D01*
X365909Y2976002D01*
X365843Y2976405D01*
X365807Y2976473D01*
X365790Y2976549D01*
X365581Y2976900D01*
X365390Y2977261D01*
X365334Y2977314D01*
X365294Y2977381D01*
X364984Y2977647D01*
X364688Y2977928D01*
X364617Y2977961D01*
X364558Y2978012D01*
X364180Y2978164D01*
X363809Y2978337D01*
X363732Y2978345D01*
X363660Y2978375D01*
X363000Y2978448D01*
X357751Y2978448D01*
X354235Y2981963D01*
X354235Y3026304D01*
X357751Y3029820D01*
X392249Y3029820D01*
X395764Y3026304D01*
X395764Y2981963D01*
X392102Y2978301D01*
X392044Y2978292D01*
X391975Y2978255D01*
X391899Y2978239D01*
X391548Y2978029D01*
X391188Y2977839D01*
X391134Y2977782D01*
X391068Y2977743D01*
X390802Y2977433D01*
X390520Y2977136D01*
X390487Y2977066D01*
X390437Y2977007D01*
X390284Y2976628D01*
X390112Y2976258D01*
X390103Y2976181D01*
X390074Y2976109D01*
X390001Y2975449D01*
X390001Y2956029D01*
X317336Y2883365D01*
X317172Y2883136D01*
X316977Y2882931D01*
X316891Y2882745D01*
X316771Y2882578D01*
X316688Y2882309D01*
X316569Y2882053D01*
X316546Y2881849D01*
X316486Y2881652D01*
X316493Y2881370D01*
X316462Y2881090D01*
X316505Y2880889D01*
X316511Y2880684D01*
X316607Y2880419D01*
X316667Y2880144D01*
X316772Y2879967D01*
X316843Y2879774D01*
X317019Y2879554D01*
X317163Y2879312D01*
X317319Y2879178D01*
X317448Y2879017D01*
X317685Y2878865D01*
X317899Y2878681D01*
X318090Y2878604D01*
X318262Y2878493D01*
X318536Y2878424D01*
X318797Y2878318D01*
X319077Y2878287D01*
X319202Y2878256D01*
X319295Y2878263D01*
X319457Y2878245D01*
X324730Y2878245D01*
X328245Y2874730D01*
X328245Y2806194D01*
X328290Y2805916D01*
X328297Y2805634D01*
X328368Y2805441D01*
X328401Y2805238D01*
X328533Y2804989D01*
X328630Y2804724D01*
X328758Y2804563D01*
X328854Y2804382D01*
X329058Y2804188D01*
X329235Y2803968D01*
X329407Y2803856D01*
X329556Y2803715D01*
X329812Y2803596D01*
X330049Y2803443D01*
X330248Y2803393D01*
X330435Y2803306D01*
X330715Y2803275D01*
X330988Y2803206D01*
X331193Y2803222D01*
X331398Y2803199D01*
X331674Y2803259D01*
X331954Y2803280D01*
X332143Y2803361D01*
X332344Y2803404D01*
X332586Y2803548D01*
X332846Y2803659D01*
X333067Y2803835D01*
X333176Y2803900D01*
X333237Y2803971D01*
X333365Y2804073D01*
X350883Y2821592D01*
X378408Y2837483D01*
X409108Y2845709D01*
X440892Y2845709D01*
X471592Y2837483D01*
X499117Y2821592D01*
X521592Y2799117D01*
X537483Y2771592D01*
X545082Y2743234D01*
X545274Y2742808D01*
X545471Y2742365D01*
X545477Y2742358D01*
X545480Y2742351D01*
X545802Y2742004D01*
X546126Y2741651D01*
X546134Y2741647D01*
X546140Y2741641D01*
X546555Y2741415D01*
X546975Y2741184D01*
X546983Y2741182D01*
X546991Y2741178D01*
X547460Y2741096D01*
X547928Y2741011D01*
X547936Y2741012D01*
X547945Y2741011D01*
X548418Y2741083D01*
X548886Y2741151D01*
X548894Y2741155D01*
X548903Y2741156D01*
X549327Y2741375D01*
X549750Y2741589D01*
X549756Y2741596D01*
X549764Y2741600D01*
X550098Y2741943D01*
X550429Y2742280D01*
X550434Y2742289D01*
X550439Y2742294D01*
X550454Y2742324D01*
X550750Y2742862D01*
X561050Y2767730D01*
X582270Y2788950D01*
X609995Y2800434D01*
X640005Y2800434D01*
X667730Y2788950D01*
X688950Y2767730D01*
X700434Y2740005D01*
X700434Y2709995D01*
X688950Y2682270D01*
X667730Y2661050D01*
X640005Y2649566D01*
X609995Y2649566D01*
X582270Y2661050D01*
X561050Y2682270D01*
X550750Y2707138D01*
X550500Y2707542D01*
X550250Y2707948D01*
X550244Y2707954D01*
X550239Y2707961D01*
X549873Y2708265D01*
X549508Y2708570D01*
X549500Y2708574D01*
X549493Y2708579D01*
X549057Y2708747D01*
X548606Y2708923D01*
X548597Y2708924D01*
X548589Y2708927D01*
X548118Y2708947D01*
X547638Y2708970D01*
X547630Y2708968D01*
X547621Y2708968D01*
X547164Y2708836D01*
X546706Y2708706D01*
X546699Y2708701D01*
X546691Y2708699D01*
X546299Y2708427D01*
X545907Y2708159D01*
X545902Y2708152D01*
X545894Y2708147D01*
X545611Y2707766D01*
X545324Y2707385D01*
X545320Y2707375D01*
X545316Y2707370D01*
X545306Y2707339D01*
X545082Y2706766D01*
X537483Y2678408D01*
X521592Y2650883D01*
X499117Y2628408D01*
X471592Y2612517D01*
X440892Y2604291D01*
X409108Y2604291D01*
G37*
%LPD*%
%LPC*%
G36*
X2659108Y2604291D02*
X2659108Y2604291D01*
X2628408Y2612517D01*
X2600883Y2628408D01*
X2578408Y2650883D01*
X2562517Y2678408D01*
X2554918Y2706766D01*
X2554726Y2707192D01*
X2554529Y2707635D01*
X2554523Y2707642D01*
X2554520Y2707649D01*
X2554197Y2707996D01*
X2553874Y2708349D01*
X2553866Y2708353D01*
X2553860Y2708359D01*
X2553445Y2708585D01*
X2553025Y2708816D01*
X2553017Y2708818D01*
X2553009Y2708822D01*
X2552540Y2708904D01*
X2552072Y2708989D01*
X2552064Y2708988D01*
X2552055Y2708989D01*
X2551582Y2708917D01*
X2551114Y2708849D01*
X2551106Y2708845D01*
X2551097Y2708844D01*
X2550673Y2708625D01*
X2550250Y2708410D01*
X2550244Y2708404D01*
X2550236Y2708400D01*
X2549902Y2708057D01*
X2549571Y2707720D01*
X2549566Y2707711D01*
X2549561Y2707706D01*
X2549546Y2707675D01*
X2549250Y2707138D01*
X2538950Y2682270D01*
X2517730Y2661050D01*
X2490005Y2649566D01*
X2459995Y2649566D01*
X2432270Y2661050D01*
X2411050Y2682270D01*
X2399566Y2709995D01*
X2399566Y2740005D01*
X2411050Y2767730D01*
X2432270Y2788950D01*
X2459995Y2800434D01*
X2468756Y2800434D01*
X2468832Y2800446D01*
X2468910Y2800438D01*
X2469309Y2800524D01*
X2469712Y2800590D01*
X2469780Y2800626D01*
X2469856Y2800643D01*
X2470208Y2800852D01*
X2470568Y2801043D01*
X2470622Y2801099D01*
X2470688Y2801139D01*
X2470954Y2801449D01*
X2471235Y2801745D01*
X2471268Y2801816D01*
X2471319Y2801875D01*
X2471472Y2802253D01*
X2471644Y2802624D01*
X2471653Y2802701D01*
X2471682Y2802773D01*
X2471755Y2803433D01*
X2471755Y2874730D01*
X2475270Y2878245D01*
X2527031Y2878245D01*
X2527385Y2878303D01*
X2527741Y2878330D01*
X2527860Y2878380D01*
X2527987Y2878401D01*
X2528303Y2878569D01*
X2528633Y2878708D01*
X2528761Y2878811D01*
X2528843Y2878854D01*
X2528931Y2878947D01*
X2529152Y2879123D01*
X2615121Y2965092D01*
X2615330Y2965383D01*
X2615563Y2965655D01*
X2615611Y2965775D01*
X2615686Y2965879D01*
X2615791Y2966221D01*
X2615926Y2966553D01*
X2615944Y2966715D01*
X2615971Y2966805D01*
X2615968Y2966933D01*
X2615999Y2967213D01*
X2615999Y2975449D01*
X2615987Y2975525D01*
X2615995Y2975602D01*
X2615909Y2976002D01*
X2615843Y2976405D01*
X2615807Y2976473D01*
X2615790Y2976549D01*
X2615581Y2976900D01*
X2615390Y2977261D01*
X2615334Y2977314D01*
X2615294Y2977381D01*
X2614984Y2977647D01*
X2614688Y2977928D01*
X2614617Y2977961D01*
X2614558Y2978012D01*
X2614180Y2978164D01*
X2613809Y2978337D01*
X2613732Y2978345D01*
X2613660Y2978375D01*
X2613000Y2978448D01*
X2607751Y2978448D01*
X2604235Y2981963D01*
X2604235Y3026304D01*
X2607751Y3029820D01*
X2642249Y3029820D01*
X2645764Y3026304D01*
X2645764Y2981963D01*
X2642102Y2978301D01*
X2642044Y2978292D01*
X2641975Y2978255D01*
X2641899Y2978239D01*
X2641548Y2978029D01*
X2641188Y2977839D01*
X2641134Y2977782D01*
X2641068Y2977743D01*
X2640802Y2977433D01*
X2640520Y2977136D01*
X2640487Y2977066D01*
X2640437Y2977007D01*
X2640284Y2976628D01*
X2640112Y2976258D01*
X2640103Y2976181D01*
X2640074Y2976109D01*
X2640001Y2975449D01*
X2640001Y2956029D01*
X2567336Y2883365D01*
X2567172Y2883136D01*
X2566977Y2882931D01*
X2566891Y2882745D01*
X2566771Y2882578D01*
X2566688Y2882309D01*
X2566569Y2882053D01*
X2566546Y2881849D01*
X2566486Y2881652D01*
X2566493Y2881370D01*
X2566462Y2881090D01*
X2566505Y2880889D01*
X2566511Y2880684D01*
X2566607Y2880419D01*
X2566667Y2880144D01*
X2566772Y2879967D01*
X2566843Y2879774D01*
X2567019Y2879554D01*
X2567163Y2879312D01*
X2567319Y2879178D01*
X2567448Y2879017D01*
X2567685Y2878865D01*
X2567899Y2878681D01*
X2568090Y2878604D01*
X2568262Y2878493D01*
X2568536Y2878424D01*
X2568797Y2878318D01*
X2569077Y2878287D01*
X2569202Y2878256D01*
X2569295Y2878263D01*
X2569457Y2878245D01*
X2574730Y2878245D01*
X2578245Y2874730D01*
X2578245Y2806194D01*
X2578290Y2805916D01*
X2578297Y2805634D01*
X2578368Y2805441D01*
X2578401Y2805238D01*
X2578533Y2804989D01*
X2578630Y2804724D01*
X2578758Y2804563D01*
X2578854Y2804382D01*
X2579058Y2804188D01*
X2579235Y2803968D01*
X2579407Y2803856D01*
X2579556Y2803715D01*
X2579812Y2803596D01*
X2580049Y2803443D01*
X2580248Y2803393D01*
X2580435Y2803306D01*
X2580715Y2803275D01*
X2580988Y2803206D01*
X2581193Y2803222D01*
X2581398Y2803199D01*
X2581674Y2803259D01*
X2581954Y2803280D01*
X2582143Y2803361D01*
X2582344Y2803404D01*
X2582586Y2803548D01*
X2582846Y2803659D01*
X2583067Y2803835D01*
X2583176Y2803900D01*
X2583237Y2803971D01*
X2583365Y2804073D01*
X2600883Y2821592D01*
X2628408Y2837483D01*
X2659108Y2845709D01*
X2690892Y2845709D01*
X2721592Y2837483D01*
X2749117Y2821592D01*
X2771592Y2799117D01*
X2787483Y2771592D01*
X2795082Y2743234D01*
X2795274Y2742808D01*
X2795471Y2742365D01*
X2795477Y2742358D01*
X2795480Y2742351D01*
X2795802Y2742004D01*
X2796126Y2741651D01*
X2796134Y2741647D01*
X2796140Y2741641D01*
X2796555Y2741415D01*
X2796975Y2741184D01*
X2796983Y2741182D01*
X2796991Y2741178D01*
X2797460Y2741096D01*
X2797928Y2741011D01*
X2797936Y2741012D01*
X2797945Y2741011D01*
X2798418Y2741083D01*
X2798886Y2741151D01*
X2798894Y2741155D01*
X2798903Y2741156D01*
X2799327Y2741375D01*
X2799750Y2741589D01*
X2799756Y2741596D01*
X2799764Y2741600D01*
X2800098Y2741943D01*
X2800429Y2742280D01*
X2800434Y2742289D01*
X2800439Y2742294D01*
X2800454Y2742324D01*
X2800750Y2742862D01*
X2811050Y2767730D01*
X2832270Y2788950D01*
X2859995Y2800434D01*
X2890005Y2800434D01*
X2917730Y2788950D01*
X2938950Y2767730D01*
X2950434Y2740005D01*
X2950434Y2709995D01*
X2938950Y2682270D01*
X2917730Y2661050D01*
X2890005Y2649566D01*
X2859995Y2649566D01*
X2832270Y2661050D01*
X2811050Y2682270D01*
X2800750Y2707138D01*
X2800500Y2707542D01*
X2800250Y2707948D01*
X2800244Y2707954D01*
X2800239Y2707961D01*
X2799873Y2708265D01*
X2799508Y2708570D01*
X2799500Y2708574D01*
X2799493Y2708579D01*
X2799057Y2708747D01*
X2798606Y2708923D01*
X2798597Y2708924D01*
X2798589Y2708927D01*
X2798118Y2708947D01*
X2797638Y2708970D01*
X2797630Y2708968D01*
X2797621Y2708968D01*
X2797164Y2708836D01*
X2796706Y2708706D01*
X2796699Y2708701D01*
X2796691Y2708699D01*
X2796299Y2708427D01*
X2795907Y2708159D01*
X2795902Y2708152D01*
X2795894Y2708147D01*
X2795611Y2707766D01*
X2795324Y2707385D01*
X2795320Y2707375D01*
X2795316Y2707370D01*
X2795306Y2707339D01*
X2795082Y2706766D01*
X2787483Y2678408D01*
X2771592Y2650883D01*
X2749117Y2628408D01*
X2721592Y2612517D01*
X2690892Y2604291D01*
X2659108Y2604291D01*
G37*
%LPD*%
%LPC*%
G36*
X1159108Y1104291D02*
X1159108Y1104291D01*
X1128408Y1112517D01*
X1100883Y1128408D01*
X1078408Y1150883D01*
X1062517Y1178408D01*
X1054922Y1206750D01*
X1054918Y1206766D01*
X1054726Y1207192D01*
X1054529Y1207635D01*
X1054523Y1207642D01*
X1054520Y1207649D01*
X1054197Y1207996D01*
X1053874Y1208349D01*
X1053866Y1208353D01*
X1053860Y1208359D01*
X1053445Y1208585D01*
X1053025Y1208816D01*
X1053017Y1208818D01*
X1053009Y1208822D01*
X1052540Y1208904D01*
X1052072Y1208989D01*
X1052064Y1208988D01*
X1052055Y1208989D01*
X1051582Y1208917D01*
X1051114Y1208849D01*
X1051106Y1208845D01*
X1051097Y1208844D01*
X1050673Y1208625D01*
X1050250Y1208410D01*
X1050244Y1208404D01*
X1050236Y1208400D01*
X1049902Y1208057D01*
X1049571Y1207720D01*
X1049566Y1207711D01*
X1049561Y1207706D01*
X1049546Y1207675D01*
X1049250Y1207138D01*
X1038950Y1182270D01*
X1017730Y1161050D01*
X990005Y1149566D01*
X959995Y1149566D01*
X932270Y1161050D01*
X911050Y1182270D01*
X899566Y1209995D01*
X899566Y1240005D01*
X911050Y1267730D01*
X932270Y1288950D01*
X959995Y1300434D01*
X968756Y1300434D01*
X968832Y1300446D01*
X968910Y1300438D01*
X969309Y1300524D01*
X969712Y1300590D01*
X969780Y1300626D01*
X969856Y1300643D01*
X970208Y1300852D01*
X970568Y1301043D01*
X970622Y1301099D01*
X970688Y1301139D01*
X970954Y1301449D01*
X971235Y1301745D01*
X971268Y1301816D01*
X971319Y1301875D01*
X971472Y1302253D01*
X971644Y1302624D01*
X971653Y1302701D01*
X971682Y1302773D01*
X971755Y1303433D01*
X971755Y1374730D01*
X975270Y1378245D01*
X1027031Y1378245D01*
X1027385Y1378303D01*
X1027741Y1378330D01*
X1027860Y1378380D01*
X1027987Y1378401D01*
X1028303Y1378569D01*
X1028633Y1378708D01*
X1028761Y1378811D01*
X1028843Y1378854D01*
X1028931Y1378947D01*
X1029152Y1379123D01*
X1112121Y1462092D01*
X1112330Y1462383D01*
X1112563Y1462655D01*
X1112611Y1462775D01*
X1112686Y1462879D01*
X1112791Y1463221D01*
X1112926Y1463553D01*
X1112944Y1463715D01*
X1112971Y1463805D01*
X1112968Y1463933D01*
X1112999Y1464213D01*
X1112999Y1475449D01*
X1112987Y1475525D01*
X1112995Y1475602D01*
X1112909Y1476002D01*
X1112843Y1476405D01*
X1112807Y1476473D01*
X1112790Y1476549D01*
X1112581Y1476900D01*
X1112390Y1477261D01*
X1112334Y1477314D01*
X1112294Y1477381D01*
X1111984Y1477647D01*
X1111688Y1477928D01*
X1111617Y1477961D01*
X1111558Y1478012D01*
X1111180Y1478164D01*
X1110809Y1478337D01*
X1110732Y1478345D01*
X1110660Y1478375D01*
X1110000Y1478448D01*
X1107751Y1478448D01*
X1104235Y1481963D01*
X1104235Y1526304D01*
X1107751Y1529820D01*
X1142249Y1529820D01*
X1145764Y1526304D01*
X1145764Y1481963D01*
X1142249Y1478448D01*
X1140000Y1478448D01*
X1139923Y1478436D01*
X1139846Y1478444D01*
X1139446Y1478358D01*
X1139044Y1478292D01*
X1138975Y1478255D01*
X1138899Y1478239D01*
X1138548Y1478029D01*
X1138188Y1477839D01*
X1138134Y1477782D01*
X1138068Y1477743D01*
X1137802Y1477433D01*
X1137520Y1477136D01*
X1137487Y1477066D01*
X1137437Y1477007D01*
X1137284Y1476628D01*
X1137112Y1476258D01*
X1137103Y1476181D01*
X1137074Y1476109D01*
X1137001Y1475449D01*
X1137001Y1453029D01*
X1067336Y1383365D01*
X1067172Y1383136D01*
X1066977Y1382931D01*
X1066891Y1382745D01*
X1066771Y1382578D01*
X1066688Y1382309D01*
X1066569Y1382053D01*
X1066546Y1381849D01*
X1066486Y1381652D01*
X1066493Y1381370D01*
X1066462Y1381090D01*
X1066505Y1380889D01*
X1066511Y1380684D01*
X1066607Y1380419D01*
X1066667Y1380144D01*
X1066772Y1379967D01*
X1066843Y1379774D01*
X1067019Y1379554D01*
X1067163Y1379312D01*
X1067319Y1379178D01*
X1067448Y1379017D01*
X1067685Y1378865D01*
X1067899Y1378681D01*
X1068090Y1378604D01*
X1068262Y1378493D01*
X1068536Y1378424D01*
X1068797Y1378318D01*
X1069077Y1378287D01*
X1069202Y1378256D01*
X1069295Y1378263D01*
X1069457Y1378245D01*
X1074730Y1378245D01*
X1078245Y1374730D01*
X1078245Y1306194D01*
X1078290Y1305916D01*
X1078297Y1305634D01*
X1078368Y1305441D01*
X1078401Y1305238D01*
X1078533Y1304989D01*
X1078630Y1304724D01*
X1078758Y1304563D01*
X1078854Y1304382D01*
X1079058Y1304188D01*
X1079235Y1303968D01*
X1079407Y1303856D01*
X1079556Y1303715D01*
X1079812Y1303596D01*
X1080049Y1303443D01*
X1080248Y1303393D01*
X1080435Y1303306D01*
X1080715Y1303275D01*
X1080988Y1303206D01*
X1081193Y1303222D01*
X1081398Y1303199D01*
X1081674Y1303259D01*
X1081954Y1303280D01*
X1082143Y1303361D01*
X1082344Y1303404D01*
X1082586Y1303548D01*
X1082846Y1303659D01*
X1083067Y1303835D01*
X1083176Y1303900D01*
X1083237Y1303971D01*
X1083365Y1304073D01*
X1100883Y1321592D01*
X1128408Y1337483D01*
X1159108Y1345709D01*
X1190892Y1345709D01*
X1221592Y1337483D01*
X1249117Y1321592D01*
X1271592Y1299117D01*
X1287483Y1271592D01*
X1295078Y1243250D01*
X1295082Y1243234D01*
X1295274Y1242808D01*
X1295471Y1242365D01*
X1295477Y1242358D01*
X1295480Y1242351D01*
X1295802Y1242004D01*
X1296126Y1241651D01*
X1296134Y1241647D01*
X1296140Y1241641D01*
X1296555Y1241415D01*
X1296975Y1241184D01*
X1296983Y1241182D01*
X1296991Y1241178D01*
X1297460Y1241096D01*
X1297928Y1241011D01*
X1297936Y1241012D01*
X1297945Y1241011D01*
X1298418Y1241083D01*
X1298886Y1241151D01*
X1298894Y1241155D01*
X1298903Y1241156D01*
X1299327Y1241375D01*
X1299750Y1241589D01*
X1299756Y1241596D01*
X1299764Y1241600D01*
X1300098Y1241943D01*
X1300429Y1242280D01*
X1300434Y1242289D01*
X1300439Y1242294D01*
X1300454Y1242324D01*
X1300750Y1242862D01*
X1311050Y1267730D01*
X1332270Y1288950D01*
X1359995Y1300434D01*
X1390005Y1300434D01*
X1417730Y1288950D01*
X1438950Y1267730D01*
X1450434Y1240005D01*
X1450434Y1209995D01*
X1438950Y1182270D01*
X1417730Y1161050D01*
X1390005Y1149566D01*
X1359995Y1149566D01*
X1332270Y1161050D01*
X1311050Y1182270D01*
X1300750Y1207138D01*
X1300500Y1207542D01*
X1300250Y1207948D01*
X1300244Y1207954D01*
X1300239Y1207961D01*
X1299873Y1208265D01*
X1299508Y1208570D01*
X1299500Y1208574D01*
X1299493Y1208579D01*
X1299057Y1208747D01*
X1298606Y1208923D01*
X1298597Y1208924D01*
X1298589Y1208927D01*
X1298118Y1208947D01*
X1297638Y1208970D01*
X1297630Y1208968D01*
X1297621Y1208968D01*
X1297164Y1208836D01*
X1296706Y1208706D01*
X1296699Y1208701D01*
X1296691Y1208699D01*
X1296299Y1208427D01*
X1295907Y1208159D01*
X1295902Y1208152D01*
X1295894Y1208147D01*
X1295611Y1207766D01*
X1295324Y1207385D01*
X1295320Y1207375D01*
X1295316Y1207370D01*
X1295306Y1207339D01*
X1295082Y1206766D01*
X1287483Y1178408D01*
X1271592Y1150883D01*
X1249117Y1128408D01*
X1221592Y1112517D01*
X1190892Y1104291D01*
X1159108Y1104291D01*
G37*
%LPD*%
%LPC*%
G36*
X2659108Y1104291D02*
X2659108Y1104291D01*
X2628408Y1112517D01*
X2600883Y1128408D01*
X2578408Y1150883D01*
X2562517Y1178408D01*
X2554922Y1206750D01*
X2554918Y1206766D01*
X2554726Y1207192D01*
X2554529Y1207635D01*
X2554523Y1207642D01*
X2554520Y1207649D01*
X2554197Y1207996D01*
X2553874Y1208349D01*
X2553866Y1208353D01*
X2553860Y1208359D01*
X2553445Y1208585D01*
X2553025Y1208816D01*
X2553017Y1208818D01*
X2553009Y1208822D01*
X2552540Y1208904D01*
X2552072Y1208989D01*
X2552064Y1208988D01*
X2552055Y1208989D01*
X2551582Y1208917D01*
X2551114Y1208849D01*
X2551106Y1208845D01*
X2551097Y1208844D01*
X2550673Y1208625D01*
X2550250Y1208410D01*
X2550244Y1208404D01*
X2550236Y1208400D01*
X2549902Y1208057D01*
X2549571Y1207720D01*
X2549566Y1207711D01*
X2549561Y1207706D01*
X2549546Y1207675D01*
X2549250Y1207138D01*
X2538950Y1182270D01*
X2517730Y1161050D01*
X2490005Y1149566D01*
X2459995Y1149566D01*
X2432270Y1161050D01*
X2411050Y1182270D01*
X2399566Y1209995D01*
X2399566Y1240005D01*
X2411050Y1267730D01*
X2432270Y1288950D01*
X2459995Y1300434D01*
X2468756Y1300434D01*
X2468832Y1300446D01*
X2468910Y1300438D01*
X2469309Y1300524D01*
X2469712Y1300590D01*
X2469780Y1300626D01*
X2469856Y1300643D01*
X2470208Y1300852D01*
X2470568Y1301043D01*
X2470622Y1301099D01*
X2470688Y1301139D01*
X2470954Y1301449D01*
X2471235Y1301745D01*
X2471268Y1301816D01*
X2471319Y1301875D01*
X2471472Y1302253D01*
X2471644Y1302624D01*
X2471653Y1302701D01*
X2471682Y1302773D01*
X2471755Y1303433D01*
X2471755Y1374730D01*
X2475270Y1378245D01*
X2530031Y1378245D01*
X2530385Y1378303D01*
X2530741Y1378330D01*
X2530860Y1378380D01*
X2530987Y1378401D01*
X2531303Y1378569D01*
X2531633Y1378708D01*
X2531761Y1378811D01*
X2531843Y1378854D01*
X2531931Y1378947D01*
X2532152Y1379123D01*
X2615121Y1462092D01*
X2615330Y1462383D01*
X2615563Y1462655D01*
X2615611Y1462775D01*
X2615686Y1462879D01*
X2615791Y1463221D01*
X2615926Y1463553D01*
X2615944Y1463715D01*
X2615971Y1463805D01*
X2615968Y1463933D01*
X2615999Y1464213D01*
X2615999Y1475449D01*
X2615987Y1475525D01*
X2615995Y1475602D01*
X2615909Y1476002D01*
X2615843Y1476405D01*
X2615807Y1476473D01*
X2615790Y1476549D01*
X2615581Y1476900D01*
X2615390Y1477261D01*
X2615334Y1477314D01*
X2615294Y1477381D01*
X2614984Y1477647D01*
X2614688Y1477928D01*
X2614617Y1477961D01*
X2614558Y1478012D01*
X2614180Y1478164D01*
X2613809Y1478337D01*
X2613732Y1478345D01*
X2613660Y1478375D01*
X2613000Y1478448D01*
X2607751Y1478448D01*
X2604235Y1481963D01*
X2604235Y1526304D01*
X2607751Y1529820D01*
X2642249Y1529820D01*
X2645764Y1526304D01*
X2645764Y1481963D01*
X2642102Y1478301D01*
X2642044Y1478292D01*
X2641975Y1478255D01*
X2641899Y1478239D01*
X2641548Y1478029D01*
X2641188Y1477839D01*
X2641134Y1477782D01*
X2641068Y1477743D01*
X2640802Y1477433D01*
X2640520Y1477136D01*
X2640487Y1477066D01*
X2640437Y1477007D01*
X2640284Y1476628D01*
X2640112Y1476258D01*
X2640103Y1476181D01*
X2640074Y1476109D01*
X2640001Y1475449D01*
X2640001Y1453029D01*
X2570336Y1383365D01*
X2570172Y1383136D01*
X2569977Y1382931D01*
X2569891Y1382745D01*
X2569771Y1382578D01*
X2569688Y1382309D01*
X2569569Y1382053D01*
X2569546Y1381849D01*
X2569486Y1381652D01*
X2569493Y1381370D01*
X2569462Y1381090D01*
X2569505Y1380889D01*
X2569511Y1380684D01*
X2569607Y1380419D01*
X2569667Y1380144D01*
X2569772Y1379967D01*
X2569843Y1379774D01*
X2570019Y1379554D01*
X2570163Y1379312D01*
X2570319Y1379178D01*
X2570448Y1379017D01*
X2570685Y1378865D01*
X2570899Y1378681D01*
X2571090Y1378604D01*
X2571262Y1378493D01*
X2571536Y1378424D01*
X2571797Y1378318D01*
X2572077Y1378287D01*
X2572202Y1378256D01*
X2572295Y1378263D01*
X2572457Y1378245D01*
X2574730Y1378245D01*
X2578245Y1374730D01*
X2578245Y1306194D01*
X2578290Y1305916D01*
X2578297Y1305634D01*
X2578368Y1305441D01*
X2578401Y1305238D01*
X2578533Y1304989D01*
X2578630Y1304724D01*
X2578758Y1304563D01*
X2578854Y1304382D01*
X2579058Y1304188D01*
X2579235Y1303968D01*
X2579407Y1303856D01*
X2579556Y1303715D01*
X2579812Y1303596D01*
X2580049Y1303443D01*
X2580248Y1303393D01*
X2580435Y1303306D01*
X2580715Y1303275D01*
X2580988Y1303206D01*
X2581193Y1303222D01*
X2581398Y1303199D01*
X2581674Y1303259D01*
X2581954Y1303280D01*
X2582143Y1303361D01*
X2582344Y1303404D01*
X2582586Y1303548D01*
X2582846Y1303659D01*
X2583067Y1303835D01*
X2583176Y1303900D01*
X2583237Y1303971D01*
X2583365Y1304073D01*
X2600883Y1321592D01*
X2628408Y1337483D01*
X2659108Y1345709D01*
X2690892Y1345709D01*
X2721592Y1337483D01*
X2749117Y1321592D01*
X2771592Y1299117D01*
X2787483Y1271592D01*
X2795078Y1243250D01*
X2795082Y1243234D01*
X2795274Y1242808D01*
X2795471Y1242365D01*
X2795477Y1242358D01*
X2795480Y1242351D01*
X2795802Y1242004D01*
X2796126Y1241651D01*
X2796134Y1241647D01*
X2796140Y1241641D01*
X2796555Y1241415D01*
X2796975Y1241184D01*
X2796983Y1241182D01*
X2796991Y1241178D01*
X2797460Y1241096D01*
X2797928Y1241011D01*
X2797936Y1241012D01*
X2797945Y1241011D01*
X2798418Y1241083D01*
X2798886Y1241151D01*
X2798894Y1241155D01*
X2798903Y1241156D01*
X2799327Y1241375D01*
X2799750Y1241589D01*
X2799756Y1241596D01*
X2799764Y1241600D01*
X2800098Y1241943D01*
X2800429Y1242280D01*
X2800434Y1242289D01*
X2800439Y1242294D01*
X2800454Y1242324D01*
X2800750Y1242862D01*
X2811050Y1267730D01*
X2832270Y1288950D01*
X2859995Y1300434D01*
X2890005Y1300434D01*
X2917730Y1288950D01*
X2938950Y1267730D01*
X2950434Y1240005D01*
X2950434Y1209995D01*
X2938950Y1182270D01*
X2917730Y1161050D01*
X2890005Y1149566D01*
X2859995Y1149566D01*
X2832270Y1161050D01*
X2811050Y1182270D01*
X2800750Y1207138D01*
X2800500Y1207542D01*
X2800250Y1207948D01*
X2800244Y1207954D01*
X2800239Y1207961D01*
X2799873Y1208265D01*
X2799508Y1208570D01*
X2799500Y1208574D01*
X2799493Y1208579D01*
X2799057Y1208747D01*
X2798606Y1208923D01*
X2798597Y1208924D01*
X2798589Y1208927D01*
X2798118Y1208947D01*
X2797638Y1208970D01*
X2797630Y1208968D01*
X2797621Y1208968D01*
X2797164Y1208836D01*
X2796706Y1208706D01*
X2796699Y1208701D01*
X2796691Y1208699D01*
X2796299Y1208427D01*
X2795907Y1208159D01*
X2795902Y1208152D01*
X2795894Y1208147D01*
X2795611Y1207766D01*
X2795324Y1207385D01*
X2795320Y1207375D01*
X2795316Y1207370D01*
X2795306Y1207339D01*
X2795082Y1206766D01*
X2787483Y1178408D01*
X2771592Y1150883D01*
X2749117Y1128408D01*
X2721592Y1112517D01*
X2690892Y1104291D01*
X2659108Y1104291D01*
G37*
%LPD*%
%LPC*%
G36*
X409108Y1104291D02*
X409108Y1104291D01*
X378408Y1112517D01*
X350883Y1128408D01*
X328408Y1150883D01*
X312517Y1178408D01*
X304918Y1206766D01*
X304730Y1207183D01*
X304529Y1207635D01*
X304523Y1207642D01*
X304520Y1207649D01*
X304197Y1207996D01*
X303874Y1208349D01*
X303866Y1208353D01*
X303860Y1208359D01*
X303445Y1208585D01*
X303025Y1208816D01*
X303017Y1208818D01*
X303009Y1208822D01*
X302540Y1208904D01*
X302072Y1208989D01*
X302064Y1208988D01*
X302055Y1208989D01*
X301582Y1208917D01*
X301114Y1208849D01*
X301106Y1208845D01*
X301097Y1208844D01*
X300673Y1208625D01*
X300250Y1208411D01*
X300244Y1208404D01*
X300236Y1208400D01*
X299902Y1208057D01*
X299571Y1207720D01*
X299566Y1207711D01*
X299561Y1207706D01*
X299546Y1207676D01*
X299250Y1207138D01*
X288950Y1182270D01*
X267730Y1161050D01*
X240005Y1149566D01*
X209995Y1149566D01*
X182270Y1161050D01*
X161050Y1182270D01*
X149566Y1209995D01*
X149566Y1240005D01*
X161050Y1267730D01*
X182270Y1288950D01*
X209995Y1300434D01*
X218756Y1300434D01*
X218832Y1300446D01*
X218910Y1300438D01*
X219309Y1300524D01*
X219712Y1300590D01*
X219780Y1300626D01*
X219856Y1300643D01*
X220208Y1300852D01*
X220568Y1301043D01*
X220622Y1301099D01*
X220688Y1301139D01*
X220954Y1301449D01*
X221235Y1301745D01*
X221268Y1301816D01*
X221319Y1301875D01*
X221472Y1302253D01*
X221644Y1302624D01*
X221653Y1302701D01*
X221682Y1302773D01*
X221755Y1303433D01*
X221755Y1374730D01*
X225270Y1378245D01*
X280031Y1378245D01*
X280385Y1378303D01*
X280741Y1378330D01*
X280859Y1378380D01*
X280987Y1378401D01*
X281303Y1378569D01*
X281633Y1378708D01*
X281761Y1378811D01*
X281843Y1378854D01*
X281931Y1378947D01*
X282152Y1379123D01*
X365121Y1462092D01*
X365330Y1462383D01*
X365563Y1462655D01*
X365611Y1462775D01*
X365686Y1462879D01*
X365791Y1463221D01*
X365926Y1463553D01*
X365944Y1463715D01*
X365971Y1463805D01*
X365968Y1463933D01*
X365999Y1464213D01*
X365999Y1475449D01*
X365987Y1475525D01*
X365995Y1475602D01*
X365909Y1476002D01*
X365843Y1476405D01*
X365807Y1476473D01*
X365790Y1476549D01*
X365581Y1476900D01*
X365390Y1477261D01*
X365334Y1477314D01*
X365294Y1477381D01*
X364984Y1477647D01*
X364688Y1477928D01*
X364617Y1477961D01*
X364558Y1478012D01*
X364180Y1478164D01*
X363809Y1478337D01*
X363732Y1478345D01*
X363660Y1478375D01*
X363000Y1478448D01*
X357751Y1478448D01*
X354235Y1481963D01*
X354235Y1526304D01*
X357751Y1529820D01*
X392249Y1529820D01*
X395764Y1526304D01*
X395764Y1481963D01*
X392102Y1478301D01*
X392044Y1478292D01*
X391975Y1478255D01*
X391899Y1478239D01*
X391548Y1478029D01*
X391188Y1477839D01*
X391134Y1477782D01*
X391068Y1477743D01*
X390802Y1477433D01*
X390520Y1477136D01*
X390487Y1477066D01*
X390437Y1477007D01*
X390284Y1476628D01*
X390112Y1476258D01*
X390103Y1476181D01*
X390074Y1476109D01*
X390001Y1475449D01*
X390001Y1453029D01*
X320336Y1383365D01*
X320172Y1383136D01*
X319977Y1382931D01*
X319891Y1382745D01*
X319771Y1382578D01*
X319688Y1382309D01*
X319569Y1382053D01*
X319546Y1381849D01*
X319486Y1381652D01*
X319493Y1381370D01*
X319462Y1381090D01*
X319505Y1380889D01*
X319511Y1380684D01*
X319607Y1380419D01*
X319667Y1380144D01*
X319772Y1379967D01*
X319843Y1379774D01*
X320019Y1379554D01*
X320163Y1379312D01*
X320319Y1379178D01*
X320448Y1379017D01*
X320685Y1378865D01*
X320899Y1378681D01*
X321090Y1378604D01*
X321262Y1378493D01*
X321536Y1378424D01*
X321797Y1378318D01*
X322077Y1378287D01*
X322202Y1378256D01*
X322295Y1378263D01*
X322457Y1378245D01*
X324730Y1378245D01*
X328245Y1374730D01*
X328245Y1306194D01*
X328290Y1305916D01*
X328297Y1305634D01*
X328368Y1305441D01*
X328401Y1305238D01*
X328533Y1304989D01*
X328630Y1304724D01*
X328758Y1304563D01*
X328854Y1304382D01*
X329058Y1304188D01*
X329235Y1303968D01*
X329407Y1303856D01*
X329556Y1303715D01*
X329812Y1303596D01*
X330049Y1303443D01*
X330248Y1303393D01*
X330435Y1303306D01*
X330715Y1303275D01*
X330988Y1303206D01*
X331193Y1303222D01*
X331398Y1303199D01*
X331674Y1303259D01*
X331954Y1303280D01*
X332143Y1303361D01*
X332344Y1303404D01*
X332586Y1303548D01*
X332846Y1303659D01*
X333067Y1303835D01*
X333176Y1303900D01*
X333237Y1303971D01*
X333365Y1304073D01*
X350883Y1321592D01*
X378408Y1337483D01*
X409108Y1345709D01*
X440892Y1345709D01*
X471592Y1337483D01*
X499117Y1321592D01*
X521592Y1299117D01*
X537483Y1271592D01*
X545082Y1243233D01*
X545274Y1242808D01*
X545471Y1242365D01*
X545477Y1242358D01*
X545480Y1242350D01*
X545802Y1242004D01*
X546126Y1241651D01*
X546134Y1241647D01*
X546140Y1241641D01*
X546555Y1241415D01*
X546975Y1241183D01*
X546983Y1241182D01*
X546991Y1241178D01*
X547460Y1241095D01*
X547928Y1241011D01*
X547936Y1241012D01*
X547945Y1241011D01*
X548418Y1241083D01*
X548886Y1241151D01*
X548894Y1241155D01*
X548903Y1241156D01*
X549327Y1241375D01*
X549750Y1241589D01*
X549756Y1241595D01*
X549764Y1241599D01*
X550098Y1241943D01*
X550429Y1242280D01*
X550434Y1242289D01*
X550439Y1242294D01*
X550454Y1242324D01*
X550750Y1242862D01*
X561050Y1267730D01*
X582270Y1288950D01*
X609995Y1300434D01*
X640005Y1300434D01*
X667730Y1288950D01*
X688950Y1267730D01*
X700434Y1240005D01*
X700434Y1209995D01*
X688950Y1182270D01*
X667730Y1161050D01*
X640005Y1149566D01*
X609995Y1149566D01*
X582270Y1161050D01*
X561050Y1182270D01*
X550750Y1207138D01*
X550500Y1207542D01*
X550250Y1207949D01*
X550244Y1207954D01*
X550239Y1207961D01*
X549873Y1208265D01*
X549508Y1208570D01*
X549500Y1208574D01*
X549493Y1208579D01*
X549054Y1208748D01*
X548606Y1208923D01*
X548597Y1208924D01*
X548589Y1208927D01*
X548118Y1208947D01*
X547638Y1208970D01*
X547630Y1208968D01*
X547621Y1208968D01*
X547164Y1208836D01*
X546706Y1208706D01*
X546699Y1208701D01*
X546691Y1208699D01*
X546299Y1208427D01*
X545907Y1208159D01*
X545902Y1208152D01*
X545894Y1208147D01*
X545616Y1207773D01*
X545324Y1207385D01*
X545320Y1207375D01*
X545316Y1207370D01*
X545306Y1207341D01*
X545082Y1206766D01*
X537483Y1178408D01*
X521592Y1150883D01*
X499117Y1128408D01*
X471592Y1112517D01*
X440892Y1104291D01*
X409108Y1104291D01*
G37*
%LPD*%
%LPC*%
G36*
X1159108Y1854291D02*
X1159108Y1854291D01*
X1128408Y1862517D01*
X1100883Y1878408D01*
X1078408Y1900883D01*
X1062517Y1928408D01*
X1054918Y1956766D01*
X1054726Y1957192D01*
X1054529Y1957635D01*
X1054523Y1957642D01*
X1054520Y1957649D01*
X1054197Y1957996D01*
X1053874Y1958349D01*
X1053866Y1958353D01*
X1053860Y1958359D01*
X1053445Y1958585D01*
X1053025Y1958816D01*
X1053017Y1958818D01*
X1053009Y1958822D01*
X1052540Y1958904D01*
X1052072Y1958989D01*
X1052064Y1958988D01*
X1052055Y1958989D01*
X1051582Y1958917D01*
X1051114Y1958849D01*
X1051106Y1958845D01*
X1051097Y1958844D01*
X1050673Y1958625D01*
X1050250Y1958410D01*
X1050244Y1958404D01*
X1050236Y1958400D01*
X1049902Y1958057D01*
X1049571Y1957720D01*
X1049566Y1957711D01*
X1049561Y1957706D01*
X1049546Y1957675D01*
X1049250Y1957138D01*
X1038950Y1932270D01*
X1017730Y1911050D01*
X990005Y1899566D01*
X959995Y1899566D01*
X932270Y1911050D01*
X911050Y1932270D01*
X899566Y1959995D01*
X899566Y1990005D01*
X911050Y2017730D01*
X932270Y2038950D01*
X959995Y2050434D01*
X968756Y2050434D01*
X968832Y2050446D01*
X968910Y2050438D01*
X969309Y2050524D01*
X969712Y2050590D01*
X969780Y2050626D01*
X969856Y2050643D01*
X970208Y2050852D01*
X970568Y2051043D01*
X970622Y2051099D01*
X970688Y2051139D01*
X970954Y2051449D01*
X971235Y2051745D01*
X971268Y2051816D01*
X971319Y2051875D01*
X971472Y2052253D01*
X971644Y2052624D01*
X971653Y2052701D01*
X971682Y2052773D01*
X971755Y2053433D01*
X971755Y2124730D01*
X975270Y2128245D01*
X1030031Y2128245D01*
X1030385Y2128303D01*
X1030741Y2128330D01*
X1030859Y2128380D01*
X1030987Y2128401D01*
X1031303Y2128569D01*
X1031633Y2128708D01*
X1031761Y2128811D01*
X1031843Y2128854D01*
X1031931Y2128947D01*
X1032152Y2129123D01*
X1112121Y2209092D01*
X1112330Y2209383D01*
X1112563Y2209655D01*
X1112611Y2209775D01*
X1112686Y2209879D01*
X1112791Y2210221D01*
X1112926Y2210553D01*
X1112944Y2210715D01*
X1112971Y2210805D01*
X1112968Y2210933D01*
X1112999Y2211213D01*
X1112999Y2225449D01*
X1112987Y2225525D01*
X1112995Y2225602D01*
X1112909Y2226002D01*
X1112843Y2226405D01*
X1112807Y2226473D01*
X1112790Y2226549D01*
X1112581Y2226900D01*
X1112390Y2227261D01*
X1112334Y2227314D01*
X1112294Y2227381D01*
X1111984Y2227647D01*
X1111688Y2227928D01*
X1111617Y2227961D01*
X1111558Y2228012D01*
X1111180Y2228164D01*
X1110809Y2228337D01*
X1110732Y2228345D01*
X1110660Y2228375D01*
X1110000Y2228448D01*
X1107751Y2228448D01*
X1104235Y2231963D01*
X1104235Y2276304D01*
X1107751Y2279820D01*
X1142249Y2279820D01*
X1145764Y2276304D01*
X1145764Y2231963D01*
X1142249Y2228448D01*
X1140000Y2228448D01*
X1139923Y2228436D01*
X1139846Y2228444D01*
X1139446Y2228358D01*
X1139044Y2228292D01*
X1138975Y2228255D01*
X1138899Y2228239D01*
X1138548Y2228029D01*
X1138188Y2227839D01*
X1138134Y2227782D01*
X1138068Y2227743D01*
X1137802Y2227433D01*
X1137520Y2227136D01*
X1137487Y2227066D01*
X1137437Y2227007D01*
X1137284Y2226628D01*
X1137112Y2226258D01*
X1137103Y2226181D01*
X1137074Y2226109D01*
X1137001Y2225449D01*
X1137001Y2200029D01*
X1070336Y2133365D01*
X1070172Y2133136D01*
X1069977Y2132931D01*
X1069891Y2132745D01*
X1069771Y2132578D01*
X1069688Y2132309D01*
X1069569Y2132053D01*
X1069546Y2131849D01*
X1069486Y2131652D01*
X1069493Y2131370D01*
X1069462Y2131090D01*
X1069505Y2130889D01*
X1069511Y2130684D01*
X1069607Y2130419D01*
X1069667Y2130144D01*
X1069772Y2129967D01*
X1069843Y2129774D01*
X1070019Y2129554D01*
X1070163Y2129312D01*
X1070319Y2129178D01*
X1070448Y2129017D01*
X1070685Y2128865D01*
X1070899Y2128681D01*
X1071090Y2128604D01*
X1071262Y2128493D01*
X1071536Y2128424D01*
X1071797Y2128318D01*
X1072077Y2128287D01*
X1072202Y2128256D01*
X1072295Y2128263D01*
X1072457Y2128245D01*
X1074730Y2128245D01*
X1078245Y2124730D01*
X1078245Y2056194D01*
X1078290Y2055916D01*
X1078297Y2055634D01*
X1078368Y2055441D01*
X1078401Y2055238D01*
X1078533Y2054989D01*
X1078630Y2054724D01*
X1078758Y2054563D01*
X1078854Y2054382D01*
X1079058Y2054188D01*
X1079235Y2053968D01*
X1079407Y2053856D01*
X1079556Y2053715D01*
X1079812Y2053596D01*
X1080049Y2053443D01*
X1080248Y2053393D01*
X1080435Y2053306D01*
X1080715Y2053275D01*
X1080988Y2053206D01*
X1081193Y2053222D01*
X1081398Y2053199D01*
X1081674Y2053259D01*
X1081954Y2053280D01*
X1082143Y2053361D01*
X1082344Y2053404D01*
X1082586Y2053548D01*
X1082846Y2053659D01*
X1083067Y2053835D01*
X1083176Y2053900D01*
X1083237Y2053971D01*
X1083365Y2054073D01*
X1100883Y2071592D01*
X1128408Y2087483D01*
X1159108Y2095709D01*
X1190892Y2095709D01*
X1221592Y2087483D01*
X1249117Y2071592D01*
X1271592Y2049117D01*
X1287483Y2021592D01*
X1295082Y1993234D01*
X1295274Y1992808D01*
X1295471Y1992365D01*
X1295477Y1992358D01*
X1295480Y1992351D01*
X1295802Y1992004D01*
X1296126Y1991651D01*
X1296134Y1991647D01*
X1296140Y1991641D01*
X1296555Y1991415D01*
X1296975Y1991184D01*
X1296983Y1991182D01*
X1296991Y1991178D01*
X1297460Y1991096D01*
X1297928Y1991011D01*
X1297936Y1991012D01*
X1297945Y1991011D01*
X1298418Y1991083D01*
X1298886Y1991151D01*
X1298894Y1991155D01*
X1298903Y1991156D01*
X1299327Y1991375D01*
X1299750Y1991589D01*
X1299756Y1991596D01*
X1299764Y1991600D01*
X1300098Y1991943D01*
X1300429Y1992280D01*
X1300434Y1992289D01*
X1300439Y1992294D01*
X1300454Y1992324D01*
X1300750Y1992862D01*
X1311050Y2017730D01*
X1332270Y2038950D01*
X1359995Y2050434D01*
X1390005Y2050434D01*
X1417730Y2038950D01*
X1438950Y2017730D01*
X1450434Y1990005D01*
X1450434Y1959995D01*
X1438950Y1932270D01*
X1417730Y1911050D01*
X1390005Y1899566D01*
X1359995Y1899566D01*
X1332270Y1911050D01*
X1311050Y1932270D01*
X1300750Y1957138D01*
X1300500Y1957542D01*
X1300250Y1957948D01*
X1300244Y1957954D01*
X1300239Y1957961D01*
X1299873Y1958265D01*
X1299508Y1958570D01*
X1299500Y1958574D01*
X1299493Y1958579D01*
X1299057Y1958747D01*
X1298606Y1958923D01*
X1298597Y1958924D01*
X1298589Y1958927D01*
X1298118Y1958947D01*
X1297638Y1958970D01*
X1297630Y1958968D01*
X1297621Y1958968D01*
X1297164Y1958836D01*
X1296706Y1958706D01*
X1296699Y1958701D01*
X1296691Y1958699D01*
X1296299Y1958427D01*
X1295907Y1958159D01*
X1295902Y1958152D01*
X1295894Y1958147D01*
X1295611Y1957766D01*
X1295324Y1957385D01*
X1295320Y1957375D01*
X1295316Y1957370D01*
X1295305Y1957338D01*
X1295082Y1956766D01*
X1287483Y1928408D01*
X1271592Y1900883D01*
X1249117Y1878408D01*
X1221592Y1862517D01*
X1190892Y1854291D01*
X1159108Y1854291D01*
G37*
%LPD*%
%LPC*%
G36*
X1909108Y1854291D02*
X1909108Y1854291D01*
X1878408Y1862517D01*
X1850883Y1878408D01*
X1828408Y1900883D01*
X1812517Y1928408D01*
X1804918Y1956766D01*
X1804726Y1957192D01*
X1804529Y1957635D01*
X1804523Y1957642D01*
X1804520Y1957649D01*
X1804197Y1957996D01*
X1803874Y1958349D01*
X1803866Y1958353D01*
X1803860Y1958359D01*
X1803445Y1958585D01*
X1803025Y1958816D01*
X1803017Y1958818D01*
X1803009Y1958822D01*
X1802540Y1958904D01*
X1802072Y1958989D01*
X1802064Y1958988D01*
X1802055Y1958989D01*
X1801582Y1958917D01*
X1801114Y1958849D01*
X1801106Y1958845D01*
X1801097Y1958844D01*
X1800673Y1958625D01*
X1800250Y1958410D01*
X1800244Y1958404D01*
X1800236Y1958400D01*
X1799902Y1958057D01*
X1799571Y1957720D01*
X1799566Y1957711D01*
X1799561Y1957706D01*
X1799546Y1957675D01*
X1799250Y1957138D01*
X1788950Y1932270D01*
X1767730Y1911050D01*
X1740005Y1899566D01*
X1709995Y1899566D01*
X1682270Y1911050D01*
X1661050Y1932270D01*
X1649566Y1959995D01*
X1649566Y1990005D01*
X1661050Y2017730D01*
X1682270Y2038950D01*
X1709995Y2050434D01*
X1718756Y2050434D01*
X1718832Y2050446D01*
X1718910Y2050438D01*
X1719309Y2050524D01*
X1719712Y2050590D01*
X1719780Y2050626D01*
X1719856Y2050643D01*
X1720208Y2050852D01*
X1720568Y2051043D01*
X1720622Y2051099D01*
X1720688Y2051139D01*
X1720954Y2051449D01*
X1721235Y2051745D01*
X1721268Y2051816D01*
X1721319Y2051875D01*
X1721472Y2052253D01*
X1721644Y2052624D01*
X1721653Y2052701D01*
X1721682Y2052773D01*
X1721755Y2053433D01*
X1721755Y2124730D01*
X1725270Y2128245D01*
X1777031Y2128245D01*
X1777385Y2128303D01*
X1777741Y2128330D01*
X1777860Y2128380D01*
X1777987Y2128401D01*
X1778303Y2128569D01*
X1778633Y2128708D01*
X1778761Y2128811D01*
X1778843Y2128854D01*
X1778931Y2128947D01*
X1779152Y2129123D01*
X1859121Y2209092D01*
X1859330Y2209383D01*
X1859563Y2209655D01*
X1859611Y2209775D01*
X1859686Y2209879D01*
X1859791Y2210221D01*
X1859926Y2210553D01*
X1859944Y2210715D01*
X1859971Y2210805D01*
X1859968Y2210933D01*
X1859999Y2211213D01*
X1859999Y2225449D01*
X1859987Y2225525D01*
X1859995Y2225602D01*
X1859909Y2226002D01*
X1859843Y2226405D01*
X1859807Y2226473D01*
X1859790Y2226549D01*
X1859581Y2226900D01*
X1859390Y2227261D01*
X1859334Y2227314D01*
X1859294Y2227381D01*
X1858984Y2227647D01*
X1858688Y2227928D01*
X1858617Y2227961D01*
X1858558Y2228012D01*
X1858180Y2228164D01*
X1857908Y2228291D01*
X1854235Y2231963D01*
X1854235Y2276304D01*
X1857751Y2279820D01*
X1892249Y2279820D01*
X1895764Y2276304D01*
X1895764Y2231963D01*
X1892249Y2228448D01*
X1887000Y2228448D01*
X1886923Y2228436D01*
X1886846Y2228444D01*
X1886446Y2228358D01*
X1886044Y2228292D01*
X1885975Y2228255D01*
X1885899Y2228239D01*
X1885548Y2228029D01*
X1885188Y2227839D01*
X1885134Y2227782D01*
X1885068Y2227743D01*
X1884802Y2227433D01*
X1884520Y2227136D01*
X1884487Y2227066D01*
X1884437Y2227007D01*
X1884284Y2226628D01*
X1884112Y2226258D01*
X1884103Y2226181D01*
X1884074Y2226109D01*
X1884001Y2225449D01*
X1884001Y2200029D01*
X1817336Y2133365D01*
X1817172Y2133136D01*
X1816977Y2132931D01*
X1816891Y2132745D01*
X1816771Y2132578D01*
X1816688Y2132309D01*
X1816569Y2132053D01*
X1816546Y2131849D01*
X1816486Y2131652D01*
X1816493Y2131370D01*
X1816462Y2131090D01*
X1816505Y2130889D01*
X1816511Y2130684D01*
X1816607Y2130419D01*
X1816667Y2130144D01*
X1816772Y2129967D01*
X1816843Y2129774D01*
X1817019Y2129554D01*
X1817163Y2129312D01*
X1817319Y2129178D01*
X1817448Y2129017D01*
X1817685Y2128865D01*
X1817899Y2128681D01*
X1818090Y2128604D01*
X1818262Y2128493D01*
X1818536Y2128424D01*
X1818797Y2128318D01*
X1819077Y2128287D01*
X1819202Y2128256D01*
X1819295Y2128263D01*
X1819457Y2128245D01*
X1824730Y2128245D01*
X1828245Y2124730D01*
X1828245Y2056194D01*
X1828290Y2055916D01*
X1828297Y2055634D01*
X1828368Y2055441D01*
X1828401Y2055238D01*
X1828533Y2054989D01*
X1828630Y2054724D01*
X1828758Y2054563D01*
X1828854Y2054382D01*
X1829058Y2054188D01*
X1829235Y2053968D01*
X1829407Y2053856D01*
X1829556Y2053715D01*
X1829812Y2053596D01*
X1830049Y2053443D01*
X1830248Y2053393D01*
X1830435Y2053306D01*
X1830715Y2053275D01*
X1830988Y2053206D01*
X1831193Y2053222D01*
X1831398Y2053199D01*
X1831674Y2053259D01*
X1831954Y2053280D01*
X1832143Y2053361D01*
X1832344Y2053404D01*
X1832586Y2053548D01*
X1832846Y2053659D01*
X1833067Y2053835D01*
X1833176Y2053900D01*
X1833237Y2053971D01*
X1833365Y2054073D01*
X1850883Y2071592D01*
X1878408Y2087483D01*
X1909108Y2095709D01*
X1940892Y2095709D01*
X1971592Y2087483D01*
X1999117Y2071592D01*
X2021592Y2049117D01*
X2037483Y2021592D01*
X2045082Y1993234D01*
X2045274Y1992808D01*
X2045471Y1992365D01*
X2045477Y1992358D01*
X2045480Y1992351D01*
X2045802Y1992004D01*
X2046126Y1991651D01*
X2046134Y1991647D01*
X2046140Y1991641D01*
X2046555Y1991415D01*
X2046975Y1991184D01*
X2046983Y1991182D01*
X2046991Y1991178D01*
X2047460Y1991096D01*
X2047928Y1991011D01*
X2047936Y1991012D01*
X2047945Y1991011D01*
X2048418Y1991083D01*
X2048886Y1991151D01*
X2048894Y1991155D01*
X2048903Y1991156D01*
X2049327Y1991375D01*
X2049750Y1991589D01*
X2049756Y1991596D01*
X2049764Y1991600D01*
X2050098Y1991943D01*
X2050429Y1992280D01*
X2050434Y1992289D01*
X2050439Y1992294D01*
X2050454Y1992324D01*
X2050750Y1992862D01*
X2061050Y2017730D01*
X2082270Y2038950D01*
X2109995Y2050434D01*
X2140005Y2050434D01*
X2167730Y2038950D01*
X2188950Y2017730D01*
X2200434Y1990005D01*
X2200434Y1959995D01*
X2188950Y1932270D01*
X2167730Y1911050D01*
X2140005Y1899566D01*
X2109995Y1899566D01*
X2082270Y1911050D01*
X2061050Y1932270D01*
X2050750Y1957138D01*
X2050500Y1957542D01*
X2050250Y1957948D01*
X2050244Y1957954D01*
X2050239Y1957961D01*
X2049873Y1958265D01*
X2049508Y1958570D01*
X2049500Y1958574D01*
X2049493Y1958579D01*
X2049057Y1958747D01*
X2048606Y1958923D01*
X2048597Y1958924D01*
X2048589Y1958927D01*
X2048118Y1958947D01*
X2047638Y1958970D01*
X2047630Y1958968D01*
X2047621Y1958968D01*
X2047164Y1958836D01*
X2046706Y1958706D01*
X2046699Y1958701D01*
X2046691Y1958699D01*
X2046299Y1958427D01*
X2045907Y1958159D01*
X2045902Y1958152D01*
X2045894Y1958147D01*
X2045611Y1957766D01*
X2045324Y1957385D01*
X2045320Y1957375D01*
X2045316Y1957370D01*
X2045305Y1957338D01*
X2045082Y1956766D01*
X2037483Y1928408D01*
X2021592Y1900883D01*
X1999117Y1878408D01*
X1971592Y1862517D01*
X1940892Y1854291D01*
X1909108Y1854291D01*
G37*
%LPD*%
%LPC*%
G36*
X409108Y1854291D02*
X409108Y1854291D01*
X378408Y1862517D01*
X350883Y1878408D01*
X328408Y1900883D01*
X312517Y1928408D01*
X304922Y1956750D01*
X304918Y1956766D01*
X304726Y1957192D01*
X304529Y1957635D01*
X304523Y1957641D01*
X304520Y1957649D01*
X304197Y1957996D01*
X303874Y1958349D01*
X303866Y1958353D01*
X303860Y1958359D01*
X303445Y1958585D01*
X303025Y1958816D01*
X303017Y1958818D01*
X303009Y1958822D01*
X302540Y1958904D01*
X302072Y1958989D01*
X302064Y1958988D01*
X302055Y1958989D01*
X301582Y1958917D01*
X301114Y1958849D01*
X301106Y1958845D01*
X301097Y1958844D01*
X300673Y1958625D01*
X300250Y1958410D01*
X300244Y1958404D01*
X300236Y1958400D01*
X299902Y1958057D01*
X299571Y1957719D01*
X299566Y1957711D01*
X299561Y1957706D01*
X299546Y1957675D01*
X299250Y1957138D01*
X288950Y1932270D01*
X267730Y1911050D01*
X240005Y1899566D01*
X209995Y1899566D01*
X182270Y1911050D01*
X161050Y1932270D01*
X149566Y1959995D01*
X149566Y1990005D01*
X161050Y2017730D01*
X182270Y2038950D01*
X209995Y2050434D01*
X218756Y2050434D01*
X218832Y2050446D01*
X218910Y2050438D01*
X219309Y2050524D01*
X219712Y2050590D01*
X219780Y2050626D01*
X219856Y2050643D01*
X220208Y2050852D01*
X220568Y2051043D01*
X220622Y2051099D01*
X220688Y2051139D01*
X220954Y2051449D01*
X221235Y2051745D01*
X221268Y2051816D01*
X221319Y2051875D01*
X221472Y2052253D01*
X221644Y2052624D01*
X221653Y2052701D01*
X221682Y2052773D01*
X221755Y2053433D01*
X221755Y2124730D01*
X225270Y2128245D01*
X283031Y2128245D01*
X283385Y2128303D01*
X283741Y2128330D01*
X283859Y2128380D01*
X283987Y2128401D01*
X284303Y2128569D01*
X284633Y2128708D01*
X284761Y2128811D01*
X284843Y2128854D01*
X284931Y2128947D01*
X285152Y2129123D01*
X365121Y2209092D01*
X365330Y2209383D01*
X365563Y2209655D01*
X365611Y2209775D01*
X365686Y2209879D01*
X365791Y2210221D01*
X365926Y2210553D01*
X365944Y2210715D01*
X365971Y2210805D01*
X365968Y2210933D01*
X365999Y2211213D01*
X365999Y2225449D01*
X365987Y2225525D01*
X365995Y2225602D01*
X365909Y2226002D01*
X365843Y2226405D01*
X365807Y2226473D01*
X365790Y2226549D01*
X365581Y2226900D01*
X365390Y2227261D01*
X365334Y2227314D01*
X365294Y2227381D01*
X364984Y2227647D01*
X364688Y2227928D01*
X364617Y2227961D01*
X364558Y2228012D01*
X364180Y2228164D01*
X363809Y2228337D01*
X363732Y2228345D01*
X363660Y2228375D01*
X363000Y2228448D01*
X357751Y2228448D01*
X354235Y2231963D01*
X354235Y2276304D01*
X357751Y2279820D01*
X392249Y2279820D01*
X395764Y2276304D01*
X395764Y2231963D01*
X392102Y2228301D01*
X392044Y2228292D01*
X391975Y2228255D01*
X391899Y2228239D01*
X391548Y2228029D01*
X391188Y2227839D01*
X391134Y2227782D01*
X391068Y2227743D01*
X390802Y2227433D01*
X390520Y2227136D01*
X390487Y2227066D01*
X390437Y2227007D01*
X390284Y2226628D01*
X390112Y2226258D01*
X390103Y2226181D01*
X390074Y2226109D01*
X390001Y2225449D01*
X390001Y2200029D01*
X323336Y2133365D01*
X323172Y2133136D01*
X322977Y2132931D01*
X322891Y2132745D01*
X322771Y2132578D01*
X322688Y2132309D01*
X322569Y2132053D01*
X322546Y2131849D01*
X322486Y2131652D01*
X322493Y2131370D01*
X322462Y2131090D01*
X322505Y2130889D01*
X322511Y2130684D01*
X322607Y2130419D01*
X322667Y2130144D01*
X322772Y2129967D01*
X322843Y2129774D01*
X323019Y2129554D01*
X323163Y2129312D01*
X323319Y2129178D01*
X323448Y2129017D01*
X323685Y2128865D01*
X323899Y2128681D01*
X324090Y2128604D01*
X324262Y2128493D01*
X324536Y2128424D01*
X324560Y2128414D01*
X328245Y2124730D01*
X328245Y2056194D01*
X328290Y2055916D01*
X328297Y2055634D01*
X328368Y2055441D01*
X328401Y2055238D01*
X328533Y2054989D01*
X328630Y2054724D01*
X328758Y2054563D01*
X328854Y2054382D01*
X329058Y2054188D01*
X329235Y2053968D01*
X329407Y2053856D01*
X329556Y2053715D01*
X329812Y2053596D01*
X330049Y2053443D01*
X330248Y2053393D01*
X330435Y2053306D01*
X330715Y2053275D01*
X330988Y2053206D01*
X331193Y2053222D01*
X331398Y2053199D01*
X331674Y2053259D01*
X331954Y2053280D01*
X332143Y2053361D01*
X332344Y2053404D01*
X332586Y2053548D01*
X332846Y2053659D01*
X333067Y2053835D01*
X333176Y2053900D01*
X333237Y2053971D01*
X333365Y2054073D01*
X350883Y2071592D01*
X378408Y2087483D01*
X409108Y2095709D01*
X440892Y2095709D01*
X471592Y2087483D01*
X499117Y2071592D01*
X521592Y2049117D01*
X537483Y2021592D01*
X545082Y1993234D01*
X545274Y1992808D01*
X545471Y1992365D01*
X545477Y1992358D01*
X545480Y1992351D01*
X545802Y1992004D01*
X546126Y1991651D01*
X546134Y1991647D01*
X546140Y1991641D01*
X546555Y1991415D01*
X546975Y1991184D01*
X546983Y1991182D01*
X546991Y1991178D01*
X547460Y1991096D01*
X547928Y1991011D01*
X547936Y1991012D01*
X547945Y1991011D01*
X548418Y1991083D01*
X548886Y1991151D01*
X548894Y1991155D01*
X548903Y1991156D01*
X549327Y1991375D01*
X549750Y1991589D01*
X549756Y1991596D01*
X549764Y1991600D01*
X550098Y1991943D01*
X550429Y1992280D01*
X550434Y1992289D01*
X550439Y1992294D01*
X550454Y1992324D01*
X550750Y1992862D01*
X561050Y2017730D01*
X582270Y2038950D01*
X609995Y2050434D01*
X640005Y2050434D01*
X667730Y2038950D01*
X688950Y2017730D01*
X700434Y1990005D01*
X700434Y1959995D01*
X688950Y1932270D01*
X667730Y1911050D01*
X640005Y1899566D01*
X609995Y1899566D01*
X582270Y1911050D01*
X561050Y1932270D01*
X550750Y1957138D01*
X550500Y1957542D01*
X550250Y1957948D01*
X550244Y1957954D01*
X550239Y1957961D01*
X549873Y1958265D01*
X549508Y1958570D01*
X549500Y1958574D01*
X549493Y1958579D01*
X549057Y1958747D01*
X548606Y1958923D01*
X548597Y1958924D01*
X548589Y1958927D01*
X548118Y1958947D01*
X547638Y1958970D01*
X547630Y1958968D01*
X547621Y1958968D01*
X547164Y1958836D01*
X546706Y1958706D01*
X546699Y1958701D01*
X546691Y1958699D01*
X546299Y1958427D01*
X545907Y1958159D01*
X545902Y1958152D01*
X545894Y1958147D01*
X545611Y1957766D01*
X545324Y1957385D01*
X545320Y1957375D01*
X545316Y1957370D01*
X545305Y1957338D01*
X545082Y1956766D01*
X537483Y1928408D01*
X521592Y1900883D01*
X499117Y1878408D01*
X471592Y1862517D01*
X440892Y1854291D01*
X409108Y1854291D01*
G37*
%LPD*%
%LPC*%
G36*
X2659108Y1854291D02*
X2659108Y1854291D01*
X2628408Y1862517D01*
X2600883Y1878408D01*
X2578408Y1900883D01*
X2562517Y1928408D01*
X2554918Y1956766D01*
X2554726Y1957192D01*
X2554529Y1957635D01*
X2554523Y1957642D01*
X2554520Y1957649D01*
X2554197Y1957996D01*
X2553874Y1958349D01*
X2553866Y1958353D01*
X2553860Y1958359D01*
X2553445Y1958585D01*
X2553025Y1958816D01*
X2553017Y1958818D01*
X2553009Y1958822D01*
X2552540Y1958904D01*
X2552072Y1958989D01*
X2552064Y1958988D01*
X2552055Y1958989D01*
X2551582Y1958917D01*
X2551114Y1958849D01*
X2551106Y1958845D01*
X2551097Y1958844D01*
X2550673Y1958625D01*
X2550250Y1958410D01*
X2550244Y1958404D01*
X2550236Y1958400D01*
X2549902Y1958057D01*
X2549571Y1957720D01*
X2549566Y1957711D01*
X2549561Y1957706D01*
X2549546Y1957675D01*
X2549250Y1957138D01*
X2538950Y1932270D01*
X2517730Y1911050D01*
X2490005Y1899566D01*
X2459995Y1899566D01*
X2432270Y1911050D01*
X2411050Y1932270D01*
X2399566Y1959995D01*
X2399566Y1990005D01*
X2411050Y2017730D01*
X2432270Y2038950D01*
X2459995Y2050434D01*
X2468756Y2050434D01*
X2468832Y2050446D01*
X2468910Y2050438D01*
X2469309Y2050524D01*
X2469712Y2050590D01*
X2469780Y2050626D01*
X2469856Y2050643D01*
X2470208Y2050852D01*
X2470568Y2051043D01*
X2470622Y2051099D01*
X2470688Y2051139D01*
X2470954Y2051449D01*
X2471235Y2051745D01*
X2471268Y2051816D01*
X2471319Y2051875D01*
X2471472Y2052253D01*
X2471644Y2052624D01*
X2471653Y2052701D01*
X2471682Y2052773D01*
X2471755Y2053433D01*
X2471755Y2124730D01*
X2475270Y2128245D01*
X2533031Y2128245D01*
X2533385Y2128303D01*
X2533741Y2128330D01*
X2533859Y2128380D01*
X2533987Y2128401D01*
X2534303Y2128569D01*
X2534633Y2128708D01*
X2534761Y2128811D01*
X2534843Y2128854D01*
X2534931Y2128947D01*
X2535152Y2129123D01*
X2615121Y2209092D01*
X2615330Y2209383D01*
X2615563Y2209655D01*
X2615611Y2209775D01*
X2615686Y2209879D01*
X2615791Y2210221D01*
X2615926Y2210553D01*
X2615944Y2210715D01*
X2615971Y2210805D01*
X2615968Y2210933D01*
X2615999Y2211213D01*
X2615999Y2225449D01*
X2615987Y2225525D01*
X2615995Y2225602D01*
X2615909Y2226002D01*
X2615843Y2226405D01*
X2615807Y2226473D01*
X2615790Y2226549D01*
X2615581Y2226900D01*
X2615390Y2227261D01*
X2615334Y2227314D01*
X2615294Y2227381D01*
X2614984Y2227647D01*
X2614688Y2227928D01*
X2614617Y2227961D01*
X2614558Y2228012D01*
X2614180Y2228164D01*
X2613809Y2228337D01*
X2613732Y2228345D01*
X2613660Y2228375D01*
X2613000Y2228448D01*
X2607751Y2228448D01*
X2604235Y2231963D01*
X2604235Y2276304D01*
X2607751Y2279820D01*
X2642249Y2279820D01*
X2645764Y2276304D01*
X2645764Y2231963D01*
X2642102Y2228301D01*
X2642044Y2228292D01*
X2641975Y2228255D01*
X2641899Y2228239D01*
X2641548Y2228029D01*
X2641188Y2227839D01*
X2641134Y2227782D01*
X2641068Y2227743D01*
X2640802Y2227433D01*
X2640520Y2227136D01*
X2640487Y2227066D01*
X2640437Y2227007D01*
X2640284Y2226628D01*
X2640112Y2226258D01*
X2640103Y2226181D01*
X2640074Y2226109D01*
X2640001Y2225449D01*
X2640001Y2200029D01*
X2573336Y2133365D01*
X2573172Y2133136D01*
X2572977Y2132931D01*
X2572891Y2132745D01*
X2572771Y2132578D01*
X2572688Y2132309D01*
X2572569Y2132053D01*
X2572546Y2131849D01*
X2572486Y2131652D01*
X2572493Y2131370D01*
X2572462Y2131090D01*
X2572505Y2130889D01*
X2572511Y2130684D01*
X2572607Y2130419D01*
X2572667Y2130144D01*
X2572772Y2129967D01*
X2572843Y2129774D01*
X2573019Y2129554D01*
X2573163Y2129312D01*
X2573319Y2129178D01*
X2573448Y2129017D01*
X2573685Y2128865D01*
X2573899Y2128681D01*
X2574090Y2128604D01*
X2574262Y2128493D01*
X2574536Y2128424D01*
X2574560Y2128414D01*
X2578245Y2124730D01*
X2578245Y2056194D01*
X2578290Y2055916D01*
X2578297Y2055634D01*
X2578368Y2055441D01*
X2578401Y2055238D01*
X2578533Y2054989D01*
X2578630Y2054724D01*
X2578758Y2054563D01*
X2578854Y2054382D01*
X2579058Y2054188D01*
X2579235Y2053968D01*
X2579407Y2053856D01*
X2579556Y2053715D01*
X2579812Y2053596D01*
X2580049Y2053443D01*
X2580248Y2053393D01*
X2580435Y2053306D01*
X2580715Y2053275D01*
X2580988Y2053206D01*
X2581193Y2053222D01*
X2581398Y2053199D01*
X2581674Y2053259D01*
X2581954Y2053280D01*
X2582143Y2053361D01*
X2582344Y2053404D01*
X2582586Y2053548D01*
X2582846Y2053659D01*
X2583067Y2053835D01*
X2583176Y2053900D01*
X2583237Y2053971D01*
X2583365Y2054073D01*
X2600883Y2071592D01*
X2628408Y2087483D01*
X2659108Y2095709D01*
X2690892Y2095709D01*
X2721592Y2087483D01*
X2749117Y2071592D01*
X2771592Y2049117D01*
X2787483Y2021592D01*
X2795082Y1993234D01*
X2795274Y1992808D01*
X2795471Y1992365D01*
X2795477Y1992358D01*
X2795480Y1992351D01*
X2795802Y1992004D01*
X2796126Y1991651D01*
X2796134Y1991647D01*
X2796140Y1991641D01*
X2796555Y1991415D01*
X2796975Y1991184D01*
X2796983Y1991182D01*
X2796991Y1991178D01*
X2797460Y1991096D01*
X2797928Y1991011D01*
X2797936Y1991012D01*
X2797945Y1991011D01*
X2798418Y1991083D01*
X2798886Y1991151D01*
X2798894Y1991155D01*
X2798903Y1991156D01*
X2799327Y1991375D01*
X2799750Y1991589D01*
X2799756Y1991596D01*
X2799764Y1991600D01*
X2800098Y1991943D01*
X2800429Y1992280D01*
X2800434Y1992289D01*
X2800439Y1992294D01*
X2800454Y1992324D01*
X2800750Y1992862D01*
X2811050Y2017730D01*
X2832270Y2038950D01*
X2859995Y2050434D01*
X2890005Y2050434D01*
X2917730Y2038950D01*
X2938950Y2017730D01*
X2950434Y1990005D01*
X2950434Y1959995D01*
X2938950Y1932270D01*
X2917730Y1911050D01*
X2890005Y1899566D01*
X2859995Y1899566D01*
X2832270Y1911050D01*
X2811050Y1932270D01*
X2800750Y1957138D01*
X2800500Y1957542D01*
X2800250Y1957948D01*
X2800244Y1957954D01*
X2800239Y1957961D01*
X2799873Y1958265D01*
X2799508Y1958570D01*
X2799500Y1958574D01*
X2799493Y1958579D01*
X2799057Y1958747D01*
X2798606Y1958923D01*
X2798597Y1958924D01*
X2798589Y1958927D01*
X2798118Y1958947D01*
X2797638Y1958970D01*
X2797630Y1958968D01*
X2797621Y1958968D01*
X2797164Y1958836D01*
X2796706Y1958706D01*
X2796699Y1958701D01*
X2796691Y1958699D01*
X2796299Y1958427D01*
X2795907Y1958159D01*
X2795902Y1958152D01*
X2795894Y1958147D01*
X2795611Y1957766D01*
X2795324Y1957385D01*
X2795320Y1957375D01*
X2795316Y1957370D01*
X2795305Y1957338D01*
X2795082Y1956766D01*
X2787483Y1928408D01*
X2771592Y1900883D01*
X2749117Y1878408D01*
X2721592Y1862517D01*
X2690892Y1854291D01*
X2659108Y1854291D01*
G37*
%LPD*%
%LPC*%
G36*
X1159108Y2604291D02*
X1159108Y2604291D01*
X1128408Y2612517D01*
X1100883Y2628408D01*
X1078408Y2650883D01*
X1062517Y2678408D01*
X1054918Y2706766D01*
X1054726Y2707192D01*
X1054529Y2707635D01*
X1054523Y2707642D01*
X1054520Y2707649D01*
X1054197Y2707996D01*
X1053874Y2708349D01*
X1053866Y2708353D01*
X1053860Y2708359D01*
X1053445Y2708585D01*
X1053025Y2708816D01*
X1053017Y2708818D01*
X1053009Y2708822D01*
X1052540Y2708904D01*
X1052072Y2708989D01*
X1052064Y2708988D01*
X1052055Y2708989D01*
X1051582Y2708917D01*
X1051114Y2708849D01*
X1051106Y2708845D01*
X1051097Y2708844D01*
X1050673Y2708625D01*
X1050250Y2708410D01*
X1050244Y2708404D01*
X1050236Y2708400D01*
X1049902Y2708057D01*
X1049571Y2707720D01*
X1049566Y2707711D01*
X1049561Y2707706D01*
X1049546Y2707675D01*
X1049250Y2707138D01*
X1038950Y2682270D01*
X1017730Y2661050D01*
X990005Y2649566D01*
X959995Y2649566D01*
X932270Y2661050D01*
X911050Y2682270D01*
X899566Y2709995D01*
X899566Y2740005D01*
X911050Y2767730D01*
X932270Y2788950D01*
X959995Y2800434D01*
X968756Y2800434D01*
X968832Y2800446D01*
X968910Y2800438D01*
X969309Y2800524D01*
X969712Y2800590D01*
X969780Y2800626D01*
X969856Y2800643D01*
X970208Y2800852D01*
X970568Y2801043D01*
X970622Y2801099D01*
X970688Y2801139D01*
X970954Y2801449D01*
X971235Y2801745D01*
X971268Y2801816D01*
X971319Y2801875D01*
X971472Y2802253D01*
X971644Y2802624D01*
X971653Y2802701D01*
X971682Y2802773D01*
X971755Y2803433D01*
X971755Y2874730D01*
X975270Y2878245D01*
X1033031Y2878245D01*
X1033385Y2878303D01*
X1033741Y2878330D01*
X1033859Y2878380D01*
X1033987Y2878401D01*
X1034303Y2878569D01*
X1034633Y2878708D01*
X1034761Y2878811D01*
X1034843Y2878854D01*
X1034931Y2878947D01*
X1035152Y2879123D01*
X1112121Y2956092D01*
X1112330Y2956383D01*
X1112563Y2956655D01*
X1112611Y2956775D01*
X1112686Y2956879D01*
X1112791Y2957221D01*
X1112926Y2957553D01*
X1112944Y2957715D01*
X1112971Y2957805D01*
X1112968Y2957933D01*
X1112999Y2958213D01*
X1112999Y2975449D01*
X1112987Y2975525D01*
X1112995Y2975602D01*
X1112909Y2976002D01*
X1112843Y2976405D01*
X1112807Y2976473D01*
X1112790Y2976549D01*
X1112581Y2976900D01*
X1112390Y2977261D01*
X1112334Y2977314D01*
X1112294Y2977381D01*
X1111984Y2977647D01*
X1111688Y2977928D01*
X1111617Y2977961D01*
X1111558Y2978012D01*
X1111180Y2978164D01*
X1110809Y2978337D01*
X1110732Y2978345D01*
X1110660Y2978375D01*
X1110000Y2978448D01*
X1107751Y2978448D01*
X1104235Y2981963D01*
X1104235Y3026304D01*
X1107751Y3029820D01*
X1142249Y3029820D01*
X1145764Y3026304D01*
X1145764Y2981963D01*
X1142249Y2978448D01*
X1140000Y2978448D01*
X1139923Y2978436D01*
X1139846Y2978444D01*
X1139446Y2978358D01*
X1139044Y2978292D01*
X1138975Y2978255D01*
X1138899Y2978239D01*
X1138548Y2978029D01*
X1138188Y2977839D01*
X1138134Y2977782D01*
X1138068Y2977743D01*
X1137802Y2977433D01*
X1137520Y2977136D01*
X1137487Y2977066D01*
X1137437Y2977007D01*
X1137284Y2976628D01*
X1137112Y2976258D01*
X1137103Y2976181D01*
X1137074Y2976109D01*
X1137001Y2975449D01*
X1137001Y2947029D01*
X1073336Y2883365D01*
X1073172Y2883136D01*
X1072977Y2882931D01*
X1072891Y2882745D01*
X1072771Y2882578D01*
X1072688Y2882309D01*
X1072569Y2882053D01*
X1072546Y2881849D01*
X1072486Y2881652D01*
X1072493Y2881370D01*
X1072462Y2881090D01*
X1072505Y2880889D01*
X1072511Y2880684D01*
X1072607Y2880419D01*
X1072667Y2880144D01*
X1072772Y2879967D01*
X1072843Y2879774D01*
X1073019Y2879554D01*
X1073163Y2879312D01*
X1073319Y2879178D01*
X1073448Y2879017D01*
X1073685Y2878865D01*
X1073899Y2878681D01*
X1074090Y2878604D01*
X1074262Y2878493D01*
X1074536Y2878424D01*
X1074560Y2878414D01*
X1078245Y2874730D01*
X1078245Y2806194D01*
X1078290Y2805916D01*
X1078297Y2805634D01*
X1078368Y2805441D01*
X1078401Y2805238D01*
X1078533Y2804989D01*
X1078630Y2804724D01*
X1078758Y2804563D01*
X1078854Y2804382D01*
X1079058Y2804188D01*
X1079235Y2803968D01*
X1079407Y2803856D01*
X1079556Y2803715D01*
X1079812Y2803596D01*
X1080049Y2803443D01*
X1080248Y2803393D01*
X1080435Y2803306D01*
X1080715Y2803275D01*
X1080988Y2803206D01*
X1081193Y2803222D01*
X1081398Y2803199D01*
X1081674Y2803259D01*
X1081954Y2803280D01*
X1082143Y2803361D01*
X1082344Y2803404D01*
X1082586Y2803548D01*
X1082846Y2803659D01*
X1083067Y2803835D01*
X1083176Y2803900D01*
X1083237Y2803971D01*
X1083365Y2804073D01*
X1100883Y2821592D01*
X1128408Y2837483D01*
X1159108Y2845709D01*
X1190892Y2845709D01*
X1221592Y2837483D01*
X1249117Y2821592D01*
X1271592Y2799117D01*
X1287483Y2771592D01*
X1295082Y2743234D01*
X1295274Y2742808D01*
X1295471Y2742365D01*
X1295477Y2742358D01*
X1295480Y2742351D01*
X1295802Y2742004D01*
X1296126Y2741651D01*
X1296134Y2741647D01*
X1296140Y2741641D01*
X1296555Y2741415D01*
X1296975Y2741184D01*
X1296983Y2741182D01*
X1296991Y2741178D01*
X1297460Y2741096D01*
X1297928Y2741011D01*
X1297936Y2741012D01*
X1297945Y2741011D01*
X1298418Y2741083D01*
X1298886Y2741151D01*
X1298894Y2741155D01*
X1298903Y2741156D01*
X1299327Y2741375D01*
X1299750Y2741589D01*
X1299756Y2741596D01*
X1299764Y2741600D01*
X1300098Y2741943D01*
X1300429Y2742280D01*
X1300434Y2742289D01*
X1300439Y2742294D01*
X1300454Y2742324D01*
X1300750Y2742862D01*
X1311050Y2767730D01*
X1332270Y2788950D01*
X1359995Y2800434D01*
X1390005Y2800434D01*
X1417730Y2788950D01*
X1438950Y2767730D01*
X1450434Y2740005D01*
X1450434Y2709995D01*
X1438950Y2682270D01*
X1417730Y2661050D01*
X1390005Y2649566D01*
X1359995Y2649566D01*
X1332270Y2661050D01*
X1311050Y2682270D01*
X1300750Y2707138D01*
X1300500Y2707542D01*
X1300250Y2707948D01*
X1300244Y2707954D01*
X1300239Y2707961D01*
X1299873Y2708265D01*
X1299508Y2708570D01*
X1299500Y2708574D01*
X1299493Y2708579D01*
X1299057Y2708747D01*
X1298606Y2708923D01*
X1298597Y2708924D01*
X1298589Y2708927D01*
X1298118Y2708947D01*
X1297638Y2708970D01*
X1297630Y2708968D01*
X1297621Y2708968D01*
X1297164Y2708836D01*
X1296706Y2708706D01*
X1296699Y2708701D01*
X1296691Y2708699D01*
X1296299Y2708427D01*
X1295907Y2708159D01*
X1295902Y2708152D01*
X1295894Y2708147D01*
X1295611Y2707766D01*
X1295324Y2707385D01*
X1295320Y2707375D01*
X1295316Y2707370D01*
X1295306Y2707339D01*
X1295082Y2706766D01*
X1287483Y2678408D01*
X1271592Y2650883D01*
X1249117Y2628408D01*
X1221592Y2612517D01*
X1190892Y2604291D01*
X1159108Y2604291D01*
G37*
%LPD*%
%LPC*%
G36*
X1909108Y2604291D02*
X1909108Y2604291D01*
X1878408Y2612517D01*
X1850883Y2628408D01*
X1828408Y2650883D01*
X1812517Y2678408D01*
X1804918Y2706766D01*
X1804726Y2707192D01*
X1804529Y2707635D01*
X1804523Y2707642D01*
X1804520Y2707649D01*
X1804197Y2707996D01*
X1803874Y2708349D01*
X1803866Y2708353D01*
X1803860Y2708359D01*
X1803445Y2708585D01*
X1803025Y2708816D01*
X1803017Y2708818D01*
X1803009Y2708822D01*
X1802540Y2708904D01*
X1802072Y2708989D01*
X1802064Y2708988D01*
X1802055Y2708989D01*
X1801582Y2708917D01*
X1801114Y2708849D01*
X1801106Y2708845D01*
X1801097Y2708844D01*
X1800673Y2708625D01*
X1800250Y2708410D01*
X1800244Y2708404D01*
X1800236Y2708400D01*
X1799902Y2708057D01*
X1799571Y2707720D01*
X1799566Y2707711D01*
X1799561Y2707706D01*
X1799546Y2707675D01*
X1799250Y2707138D01*
X1788950Y2682270D01*
X1767730Y2661050D01*
X1740005Y2649566D01*
X1709995Y2649566D01*
X1682270Y2661050D01*
X1661050Y2682270D01*
X1649566Y2709995D01*
X1649566Y2740005D01*
X1661050Y2767730D01*
X1682270Y2788950D01*
X1709995Y2800434D01*
X1718756Y2800434D01*
X1718832Y2800446D01*
X1718910Y2800438D01*
X1719309Y2800524D01*
X1719712Y2800590D01*
X1719780Y2800626D01*
X1719856Y2800643D01*
X1720208Y2800852D01*
X1720568Y2801043D01*
X1720622Y2801099D01*
X1720688Y2801139D01*
X1720954Y2801449D01*
X1721235Y2801745D01*
X1721268Y2801816D01*
X1721319Y2801875D01*
X1721472Y2802253D01*
X1721644Y2802624D01*
X1721653Y2802701D01*
X1721682Y2802773D01*
X1721755Y2803433D01*
X1721755Y2874730D01*
X1725270Y2878245D01*
X1780031Y2878245D01*
X1780385Y2878303D01*
X1780741Y2878330D01*
X1780859Y2878380D01*
X1780987Y2878401D01*
X1781303Y2878569D01*
X1781633Y2878708D01*
X1781761Y2878811D01*
X1781843Y2878854D01*
X1781931Y2878947D01*
X1782152Y2879123D01*
X1859121Y2956092D01*
X1859330Y2956383D01*
X1859563Y2956655D01*
X1859611Y2956775D01*
X1859686Y2956879D01*
X1859791Y2957221D01*
X1859926Y2957553D01*
X1859944Y2957715D01*
X1859971Y2957805D01*
X1859968Y2957933D01*
X1859999Y2958213D01*
X1859999Y2975449D01*
X1859987Y2975525D01*
X1859995Y2975602D01*
X1859909Y2976002D01*
X1859843Y2976405D01*
X1859807Y2976473D01*
X1859790Y2976549D01*
X1859581Y2976900D01*
X1859390Y2977261D01*
X1859334Y2977314D01*
X1859294Y2977381D01*
X1858984Y2977647D01*
X1858688Y2977928D01*
X1858617Y2977961D01*
X1858558Y2978012D01*
X1858180Y2978164D01*
X1857908Y2978291D01*
X1854235Y2981963D01*
X1854235Y3026304D01*
X1857751Y3029820D01*
X1892249Y3029820D01*
X1895764Y3026304D01*
X1895764Y2981963D01*
X1892249Y2978448D01*
X1887000Y2978448D01*
X1886923Y2978436D01*
X1886846Y2978444D01*
X1886446Y2978358D01*
X1886044Y2978292D01*
X1885975Y2978255D01*
X1885899Y2978239D01*
X1885548Y2978029D01*
X1885188Y2977839D01*
X1885134Y2977782D01*
X1885068Y2977743D01*
X1884802Y2977433D01*
X1884520Y2977136D01*
X1884487Y2977066D01*
X1884437Y2977007D01*
X1884284Y2976628D01*
X1884112Y2976258D01*
X1884103Y2976181D01*
X1884074Y2976109D01*
X1884001Y2975449D01*
X1884001Y2947029D01*
X1820336Y2883365D01*
X1820172Y2883136D01*
X1819977Y2882931D01*
X1819891Y2882745D01*
X1819771Y2882578D01*
X1819688Y2882309D01*
X1819569Y2882053D01*
X1819546Y2881849D01*
X1819486Y2881652D01*
X1819493Y2881370D01*
X1819462Y2881090D01*
X1819505Y2880889D01*
X1819511Y2880684D01*
X1819607Y2880419D01*
X1819667Y2880144D01*
X1819772Y2879967D01*
X1819843Y2879774D01*
X1820019Y2879554D01*
X1820163Y2879312D01*
X1820319Y2879178D01*
X1820448Y2879017D01*
X1820685Y2878865D01*
X1820899Y2878681D01*
X1821090Y2878604D01*
X1821262Y2878493D01*
X1821536Y2878424D01*
X1821797Y2878318D01*
X1822077Y2878287D01*
X1822202Y2878256D01*
X1822295Y2878263D01*
X1822457Y2878245D01*
X1824730Y2878245D01*
X1828245Y2874730D01*
X1828245Y2806194D01*
X1828290Y2805916D01*
X1828297Y2805634D01*
X1828368Y2805441D01*
X1828401Y2805238D01*
X1828533Y2804989D01*
X1828630Y2804724D01*
X1828758Y2804563D01*
X1828854Y2804382D01*
X1829058Y2804188D01*
X1829235Y2803968D01*
X1829407Y2803856D01*
X1829556Y2803715D01*
X1829812Y2803596D01*
X1830049Y2803443D01*
X1830248Y2803393D01*
X1830435Y2803306D01*
X1830715Y2803275D01*
X1830988Y2803206D01*
X1831193Y2803222D01*
X1831398Y2803199D01*
X1831674Y2803259D01*
X1831954Y2803280D01*
X1832143Y2803361D01*
X1832344Y2803404D01*
X1832586Y2803548D01*
X1832846Y2803659D01*
X1833067Y2803835D01*
X1833176Y2803900D01*
X1833237Y2803971D01*
X1833365Y2804073D01*
X1850883Y2821592D01*
X1878408Y2837483D01*
X1909108Y2845709D01*
X1940892Y2845709D01*
X1971592Y2837483D01*
X1999117Y2821592D01*
X2021592Y2799117D01*
X2037483Y2771592D01*
X2045082Y2743234D01*
X2045274Y2742808D01*
X2045471Y2742365D01*
X2045477Y2742358D01*
X2045480Y2742351D01*
X2045802Y2742004D01*
X2046126Y2741651D01*
X2046134Y2741647D01*
X2046140Y2741641D01*
X2046555Y2741415D01*
X2046975Y2741184D01*
X2046983Y2741182D01*
X2046991Y2741178D01*
X2047460Y2741096D01*
X2047928Y2741011D01*
X2047936Y2741012D01*
X2047945Y2741011D01*
X2048418Y2741083D01*
X2048886Y2741151D01*
X2048894Y2741155D01*
X2048903Y2741156D01*
X2049327Y2741375D01*
X2049750Y2741589D01*
X2049756Y2741596D01*
X2049764Y2741600D01*
X2050098Y2741943D01*
X2050429Y2742280D01*
X2050434Y2742289D01*
X2050439Y2742294D01*
X2050454Y2742324D01*
X2050750Y2742862D01*
X2061050Y2767730D01*
X2082270Y2788950D01*
X2109995Y2800434D01*
X2140005Y2800434D01*
X2167730Y2788950D01*
X2188950Y2767730D01*
X2200434Y2740005D01*
X2200434Y2709995D01*
X2188950Y2682270D01*
X2167730Y2661050D01*
X2140005Y2649566D01*
X2109995Y2649566D01*
X2082270Y2661050D01*
X2061050Y2682270D01*
X2050750Y2707138D01*
X2050500Y2707542D01*
X2050250Y2707948D01*
X2050244Y2707954D01*
X2050239Y2707961D01*
X2049873Y2708265D01*
X2049508Y2708570D01*
X2049500Y2708574D01*
X2049493Y2708579D01*
X2049057Y2708747D01*
X2048606Y2708923D01*
X2048597Y2708924D01*
X2048589Y2708927D01*
X2048118Y2708947D01*
X2047638Y2708970D01*
X2047630Y2708968D01*
X2047621Y2708968D01*
X2047164Y2708836D01*
X2046706Y2708706D01*
X2046699Y2708701D01*
X2046691Y2708699D01*
X2046299Y2708427D01*
X2045907Y2708159D01*
X2045902Y2708152D01*
X2045894Y2708147D01*
X2045611Y2707766D01*
X2045324Y2707385D01*
X2045320Y2707375D01*
X2045316Y2707370D01*
X2045306Y2707339D01*
X2045082Y2706766D01*
X2037483Y2678408D01*
X2021592Y2650883D01*
X1999117Y2628408D01*
X1971592Y2612517D01*
X1940892Y2604291D01*
X1909108Y2604291D01*
G37*
%LPD*%
%LPC*%
G36*
X1909108Y1104291D02*
X1909108Y1104291D01*
X1878408Y1112517D01*
X1850883Y1128408D01*
X1828408Y1150883D01*
X1812517Y1178408D01*
X1804922Y1206750D01*
X1804918Y1206766D01*
X1804726Y1207192D01*
X1804529Y1207635D01*
X1804523Y1207642D01*
X1804520Y1207649D01*
X1804197Y1207996D01*
X1803874Y1208349D01*
X1803866Y1208353D01*
X1803860Y1208359D01*
X1803445Y1208585D01*
X1803025Y1208816D01*
X1803017Y1208818D01*
X1803009Y1208822D01*
X1802540Y1208904D01*
X1802072Y1208989D01*
X1802064Y1208988D01*
X1802055Y1208989D01*
X1801582Y1208917D01*
X1801114Y1208849D01*
X1801106Y1208845D01*
X1801097Y1208844D01*
X1800673Y1208625D01*
X1800250Y1208410D01*
X1800244Y1208404D01*
X1800236Y1208400D01*
X1799902Y1208057D01*
X1799571Y1207720D01*
X1799566Y1207711D01*
X1799561Y1207706D01*
X1799546Y1207675D01*
X1799250Y1207138D01*
X1788950Y1182270D01*
X1767730Y1161050D01*
X1740005Y1149566D01*
X1709995Y1149566D01*
X1682270Y1161050D01*
X1661050Y1182270D01*
X1649566Y1209995D01*
X1649566Y1240005D01*
X1661050Y1267730D01*
X1682270Y1288950D01*
X1709995Y1300434D01*
X1718756Y1300434D01*
X1718832Y1300446D01*
X1718910Y1300438D01*
X1719309Y1300524D01*
X1719712Y1300590D01*
X1719780Y1300626D01*
X1719856Y1300643D01*
X1720208Y1300852D01*
X1720568Y1301043D01*
X1720622Y1301099D01*
X1720688Y1301139D01*
X1720954Y1301449D01*
X1721235Y1301745D01*
X1721268Y1301816D01*
X1721319Y1301875D01*
X1721472Y1302253D01*
X1721644Y1302624D01*
X1721653Y1302701D01*
X1721682Y1302773D01*
X1721755Y1303433D01*
X1721755Y1374730D01*
X1725270Y1378245D01*
X1783031Y1378245D01*
X1783385Y1378303D01*
X1783741Y1378330D01*
X1783860Y1378380D01*
X1783987Y1378401D01*
X1784303Y1378569D01*
X1784633Y1378708D01*
X1784761Y1378811D01*
X1784843Y1378854D01*
X1784931Y1378947D01*
X1785152Y1379123D01*
X1859121Y1453092D01*
X1859330Y1453383D01*
X1859563Y1453655D01*
X1859611Y1453775D01*
X1859686Y1453879D01*
X1859791Y1454221D01*
X1859926Y1454553D01*
X1859944Y1454715D01*
X1859971Y1454805D01*
X1859968Y1454933D01*
X1859999Y1455213D01*
X1859999Y1475449D01*
X1859987Y1475525D01*
X1859995Y1475602D01*
X1859909Y1476002D01*
X1859843Y1476405D01*
X1859807Y1476473D01*
X1859790Y1476549D01*
X1859581Y1476900D01*
X1859390Y1477261D01*
X1859334Y1477314D01*
X1859294Y1477381D01*
X1858984Y1477647D01*
X1858688Y1477928D01*
X1858617Y1477961D01*
X1858558Y1478012D01*
X1858180Y1478164D01*
X1857908Y1478291D01*
X1854235Y1481963D01*
X1854235Y1526304D01*
X1857751Y1529820D01*
X1892249Y1529820D01*
X1895764Y1526304D01*
X1895764Y1481963D01*
X1892249Y1478448D01*
X1887000Y1478448D01*
X1886923Y1478436D01*
X1886846Y1478444D01*
X1886446Y1478358D01*
X1886044Y1478292D01*
X1885975Y1478255D01*
X1885899Y1478239D01*
X1885548Y1478029D01*
X1885188Y1477839D01*
X1885134Y1477782D01*
X1885068Y1477743D01*
X1884802Y1477433D01*
X1884520Y1477136D01*
X1884487Y1477066D01*
X1884437Y1477007D01*
X1884284Y1476628D01*
X1884112Y1476258D01*
X1884103Y1476181D01*
X1884074Y1476109D01*
X1884001Y1475449D01*
X1884001Y1444029D01*
X1823336Y1383365D01*
X1823172Y1383136D01*
X1822977Y1382931D01*
X1822891Y1382745D01*
X1822771Y1382578D01*
X1822688Y1382309D01*
X1822569Y1382053D01*
X1822546Y1381849D01*
X1822486Y1381652D01*
X1822493Y1381370D01*
X1822462Y1381090D01*
X1822505Y1380889D01*
X1822511Y1380684D01*
X1822607Y1380419D01*
X1822667Y1380144D01*
X1822772Y1379967D01*
X1822843Y1379774D01*
X1823019Y1379554D01*
X1823163Y1379312D01*
X1823319Y1379178D01*
X1823448Y1379017D01*
X1823685Y1378865D01*
X1823899Y1378681D01*
X1824090Y1378604D01*
X1824262Y1378493D01*
X1824536Y1378424D01*
X1824560Y1378414D01*
X1828245Y1374730D01*
X1828245Y1306194D01*
X1828290Y1305916D01*
X1828297Y1305634D01*
X1828368Y1305441D01*
X1828401Y1305238D01*
X1828533Y1304989D01*
X1828630Y1304724D01*
X1828758Y1304563D01*
X1828854Y1304382D01*
X1829058Y1304188D01*
X1829235Y1303968D01*
X1829407Y1303856D01*
X1829556Y1303715D01*
X1829812Y1303596D01*
X1830049Y1303443D01*
X1830248Y1303393D01*
X1830435Y1303306D01*
X1830715Y1303275D01*
X1830988Y1303206D01*
X1831193Y1303222D01*
X1831398Y1303199D01*
X1831674Y1303259D01*
X1831954Y1303280D01*
X1832143Y1303361D01*
X1832344Y1303404D01*
X1832586Y1303548D01*
X1832846Y1303659D01*
X1833067Y1303835D01*
X1833176Y1303900D01*
X1833237Y1303971D01*
X1833365Y1304073D01*
X1850883Y1321592D01*
X1878408Y1337483D01*
X1909108Y1345709D01*
X1940892Y1345709D01*
X1971592Y1337483D01*
X1999117Y1321592D01*
X2021592Y1299117D01*
X2037483Y1271592D01*
X2045078Y1243250D01*
X2045082Y1243234D01*
X2045274Y1242808D01*
X2045471Y1242365D01*
X2045477Y1242358D01*
X2045480Y1242351D01*
X2045802Y1242004D01*
X2046126Y1241651D01*
X2046134Y1241647D01*
X2046140Y1241641D01*
X2046555Y1241415D01*
X2046975Y1241184D01*
X2046983Y1241182D01*
X2046991Y1241178D01*
X2047460Y1241096D01*
X2047928Y1241011D01*
X2047936Y1241012D01*
X2047945Y1241011D01*
X2048418Y1241083D01*
X2048886Y1241151D01*
X2048894Y1241155D01*
X2048903Y1241156D01*
X2049327Y1241375D01*
X2049750Y1241589D01*
X2049756Y1241596D01*
X2049764Y1241600D01*
X2050098Y1241943D01*
X2050429Y1242280D01*
X2050434Y1242289D01*
X2050439Y1242294D01*
X2050454Y1242324D01*
X2050750Y1242862D01*
X2061050Y1267730D01*
X2082270Y1288950D01*
X2109995Y1300434D01*
X2140005Y1300434D01*
X2167730Y1288950D01*
X2188950Y1267730D01*
X2200434Y1240005D01*
X2200434Y1209995D01*
X2188950Y1182270D01*
X2167730Y1161050D01*
X2140005Y1149566D01*
X2109995Y1149566D01*
X2082270Y1161050D01*
X2061050Y1182270D01*
X2050750Y1207138D01*
X2050500Y1207542D01*
X2050250Y1207948D01*
X2050244Y1207954D01*
X2050239Y1207961D01*
X2049873Y1208265D01*
X2049508Y1208570D01*
X2049500Y1208574D01*
X2049493Y1208579D01*
X2049057Y1208747D01*
X2048606Y1208923D01*
X2048597Y1208924D01*
X2048589Y1208927D01*
X2048118Y1208947D01*
X2047638Y1208970D01*
X2047630Y1208968D01*
X2047621Y1208968D01*
X2047164Y1208836D01*
X2046706Y1208706D01*
X2046699Y1208701D01*
X2046691Y1208699D01*
X2046299Y1208427D01*
X2045907Y1208159D01*
X2045902Y1208152D01*
X2045894Y1208147D01*
X2045611Y1207766D01*
X2045324Y1207385D01*
X2045320Y1207375D01*
X2045316Y1207370D01*
X2045306Y1207339D01*
X2045082Y1206766D01*
X2037483Y1178408D01*
X2021592Y1150883D01*
X1999117Y1128408D01*
X1971592Y1112517D01*
X1940892Y1104291D01*
X1909108Y1104291D01*
G37*
%LPD*%
%LPC*%
G36*
X3075861Y857779D02*
X3075861Y857779D01*
X3072346Y861294D01*
X3072346Y867000D01*
X3072333Y867077D01*
X3072342Y867154D01*
X3072255Y867553D01*
X3072189Y867956D01*
X3072153Y868024D01*
X3072137Y868100D01*
X3071927Y868452D01*
X3071736Y868812D01*
X3071680Y868866D01*
X3071640Y868932D01*
X3071330Y869198D01*
X3071034Y869480D01*
X3070963Y869512D01*
X3070905Y869563D01*
X3070526Y869716D01*
X3070156Y869888D01*
X3070078Y869897D01*
X3070007Y869926D01*
X3069346Y869999D01*
X2281029Y869999D01*
X2275884Y875144D01*
X2275656Y875308D01*
X2275451Y875503D01*
X2275264Y875590D01*
X2275098Y875709D01*
X2274828Y875792D01*
X2274573Y875911D01*
X2274368Y875934D01*
X2274172Y875994D01*
X2273890Y875987D01*
X2273610Y876018D01*
X2273409Y875975D01*
X2273204Y875970D01*
X2272939Y875873D01*
X2272663Y875813D01*
X2272487Y875708D01*
X2272294Y875637D01*
X2272074Y875461D01*
X2271831Y875317D01*
X2271697Y875161D01*
X2271537Y875032D01*
X2271385Y874796D01*
X2271201Y874581D01*
X2271124Y874391D01*
X2271013Y874218D01*
X2270944Y873945D01*
X2270896Y873827D01*
X2267249Y870180D01*
X2232751Y870180D01*
X2229235Y873695D01*
X2229235Y885000D01*
X2229223Y885077D01*
X2229232Y885154D01*
X2229145Y885553D01*
X2229079Y885956D01*
X2229043Y886024D01*
X2229026Y886100D01*
X2228817Y886452D01*
X2228626Y886812D01*
X2228570Y886866D01*
X2228530Y886932D01*
X2228220Y887198D01*
X2227924Y887480D01*
X2227853Y887512D01*
X2227794Y887563D01*
X2227416Y887716D01*
X2227045Y887888D01*
X2226968Y887897D01*
X2226896Y887926D01*
X2226236Y887999D01*
X773764Y887999D01*
X773687Y887987D01*
X773610Y887995D01*
X773210Y887909D01*
X772808Y887843D01*
X772739Y887807D01*
X772663Y887790D01*
X772312Y887581D01*
X771951Y887390D01*
X771898Y887334D01*
X771831Y887294D01*
X771566Y886984D01*
X771284Y886688D01*
X771251Y886617D01*
X771201Y886558D01*
X771048Y886180D01*
X770876Y885809D01*
X770867Y885732D01*
X770838Y885660D01*
X770764Y885000D01*
X770764Y873695D01*
X767249Y870180D01*
X732751Y870180D01*
X729235Y873695D01*
X729235Y918037D01*
X732751Y921552D01*
X767249Y921552D01*
X770764Y918037D01*
X770764Y915000D01*
X770777Y914923D01*
X770768Y914846D01*
X770855Y914446D01*
X770921Y914044D01*
X770957Y913975D01*
X770974Y913899D01*
X771183Y913548D01*
X771374Y913188D01*
X771430Y913134D01*
X771470Y913068D01*
X771780Y912802D01*
X772076Y912520D01*
X772147Y912487D01*
X772205Y912437D01*
X772584Y912284D01*
X772955Y912112D01*
X773032Y912103D01*
X773104Y912074D01*
X773764Y912001D01*
X2226236Y912001D01*
X2226313Y912013D01*
X2226390Y912005D01*
X2226790Y912091D01*
X2227192Y912157D01*
X2227261Y912193D01*
X2227337Y912210D01*
X2227688Y912419D01*
X2228048Y912610D01*
X2228102Y912666D01*
X2228169Y912706D01*
X2228434Y913016D01*
X2228716Y913312D01*
X2228749Y913383D01*
X2228799Y913442D01*
X2228952Y913820D01*
X2229124Y914191D01*
X2229133Y914268D01*
X2229162Y914340D01*
X2229235Y915000D01*
X2229235Y918037D01*
X2232751Y921552D01*
X2267249Y921552D01*
X2270764Y918037D01*
X2270764Y915449D01*
X2270822Y915096D01*
X2270850Y914739D01*
X2270900Y914621D01*
X2270921Y914493D01*
X2271088Y914177D01*
X2271228Y913847D01*
X2271330Y913719D01*
X2271374Y913637D01*
X2271466Y913549D01*
X2271643Y913329D01*
X2290092Y894879D01*
X2290383Y894670D01*
X2290655Y894437D01*
X2290775Y894389D01*
X2290879Y894314D01*
X2291221Y894208D01*
X2291553Y894074D01*
X2291715Y894056D01*
X2291805Y894029D01*
X2291933Y894032D01*
X2292213Y894001D01*
X3069346Y894001D01*
X3069423Y894013D01*
X3069500Y894005D01*
X3069900Y894091D01*
X3070303Y894157D01*
X3070371Y894193D01*
X3070447Y894210D01*
X3070798Y894419D01*
X3071159Y894610D01*
X3071212Y894666D01*
X3071279Y894706D01*
X3071544Y895016D01*
X3071826Y895312D01*
X3071859Y895383D01*
X3071909Y895442D01*
X3072062Y895820D01*
X3072234Y896191D01*
X3072243Y896268D01*
X3072272Y896340D01*
X3072346Y897000D01*
X3072346Y905635D01*
X3075861Y909150D01*
X3090000Y909150D01*
X3090077Y909163D01*
X3090154Y909154D01*
X3090553Y909241D01*
X3090956Y909307D01*
X3091024Y909343D01*
X3091100Y909359D01*
X3091452Y909569D01*
X3091812Y909760D01*
X3091866Y909816D01*
X3091932Y909856D01*
X3092198Y910165D01*
X3092480Y910462D01*
X3092512Y910532D01*
X3092563Y910591D01*
X3092716Y910970D01*
X3092888Y911340D01*
X3092897Y911418D01*
X3092926Y911489D01*
X3092999Y912149D01*
X3092999Y1129971D01*
X3335121Y1372092D01*
X3335330Y1372383D01*
X3335563Y1372655D01*
X3335611Y1372775D01*
X3335686Y1372879D01*
X3335791Y1373221D01*
X3335926Y1373553D01*
X3335944Y1373715D01*
X3335971Y1373805D01*
X3335968Y1373933D01*
X3335999Y1374213D01*
X3335999Y1736000D01*
X3335987Y1736077D01*
X3335995Y1736154D01*
X3335909Y1736553D01*
X3335843Y1736956D01*
X3335807Y1737024D01*
X3335790Y1737100D01*
X3335581Y1737452D01*
X3335390Y1737812D01*
X3335334Y1737866D01*
X3335294Y1737932D01*
X3334984Y1738198D01*
X3334688Y1738480D01*
X3334617Y1738512D01*
X3334558Y1738563D01*
X3334180Y1738716D01*
X3333809Y1738888D01*
X3333732Y1738897D01*
X3333660Y1738926D01*
X3333000Y1738999D01*
X3312839Y1738999D01*
X3299607Y1744480D01*
X3289480Y1754607D01*
X3283999Y1767839D01*
X3283999Y1782161D01*
X3289480Y1795393D01*
X3299607Y1805520D01*
X3312839Y1811001D01*
X3387161Y1811001D01*
X3400393Y1805520D01*
X3410520Y1795393D01*
X3416001Y1782161D01*
X3416001Y1767839D01*
X3410520Y1754607D01*
X3400393Y1744480D01*
X3387161Y1738999D01*
X3363000Y1738999D01*
X3362923Y1738987D01*
X3362846Y1738995D01*
X3362446Y1738909D01*
X3362044Y1738843D01*
X3361975Y1738807D01*
X3361899Y1738790D01*
X3361548Y1738581D01*
X3361188Y1738390D01*
X3361134Y1738334D01*
X3361068Y1738294D01*
X3360802Y1737984D01*
X3360520Y1737688D01*
X3360487Y1737617D01*
X3360437Y1737558D01*
X3360284Y1737180D01*
X3360112Y1736809D01*
X3360103Y1736732D01*
X3360074Y1736660D01*
X3360001Y1736000D01*
X3360001Y1363029D01*
X3117879Y1120907D01*
X3117670Y1120617D01*
X3117437Y1120345D01*
X3117389Y1120225D01*
X3117314Y1120121D01*
X3117208Y1119779D01*
X3117074Y1119447D01*
X3117056Y1119284D01*
X3117029Y1119195D01*
X3117032Y1119067D01*
X3117001Y1118787D01*
X3117001Y912149D01*
X3117013Y912073D01*
X3117005Y911996D01*
X3117091Y911596D01*
X3117157Y911193D01*
X3117193Y911125D01*
X3117210Y911049D01*
X3117419Y910698D01*
X3117610Y910337D01*
X3117666Y910284D01*
X3117706Y910217D01*
X3118016Y909952D01*
X3118312Y909670D01*
X3118383Y909637D01*
X3118442Y909587D01*
X3118820Y909434D01*
X3119191Y909261D01*
X3119268Y909253D01*
X3119340Y909224D01*
X3120000Y909150D01*
X3124139Y909150D01*
X3127654Y905635D01*
X3127654Y861294D01*
X3124139Y857779D01*
X3075861Y857779D01*
G37*
%LPD*%
%LPC*%
G36*
X3312839Y1938999D02*
X3312839Y1938999D01*
X3299607Y1944480D01*
X3289480Y1954607D01*
X3283999Y1967839D01*
X3283999Y1982161D01*
X3289480Y1995393D01*
X3291437Y1997350D01*
X3291482Y1997412D01*
X3291543Y1997461D01*
X3291764Y1997805D01*
X3292002Y1998136D01*
X3292025Y1998211D01*
X3292067Y1998276D01*
X3292167Y1998671D01*
X3292288Y1999062D01*
X3292286Y1999140D01*
X3292305Y1999215D01*
X3292273Y1999622D01*
X3292263Y2000031D01*
X3292236Y2000103D01*
X3292230Y2000181D01*
X3292071Y2000557D01*
X3291931Y2000940D01*
X3291882Y2001001D01*
X3291852Y2001073D01*
X3291437Y2001591D01*
X3100907Y2192121D01*
X3092999Y2200029D01*
X3092999Y2287850D01*
X3092987Y2287927D01*
X3092995Y2288004D01*
X3092909Y2288404D01*
X3092843Y2288806D01*
X3092807Y2288875D01*
X3092790Y2288951D01*
X3092581Y2289302D01*
X3092390Y2289663D01*
X3092334Y2289716D01*
X3092294Y2289783D01*
X3091984Y2290048D01*
X3091688Y2290330D01*
X3091617Y2290363D01*
X3091558Y2290413D01*
X3091180Y2290566D01*
X3090809Y2290738D01*
X3090732Y2290747D01*
X3090660Y2290776D01*
X3090000Y2290850D01*
X3075861Y2290850D01*
X3072346Y2294365D01*
X3072346Y2298000D01*
X3072333Y2298077D01*
X3072342Y2298154D01*
X3072255Y2298553D01*
X3072189Y2298956D01*
X3072153Y2299024D01*
X3072137Y2299100D01*
X3071927Y2299452D01*
X3071736Y2299812D01*
X3071680Y2299866D01*
X3071640Y2299932D01*
X3071330Y2300198D01*
X3071034Y2300480D01*
X3070963Y2300512D01*
X3070905Y2300563D01*
X3070526Y2300716D01*
X3070156Y2300888D01*
X3070078Y2300897D01*
X3070007Y2300926D01*
X3069346Y2300999D01*
X3064029Y2300999D01*
X2983907Y2381121D01*
X2983617Y2381330D01*
X2983345Y2381563D01*
X2983225Y2381611D01*
X2983121Y2381686D01*
X2982779Y2381791D01*
X2982447Y2381926D01*
X2982284Y2381944D01*
X2982195Y2381971D01*
X2982067Y2381968D01*
X2981787Y2381999D01*
X2648764Y2381999D01*
X2648687Y2381987D01*
X2648610Y2381995D01*
X2648210Y2381909D01*
X2647808Y2381843D01*
X2647739Y2381807D01*
X2647663Y2381790D01*
X2647312Y2381581D01*
X2646951Y2381390D01*
X2646898Y2381334D01*
X2646831Y2381294D01*
X2646566Y2380984D01*
X2646284Y2380688D01*
X2646251Y2380617D01*
X2646201Y2380558D01*
X2646048Y2380180D01*
X2645876Y2379809D01*
X2645867Y2379732D01*
X2645838Y2379660D01*
X2645764Y2379000D01*
X2645764Y2373695D01*
X2642249Y2370180D01*
X2607751Y2370180D01*
X2604235Y2373695D01*
X2604235Y2379000D01*
X2604223Y2379077D01*
X2604232Y2379154D01*
X2604145Y2379553D01*
X2604079Y2379956D01*
X2604043Y2380024D01*
X2604026Y2380100D01*
X2603817Y2380452D01*
X2603626Y2380812D01*
X2603570Y2380866D01*
X2603530Y2380932D01*
X2603220Y2381198D01*
X2602924Y2381480D01*
X2602853Y2381512D01*
X2602794Y2381563D01*
X2602416Y2381716D01*
X2602045Y2381888D01*
X2601968Y2381897D01*
X2601896Y2381926D01*
X2601236Y2381999D01*
X1898764Y2381999D01*
X1898687Y2381987D01*
X1898610Y2381995D01*
X1898210Y2381909D01*
X1897808Y2381843D01*
X1897739Y2381807D01*
X1897663Y2381790D01*
X1897312Y2381581D01*
X1896951Y2381390D01*
X1896898Y2381334D01*
X1896831Y2381294D01*
X1896566Y2380984D01*
X1896284Y2380688D01*
X1896251Y2380617D01*
X1896201Y2380558D01*
X1896048Y2380180D01*
X1895876Y2379809D01*
X1895867Y2379732D01*
X1895838Y2379660D01*
X1895764Y2379000D01*
X1895764Y2373695D01*
X1892249Y2370180D01*
X1857751Y2370180D01*
X1854235Y2373695D01*
X1854235Y2379000D01*
X1854223Y2379077D01*
X1854232Y2379154D01*
X1854145Y2379553D01*
X1854079Y2379956D01*
X1854043Y2380024D01*
X1854026Y2380100D01*
X1853817Y2380452D01*
X1853626Y2380812D01*
X1853570Y2380866D01*
X1853530Y2380932D01*
X1853220Y2381198D01*
X1852924Y2381480D01*
X1852853Y2381512D01*
X1852794Y2381563D01*
X1852416Y2381716D01*
X1852045Y2381888D01*
X1851968Y2381897D01*
X1851896Y2381926D01*
X1851236Y2381999D01*
X1148764Y2381999D01*
X1148687Y2381987D01*
X1148610Y2381995D01*
X1148210Y2381909D01*
X1147808Y2381843D01*
X1147739Y2381807D01*
X1147663Y2381790D01*
X1147312Y2381581D01*
X1146951Y2381390D01*
X1146898Y2381334D01*
X1146831Y2381294D01*
X1146566Y2380984D01*
X1146284Y2380688D01*
X1146251Y2380617D01*
X1146201Y2380558D01*
X1146048Y2380180D01*
X1145876Y2379809D01*
X1145867Y2379732D01*
X1145838Y2379660D01*
X1145764Y2379000D01*
X1145764Y2373695D01*
X1142249Y2370180D01*
X1107751Y2370180D01*
X1104235Y2373695D01*
X1104235Y2379000D01*
X1104223Y2379077D01*
X1104232Y2379154D01*
X1104145Y2379553D01*
X1104079Y2379956D01*
X1104043Y2380024D01*
X1104026Y2380100D01*
X1103817Y2380452D01*
X1103626Y2380812D01*
X1103570Y2380866D01*
X1103530Y2380932D01*
X1103220Y2381198D01*
X1102924Y2381480D01*
X1102853Y2381512D01*
X1102794Y2381563D01*
X1102416Y2381716D01*
X1102045Y2381888D01*
X1101968Y2381897D01*
X1101896Y2381926D01*
X1101236Y2381999D01*
X398764Y2381999D01*
X398687Y2381987D01*
X398610Y2381995D01*
X398210Y2381909D01*
X397808Y2381843D01*
X397739Y2381807D01*
X397663Y2381790D01*
X397312Y2381581D01*
X396951Y2381390D01*
X396898Y2381334D01*
X396831Y2381294D01*
X396566Y2380984D01*
X396284Y2380688D01*
X396251Y2380617D01*
X396201Y2380558D01*
X396048Y2380180D01*
X395876Y2379809D01*
X395867Y2379732D01*
X395838Y2379660D01*
X395764Y2379000D01*
X395764Y2373695D01*
X392249Y2370180D01*
X357751Y2370180D01*
X354235Y2373695D01*
X354235Y2418037D01*
X357751Y2421552D01*
X392249Y2421552D01*
X395764Y2418037D01*
X395764Y2409000D01*
X395777Y2408923D01*
X395768Y2408846D01*
X395855Y2408446D01*
X395921Y2408044D01*
X395957Y2407975D01*
X395974Y2407899D01*
X396183Y2407548D01*
X396374Y2407188D01*
X396430Y2407134D01*
X396470Y2407068D01*
X396780Y2406802D01*
X397076Y2406520D01*
X397147Y2406487D01*
X397205Y2406437D01*
X397584Y2406284D01*
X397955Y2406112D01*
X398032Y2406103D01*
X398104Y2406074D01*
X398764Y2406001D01*
X1101236Y2406001D01*
X1101313Y2406013D01*
X1101390Y2406005D01*
X1101790Y2406091D01*
X1102192Y2406157D01*
X1102261Y2406193D01*
X1102337Y2406210D01*
X1102688Y2406419D01*
X1103048Y2406610D01*
X1103102Y2406666D01*
X1103169Y2406706D01*
X1103434Y2407016D01*
X1103716Y2407312D01*
X1103749Y2407383D01*
X1103799Y2407442D01*
X1103952Y2407820D01*
X1104124Y2408191D01*
X1104133Y2408268D01*
X1104162Y2408340D01*
X1104235Y2409000D01*
X1104235Y2418037D01*
X1107751Y2421552D01*
X1142249Y2421552D01*
X1145764Y2418037D01*
X1145764Y2409000D01*
X1145777Y2408923D01*
X1145768Y2408846D01*
X1145855Y2408446D01*
X1145921Y2408044D01*
X1145957Y2407975D01*
X1145974Y2407899D01*
X1146183Y2407548D01*
X1146374Y2407188D01*
X1146430Y2407134D01*
X1146470Y2407068D01*
X1146780Y2406802D01*
X1147076Y2406520D01*
X1147147Y2406487D01*
X1147205Y2406437D01*
X1147584Y2406284D01*
X1147955Y2406112D01*
X1148032Y2406103D01*
X1148104Y2406074D01*
X1148764Y2406001D01*
X1851236Y2406001D01*
X1851313Y2406013D01*
X1851390Y2406005D01*
X1851790Y2406091D01*
X1852192Y2406157D01*
X1852261Y2406193D01*
X1852337Y2406210D01*
X1852688Y2406419D01*
X1853048Y2406610D01*
X1853102Y2406666D01*
X1853169Y2406706D01*
X1853434Y2407016D01*
X1853716Y2407312D01*
X1853749Y2407383D01*
X1853799Y2407442D01*
X1853952Y2407820D01*
X1854124Y2408191D01*
X1854133Y2408268D01*
X1854162Y2408340D01*
X1854235Y2409000D01*
X1854235Y2418037D01*
X1857751Y2421552D01*
X1892249Y2421552D01*
X1895764Y2418037D01*
X1895764Y2409000D01*
X1895777Y2408923D01*
X1895768Y2408846D01*
X1895855Y2408446D01*
X1895921Y2408044D01*
X1895957Y2407975D01*
X1895974Y2407899D01*
X1896183Y2407548D01*
X1896374Y2407188D01*
X1896430Y2407134D01*
X1896470Y2407068D01*
X1896780Y2406802D01*
X1897076Y2406520D01*
X1897147Y2406487D01*
X1897205Y2406437D01*
X1897584Y2406284D01*
X1897955Y2406112D01*
X1898032Y2406103D01*
X1898104Y2406074D01*
X1898764Y2406001D01*
X2601236Y2406001D01*
X2601313Y2406013D01*
X2601390Y2406005D01*
X2601790Y2406091D01*
X2602192Y2406157D01*
X2602261Y2406193D01*
X2602337Y2406210D01*
X2602688Y2406419D01*
X2603048Y2406610D01*
X2603102Y2406666D01*
X2603169Y2406706D01*
X2603434Y2407016D01*
X2603716Y2407312D01*
X2603749Y2407383D01*
X2603799Y2407442D01*
X2603952Y2407820D01*
X2604124Y2408191D01*
X2604133Y2408268D01*
X2604162Y2408340D01*
X2604235Y2409000D01*
X2604235Y2418037D01*
X2607751Y2421552D01*
X2642249Y2421552D01*
X2645764Y2418037D01*
X2645764Y2409000D01*
X2645777Y2408923D01*
X2645768Y2408846D01*
X2645855Y2408446D01*
X2645921Y2408044D01*
X2645957Y2407975D01*
X2645974Y2407899D01*
X2646183Y2407548D01*
X2646374Y2407188D01*
X2646430Y2407134D01*
X2646470Y2407068D01*
X2646780Y2406802D01*
X2647076Y2406520D01*
X2647147Y2406487D01*
X2647205Y2406437D01*
X2647584Y2406284D01*
X2647955Y2406112D01*
X2648032Y2406103D01*
X2648104Y2406074D01*
X2648764Y2406001D01*
X2992971Y2406001D01*
X3067226Y2331746D01*
X3067454Y2331581D01*
X3067659Y2331387D01*
X3067846Y2331300D01*
X3068012Y2331180D01*
X3068282Y2331097D01*
X3068537Y2330978D01*
X3068742Y2330956D01*
X3068938Y2330895D01*
X3069220Y2330902D01*
X3069500Y2330871D01*
X3069701Y2330915D01*
X3069906Y2330920D01*
X3070171Y2331017D01*
X3070447Y2331076D01*
X3070623Y2331182D01*
X3070817Y2331252D01*
X3071037Y2331428D01*
X3071279Y2331573D01*
X3071413Y2331729D01*
X3071573Y2331857D01*
X3071726Y2332094D01*
X3071909Y2332308D01*
X3071986Y2332499D01*
X3072097Y2332672D01*
X3072166Y2332945D01*
X3072272Y2333206D01*
X3072303Y2333487D01*
X3072335Y2333611D01*
X3072328Y2333704D01*
X3072346Y2333867D01*
X3072346Y2338706D01*
X3075861Y2342221D01*
X3124139Y2342221D01*
X3127654Y2338706D01*
X3127654Y2294365D01*
X3124139Y2290850D01*
X3120000Y2290850D01*
X3119923Y2290837D01*
X3119846Y2290846D01*
X3119446Y2290759D01*
X3119044Y2290693D01*
X3118975Y2290657D01*
X3118899Y2290641D01*
X3118548Y2290431D01*
X3118188Y2290240D01*
X3118134Y2290184D01*
X3118068Y2290144D01*
X3117802Y2289834D01*
X3117520Y2289538D01*
X3117487Y2289467D01*
X3117437Y2289409D01*
X3117284Y2289030D01*
X3117112Y2288659D01*
X3117103Y2288582D01*
X3117074Y2288510D01*
X3117001Y2287850D01*
X3117001Y2211213D01*
X3117059Y2210859D01*
X3117086Y2210503D01*
X3117136Y2210384D01*
X3117157Y2210257D01*
X3117324Y2209941D01*
X3117464Y2209611D01*
X3117567Y2209483D01*
X3117610Y2209401D01*
X3117703Y2209313D01*
X3117879Y2209092D01*
X3315092Y2011879D01*
X3315383Y2011670D01*
X3315655Y2011437D01*
X3315774Y2011389D01*
X3315879Y2011314D01*
X3316221Y2011208D01*
X3316553Y2011074D01*
X3316715Y2011056D01*
X3316805Y2011029D01*
X3316933Y2011032D01*
X3317213Y2011001D01*
X3387161Y2011001D01*
X3400393Y2005520D01*
X3410520Y1995393D01*
X3416001Y1982161D01*
X3416001Y1967839D01*
X3410520Y1954607D01*
X3400393Y1944480D01*
X3387161Y1938999D01*
X3312839Y1938999D01*
G37*
%LPD*%
%LPC*%
G36*
X3075861Y1607779D02*
X3075861Y1607779D01*
X3072346Y1611294D01*
X3072346Y1614000D01*
X3072333Y1614077D01*
X3072342Y1614154D01*
X3072255Y1614553D01*
X3072189Y1614956D01*
X3072153Y1615024D01*
X3072137Y1615100D01*
X3071927Y1615452D01*
X3071736Y1615812D01*
X3071680Y1615866D01*
X3071640Y1615932D01*
X3071330Y1616198D01*
X3071034Y1616480D01*
X3070963Y1616512D01*
X3070905Y1616563D01*
X3070526Y1616716D01*
X3070156Y1616888D01*
X3070078Y1616897D01*
X3070007Y1616926D01*
X3069346Y1616999D01*
X3064029Y1616999D01*
X3046907Y1634121D01*
X3046617Y1634330D01*
X3046345Y1634563D01*
X3046225Y1634611D01*
X3046121Y1634686D01*
X3045779Y1634791D01*
X3045447Y1634926D01*
X3045284Y1634944D01*
X3045195Y1634971D01*
X3045067Y1634968D01*
X3044787Y1634999D01*
X2648764Y1634999D01*
X2648687Y1634987D01*
X2648610Y1634995D01*
X2648210Y1634909D01*
X2647808Y1634843D01*
X2647739Y1634807D01*
X2647663Y1634790D01*
X2647312Y1634581D01*
X2646951Y1634390D01*
X2646898Y1634334D01*
X2646831Y1634294D01*
X2646566Y1633984D01*
X2646284Y1633688D01*
X2646251Y1633617D01*
X2646201Y1633558D01*
X2646048Y1633180D01*
X2645876Y1632809D01*
X2645867Y1632732D01*
X2645838Y1632660D01*
X2645764Y1632000D01*
X2645764Y1623695D01*
X2642249Y1620180D01*
X2607751Y1620180D01*
X2604235Y1623695D01*
X2604235Y1632000D01*
X2604223Y1632077D01*
X2604232Y1632154D01*
X2604145Y1632553D01*
X2604079Y1632956D01*
X2604043Y1633024D01*
X2604026Y1633100D01*
X2603817Y1633452D01*
X2603626Y1633812D01*
X2603570Y1633866D01*
X2603530Y1633932D01*
X2603220Y1634198D01*
X2602924Y1634480D01*
X2602853Y1634512D01*
X2602794Y1634563D01*
X2602416Y1634716D01*
X2602045Y1634888D01*
X2601968Y1634897D01*
X2601896Y1634926D01*
X2601236Y1634999D01*
X1898764Y1634999D01*
X1898687Y1634987D01*
X1898610Y1634995D01*
X1898210Y1634909D01*
X1897808Y1634843D01*
X1897739Y1634807D01*
X1897663Y1634790D01*
X1897312Y1634581D01*
X1896951Y1634390D01*
X1896898Y1634334D01*
X1896831Y1634294D01*
X1896566Y1633984D01*
X1896284Y1633688D01*
X1896251Y1633617D01*
X1896201Y1633558D01*
X1896048Y1633180D01*
X1895876Y1632809D01*
X1895867Y1632732D01*
X1895838Y1632660D01*
X1895764Y1632000D01*
X1895764Y1623695D01*
X1892249Y1620180D01*
X1857751Y1620180D01*
X1854235Y1623695D01*
X1854235Y1632000D01*
X1854223Y1632077D01*
X1854232Y1632154D01*
X1854145Y1632553D01*
X1854079Y1632956D01*
X1854043Y1633024D01*
X1854026Y1633100D01*
X1853817Y1633452D01*
X1853626Y1633812D01*
X1853570Y1633866D01*
X1853530Y1633932D01*
X1853220Y1634198D01*
X1852924Y1634480D01*
X1852853Y1634512D01*
X1852794Y1634563D01*
X1852416Y1634716D01*
X1852045Y1634888D01*
X1851968Y1634897D01*
X1851896Y1634926D01*
X1851236Y1634999D01*
X1148764Y1634999D01*
X1148687Y1634987D01*
X1148610Y1634995D01*
X1148210Y1634909D01*
X1147808Y1634843D01*
X1147739Y1634807D01*
X1147663Y1634790D01*
X1147312Y1634581D01*
X1146951Y1634390D01*
X1146898Y1634334D01*
X1146831Y1634294D01*
X1146566Y1633984D01*
X1146284Y1633688D01*
X1146251Y1633617D01*
X1146201Y1633558D01*
X1146048Y1633180D01*
X1145876Y1632809D01*
X1145867Y1632732D01*
X1145838Y1632660D01*
X1145764Y1632000D01*
X1145764Y1623695D01*
X1142249Y1620180D01*
X1107751Y1620180D01*
X1104235Y1623695D01*
X1104235Y1632000D01*
X1104223Y1632077D01*
X1104232Y1632154D01*
X1104145Y1632553D01*
X1104079Y1632956D01*
X1104043Y1633024D01*
X1104026Y1633100D01*
X1103817Y1633452D01*
X1103626Y1633812D01*
X1103570Y1633866D01*
X1103530Y1633932D01*
X1103220Y1634198D01*
X1102924Y1634480D01*
X1102853Y1634512D01*
X1102794Y1634563D01*
X1102416Y1634716D01*
X1102045Y1634888D01*
X1101968Y1634897D01*
X1101896Y1634926D01*
X1101236Y1634999D01*
X398764Y1634999D01*
X398687Y1634987D01*
X398610Y1634995D01*
X398210Y1634909D01*
X397808Y1634843D01*
X397739Y1634807D01*
X397663Y1634790D01*
X397312Y1634581D01*
X396951Y1634390D01*
X396898Y1634334D01*
X396831Y1634294D01*
X396566Y1633984D01*
X396284Y1633688D01*
X396251Y1633617D01*
X396201Y1633558D01*
X396048Y1633180D01*
X395876Y1632809D01*
X395867Y1632732D01*
X395838Y1632660D01*
X395764Y1632000D01*
X395764Y1623695D01*
X392249Y1620180D01*
X357751Y1620180D01*
X354235Y1623695D01*
X354235Y1668037D01*
X357751Y1671552D01*
X392249Y1671552D01*
X395764Y1668037D01*
X395764Y1662000D01*
X395777Y1661923D01*
X395768Y1661846D01*
X395855Y1661446D01*
X395921Y1661044D01*
X395957Y1660975D01*
X395974Y1660899D01*
X396184Y1660547D01*
X396374Y1660188D01*
X396430Y1660134D01*
X396470Y1660068D01*
X396780Y1659802D01*
X397076Y1659520D01*
X397147Y1659487D01*
X397205Y1659437D01*
X397584Y1659284D01*
X397955Y1659112D01*
X398032Y1659103D01*
X398104Y1659074D01*
X398764Y1659001D01*
X1101236Y1659001D01*
X1101313Y1659013D01*
X1101390Y1659005D01*
X1101790Y1659091D01*
X1102192Y1659157D01*
X1102261Y1659193D01*
X1102337Y1659210D01*
X1102688Y1659419D01*
X1103048Y1659610D01*
X1103102Y1659666D01*
X1103169Y1659706D01*
X1103434Y1660016D01*
X1103716Y1660312D01*
X1103749Y1660383D01*
X1103799Y1660442D01*
X1103952Y1660820D01*
X1104124Y1661191D01*
X1104133Y1661268D01*
X1104162Y1661340D01*
X1104235Y1662000D01*
X1104235Y1668037D01*
X1107751Y1671552D01*
X1142249Y1671552D01*
X1145764Y1668037D01*
X1145764Y1662000D01*
X1145777Y1661923D01*
X1145768Y1661846D01*
X1145855Y1661446D01*
X1145921Y1661044D01*
X1145957Y1660975D01*
X1145974Y1660899D01*
X1146184Y1660547D01*
X1146374Y1660188D01*
X1146430Y1660134D01*
X1146470Y1660068D01*
X1146780Y1659802D01*
X1147076Y1659520D01*
X1147147Y1659487D01*
X1147205Y1659437D01*
X1147584Y1659284D01*
X1147955Y1659112D01*
X1148032Y1659103D01*
X1148104Y1659074D01*
X1148764Y1659001D01*
X1851236Y1659001D01*
X1851313Y1659013D01*
X1851390Y1659005D01*
X1851790Y1659091D01*
X1852192Y1659157D01*
X1852261Y1659193D01*
X1852337Y1659210D01*
X1852688Y1659419D01*
X1853048Y1659610D01*
X1853102Y1659666D01*
X1853169Y1659706D01*
X1853434Y1660016D01*
X1853716Y1660312D01*
X1853749Y1660383D01*
X1853799Y1660442D01*
X1853952Y1660820D01*
X1854124Y1661191D01*
X1854133Y1661268D01*
X1854162Y1661340D01*
X1854235Y1662000D01*
X1854235Y1668037D01*
X1857751Y1671552D01*
X1892249Y1671552D01*
X1895764Y1668037D01*
X1895764Y1662000D01*
X1895777Y1661923D01*
X1895768Y1661846D01*
X1895855Y1661446D01*
X1895921Y1661044D01*
X1895957Y1660975D01*
X1895974Y1660899D01*
X1896184Y1660547D01*
X1896374Y1660188D01*
X1896430Y1660134D01*
X1896470Y1660068D01*
X1896780Y1659802D01*
X1897076Y1659520D01*
X1897147Y1659487D01*
X1897205Y1659437D01*
X1897584Y1659284D01*
X1897955Y1659112D01*
X1898032Y1659103D01*
X1898104Y1659074D01*
X1898764Y1659001D01*
X2601236Y1659001D01*
X2601313Y1659013D01*
X2601390Y1659005D01*
X2601790Y1659091D01*
X2602192Y1659157D01*
X2602261Y1659193D01*
X2602337Y1659210D01*
X2602688Y1659419D01*
X2603048Y1659610D01*
X2603102Y1659666D01*
X2603169Y1659706D01*
X2603434Y1660016D01*
X2603716Y1660312D01*
X2603749Y1660383D01*
X2603799Y1660442D01*
X2603952Y1660820D01*
X2604124Y1661191D01*
X2604133Y1661268D01*
X2604162Y1661340D01*
X2604235Y1662000D01*
X2604235Y1668037D01*
X2607751Y1671552D01*
X2642249Y1671552D01*
X2645764Y1668037D01*
X2645764Y1662000D01*
X2645777Y1661923D01*
X2645768Y1661846D01*
X2645855Y1661446D01*
X2645921Y1661044D01*
X2645957Y1660975D01*
X2645974Y1660899D01*
X2646184Y1660547D01*
X2646374Y1660188D01*
X2646430Y1660134D01*
X2646470Y1660068D01*
X2646780Y1659802D01*
X2647076Y1659520D01*
X2647147Y1659487D01*
X2647205Y1659437D01*
X2647584Y1659284D01*
X2647955Y1659112D01*
X2648032Y1659103D01*
X2648104Y1659074D01*
X2648764Y1659001D01*
X3055971Y1659001D01*
X3067226Y1647746D01*
X3067454Y1647581D01*
X3067659Y1647387D01*
X3067846Y1647300D01*
X3068012Y1647180D01*
X3068282Y1647097D01*
X3068537Y1646978D01*
X3068742Y1646956D01*
X3068938Y1646895D01*
X3069220Y1646902D01*
X3069500Y1646871D01*
X3069701Y1646915D01*
X3069906Y1646920D01*
X3070171Y1647017D01*
X3070447Y1647076D01*
X3070623Y1647182D01*
X3070817Y1647252D01*
X3071037Y1647428D01*
X3071279Y1647573D01*
X3071413Y1647729D01*
X3071573Y1647857D01*
X3071726Y1648094D01*
X3071909Y1648308D01*
X3071986Y1648499D01*
X3072097Y1648672D01*
X3072166Y1648945D01*
X3072272Y1649206D01*
X3072303Y1649487D01*
X3072335Y1649611D01*
X3072328Y1649704D01*
X3072346Y1649867D01*
X3072346Y1655635D01*
X3075861Y1659150D01*
X3081000Y1659150D01*
X3081077Y1659163D01*
X3081154Y1659154D01*
X3081553Y1659241D01*
X3081956Y1659307D01*
X3082024Y1659343D01*
X3082100Y1659359D01*
X3082452Y1659569D01*
X3082812Y1659760D01*
X3082866Y1659816D01*
X3082932Y1659856D01*
X3083198Y1660165D01*
X3083273Y1660244D01*
X3118029Y1695001D01*
X3134787Y1695001D01*
X3135141Y1695059D01*
X3135497Y1695086D01*
X3135615Y1695136D01*
X3135743Y1695157D01*
X3136059Y1695324D01*
X3136389Y1695464D01*
X3136517Y1695567D01*
X3136599Y1695610D01*
X3136687Y1695703D01*
X3136907Y1695879D01*
X3290437Y1849409D01*
X3290483Y1849472D01*
X3290543Y1849520D01*
X3290758Y1849854D01*
X3290770Y1849867D01*
X3290777Y1849882D01*
X3291002Y1850195D01*
X3291025Y1850269D01*
X3291067Y1850335D01*
X3291162Y1850710D01*
X3291179Y1850746D01*
X3291183Y1850781D01*
X3291288Y1851121D01*
X3291286Y1851199D01*
X3291305Y1851274D01*
X3291277Y1851629D01*
X3291286Y1851708D01*
X3291271Y1851780D01*
X3291263Y1852089D01*
X3291236Y1852162D01*
X3291230Y1852240D01*
X3291109Y1852525D01*
X3291081Y1852655D01*
X3291017Y1852762D01*
X3290931Y1853000D01*
X3290882Y1853060D01*
X3290852Y1853132D01*
X3290635Y1853403D01*
X3290585Y1853487D01*
X3290530Y1853534D01*
X3290437Y1853650D01*
X3289480Y1854607D01*
X3283999Y1867839D01*
X3283999Y1882161D01*
X3289480Y1895393D01*
X3299607Y1905520D01*
X3312839Y1911001D01*
X3387161Y1911001D01*
X3400393Y1905520D01*
X3410520Y1895393D01*
X3416001Y1882161D01*
X3416001Y1867839D01*
X3410520Y1854607D01*
X3400393Y1844480D01*
X3387161Y1838999D01*
X3315213Y1838999D01*
X3314859Y1838941D01*
X3314503Y1838914D01*
X3314384Y1838864D01*
X3314257Y1838843D01*
X3313941Y1838675D01*
X3313611Y1838536D01*
X3313483Y1838433D01*
X3313401Y1838390D01*
X3313313Y1838297D01*
X3313092Y1838121D01*
X3145971Y1670999D01*
X3129213Y1670999D01*
X3128860Y1670941D01*
X3128503Y1670914D01*
X3128384Y1670864D01*
X3128257Y1670843D01*
X3127941Y1670676D01*
X3127611Y1670536D01*
X3127483Y1670433D01*
X3127401Y1670390D01*
X3127313Y1670297D01*
X3127092Y1670121D01*
X3121242Y1664270D01*
X3121077Y1664041D01*
X3120883Y1663837D01*
X3120796Y1663650D01*
X3120676Y1663484D01*
X3120594Y1663214D01*
X3120475Y1662959D01*
X3120452Y1662754D01*
X3120391Y1662558D01*
X3120398Y1662276D01*
X3120367Y1661996D01*
X3120411Y1661795D01*
X3120416Y1661589D01*
X3120513Y1661325D01*
X3120572Y1661049D01*
X3120678Y1660872D01*
X3120748Y1660680D01*
X3120924Y1660459D01*
X3121069Y1660217D01*
X3121225Y1660083D01*
X3121353Y1659923D01*
X3121590Y1659770D01*
X3121804Y1659587D01*
X3121995Y1659510D01*
X3122168Y1659398D01*
X3122441Y1659329D01*
X3122703Y1659224D01*
X3122983Y1659193D01*
X3123107Y1659161D01*
X3123200Y1659168D01*
X3123363Y1659150D01*
X3124139Y1659150D01*
X3127654Y1655635D01*
X3127654Y1611294D01*
X3124139Y1607779D01*
X3075861Y1607779D01*
G37*
%LPD*%
%LPC*%
G36*
X2284367Y356259D02*
X2284367Y356259D01*
X2254168Y364351D01*
X2227091Y379984D01*
X2204984Y402091D01*
X2189351Y429168D01*
X2181259Y459367D01*
X2181259Y490633D01*
X2189378Y520932D01*
X2189424Y521396D01*
X2189476Y521862D01*
X2189473Y521879D01*
X2189474Y521896D01*
X2189370Y522351D01*
X2189271Y522809D01*
X2189262Y522824D01*
X2189258Y522841D01*
X2189012Y523243D01*
X2188775Y523641D01*
X2188762Y523652D01*
X2188753Y523667D01*
X2188392Y523969D01*
X2188039Y524271D01*
X2188023Y524278D01*
X2188010Y524289D01*
X2187572Y524460D01*
X2187141Y524634D01*
X2187121Y524637D01*
X2187108Y524642D01*
X2187049Y524645D01*
X2186481Y524708D01*
X2161428Y524708D01*
X2161150Y524662D01*
X2160868Y524655D01*
X2160675Y524585D01*
X2160472Y524551D01*
X2160223Y524420D01*
X2159958Y524323D01*
X2159797Y524194D01*
X2159616Y524098D01*
X2159422Y523894D01*
X2159202Y523718D01*
X2159090Y523545D01*
X2158949Y523396D01*
X2158830Y523140D01*
X2158677Y522903D01*
X2158627Y522704D01*
X2158540Y522518D01*
X2158509Y522237D01*
X2158440Y521964D01*
X2158456Y521759D01*
X2158433Y521555D01*
X2158493Y521279D01*
X2158514Y520998D01*
X2158595Y520809D01*
X2158638Y520608D01*
X2158782Y520366D01*
X2158893Y520107D01*
X2159069Y519886D01*
X2159134Y519776D01*
X2159205Y519716D01*
X2159307Y519588D01*
X2162281Y516615D01*
X2173465Y489613D01*
X2173465Y460387D01*
X2162281Y433385D01*
X2141615Y412719D01*
X2114613Y401535D01*
X2085387Y401535D01*
X2058385Y412719D01*
X2037719Y433385D01*
X2026535Y460387D01*
X2026535Y489613D01*
X2037719Y516615D01*
X2058385Y537281D01*
X2085387Y548465D01*
X2096709Y548465D01*
X2096785Y548478D01*
X2096862Y548469D01*
X2097262Y548556D01*
X2097665Y548622D01*
X2097733Y548658D01*
X2097809Y548674D01*
X2098160Y548884D01*
X2098521Y549075D01*
X2098574Y549131D01*
X2098641Y549171D01*
X2098906Y549480D01*
X2099188Y549777D01*
X2099221Y549847D01*
X2099271Y549906D01*
X2099424Y550285D01*
X2099597Y550655D01*
X2099605Y550733D01*
X2099634Y550804D01*
X2099708Y551464D01*
X2099708Y621777D01*
X2103223Y625292D01*
X2155078Y625292D01*
X2155432Y625350D01*
X2155788Y625377D01*
X2155907Y625428D01*
X2156034Y625448D01*
X2156350Y625616D01*
X2156680Y625756D01*
X2156808Y625858D01*
X2156890Y625901D01*
X2156978Y625994D01*
X2157199Y626170D01*
X2237121Y706092D01*
X2237330Y706383D01*
X2237563Y706655D01*
X2237611Y706775D01*
X2237686Y706879D01*
X2237791Y707221D01*
X2237926Y707553D01*
X2237944Y707715D01*
X2237971Y707805D01*
X2237968Y707933D01*
X2237999Y708213D01*
X2237999Y725449D01*
X2237987Y725525D01*
X2237995Y725602D01*
X2237909Y726002D01*
X2237843Y726405D01*
X2237807Y726473D01*
X2237790Y726549D01*
X2237581Y726900D01*
X2237390Y727261D01*
X2237334Y727314D01*
X2237294Y727381D01*
X2236984Y727647D01*
X2236688Y727928D01*
X2236617Y727961D01*
X2236558Y728012D01*
X2236180Y728164D01*
X2235809Y728337D01*
X2235732Y728345D01*
X2235660Y728375D01*
X2235000Y728448D01*
X2232751Y728448D01*
X2229235Y731963D01*
X2229235Y776304D01*
X2232751Y779820D01*
X2267249Y779820D01*
X2270764Y776304D01*
X2270764Y731963D01*
X2267249Y728448D01*
X2265000Y728448D01*
X2264923Y728436D01*
X2264846Y728444D01*
X2264446Y728358D01*
X2264044Y728292D01*
X2263975Y728255D01*
X2263899Y728239D01*
X2263548Y728029D01*
X2263188Y727839D01*
X2263134Y727782D01*
X2263068Y727743D01*
X2262802Y727433D01*
X2262520Y727136D01*
X2262487Y727066D01*
X2262437Y727007D01*
X2262284Y726628D01*
X2262112Y726258D01*
X2262103Y726181D01*
X2262074Y726109D01*
X2262001Y725449D01*
X2262001Y697029D01*
X2195383Y630412D01*
X2195219Y630183D01*
X2195025Y629979D01*
X2194938Y629792D01*
X2194818Y629625D01*
X2194735Y629356D01*
X2194616Y629100D01*
X2194594Y628896D01*
X2194533Y628700D01*
X2194540Y628418D01*
X2194509Y628138D01*
X2194553Y627937D01*
X2194558Y627731D01*
X2194654Y627466D01*
X2194714Y627191D01*
X2194820Y627014D01*
X2194890Y626821D01*
X2195066Y626601D01*
X2195211Y626359D01*
X2195367Y626225D01*
X2195495Y626065D01*
X2195732Y625912D01*
X2195946Y625728D01*
X2196137Y625651D01*
X2196310Y625540D01*
X2196583Y625471D01*
X2196608Y625461D01*
X2200292Y621777D01*
X2200292Y550458D01*
X2200337Y550179D01*
X2200345Y549898D01*
X2200415Y549704D01*
X2200448Y549501D01*
X2200580Y549253D01*
X2200677Y548987D01*
X2200805Y548827D01*
X2200901Y548645D01*
X2201105Y548451D01*
X2201282Y548231D01*
X2201455Y548120D01*
X2201604Y547978D01*
X2201860Y547859D01*
X2202096Y547707D01*
X2202296Y547656D01*
X2202482Y547570D01*
X2202762Y547538D01*
X2203036Y547469D01*
X2203240Y547485D01*
X2203445Y547462D01*
X2203721Y547522D01*
X2204002Y547544D01*
X2204191Y547624D01*
X2204392Y547667D01*
X2204634Y547812D01*
X2204893Y547922D01*
X2205114Y548098D01*
X2205224Y548164D01*
X2205284Y548234D01*
X2205412Y548337D01*
X2227091Y570016D01*
X2254168Y585649D01*
X2284367Y593741D01*
X2315633Y593741D01*
X2345832Y585649D01*
X2372908Y570016D01*
X2395016Y547908D01*
X2410649Y520832D01*
X2418741Y490633D01*
X2418741Y459367D01*
X2410649Y429168D01*
X2395016Y402091D01*
X2372908Y379984D01*
X2345832Y364351D01*
X2315633Y356259D01*
X2284367Y356259D01*
G37*
%LPD*%
%LPC*%
G36*
X784367Y356259D02*
X784367Y356259D01*
X754168Y364351D01*
X727091Y379984D01*
X704984Y402091D01*
X689351Y429168D01*
X681259Y459367D01*
X681259Y490633D01*
X689378Y520932D01*
X689424Y521396D01*
X689476Y521862D01*
X689473Y521879D01*
X689474Y521896D01*
X689370Y522351D01*
X689271Y522809D01*
X689262Y522824D01*
X689258Y522841D01*
X689012Y523243D01*
X688775Y523641D01*
X688762Y523652D01*
X688753Y523667D01*
X688392Y523969D01*
X688039Y524271D01*
X688023Y524278D01*
X688010Y524289D01*
X687572Y524460D01*
X687141Y524634D01*
X687121Y524637D01*
X687108Y524642D01*
X687049Y524645D01*
X686481Y524708D01*
X661428Y524708D01*
X661150Y524662D01*
X660868Y524655D01*
X660675Y524585D01*
X660472Y524551D01*
X660223Y524420D01*
X659958Y524323D01*
X659797Y524194D01*
X659616Y524098D01*
X659422Y523894D01*
X659202Y523718D01*
X659090Y523545D01*
X658949Y523396D01*
X658830Y523140D01*
X658677Y522903D01*
X658627Y522704D01*
X658540Y522518D01*
X658509Y522237D01*
X658440Y521964D01*
X658456Y521759D01*
X658433Y521555D01*
X658493Y521279D01*
X658514Y520998D01*
X658595Y520809D01*
X658638Y520608D01*
X658782Y520366D01*
X658893Y520107D01*
X659069Y519886D01*
X659134Y519776D01*
X659205Y519716D01*
X659307Y519588D01*
X662281Y516615D01*
X673465Y489613D01*
X673465Y460387D01*
X662281Y433385D01*
X641615Y412719D01*
X614613Y401535D01*
X585387Y401535D01*
X558385Y412719D01*
X537719Y433385D01*
X526535Y460387D01*
X526535Y489613D01*
X537719Y516615D01*
X558385Y537281D01*
X585387Y548465D01*
X596709Y548465D01*
X596785Y548478D01*
X596862Y548469D01*
X597262Y548556D01*
X597665Y548622D01*
X597733Y548658D01*
X597809Y548674D01*
X598160Y548884D01*
X598521Y549075D01*
X598574Y549131D01*
X598641Y549171D01*
X598906Y549480D01*
X599188Y549777D01*
X599221Y549847D01*
X599271Y549906D01*
X599424Y550285D01*
X599597Y550655D01*
X599605Y550733D01*
X599634Y550804D01*
X599708Y551464D01*
X599708Y621777D01*
X603223Y625292D01*
X652078Y625292D01*
X652432Y625350D01*
X652788Y625377D01*
X652907Y625428D01*
X653034Y625448D01*
X653350Y625616D01*
X653680Y625756D01*
X653808Y625858D01*
X653890Y625901D01*
X653978Y625994D01*
X654199Y626170D01*
X734121Y706092D01*
X734330Y706383D01*
X734563Y706655D01*
X734611Y706775D01*
X734686Y706879D01*
X734791Y707221D01*
X734926Y707553D01*
X734944Y707715D01*
X734971Y707805D01*
X734968Y707933D01*
X734999Y708213D01*
X734999Y725449D01*
X734987Y725525D01*
X734995Y725602D01*
X734909Y726002D01*
X734843Y726405D01*
X734807Y726473D01*
X734790Y726549D01*
X734581Y726900D01*
X734390Y727261D01*
X734334Y727314D01*
X734294Y727381D01*
X733984Y727647D01*
X733688Y727928D01*
X733617Y727961D01*
X733558Y728012D01*
X733180Y728164D01*
X732908Y728291D01*
X729235Y731963D01*
X729235Y776304D01*
X732751Y779820D01*
X767249Y779820D01*
X770764Y776304D01*
X770764Y731963D01*
X767249Y728448D01*
X762000Y728448D01*
X761923Y728436D01*
X761846Y728444D01*
X761446Y728358D01*
X761044Y728292D01*
X760975Y728255D01*
X760899Y728239D01*
X760548Y728029D01*
X760188Y727839D01*
X760134Y727782D01*
X760068Y727743D01*
X759802Y727433D01*
X759520Y727136D01*
X759487Y727066D01*
X759437Y727007D01*
X759284Y726628D01*
X759112Y726258D01*
X759103Y726181D01*
X759074Y726109D01*
X759001Y725449D01*
X759001Y697029D01*
X692383Y630412D01*
X692219Y630183D01*
X692025Y629979D01*
X691938Y629792D01*
X691818Y629625D01*
X691735Y629356D01*
X691616Y629100D01*
X691594Y628896D01*
X691533Y628700D01*
X691540Y628418D01*
X691509Y628138D01*
X691553Y627937D01*
X691558Y627731D01*
X691654Y627466D01*
X691714Y627191D01*
X691820Y627014D01*
X691890Y626821D01*
X692066Y626601D01*
X692211Y626359D01*
X692367Y626225D01*
X692495Y626065D01*
X692732Y625912D01*
X692946Y625728D01*
X693137Y625651D01*
X693310Y625540D01*
X693583Y625471D01*
X693844Y625366D01*
X694125Y625334D01*
X694249Y625303D01*
X694342Y625310D01*
X694504Y625292D01*
X696777Y625292D01*
X700292Y621777D01*
X700292Y550458D01*
X700337Y550179D01*
X700345Y549898D01*
X700415Y549704D01*
X700448Y549501D01*
X700580Y549253D01*
X700677Y548987D01*
X700805Y548827D01*
X700901Y548645D01*
X701105Y548451D01*
X701282Y548231D01*
X701455Y548120D01*
X701604Y547978D01*
X701860Y547859D01*
X702096Y547707D01*
X702296Y547656D01*
X702482Y547570D01*
X702762Y547538D01*
X703036Y547469D01*
X703240Y547485D01*
X703445Y547462D01*
X703721Y547522D01*
X704002Y547544D01*
X704191Y547624D01*
X704392Y547667D01*
X704634Y547812D01*
X704893Y547922D01*
X705114Y548098D01*
X705224Y548164D01*
X705284Y548234D01*
X705412Y548337D01*
X727091Y570016D01*
X754168Y585649D01*
X784367Y593741D01*
X815633Y593741D01*
X845832Y585649D01*
X872908Y570016D01*
X895016Y547908D01*
X910649Y520832D01*
X918741Y490633D01*
X918741Y459367D01*
X910649Y429168D01*
X895016Y402091D01*
X872908Y379984D01*
X845832Y364351D01*
X815633Y356259D01*
X784367Y356259D01*
G37*
%LPD*%
%LPC*%
G36*
X316829Y649960D02*
X316829Y649960D01*
X291386Y656777D01*
X268574Y669948D01*
X249948Y688574D01*
X236777Y711386D01*
X229960Y736829D01*
X229960Y763171D01*
X236777Y788614D01*
X249948Y811426D01*
X268574Y830052D01*
X291386Y843223D01*
X316829Y850040D01*
X343171Y850040D01*
X368614Y843223D01*
X391426Y830052D01*
X410052Y811426D01*
X423223Y788614D01*
X430040Y763171D01*
X430040Y736829D01*
X423223Y711386D01*
X410052Y688574D01*
X391426Y669948D01*
X368614Y656777D01*
X343171Y649960D01*
X316829Y649960D01*
G37*
%LPD*%
%LPC*%
G36*
X1256829Y649960D02*
X1256829Y649960D01*
X1231386Y656777D01*
X1208574Y669948D01*
X1189948Y688574D01*
X1176777Y711386D01*
X1169960Y736829D01*
X1169960Y763171D01*
X1176777Y788614D01*
X1189948Y811426D01*
X1208574Y830052D01*
X1231386Y843223D01*
X1256829Y850040D01*
X1283171Y850040D01*
X1308614Y843223D01*
X1331426Y830052D01*
X1350052Y811426D01*
X1363223Y788614D01*
X1370040Y763171D01*
X1370040Y736829D01*
X1363223Y711386D01*
X1350052Y688574D01*
X1331426Y669948D01*
X1308614Y656777D01*
X1283171Y649960D01*
X1256829Y649960D01*
G37*
%LPD*%
%LPC*%
G36*
X1816829Y649960D02*
X1816829Y649960D01*
X1791386Y656777D01*
X1768574Y669948D01*
X1749948Y688574D01*
X1736777Y711386D01*
X1729960Y736829D01*
X1729960Y763171D01*
X1736777Y788614D01*
X1749948Y811426D01*
X1768574Y830052D01*
X1791386Y843223D01*
X1816829Y850040D01*
X1843171Y850040D01*
X1868614Y843223D01*
X1891426Y830052D01*
X1910052Y811426D01*
X1923223Y788614D01*
X1930040Y763171D01*
X1930040Y736829D01*
X1923223Y711386D01*
X1910052Y688574D01*
X1891426Y669948D01*
X1868614Y656777D01*
X1843171Y649960D01*
X1816829Y649960D01*
G37*
%LPD*%
%LPC*%
G36*
X2756829Y649960D02*
X2756829Y649960D01*
X2731386Y656777D01*
X2708574Y669948D01*
X2689948Y688574D01*
X2676777Y711386D01*
X2669960Y736829D01*
X2669960Y763171D01*
X2676777Y788614D01*
X2689948Y811426D01*
X2708574Y830052D01*
X2731386Y843223D01*
X2756829Y850040D01*
X2783171Y850040D01*
X2808614Y843223D01*
X2831426Y830052D01*
X2850052Y811426D01*
X2863223Y788614D01*
X2870040Y763171D01*
X2870040Y736829D01*
X2863223Y711386D01*
X2850052Y688574D01*
X2831426Y669948D01*
X2808614Y656777D01*
X2783171Y649960D01*
X2756829Y649960D01*
G37*
%LPD*%
%LPC*%
G36*
X2485387Y401535D02*
X2485387Y401535D01*
X2458385Y412719D01*
X2437719Y433385D01*
X2426535Y460387D01*
X2426535Y489613D01*
X2437719Y516615D01*
X2458385Y537281D01*
X2485387Y548465D01*
X2514613Y548465D01*
X2541615Y537281D01*
X2562281Y516615D01*
X2573465Y489613D01*
X2573465Y460387D01*
X2562281Y433385D01*
X2541615Y412719D01*
X2514613Y401535D01*
X2485387Y401535D01*
G37*
%LPD*%
%LPC*%
G36*
X985387Y401535D02*
X985387Y401535D01*
X958385Y412719D01*
X937719Y433385D01*
X926535Y460387D01*
X926535Y489613D01*
X937719Y516615D01*
X958385Y537281D01*
X985387Y548465D01*
X1014613Y548465D01*
X1041615Y537281D01*
X1062281Y516615D01*
X1073465Y489613D01*
X1073465Y460387D01*
X1062281Y433385D01*
X1041615Y412719D01*
X1014613Y401535D01*
X985387Y401535D01*
G37*
%LPD*%
%LPC*%
G36*
X475270Y1371755D02*
X475270Y1371755D01*
X471755Y1375270D01*
X471755Y1474730D01*
X475270Y1478245D01*
X574730Y1478245D01*
X578245Y1474730D01*
X578245Y1375270D01*
X574730Y1371755D01*
X475270Y1371755D01*
G37*
%LPD*%
%LPC*%
G36*
X2725270Y1371755D02*
X2725270Y1371755D01*
X2721755Y1375270D01*
X2721755Y1474730D01*
X2725270Y1478245D01*
X2824730Y1478245D01*
X2828245Y1474730D01*
X2828245Y1375270D01*
X2824730Y1371755D01*
X2725270Y1371755D01*
G37*
%LPD*%
%LPC*%
G36*
X1225270Y1371755D02*
X1225270Y1371755D01*
X1221755Y1375270D01*
X1221755Y1474730D01*
X1225270Y1478245D01*
X1324730Y1478245D01*
X1328245Y1474730D01*
X1328245Y1375270D01*
X1324730Y1371755D01*
X1225270Y1371755D01*
G37*
%LPD*%
%LPC*%
G36*
X2725270Y2871755D02*
X2725270Y2871755D01*
X2721755Y2875270D01*
X2721755Y2974730D01*
X2725270Y2978245D01*
X2824730Y2978245D01*
X2828245Y2974730D01*
X2828245Y2875270D01*
X2824730Y2871755D01*
X2725270Y2871755D01*
G37*
%LPD*%
%LPC*%
G36*
X475270Y2871755D02*
X475270Y2871755D01*
X471755Y2875270D01*
X471755Y2974730D01*
X475270Y2978245D01*
X574730Y2978245D01*
X578245Y2974730D01*
X578245Y2875270D01*
X574730Y2871755D01*
X475270Y2871755D01*
G37*
%LPD*%
%LPC*%
G36*
X1225270Y2871755D02*
X1225270Y2871755D01*
X1221755Y2875270D01*
X1221755Y2974730D01*
X1225270Y2978245D01*
X1324730Y2978245D01*
X1328245Y2974730D01*
X1328245Y2875270D01*
X1324730Y2871755D01*
X1225270Y2871755D01*
G37*
%LPD*%
%LPC*%
G36*
X475270Y2121755D02*
X475270Y2121755D01*
X471755Y2125270D01*
X471755Y2224730D01*
X475270Y2228245D01*
X574730Y2228245D01*
X578245Y2224730D01*
X578245Y2125270D01*
X574730Y2121755D01*
X475270Y2121755D01*
G37*
%LPD*%
%LPC*%
G36*
X2725270Y2121755D02*
X2725270Y2121755D01*
X2721755Y2125270D01*
X2721755Y2224730D01*
X2725270Y2228245D01*
X2824730Y2228245D01*
X2828245Y2224730D01*
X2828245Y2125270D01*
X2824730Y2121755D01*
X2725270Y2121755D01*
G37*
%LPD*%
%LPC*%
G36*
X1975270Y2121755D02*
X1975270Y2121755D01*
X1971755Y2125270D01*
X1971755Y2224730D01*
X1975270Y2228245D01*
X2074730Y2228245D01*
X2078245Y2224730D01*
X2078245Y2125270D01*
X2074730Y2121755D01*
X1975270Y2121755D01*
G37*
%LPD*%
%LPC*%
G36*
X1225270Y2121755D02*
X1225270Y2121755D01*
X1221755Y2125270D01*
X1221755Y2224730D01*
X1225270Y2228245D01*
X1324730Y2228245D01*
X1328245Y2224730D01*
X1328245Y2125270D01*
X1324730Y2121755D01*
X1225270Y2121755D01*
G37*
%LPD*%
%LPC*%
G36*
X1975270Y2871755D02*
X1975270Y2871755D01*
X1971755Y2875270D01*
X1971755Y2974730D01*
X1975270Y2978245D01*
X2074730Y2978245D01*
X2078245Y2974730D01*
X2078245Y2875270D01*
X2074730Y2871755D01*
X1975270Y2871755D01*
G37*
%LPD*%
%LPC*%
G36*
X1975270Y1371755D02*
X1975270Y1371755D01*
X1971755Y1375270D01*
X1971755Y1474730D01*
X1975270Y1478245D01*
X2074730Y1478245D01*
X2078245Y1474730D01*
X2078245Y1375270D01*
X2074730Y1371755D01*
X1975270Y1371755D01*
G37*
%LPD*%
%LPC*%
G36*
X853223Y624708D02*
X853223Y624708D01*
X849708Y628223D01*
X849708Y721777D01*
X853223Y725292D01*
X946777Y725292D01*
X950292Y721777D01*
X950292Y628223D01*
X946777Y624708D01*
X853223Y624708D01*
G37*
%LPD*%
%LPC*%
G36*
X2353223Y624708D02*
X2353223Y624708D01*
X2349708Y628223D01*
X2349708Y721777D01*
X2353223Y725292D01*
X2446777Y725292D01*
X2450292Y721777D01*
X2450292Y628223D01*
X2446777Y624708D01*
X2353223Y624708D01*
G37*
%LPD*%
%LPC*%
G36*
X1542839Y3233999D02*
X1542839Y3233999D01*
X1529607Y3239480D01*
X1519480Y3249607D01*
X1513999Y3262839D01*
X1513999Y3337161D01*
X1519480Y3350393D01*
X1529607Y3360520D01*
X1542839Y3366001D01*
X1557161Y3366001D01*
X1570393Y3360520D01*
X1580520Y3350393D01*
X1586001Y3337161D01*
X1586001Y3262839D01*
X1580520Y3249607D01*
X1570393Y3239480D01*
X1557161Y3233999D01*
X1542839Y3233999D01*
G37*
%LPD*%
%LPC*%
G36*
X1442839Y3233999D02*
X1442839Y3233999D01*
X1429607Y3239480D01*
X1419480Y3249607D01*
X1413999Y3262839D01*
X1413999Y3337161D01*
X1419480Y3350393D01*
X1429607Y3360520D01*
X1442839Y3366001D01*
X1457161Y3366001D01*
X1470393Y3360520D01*
X1480520Y3350393D01*
X1486001Y3337161D01*
X1486001Y3262839D01*
X1480520Y3249607D01*
X1470393Y3239480D01*
X1457161Y3233999D01*
X1442839Y3233999D01*
G37*
%LPD*%
%LPC*%
G36*
X1642839Y3233999D02*
X1642839Y3233999D01*
X1629607Y3239480D01*
X1619480Y3249607D01*
X1613999Y3262839D01*
X1613999Y3337161D01*
X1619480Y3350393D01*
X1629607Y3360520D01*
X1642839Y3366001D01*
X1657161Y3366001D01*
X1670393Y3360520D01*
X1680520Y3350393D01*
X1686001Y3337161D01*
X1686001Y3262839D01*
X1680520Y3249607D01*
X1670393Y3239480D01*
X1657161Y3233999D01*
X1642839Y3233999D01*
G37*
%LPD*%
%LPC*%
G36*
X3312839Y913999D02*
X3312839Y913999D01*
X3299607Y919480D01*
X3289480Y929607D01*
X3283999Y942839D01*
X3283999Y957161D01*
X3289480Y970393D01*
X3299607Y980520D01*
X3312839Y986001D01*
X3387161Y986001D01*
X3400393Y980520D01*
X3410520Y970393D01*
X3416001Y957161D01*
X3416001Y942839D01*
X3410520Y929607D01*
X3400393Y919480D01*
X3387161Y913999D01*
X3312839Y913999D01*
G37*
%LPD*%
%LPC*%
G36*
X1342839Y3233999D02*
X1342839Y3233999D01*
X1329607Y3239480D01*
X1319480Y3249607D01*
X1313999Y3262839D01*
X1313999Y3337161D01*
X1319480Y3350393D01*
X1329607Y3360520D01*
X1342839Y3366001D01*
X1357161Y3366001D01*
X1370393Y3360520D01*
X1380520Y3350393D01*
X1386001Y3337161D01*
X1386001Y3262839D01*
X1380520Y3249607D01*
X1370393Y3239480D01*
X1357161Y3233999D01*
X1342839Y3233999D01*
G37*
%LPD*%
%LPC*%
G36*
X3312839Y1113999D02*
X3312839Y1113999D01*
X3299607Y1119480D01*
X3289480Y1129607D01*
X3283999Y1142839D01*
X3283999Y1157161D01*
X3289480Y1170393D01*
X3299607Y1180520D01*
X3312839Y1186001D01*
X3387161Y1186001D01*
X3400393Y1180520D01*
X3410520Y1170393D01*
X3416001Y1157161D01*
X3416001Y1142839D01*
X3410520Y1129607D01*
X3400393Y1119480D01*
X3387161Y1113999D01*
X3312839Y1113999D01*
G37*
%LPD*%
%LPC*%
G36*
X3312839Y1013999D02*
X3312839Y1013999D01*
X3299607Y1019480D01*
X3289480Y1029607D01*
X3283999Y1042839D01*
X3283999Y1057161D01*
X3289480Y1070393D01*
X3299607Y1080520D01*
X3312839Y1086001D01*
X3387161Y1086001D01*
X3400393Y1080520D01*
X3410520Y1070393D01*
X3416001Y1057161D01*
X3416001Y1042839D01*
X3410520Y1029607D01*
X3400393Y1019480D01*
X3387161Y1013999D01*
X3312839Y1013999D01*
G37*
%LPD*%
%LPC*%
G36*
X3355999Y1255999D02*
X3355999Y1255999D01*
X3355999Y1290000D01*
X3383148Y1290001D01*
X3389367Y1289016D01*
X3395355Y1287070D01*
X3400965Y1284212D01*
X3406058Y1280511D01*
X3410511Y1276058D01*
X3414212Y1270965D01*
X3417070Y1265355D01*
X3419016Y1259367D01*
X3419549Y1255999D01*
X3355999Y1255999D01*
G37*
%LPD*%
%LPC*%
G36*
X3280451Y1255999D02*
X3280451Y1255999D01*
X3280984Y1259367D01*
X3282930Y1265355D01*
X3285788Y1270965D01*
X3289489Y1276058D01*
X3293941Y1280511D01*
X3299035Y1284212D01*
X3304645Y1287070D01*
X3310633Y1289016D01*
X3316852Y1290001D01*
X3344001Y1290001D01*
X3344001Y1255999D01*
X3280451Y1255999D01*
G37*
%LPD*%
%LPC*%
G36*
X3355999Y1209999D02*
X3355999Y1209999D01*
X3355999Y1244001D01*
X3419549Y1244001D01*
X3419016Y1240633D01*
X3417070Y1234645D01*
X3414212Y1229035D01*
X3410511Y1223941D01*
X3406058Y1219489D01*
X3400965Y1215788D01*
X3395355Y1212930D01*
X3389367Y1210984D01*
X3383148Y1209999D01*
X3355999Y1209999D01*
G37*
%LPD*%
%LPC*%
G36*
X3316852Y1209999D02*
X3316852Y1209999D01*
X3310633Y1210984D01*
X3304645Y1212930D01*
X3299035Y1215788D01*
X3293941Y1219489D01*
X3289489Y1223941D01*
X3285788Y1229035D01*
X3282930Y1234645D01*
X3280984Y1240633D01*
X3280451Y1244001D01*
X3344001Y1244001D01*
X3344001Y1209999D01*
X3316852Y1209999D01*
G37*
%LPD*%
%LPC*%
G36*
X3105999Y2389463D02*
X3105999Y2389463D01*
X3105999Y2413150D01*
X3122970Y2413150D01*
X3125514Y2412469D01*
X3127794Y2411152D01*
X3129656Y2409290D01*
X3130973Y2407010D01*
X3131654Y2404466D01*
X3131654Y2389463D01*
X3105999Y2389463D01*
G37*
%LPD*%
%LPC*%
G36*
X3105999Y822534D02*
X3105999Y822534D01*
X3105999Y846221D01*
X3122970Y846221D01*
X3125514Y845540D01*
X3127794Y844223D01*
X3129656Y842361D01*
X3130973Y840080D01*
X3131654Y837537D01*
X3131654Y822534D01*
X3105999Y822534D01*
G37*
%LPD*%
%LPC*%
G36*
X3105999Y3072534D02*
X3105999Y3072534D01*
X3105999Y3096221D01*
X3122970Y3096221D01*
X3125514Y3095540D01*
X3127794Y3094223D01*
X3129656Y3092361D01*
X3130973Y3090080D01*
X3131654Y3087537D01*
X3131654Y3072534D01*
X3105999Y3072534D01*
G37*
%LPD*%
%LPC*%
G36*
X3105999Y1572534D02*
X3105999Y1572534D01*
X3105999Y1596221D01*
X3122970Y1596221D01*
X3125514Y1595540D01*
X3127794Y1594223D01*
X3129656Y1592361D01*
X3130973Y1590080D01*
X3131654Y1587537D01*
X3131654Y1572534D01*
X3105999Y1572534D01*
G37*
%LPD*%
%LPC*%
G36*
X3068346Y822534D02*
X3068346Y822534D01*
X3068346Y837537D01*
X3069027Y840080D01*
X3070344Y842361D01*
X3072206Y844223D01*
X3074486Y845540D01*
X3077030Y846221D01*
X3094001Y846221D01*
X3094001Y822534D01*
X3068346Y822534D01*
G37*
%LPD*%
%LPC*%
G36*
X3068346Y2389463D02*
X3068346Y2389463D01*
X3068346Y2404466D01*
X3069027Y2407010D01*
X3070344Y2409290D01*
X3072206Y2411152D01*
X3074486Y2412469D01*
X3077030Y2413150D01*
X3094001Y2413150D01*
X3094001Y2389463D01*
X3068346Y2389463D01*
G37*
%LPD*%
%LPC*%
G36*
X3068346Y3072534D02*
X3068346Y3072534D01*
X3068346Y3087537D01*
X3069027Y3090080D01*
X3070344Y3092361D01*
X3072206Y3094223D01*
X3074486Y3095540D01*
X3077030Y3096221D01*
X3094001Y3096221D01*
X3094001Y3072534D01*
X3068346Y3072534D01*
G37*
%LPD*%
%LPC*%
G36*
X3068346Y1572534D02*
X3068346Y1572534D01*
X3068346Y1587537D01*
X3069027Y1590080D01*
X3070344Y1592361D01*
X3072206Y1594223D01*
X3074486Y1595540D01*
X3077030Y1596221D01*
X3094001Y1596221D01*
X3094001Y1572534D01*
X3068346Y1572534D01*
G37*
%LPD*%
%LPC*%
G36*
X3105999Y2353779D02*
X3105999Y2353779D01*
X3105999Y2377465D01*
X3131654Y2377465D01*
X3131654Y2362463D01*
X3130973Y2359919D01*
X3129656Y2357639D01*
X3127794Y2355777D01*
X3125514Y2354460D01*
X3122970Y2353779D01*
X3105999Y2353779D01*
G37*
%LPD*%
%LPC*%
G36*
X3105999Y3036850D02*
X3105999Y3036850D01*
X3105999Y3060536D01*
X3131654Y3060536D01*
X3131654Y3045534D01*
X3130973Y3042990D01*
X3129656Y3040710D01*
X3127794Y3038848D01*
X3125514Y3037531D01*
X3122970Y3036850D01*
X3105999Y3036850D01*
G37*
%LPD*%
%LPC*%
G36*
X3105999Y786850D02*
X3105999Y786850D01*
X3105999Y810536D01*
X3131654Y810536D01*
X3131654Y795534D01*
X3130973Y792990D01*
X3129656Y790710D01*
X3127794Y788848D01*
X3125514Y787531D01*
X3122970Y786850D01*
X3105999Y786850D01*
G37*
%LPD*%
%LPC*%
G36*
X3105999Y1536850D02*
X3105999Y1536850D01*
X3105999Y1560536D01*
X3131654Y1560536D01*
X3131654Y1545534D01*
X3130973Y1542990D01*
X3129656Y1540710D01*
X3127794Y1538848D01*
X3125514Y1537531D01*
X3122970Y1536850D01*
X3105999Y1536850D01*
G37*
%LPD*%
%LPC*%
G36*
X3077030Y2353779D02*
X3077030Y2353779D01*
X3074486Y2354460D01*
X3072206Y2355777D01*
X3070344Y2357639D01*
X3069027Y2359919D01*
X3068346Y2362463D01*
X3068346Y2377465D01*
X3094001Y2377465D01*
X3094001Y2353779D01*
X3077030Y2353779D01*
G37*
%LPD*%
%LPC*%
G36*
X3077030Y3036850D02*
X3077030Y3036850D01*
X3074486Y3037531D01*
X3072206Y3038848D01*
X3070344Y3040710D01*
X3069027Y3042990D01*
X3068346Y3045534D01*
X3068346Y3060536D01*
X3094001Y3060536D01*
X3094001Y3036850D01*
X3077030Y3036850D01*
G37*
%LPD*%
%LPC*%
G36*
X3077030Y1536850D02*
X3077030Y1536850D01*
X3074486Y1537531D01*
X3072206Y1538848D01*
X3070344Y1540710D01*
X3069027Y1542990D01*
X3068346Y1545534D01*
X3068346Y1560536D01*
X3094001Y1560536D01*
X3094001Y1536850D01*
X3077030Y1536850D01*
G37*
%LPD*%
%LPC*%
G36*
X3077030Y786850D02*
X3077030Y786850D01*
X3074486Y787531D01*
X3072206Y788848D01*
X3070344Y790710D01*
X3069027Y792990D01*
X3068346Y795534D01*
X3068346Y810536D01*
X3094001Y810536D01*
X3094001Y786850D01*
X3077030Y786850D01*
G37*
%LPD*%
%LPC*%
G36*
X3349999Y1249999D02*
X3349999Y1249999D01*
X3349999Y1250001D01*
X3350001Y1250001D01*
X3350001Y1249999D01*
X3349999Y1249999D01*
G37*
%LPD*%
%LPC*%
G36*
X3099999Y2383463D02*
X3099999Y2383463D01*
X3099999Y2383466D01*
X3100001Y2383466D01*
X3100001Y2383463D01*
X3099999Y2383463D01*
G37*
%LPD*%
%LPC*%
G36*
X3099999Y3066534D02*
X3099999Y3066534D01*
X3099999Y3066537D01*
X3100001Y3066537D01*
X3100001Y3066534D01*
X3099999Y3066534D01*
G37*
%LPD*%
%LPC*%
G36*
X3099999Y1566534D02*
X3099999Y1566534D01*
X3099999Y1566537D01*
X3100001Y1566537D01*
X3100001Y1566534D01*
X3099999Y1566534D01*
G37*
%LPD*%
%LPC*%
G36*
X3099999Y816534D02*
X3099999Y816534D01*
X3099999Y816537D01*
X3100001Y816537D01*
X3100001Y816534D01*
X3099999Y816534D01*
G37*
%LPD*%
D10*
X375000Y3145866D03*
X375000Y3004134D03*
X375000Y1645866D03*
X375000Y1504134D03*
X1125000Y1645866D03*
X1125000Y1504134D03*
X1875000Y1645866D03*
X1875000Y1504134D03*
X2625000Y1645866D03*
X2625000Y1504134D03*
X1125000Y3145866D03*
X1125000Y3004134D03*
X375000Y2395866D03*
X375000Y2254134D03*
X1125000Y2395866D03*
X1125000Y2254134D03*
X1875000Y3145866D03*
X1875000Y3004134D03*
X2625000Y3145866D03*
X2625000Y3004134D03*
X1875000Y2395866D03*
X1875000Y2254134D03*
X2625000Y2395866D03*
X2625000Y2254134D03*
D11*
X3100000Y3066535D03*
X3100000Y3133465D03*
X3100000Y2383465D03*
X3100000Y2316535D03*
X3100000Y1566535D03*
X3100000Y1633465D03*
D12*
X1650000Y3270000D02*
X1650000Y3330000D01*
X1550000Y3330000D02*
X1550000Y3270000D01*
X1450000Y3270000D02*
X1450000Y3330000D01*
X1350000Y3330000D02*
X1350000Y3270000D01*
D13*
X275000Y2825000D03*
X525000Y2925000D03*
X2525000Y2075000D03*
X2775000Y2175000D03*
X2525000Y1325000D03*
X2775000Y1425000D03*
X2525000Y2825000D03*
X2775000Y2925000D03*
X275000Y2075000D03*
X525000Y2175000D03*
X275000Y1325000D03*
X525000Y1425000D03*
X1025000Y2825000D03*
X1275000Y2925000D03*
X1025000Y2075000D03*
X1275000Y2175000D03*
X1025000Y1325000D03*
X1275000Y1425000D03*
X1775000Y2825000D03*
X2025000Y2925000D03*
X1775000Y2075000D03*
X2025000Y2175000D03*
X1775000Y1325000D03*
X2025000Y1425000D03*
D14*
X2150000Y575000D03*
X2400000Y675000D03*
X650000Y575000D03*
X900000Y675000D03*
D10*
X2250000Y895866D03*
X2250000Y754134D03*
X750000Y895866D03*
X750000Y754134D03*
D11*
X3100000Y816535D03*
X3100000Y883465D03*
D12*
X3320000Y1775000D02*
X3380000Y1775000D01*
X3380000Y1875000D02*
X3320000Y1875000D01*
X3320000Y1975000D02*
X3380000Y1975000D01*
X3380000Y2075000D02*
X3320000Y2075000D01*
X3320000Y950000D02*
X3380000Y950000D01*
X3380000Y1050000D02*
X3320000Y1050000D01*
X3320000Y1150000D02*
X3380000Y1150000D01*
X3380000Y1250000D02*
X3320000Y1250000D01*
D15*
X2988000Y2394000D02*
X2628000Y2394000D01*
X2988000Y2394000D02*
X3069000Y2313000D01*
X3096000Y2313000D01*
X2628000Y2394000D02*
X2625000Y2395866D01*
X3096000Y2313000D02*
X3100000Y2316535D01*
X3330000Y1980000D02*
X3348000Y1980000D01*
X3330000Y1980000D02*
X3105000Y2205000D01*
X3105000Y2313000D01*
X3348000Y1980000D02*
X3350000Y1975000D01*
X3105000Y2313000D02*
X3100000Y2316535D01*
X1125000Y2394000D02*
X378000Y2394000D01*
X375000Y2395866D01*
X1125000Y2394000D02*
X1872000Y2394000D01*
X1875000Y2395866D01*
X1125000Y2395866D02*
X1125000Y2394000D01*
X1881000Y2394000D02*
X2619000Y2394000D01*
X2625000Y2395866D01*
X1881000Y2394000D02*
X1875000Y2395866D01*
X2628000Y1647000D02*
X3051000Y1647000D01*
X3069000Y1629000D01*
X3096000Y1629000D01*
X2628000Y1647000D02*
X2625000Y1645866D01*
X3096000Y1629000D02*
X3100000Y1633465D01*
X3330000Y1872000D02*
X3348000Y1872000D01*
X3330000Y1872000D02*
X3141000Y1683000D01*
X3123000Y1683000D01*
X3096000Y1656000D01*
X3096000Y1638000D01*
X3348000Y1872000D02*
X3350000Y1875000D01*
X3096000Y1638000D02*
X3100000Y1633465D01*
X1125000Y1647000D02*
X378000Y1647000D01*
X375000Y1645866D01*
X1125000Y1647000D02*
X1872000Y1647000D01*
X1875000Y1645866D01*
X1125000Y1647000D02*
X1125000Y1645866D01*
X1881000Y1647000D02*
X2619000Y1647000D01*
X2625000Y1645866D01*
X1881000Y1647000D02*
X1875000Y1645866D01*
X1125000Y3150000D02*
X378000Y3150000D01*
X375000Y3145866D01*
X1125000Y3150000D02*
X1872000Y3150000D01*
X1875000Y3145866D01*
X1125000Y3145866D02*
X1125000Y3150000D01*
X2628000Y3150000D02*
X3051000Y3150000D01*
X3060000Y3141000D02*
X3078000Y3123000D01*
X3060000Y3141000D02*
X3051000Y3150000D01*
X3078000Y3123000D02*
X3087000Y3123000D01*
X3096000Y3132000D01*
X2628000Y3150000D02*
X2625000Y3145866D01*
X3096000Y3132000D02*
X3100000Y3133465D01*
X3060000Y3141000D02*
X3051000Y3132000D01*
X2619000Y3150000D02*
X1881000Y3150000D01*
X1875000Y3145866D01*
X2619000Y3150000D02*
X2625000Y3145866D01*
X3350000Y3050000D02*
X3350000Y2075000D01*
X3266535Y3133465D02*
X3100000Y3133465D01*
X3266535Y3133465D02*
X3350000Y3050000D01*
X1125000Y2254134D02*
X1125000Y2205000D01*
X1026000Y2106000D01*
X1026000Y2079000D01*
X1025000Y2075000D01*
X1125000Y2952000D02*
X1125000Y3004134D01*
X1125000Y2952000D02*
X1026000Y2853000D01*
X1026000Y2826000D01*
X1025000Y2825000D01*
X2628000Y2250000D02*
X2628000Y2205000D01*
X2529000Y2106000D01*
X2529000Y2079000D01*
X2628000Y2250000D02*
X2625000Y2254134D01*
X2529000Y2079000D02*
X2525000Y2075000D01*
X2628000Y2961000D02*
X2628000Y2997000D01*
X2628000Y2961000D02*
X2529000Y2862000D01*
X2529000Y2826000D01*
X2628000Y2997000D02*
X2625000Y3004134D01*
X2529000Y2826000D02*
X2525000Y2825000D01*
X1125000Y1504134D02*
X1125000Y1458000D01*
X1026000Y1359000D01*
X1026000Y1332000D01*
X1025000Y1325000D01*
X2628000Y1458000D02*
X2628000Y1503000D01*
X2628000Y1458000D02*
X2529000Y1359000D01*
X2529000Y1332000D01*
X2625000Y1504134D02*
X2628000Y1503000D01*
X2529000Y1332000D02*
X2525000Y1325000D01*
X378000Y1458000D02*
X378000Y1503000D01*
X378000Y1458000D02*
X279000Y1359000D01*
X279000Y1332000D01*
X375000Y1504134D02*
X378000Y1503000D01*
X279000Y1332000D02*
X275000Y1325000D01*
X378000Y2961000D02*
X378000Y2997000D01*
X378000Y2961000D02*
X279000Y2862000D01*
X279000Y2826000D01*
X378000Y2997000D02*
X375000Y3004134D01*
X279000Y2826000D02*
X275000Y2825000D01*
X378000Y2250000D02*
X378000Y2205000D01*
X279000Y2106000D01*
X279000Y2079000D01*
X378000Y2250000D02*
X375000Y2254134D01*
X279000Y2079000D02*
X275000Y2075000D01*
X1872000Y2952000D02*
X1872000Y2997000D01*
X1872000Y2952000D02*
X1782000Y2862000D01*
X1782000Y2826000D01*
X1872000Y2997000D02*
X1875000Y3004134D01*
X1782000Y2826000D02*
X1775000Y2825000D01*
X1872000Y2250000D02*
X1872000Y2205000D01*
X1782000Y2115000D01*
X1782000Y2079000D01*
X1872000Y2250000D02*
X1875000Y2254134D01*
X1782000Y2079000D02*
X1775000Y2075000D01*
X1872000Y1503000D02*
X1872000Y1449000D01*
X1782000Y1359000D01*
X1782000Y1332000D01*
X1872000Y1503000D02*
X1875000Y1504134D01*
X1782000Y1332000D02*
X1775000Y1325000D01*
X2250000Y754134D02*
X2250000Y702000D01*
X2151000Y603000D01*
X2151000Y576000D01*
X2150000Y575000D01*
X747000Y702000D02*
X747000Y747000D01*
X747000Y702000D02*
X657000Y612000D01*
X657000Y576000D01*
X747000Y747000D02*
X750000Y754134D01*
X657000Y576000D02*
X650000Y575000D01*
X2241000Y900000D02*
X2250000Y900000D01*
X2241000Y900000D02*
X756000Y900000D01*
X750000Y895866D01*
X2250000Y895866D02*
X2250000Y900000D01*
X2286000Y882000D02*
X3096000Y882000D01*
X2286000Y882000D02*
X2259000Y909000D01*
X2250000Y909000D01*
X2241000Y900000D01*
X3096000Y882000D02*
X3100000Y883465D01*
X2250000Y895866D02*
X2241000Y900000D01*
X3348000Y1368000D02*
X3348000Y1773000D01*
X3348000Y1368000D02*
X3105000Y1125000D01*
X3105000Y891000D01*
X3348000Y1773000D02*
X3350000Y1775000D01*
X3105000Y891000D02*
X3100000Y883465D01*
M02*
