G04 EAGLE Gerber RS-274X export*
G75*
%MOIN*%
%FSLAX36Y36*%
%LPD*%
%INTop Copper Layer*%
%IPPOS*%
%AMOC8*
5,1,8,0,0,1.08239X$1,22.5*%
G01*
%ADD10C,0.060000*%
%ADD11R,0.094488X0.094488*%
%ADD12R,0.088583X0.088583*%
%ADD13C,0.012000*%


D10*
X1850000Y3630000D02*
X1850000Y3570000D01*
X1750000Y3570000D02*
X1750000Y3630000D01*
X1650000Y3630000D02*
X1650000Y3570000D01*
X1550000Y3570000D02*
X1550000Y3630000D01*
D11*
X300000Y3100000D03*
X550000Y3200000D03*
X2850000Y2250000D03*
X3100000Y2350000D03*
X2850000Y1400000D03*
X3100000Y1500000D03*
X2850000Y3100000D03*
X3100000Y3200000D03*
X300000Y2250000D03*
X550000Y2350000D03*
X300000Y1400000D03*
X550000Y1500000D03*
X1150000Y3100000D03*
X1400000Y3200000D03*
X1150000Y2250000D03*
X1400000Y2350000D03*
X1150000Y1400000D03*
X1400000Y1500000D03*
X2000000Y3100000D03*
X2250000Y3200000D03*
X2000000Y2250000D03*
X2250000Y2350000D03*
X2000000Y1400000D03*
X2250000Y1500000D03*
D12*
X2350000Y550000D03*
X2600000Y650000D03*
X650000Y550000D03*
X900000Y650000D03*
D10*
X3620000Y1600000D02*
X3680000Y1600000D01*
X3680000Y1700000D02*
X3620000Y1700000D01*
X3620000Y1800000D02*
X3680000Y1800000D01*
X3680000Y1900000D02*
X3620000Y1900000D01*
X3620000Y200000D02*
X3680000Y200000D01*
X3680000Y300000D02*
X3620000Y300000D01*
X3620000Y400000D02*
X3680000Y400000D01*
X3680000Y500000D02*
X3620000Y500000D01*
D13*
X3650000Y1900000D02*
X3645000Y1908000D01*
X1550000Y3600000D02*
X954000Y3600000D01*
X567000Y3213000D02*
X558000Y3204000D01*
X567000Y3213000D02*
X954000Y3600000D01*
X558000Y3204000D02*
X550000Y3200000D01*
X558000Y2790000D02*
X558000Y2358000D01*
X558000Y2790000D02*
X738000Y2970000D01*
X738000Y3042000D01*
X567000Y3213000D01*
X558000Y2358000D02*
X550000Y2350000D01*
X550000Y3200000D02*
X567000Y3213000D01*
X2106000Y648000D02*
X2592000Y648000D01*
X2106000Y648000D02*
X2043000Y585000D01*
X855000Y585000D01*
X738000Y702000D01*
X738000Y1332000D01*
X576000Y1494000D01*
X558000Y1494000D01*
X2592000Y648000D02*
X2600000Y650000D01*
X558000Y1494000D02*
X550000Y1500000D01*
X675000Y2232000D02*
X558000Y2349000D01*
X675000Y2232000D02*
X684000Y2232000D01*
X738000Y2178000D01*
X738000Y1656000D01*
X576000Y1494000D01*
X558000Y2349000D02*
X550000Y2350000D01*
X550000Y1500000D02*
X576000Y1494000D01*
X900000Y1269000D02*
X900000Y650000D01*
X900000Y1269000D02*
X1125000Y1494000D01*
X1395000Y1494000D01*
X1400000Y1500000D01*
X1647000Y3447000D02*
X1647000Y3600000D01*
X1413000Y3213000D02*
X1400000Y3200000D01*
X1413000Y3213000D02*
X1647000Y3447000D01*
X1647000Y3600000D02*
X1650000Y3600000D01*
X1404000Y2781000D02*
X1404000Y2367000D01*
X1404000Y2358000D01*
X1404000Y2781000D02*
X1584000Y2961000D01*
X1584000Y3042000D01*
X1413000Y3213000D01*
X1404000Y2358000D02*
X1400000Y2350000D01*
X1400000Y3200000D02*
X1404000Y3204000D01*
X1404000Y1935000D02*
X1404000Y1503000D01*
X1404000Y1935000D02*
X1584000Y2115000D01*
X1584000Y2187000D01*
X1404000Y2367000D01*
X1404000Y1503000D02*
X1400000Y1500000D01*
X1400000Y2350000D02*
X1404000Y2367000D01*
X2151000Y3204000D02*
X1755000Y3600000D01*
X2151000Y3204000D02*
X2250000Y3204000D01*
X1755000Y3600000D02*
X1750000Y3600000D01*
X2250000Y3204000D02*
X2250000Y3200000D01*
X2250000Y1926000D02*
X2250000Y1500000D01*
X2250000Y1926000D02*
X2439000Y2115000D01*
X2439000Y2178000D01*
X2268000Y2349000D01*
X2250000Y2349000D01*
X2250000Y2350000D01*
X2250000Y3195000D02*
X2277000Y3195000D01*
X2439000Y3033000D01*
X2439000Y2520000D01*
X2268000Y2349000D01*
X2250000Y3195000D02*
X2250000Y3200000D01*
X2250000Y2350000D02*
X2268000Y2349000D01*
X3105000Y1935000D02*
X3105000Y1503000D01*
X3105000Y1935000D02*
X3285000Y2115000D01*
X3285000Y2187000D01*
X3123000Y2349000D01*
X3105000Y2349000D01*
X3105000Y1503000D02*
X3100000Y1500000D01*
X3105000Y2349000D02*
X3100000Y2350000D01*
X2700000Y3600000D02*
X1850000Y3600000D01*
X2700000Y3600000D02*
X3100000Y3200000D01*
X3105000Y2781000D02*
X3105000Y2358000D01*
X3105000Y2781000D02*
X3285000Y2961000D01*
X3285000Y3033000D01*
X3123000Y3195000D01*
X3105000Y3195000D01*
X3105000Y2358000D02*
X3100000Y2350000D01*
X3105000Y3195000D02*
X3100000Y3200000D01*
M02*
