M48
;GenerationSoftware,Autodesk,EAGLE,9.3.0*%
;CreationDate,2019-07-14T14:42:30Z*%
FMAT,2
ICI,OFF
INCH,TZ,00.0000
T8C0.0400
T7C0.0591
T6C0.0630
T5C0.0669
T4C0.0709
T3C0.1201
T2C0.1575
T1C0.1614
%
G90
M72
T1
X4250Y27250
X26750Y27250
X11750Y19750
X26750Y19750
X4250Y12250
X26750Y12250
X4250Y19750
X11750Y27250
X11750Y12250
X19250Y27250
X19250Y19750
X19250Y12250
T2
X12700Y1500
X23000Y4750
X27700Y1500
X8000Y4750
X18300Y1500
X3300Y1500
T3
X27700Y7500
X18300Y7500
X3300Y7500
X12700Y7500
T4
X9750Y19750
X28750Y19750
X2250Y27250
X9750Y12250
X13750Y12250
X6250Y27250
X17250Y27250
X21250Y27250
X24750Y19750
X17250Y19750
X21250Y19750
X24750Y12250
X17250Y12250
X28750Y12250
X24750Y27250
X28750Y27250
X2250Y19750
X6250Y19750
X13750Y19750
X2250Y12250
X6250Y12250
X9750Y27250
X13750Y27250
X21250Y12250
T5
X21000Y4750
X25000Y4750
X6000Y4750
X10000Y4750
T6
X10250Y13250
X12750Y29250
X10250Y20750
X12750Y21750
X2750Y28250
X5250Y29250
X25250Y20750
X27750Y21750
X25250Y13250
X27750Y14250
X25250Y28250
X27750Y29250
X2750Y20750
X5250Y21750
X2750Y13250
X5250Y14250
X10250Y28250
X12750Y14250
X17750Y28250
X20250Y29250
X17750Y20750
X20250Y21750
X17750Y13250
X20250Y14250
T7
X21500Y5750
X24000Y6750
X6500Y5750
X9000Y6750
T8
X16500Y33000
X15500Y33000
X14500Y33000
X13500Y33000
X33500Y17750
X33500Y18750
X33500Y19750
X33500Y20750
X33500Y9500
X33500Y10500
X33500Y11500
X33500Y12500
M30